<svg width="327" height="243" viewBox="0 0 327 243" fill="none" xmlns="http://www.w3.org/2000/svg">
<path d="M326.25 213.698H0.5V213.861H326.25V213.698Z" fill="#EBEBEB"/>
<path d="M154.906 184.641H29.1081C28.1226 184.639 27.178 184.247 26.4818 183.549C25.7856 182.852 25.3945 181.907 25.3945 180.921V4.08446C25.4031 3.10462 25.7979 2.16774 26.4932 1.4773C27.1886 0.786868 28.1282 0.398651 29.1081 0.396973H154.906C155.893 0.396973 156.839 0.788907 157.537 1.48655C158.234 2.1842 158.626 3.13041 158.626 4.11704V180.921C158.626 181.908 158.234 182.854 157.537 183.552C156.839 184.249 155.893 184.641 154.906 184.641ZM29.1081 0.527273C28.1658 0.528999 27.2627 0.904534 26.597 1.57145C25.9313 2.23836 25.5574 3.14216 25.5574 4.08446V180.921C25.5574 181.863 25.9313 182.767 26.597 183.434C27.2627 184.101 28.1658 184.477 29.1081 184.478H154.906C155.849 184.477 156.753 184.101 157.42 183.435C158.086 182.768 158.462 181.864 158.463 180.921V4.08446C158.462 3.14157 158.086 2.23778 157.42 1.57105C156.753 0.904322 155.849 0.528995 154.906 0.527273H29.1081Z" fill="#EBEBEB"/>
<path d="M295.829 184.641H170.025C169.039 184.639 168.093 184.247 167.396 183.55C166.699 182.852 166.306 181.907 166.305 180.921V4.08446C166.315 3.10403 166.711 2.16715 167.408 1.47689C168.104 0.78664 169.044 0.398633 170.025 0.396973H295.829C296.808 0.400363 297.746 0.789338 298.44 1.47959C299.134 2.16984 299.528 3.10575 299.536 4.08446V180.921C299.536 181.905 299.146 182.85 298.451 183.547C297.757 184.244 296.814 184.638 295.829 184.641ZM170.025 0.527273C169.082 0.528995 168.178 0.904322 167.511 1.57105C166.845 2.23778 166.469 3.14157 166.468 4.08446V180.921C166.469 181.864 166.845 182.768 167.511 183.435C168.178 184.101 169.082 184.477 170.025 184.478H295.829C296.772 184.477 297.676 184.101 298.343 183.435C299.01 182.768 299.385 181.864 299.387 180.921V4.08446C299.385 3.14157 299.01 2.23778 298.343 1.57105C297.676 0.904322 296.772 0.528995 295.829 0.527273H170.025Z" fill="#EBEBEB"/>
<path d="M131.087 219.9H114.148V220.063H131.087V219.9Z" fill="#EBEBEB"/>
<path d="M69.9258 218.135H34.6797V218.298H69.9258V218.135Z" fill="#EBEBEB"/>
<path d="M113.495 225.953H96.3477V226.116H113.495V225.953Z" fill="#EBEBEB"/>
<path d="M194.032 224.858H168.734V225.021H194.032V224.858Z" fill="#EBEBEB"/>
<path d="M206.797 224.858H199.832V225.021H206.797V224.858Z" fill="#EBEBEB"/>
<path d="M293.616 222.109H258.07V222.272H293.616V222.109Z" fill="#EBEBEB"/>
<path d="M230.621 172.335H270.61C278.246 172.335 284.481 167.592 284.637 161.67L286.129 124.534C286.246 120.091 281.64 116.442 275.913 116.442H250.844C245.632 116.442 241.28 119.465 240.693 123.472L230.621 172.335Z" fill="#E6E6E6"/>
<path d="M212.175 166.386H252.438V172.334H209.406C208.985 172.333 208.582 172.165 208.284 171.867C207.986 171.569 207.818 171.166 207.816 170.745C207.816 169.589 208.276 168.48 209.093 167.663C209.91 166.845 211.019 166.386 212.175 166.386Z" fill="#E6E6E6"/>
<path d="M248.415 213.698H246.59L242.304 197.652L241.392 194.251L235.691 173.045H213.944L203.064 213.718H201.246L212.322 172.211C212.39 172.037 212.513 171.89 212.671 171.79C212.829 171.69 213.015 171.644 213.201 171.657H236.421C236.606 171.644 236.791 171.691 236.948 171.791C237.105 171.89 237.226 172.037 237.294 172.211L242.284 190.857L243.19 194.271L248.415 213.698Z" fill="#E6E6E6"/>
<path d="M283.356 213.698H281.532L270.652 173.045H248.892L243.211 194.27L242.305 197.671L238.012 213.718H236.188L241.399 194.27L242.312 190.857L247.296 172.211C247.363 172.037 247.484 171.89 247.641 171.791C247.798 171.691 247.983 171.644 248.169 171.657H271.388C271.574 171.644 271.758 171.691 271.915 171.791C272.072 171.89 272.193 172.037 272.261 172.211L283.356 213.698Z" fill="#E6E6E6"/>
<path d="M68.5417 149.643H48.0781V209.88H68.5417V149.643Z" fill="#F0F0F0"/>
<path d="M142.104 209.88H52.0078V213.698H142.104V209.88Z" fill="#F0F0F0"/>
<path d="M68.5418 209.88H146.031V149.643H68.5418L68.5418 209.88Z" fill="#F5F5F5"/>
<path d="M76.5909 176.817H137.988V157.063H76.5909V176.817Z" fill="#F0F0F0"/>
<path d="M76.5909 202.466H137.988V182.713H76.5909V202.466Z" fill="#F0F0F0"/>
<path d="M116.357 165.585H98.2195C97.6474 165.585 97.1836 166.049 97.1836 166.621V167.259C97.1836 167.831 97.6474 168.295 98.2195 168.295H116.357C116.929 168.295 117.393 167.831 117.393 167.259V166.621C117.393 166.049 116.929 165.585 116.357 165.585Z" fill="#F5F5F5"/>
<path d="M116.357 191.234H98.2195C97.6474 191.234 97.1836 191.698 97.1836 192.27V192.909C97.1836 193.481 97.6474 193.945 98.2195 193.945H116.357C116.929 193.945 117.393 193.481 117.393 192.909V192.27C117.393 191.698 116.929 191.234 116.357 191.234Z" fill="#F5F5F5"/>
<path d="M137.313 137.355H122.328C122.459 136.991 122.589 136.6 122.719 136.183C122.725 136.161 122.725 136.139 122.719 136.118C122.798 135.866 122.876 135.605 122.954 135.336C123.241 135.678 123.594 135.957 123.993 136.156C124.392 136.356 124.828 136.471 125.273 136.495H125.527C125.952 136.457 126.351 136.277 126.661 135.986C126.972 135.694 127.176 135.307 127.241 134.886C127.245 134.836 127.233 134.786 127.208 134.743C127.182 134.7 127.143 134.665 127.097 134.645C126.505 134.31 125.841 134.122 125.161 134.096C124.481 134.07 123.805 134.207 123.188 134.495C123.345 133.876 123.495 133.225 123.631 132.541C123.641 132.511 123.641 132.479 123.631 132.45C123.671 132.261 123.71 132.065 123.742 131.87C124.589 132.717 125.338 133.127 126.029 133.127C126.869 133.127 127.586 132.476 128.225 131.238C128.244 131.186 128.244 131.13 128.225 131.078C128.206 131.027 128.168 130.984 128.12 130.958C126.472 129.889 124.667 130.619 123.873 131.049C123.944 130.547 124.009 130.033 124.055 129.511C124.094 129.075 124.12 128.638 124.14 128.208C124.378 128.506 124.674 128.754 125.01 128.936C125.346 129.119 125.714 129.232 126.094 129.27H126.244C127.163 129.186 127.866 128.274 128.133 126.847C128.14 126.787 128.124 126.726 128.088 126.677C128.051 126.626 127.998 126.59 127.938 126.573C127.292 126.387 126.612 126.352 125.951 126.472C125.29 126.592 124.666 126.863 124.127 127.264C124.127 126.847 124.127 126.43 124.074 126.013C124.225 126.04 124.378 126.056 124.531 126.058C125.017 126.032 125.489 125.889 125.908 125.64C126.326 125.392 126.679 125.046 126.935 124.632C126.951 124.604 126.959 124.572 126.959 124.54C126.959 124.508 126.951 124.477 126.935 124.449C126.92 124.418 126.899 124.391 126.873 124.368C126.847 124.346 126.817 124.329 126.785 124.319C126.428 124.141 126.037 124.04 125.639 124.023C125.24 124.006 124.843 124.074 124.472 124.221C124.127 124.423 123.873 124.75 123.762 125.133C123.284 124.251 122.613 123.488 121.8 122.901C120.987 122.313 120.052 121.916 119.064 121.739C119.038 121.732 119.011 121.732 118.984 121.739C118.958 121.746 118.934 121.759 118.915 121.778C118.894 121.796 118.879 121.82 118.871 121.847C118.863 121.873 118.862 121.901 118.869 121.928C119.084 123.316 119.481 125.01 120.693 125.837C121.167 126.148 121.723 126.309 122.289 126.299C122.758 126.291 123.224 126.214 123.671 126.071C123.739 127.058 123.739 128.049 123.671 129.036C122.388 127.67 120.761 126.675 118.96 126.156C118.937 126.148 118.911 126.146 118.887 126.149C118.862 126.152 118.838 126.161 118.817 126.175C118.797 126.189 118.779 126.207 118.767 126.229C118.754 126.25 118.747 126.275 118.745 126.299C118.688 126.818 118.755 127.343 118.939 127.831C119.124 128.319 119.421 128.756 119.807 129.107C120.515 129.661 121.398 129.943 122.296 129.902C122.734 129.898 123.17 129.853 123.599 129.765C123.514 130.58 123.397 131.381 123.254 132.143C122.511 131.596 120.387 130.189 118.517 130.775C118.492 130.784 118.47 130.798 118.451 130.818C118.433 130.837 118.42 130.86 118.413 130.886C118.392 130.938 118.392 130.997 118.413 131.049C119.234 132.352 120.003 133.101 120.83 133.355C121.041 133.419 121.261 133.452 121.482 133.453C122.039 133.433 122.581 133.264 123.052 132.964C122.83 133.981 122.583 134.919 122.328 135.766C121.756 135.264 121.072 134.906 120.333 134.721C119.594 134.536 118.822 134.53 118.081 134.704C118.058 134.709 118.037 134.718 118.018 134.733C118 134.747 117.985 134.765 117.974 134.785C117.964 134.806 117.958 134.828 117.957 134.851C117.956 134.875 117.961 134.898 117.97 134.919C118.123 135.359 118.368 135.761 118.69 136.098C119.011 136.435 119.401 136.7 119.833 136.873C120.144 136.999 120.476 137.063 120.81 137.062C121.236 137.06 121.653 136.948 122.022 136.736L121.781 137.44H109.188C108.875 135.974 108.536 134.293 108.334 132.443C108.832 132.612 109.353 132.698 109.878 132.697C111.084 132.675 112.255 132.292 113.24 131.596C114.901 130.463 116.068 128.684 116.133 127.159C116.137 127.124 116.132 127.088 116.12 127.054C116.107 127.021 116.086 126.991 116.059 126.967C116.032 126.943 116 126.927 115.965 126.918C115.93 126.91 115.894 126.91 115.859 126.918C112.022 127.309 109.305 129.772 108.165 131.01C107.983 129.244 107.889 127.469 107.885 125.694C108.589 126.175 109.416 126.444 110.269 126.469C110.656 126.468 111.04 126.409 111.409 126.293C113.455 125.641 115.318 123.42 117.064 121.081C117.095 121.043 117.117 120.999 117.131 120.952C117.144 120.905 117.148 120.856 117.143 120.807C117.138 120.767 117.121 120.728 117.094 120.697C117.068 120.665 117.032 120.643 116.993 120.631C113.585 119.583 109.292 123.185 107.904 124.475C107.941 122.891 108.067 121.309 108.282 119.739C109.042 119.891 109.814 119.97 110.588 119.973C112.347 120.031 114.073 119.494 115.488 118.449C116.267 117.824 116.9 117.037 117.345 116.142C117.789 115.248 118.033 114.268 118.061 113.269C118.061 113.087 117.931 112.983 117.729 113.035C113.52 114.084 109.989 117.009 108.497 118.39C108.543 118.11 108.595 117.823 108.653 117.537C108.674 117.473 108.674 117.405 108.653 117.341C108.653 116.123 108.263 115.237 107.468 114.787C106.53 114.26 105.09 114.331 103.2 115.015C103.084 115.057 102.985 115.138 102.92 115.244C102.897 115.29 102.885 115.341 102.885 115.393C102.885 115.445 102.897 115.497 102.92 115.543C103.305 116.291 103.883 116.922 104.595 117.37C105.307 117.818 106.125 118.067 106.966 118.091C107.272 118.085 107.578 118.053 107.878 117.993C107.731 118.788 107.607 119.583 107.507 120.377C106.523 119.563 104.249 118.273 100.601 119.198C100.493 119.225 100.396 119.287 100.327 119.374C100.258 119.448 100.221 119.546 100.223 119.648C100.405 122.254 101.526 123.895 103.168 124.039H103.402C104.269 124.039 105.585 123.641 107.311 122.039C107.163 123.824 107.117 125.616 107.175 127.407C105.819 126.638 102.614 125.316 99.3566 127.329C99.2734 127.37 99.2064 127.438 99.1663 127.522C99.1262 127.606 99.1152 127.701 99.1351 127.791C100.021 130.085 101.194 131.199 102.718 131.199H102.757C104.028 131.199 105.5 130.404 107.246 128.834C107.35 130.554 107.526 132.196 107.748 133.72C106.445 132.71 104.64 132.873 102.093 134.196C101.979 134.254 101.889 134.351 101.839 134.469C101.818 134.515 101.811 134.566 101.819 134.616C101.827 134.666 101.85 134.713 101.884 134.749C102.903 135.675 104.216 136.208 105.591 136.254C106.451 136.257 107.296 136.032 108.041 135.603C108.158 136.254 108.282 136.867 108.399 137.46H86.6914C87.1084 136.339 87.5644 135.03 87.9944 133.551C88.0142 133.507 88.0274 133.461 88.0335 133.414C88.1985 132.884 88.3614 132.337 88.5221 131.772C90.0206 133.349 91.7405 134.215 93.4084 134.215C93.5869 134.214 93.7653 134.203 93.9426 134.183C94.8555 134.106 95.7143 133.718 96.375 133.083C97.0357 132.449 97.4581 131.606 97.5715 130.697C97.5778 130.592 97.5527 130.488 97.4993 130.397C97.4459 130.307 97.3666 130.234 97.2718 130.189C93.4605 128.287 90.5092 129.147 89.0368 129.87C89.3691 128.567 89.6883 127.199 89.9685 125.772C89.9982 125.713 90.0117 125.648 90.0075 125.583C90.0857 125.179 90.1574 124.775 90.2291 124.365C92.0142 126.137 93.5973 127.01 95.0436 127.01C96.8092 127.01 98.3011 125.707 99.6628 123.029C99.701 122.921 99.7004 122.804 99.6612 122.697C99.6219 122.59 99.5464 122.5 99.4478 122.443C95.9688 120.188 92.177 121.726 90.5027 122.632C90.659 121.57 90.7893 120.488 90.8871 119.374C90.8871 119.374 90.8871 119.335 90.8871 119.322C90.9653 118.41 91.0174 117.491 91.0499 116.56C92.8025 118.345 94.2358 118.794 95.2261 118.794H95.5453C97.4998 118.599 98.9592 116.69 99.5194 113.68C99.5279 113.619 99.5242 113.557 99.5085 113.498C99.4928 113.439 99.4656 113.383 99.4282 113.335C99.3509 113.226 99.238 113.148 99.109 113.113C97.7489 112.721 96.3167 112.647 94.9236 112.898C93.5304 113.149 92.2139 113.717 91.076 114.559C91.076 113.686 91.0369 112.807 90.9783 111.953C91.2963 112.014 91.6189 112.046 91.9425 112.051C95.1609 112.051 96.9134 109.185 96.9916 109.048C97.0224 108.99 97.0385 108.925 97.0385 108.859C97.0385 108.793 97.0224 108.728 96.9916 108.67C96.9242 108.538 96.8105 108.436 96.6724 108.383C94.6006 107.621 92.9588 107.556 91.8057 108.188C91.076 108.609 90.5404 109.299 90.3138 110.11C89.3084 108.251 87.8983 106.642 86.1876 105.402C84.477 104.161 82.5095 103.321 80.4305 102.943C80.3734 102.931 80.3141 102.932 80.2575 102.947C80.2009 102.961 80.1485 102.989 80.1047 103.028C80.0628 103.067 80.0318 103.117 80.0147 103.171C79.9975 103.226 79.9949 103.284 80.007 103.341C80.4566 106.259 81.31 109.856 83.8574 111.53C84.8512 112.187 86.0216 112.525 87.2126 112.501C88.199 112.483 89.1776 112.322 90.1183 112.025C90.2476 114.104 90.2368 116.189 90.0857 118.266C88.6198 116.755 84.9324 113.374 80.1699 112.208C80.12 112.19 80.0667 112.185 80.0143 112.192C79.9619 112.199 79.9118 112.218 79.8681 112.248C79.8244 112.277 79.7883 112.317 79.7627 112.363C79.737 112.409 79.7225 112.461 79.7204 112.514C79.5835 115.022 80.3719 117.074 81.942 118.41C83.4243 119.572 85.2721 120.168 87.154 120.091C88.0842 120.082 89.0114 119.983 89.9228 119.798C89.7535 121.517 89.4994 123.198 89.1997 124.808C87.6426 123.648 83.1603 120.703 79.2317 121.934C79.1789 121.949 79.1307 121.977 79.0919 122.016C79.0531 122.055 79.025 122.103 79.0102 122.156C78.9973 122.215 78.9965 122.276 79.0077 122.335C79.0189 122.395 79.0419 122.451 79.0754 122.501C80.8084 125.283 82.4241 126.827 84.1701 127.355C84.6193 127.495 85.0873 127.565 85.5578 127.563C86.729 127.521 87.8674 127.166 88.8544 126.534C88.3983 128.664 87.8706 130.658 87.3299 132.437C86.1287 131.376 84.691 130.618 83.137 130.227C81.583 129.836 79.9579 129.823 78.3978 130.189C78.3507 130.2 78.3065 130.221 78.2681 130.25C78.2297 130.279 78.1981 130.316 78.1752 130.359C78.1524 130.402 78.139 130.449 78.1358 130.497C78.1326 130.545 78.1397 130.593 78.1568 130.638C78.4786 131.562 78.9938 132.407 79.6678 133.116C80.3419 133.824 81.1594 134.381 82.0658 134.749C82.7185 135.012 83.4146 135.149 84.118 135.153C85.0163 135.147 85.8973 134.905 86.6719 134.45C86.307 135.551 85.9552 136.522 85.6295 137.375H71.5115C71.0945 136.131 70.6645 134.717 70.2801 133.173C70.7243 133.317 71.1879 133.391 71.6548 133.394C72.9304 133.359 74.1444 132.838 75.0498 131.939C75.9552 131.04 76.4838 129.829 76.528 128.554C76.5258 128.522 76.5168 128.491 76.5018 128.463C76.4868 128.434 76.466 128.41 76.4408 128.39C76.4157 128.37 76.3866 128.356 76.3556 128.348C76.3246 128.341 76.2924 128.34 76.2609 128.345C75.0304 128.5 73.8424 128.895 72.7648 129.509C71.6872 130.122 70.741 130.942 69.9804 131.922C69.6482 130.456 69.3289 128.892 69.1595 127.277C69.8101 127.682 70.5566 127.906 71.3225 127.928C71.6566 127.928 71.9886 127.875 72.3063 127.772C74.0263 127.225 75.427 125.264 76.6844 123.211C76.7062 123.177 76.7209 123.138 76.7276 123.098C76.7343 123.058 76.7329 123.017 76.7235 122.977C76.7146 122.94 76.696 122.906 76.6697 122.878C76.6433 122.851 76.6102 122.831 76.5736 122.82C73.4855 121.908 70.1238 125.055 69.0423 126.176C68.9081 124.801 68.8493 123.42 68.8664 122.039C69.538 122.172 70.2208 122.242 70.9056 122.247C72.3959 122.311 73.8594 121.837 75.0296 120.912C75.6481 120.343 76.1234 119.637 76.4167 118.85C76.7099 118.063 76.8128 117.218 76.7169 116.384C76.7154 116.347 76.7051 116.312 76.687 116.28C76.6689 116.248 76.6435 116.222 76.6128 116.202C76.5822 116.182 76.5473 116.17 76.511 116.166C76.4747 116.163 76.4381 116.168 76.4042 116.182C72.834 117.1 70.0651 119.654 68.9055 120.866C68.9055 120.612 68.9055 120.364 68.9511 120.117C68.9577 120.057 68.9414 119.996 68.9055 119.947C68.8929 119.496 68.767 119.054 68.5393 118.664C68.3117 118.273 67.9895 117.946 67.6025 117.713C66.7229 117.25 65.4786 117.315 63.8954 117.915C63.8475 117.932 63.8036 117.958 63.7666 117.993C63.7296 118.028 63.7002 118.07 63.6804 118.117C63.6581 118.155 63.6464 118.199 63.6464 118.244C63.6464 118.288 63.6581 118.332 63.6804 118.371C63.7456 118.475 65.0746 120.599 67.4917 120.599C67.7565 120.595 68.0204 120.567 68.28 120.514C68.2344 121.211 68.2084 121.902 68.2084 122.599C67.3296 121.964 66.316 121.542 65.2468 121.364C64.1775 121.187 63.0817 121.259 62.0452 121.576C61.9577 121.602 61.8818 121.657 61.8302 121.732C61.8033 121.766 61.7837 121.805 61.7725 121.846C61.7613 121.888 61.7587 121.931 61.765 121.974C62.2015 124.254 63.3417 125.687 64.814 125.811H64.9965C65.7522 125.811 66.8598 125.459 68.2149 124.058C68.2755 125.629 68.4278 127.196 68.6709 128.749C67.407 128.098 64.4818 126.925 61.8237 128.684C61.7548 128.723 61.7019 128.784 61.6744 128.858C61.6469 128.932 61.6467 129.014 61.6738 129.088C62.7032 131.088 63.8433 132.065 65.1724 132.065H65.2115C66.3125 132.065 67.5178 131.368 68.8794 130C69.153 131.505 69.4788 132.938 69.8371 134.267C68.6188 133.388 67.0357 133.525 64.9509 134.684C64.904 134.708 64.8625 134.741 64.8288 134.781C64.7952 134.822 64.7702 134.868 64.7554 134.919C64.7442 134.963 64.7449 135.009 64.7575 135.052C64.7701 135.096 64.7941 135.135 64.8271 135.166C65.7899 135.957 66.9832 136.414 68.2279 136.469C68.9593 136.468 69.6762 136.265 70.2997 135.883C70.4495 136.385 70.6059 136.873 70.7557 137.336H57.0742V139.942H62.5077L66.332 149.63H128.029L131.853 139.942H137.313V137.355Z" fill="#E6E6E6"/>
<path d="M224.452 8.69727H48.0781V91.7505H50.1825L51.4008 93.7832H64.6262L65.8445 91.7505H224.452V8.69727Z" fill="#E0E0E0"/>
<path d="M225.189 8.69727H48.8086V91.7505H50.9129L52.1378 93.7832H65.3567L66.5815 91.7505H225.189V8.69727Z" fill="#E6E6E6"/>
<path d="M221.555 88.1215V12.3325L52.4449 12.3325V88.1215L221.555 88.1215Z" fill="#FAFAFA"/>
<path d="M175.91 88.1215L138.201 12.3325H122.363L160.066 88.1215H175.91Z" fill="white"/>
<path d="M152.49 88.1215L114.781 12.3325H107.758L145.467 88.1215H152.49Z" fill="white"/>
<path d="M54.808 92.9489C55.3297 92.9489 55.7526 92.526 55.7526 92.0042C55.7526 91.4825 55.3297 91.0596 54.808 91.0596C54.2862 91.0596 53.8633 91.4825 53.8633 92.0042C53.8633 92.526 54.2862 92.9489 54.808 92.9489Z" fill="#FAFAFA"/>
<path d="M57.804 92.9489C58.3258 92.9489 58.7487 92.526 58.7487 92.0042C58.7487 91.4825 58.3258 91.0596 57.804 91.0596C57.2823 91.0596 56.8594 91.4825 56.8594 92.0042C56.8594 92.526 57.2823 92.9489 57.804 92.9489Z" fill="#F0F0F0"/>
<path d="M163.134 242.59C232.736 242.59 289.159 232.504 289.159 220.061C289.159 207.618 232.736 197.531 163.134 197.531C93.5327 197.531 37.1094 207.618 37.1094 220.061C37.1094 232.504 93.5327 242.59 163.134 242.59Z" fill="#F5F5F5"/>
<path d="M276.163 61.0708H275.512V64.6606H276.163V61.0708Z" fill="#D2AE6D"/>
<path d="M276.163 47.2852H275.512V57.9958H276.163V47.2852Z" fill="#D2AE6D"/>
<path d="M266.063 24.0332H166.677C164.604 24.0332 162.615 24.8569 161.149 26.323C159.683 27.7892 158.859 29.7777 158.859 31.8512V64.5891L148.051 75.3975L158.859 86.2124V152.157C158.859 154.231 159.683 156.219 161.149 157.685C162.615 159.152 164.604 159.975 166.677 159.975H266.063C268.137 159.975 270.125 159.152 271.592 157.685C273.058 156.219 273.881 154.231 273.881 152.157V31.8512C273.881 29.7777 273.058 27.7892 271.592 26.323C270.125 24.8569 268.137 24.0332 266.063 24.0332Z" fill="#D2AE6D"/>
<path opacity="0.1" d="M203.513 159.975H177.707L203.8 24.0332H229.606L203.513 159.975Z" fill="white"/>
<path opacity="0.1" d="M223.285 159.975H214.027L240.113 24.0332H249.371L223.285 159.975Z" fill="white"/>
<path d="M223.697 55.3766C223.697 52.6828 222.626 50.0994 220.722 48.1946C218.817 46.2898 216.233 45.2197 213.54 45.2197C210.846 45.2197 208.262 46.2898 206.358 48.1946C204.453 50.0994 203.383 52.6828 203.383 55.3766V71.9703L223.697 64.5888V55.3766Z" fill="#263238"/>
<path d="M205.179 80.0101L204.235 99.1577L204.13 101.588C204.07 102.539 203.917 103.481 203.674 104.402C203.231 106.074 202.645 107.704 201.922 109.276C200.548 112.292 198.906 115.179 197.016 117.901L194.664 116.598C195.869 113.699 197.055 110.735 197.967 107.79C198.429 106.37 198.793 104.921 199.055 103.451C199.166 102.806 199.22 102.152 199.218 101.497L199.179 99.1121C199.149 95.8676 199.183 92.6297 199.283 89.3983C199.368 86.1408 199.511 82.9484 199.739 79.7104L205.179 80.0101Z" fill="#FFB573"/>
<path d="M201.474 73.5147C199.272 74.075 197.734 83.1178 197.734 83.1178L203.793 87.2418C203.793 87.2418 209.598 78.1208 207.911 75.6972C206.152 73.1759 204.679 72.7133 201.474 73.5147Z" fill="#263238"/>
<path opacity="0.2" d="M201.668 75.5342L199.98 84.6487L203.381 86.9615L201.668 75.5342Z" fill="black"/>
<path d="M194.646 116.573L193.121 121.166L198.229 119.328C198.229 119.328 198.763 115.947 197.004 114.605L196.509 114.8C196.076 114.918 195.678 115.141 195.353 115.451C195.028 115.76 194.785 116.146 194.646 116.573Z" fill="#FFB573"/>
<path d="M193.883 125.061L198.346 124.188L198.248 119.328L193.141 121.165L193.883 125.061Z" fill="#FFB573"/>
<path d="M201.473 73.5145C201.473 73.5145 198.925 74.407 204.02 105.705H225.683C225.318 96.8903 225.311 91.4503 229.52 73.3581C226.487 72.7298 223.413 72.3248 220.321 72.1463C217.046 71.9115 213.758 71.9115 210.483 72.1463C206.261 72.5307 201.473 73.5145 201.473 73.5145Z" fill="#263238"/>
<path opacity="0.7" d="M207.846 96.2002H213.215L209.495 85.6133H204.133L207.846 96.2002Z" fill="black"/>
<path d="M207.482 96.2002H212.85L209.13 85.6133H203.762L207.482 96.2002Z" fill="#D2AE6D"/>
<path d="M219.352 61.0708C218.733 64.2371 218.108 70.0354 220.323 72.1463C220.323 72.1463 219.463 75.3582 213.58 75.3582C207.111 75.3582 210.485 72.1463 210.485 72.1463C214.016 71.3059 213.925 68.6868 213.313 66.2242L219.352 61.0708Z" fill="#FFB573"/>
<path opacity="0.2" d="M216.889 63.1753L213.312 66.1983C213.468 66.7697 213.57 67.3541 213.619 67.9443C214.967 67.7488 216.818 66.2699 216.961 64.8562C217.039 64.2962 217.015 63.7266 216.889 63.1753Z" fill="black"/>
<path d="M220.271 53.1681C220.922 58.4192 221.3 60.6278 219.17 63.7811C215.964 68.524 209.397 68.1657 207.169 63.2077C205.214 58.745 204.472 50.9009 209.175 47.891C210.209 47.2225 211.397 46.8296 212.626 46.7496C213.855 46.6697 215.083 46.9053 216.195 47.4342C217.307 47.963 218.265 48.7675 218.979 49.7711C219.692 50.7748 220.137 51.9441 220.271 53.1681Z" fill="#FFB573"/>
<path d="M207.422 49.1679C207.389 49.2786 215.24 57.6374 220.778 56.9533C221.937 55.2138 221.397 49.7477 219.299 48.588C217.201 47.4284 214.087 45.7996 211.982 46.1644C209.878 46.5293 207.422 49.1679 207.422 49.1679Z" fill="#263238"/>
<path d="M204.022 105.705C204.022 105.705 197.735 123.947 200.836 159.975H218.974C220.277 140.43 219.886 105.705 219.886 105.705H204.022Z" fill="white"/>
<path d="M225.684 105.705H210.016C210.016 105.705 213.983 142.143 216.531 159.975H232.753C234.681 114.605 225.684 105.705 225.684 105.705Z" fill="white"/>
<path d="M213.07 159.975C213.07 159.975 211.513 136.469 213.395 130.098C215.239 139.583 220.562 159.975 220.562 159.975H213.07Z" fill="#F5F5F5"/>
<path d="M212.235 56.1001C212.313 56.5236 212.15 56.908 211.877 56.9601C211.603 57.0122 211.31 56.706 211.225 56.3086C211.14 55.9112 211.31 55.5007 211.583 55.4486C211.857 55.3965 212.163 55.6766 212.235 56.1001Z" fill="#263238"/>
<path d="M207.461 56.9859C207.54 57.4094 207.377 57.7938 207.103 57.8394C206.829 57.885 206.536 57.5918 206.452 57.1879C206.367 56.7839 206.536 56.38 206.81 56.3279C207.084 56.2758 207.383 56.5624 207.461 56.9859Z" fill="#263238"/>
<path d="M206.946 56.3083L205.871 56.2041C205.871 56.2041 206.542 56.9012 206.946 56.3083Z" fill="#263238"/>
<path d="M209.076 57.4746C208.877 58.5084 208.537 59.51 208.066 60.452C208.311 60.5652 208.578 60.6239 208.848 60.6239C209.118 60.6239 209.385 60.5652 209.63 60.452L209.076 57.4746Z" fill="#ED893E"/>
<path d="M212.237 61.6836C212.035 61.754 211.828 61.8085 211.618 61.8465C211.586 61.8522 211.553 61.8452 211.526 61.8269C211.5 61.8087 211.481 61.7806 211.475 61.7488C211.469 61.716 211.476 61.6823 211.494 61.6544C211.512 61.6266 211.54 61.6067 211.572 61.5989C212.102 61.5148 212.605 61.3061 213.039 60.9902C213.472 60.6742 213.825 60.2599 214.068 59.7812C214.074 59.7663 214.083 59.7527 214.095 59.7413C214.107 59.7299 214.121 59.721 214.136 59.7149C214.151 59.7089 214.167 59.7059 214.183 59.7061C214.2 59.7063 214.216 59.7097 214.231 59.7161C214.246 59.7225 214.259 59.7318 214.27 59.7435C214.282 59.7551 214.291 59.7689 214.297 59.784C214.303 59.7992 214.306 59.8153 214.306 59.8316C214.306 59.8479 214.302 59.864 214.296 59.879C214.091 60.3023 213.803 60.6802 213.449 60.9902C213.096 61.3002 212.684 61.536 212.237 61.6836Z" fill="#263238"/>
<path d="M222.563 57.6896C222.384 58.697 221.812 59.592 220.974 60.1783C219.853 60.9471 218.856 60.0546 218.804 58.7711C218.752 57.618 219.273 55.8198 220.57 55.5657C220.855 55.5153 221.147 55.5366 221.422 55.6278C221.696 55.7191 221.944 55.8772 222.142 56.0881C222.339 56.2989 222.482 56.5558 222.555 56.8354C222.629 57.115 222.632 57.4086 222.563 57.6896Z" fill="#FFB573"/>
<path d="M213.983 54.7708C213.932 54.7868 213.877 54.7874 213.826 54.7723C213.775 54.7572 213.73 54.7272 213.696 54.6861C212.986 53.7544 211.487 53.8 211.468 53.8C211.401 53.8001 211.336 53.7745 211.288 53.7284C211.239 53.6823 211.21 53.6193 211.207 53.5525C211.205 53.4862 211.23 53.4218 211.275 53.3731C211.32 53.3244 211.382 53.2952 211.448 53.2919C211.52 53.2919 213.233 53.2397 214.1 54.3799C214.12 54.4062 214.135 54.4363 214.143 54.4684C214.151 54.5005 214.153 54.534 214.148 54.5668C214.143 54.5996 214.132 54.6311 214.115 54.6595C214.097 54.6878 214.075 54.7123 214.048 54.7317L213.983 54.7708Z" fill="#263238"/>
<path d="M205.617 55.0382C205.575 55.0549 205.53 55.0595 205.486 55.0514C205.442 55.0433 205.402 55.0229 205.369 54.9926C205.345 54.97 205.326 54.9428 205.313 54.9125C205.3 54.8823 205.293 54.8496 205.293 54.8167C205.293 54.7837 205.3 54.7511 205.313 54.7208C205.326 54.6906 205.345 54.6633 205.369 54.6408C205.62 54.3271 205.943 54.0782 206.311 53.915C206.678 53.7518 207.079 53.6789 207.48 53.7026C207.513 53.7066 207.544 53.7171 207.573 53.7334C207.601 53.7497 207.626 53.7715 207.646 53.7976C207.666 53.8237 207.681 53.8535 207.689 53.8853C207.698 53.9171 207.7 53.9502 207.695 53.9828C207.687 54.0491 207.653 54.1096 207.6 54.151C207.548 54.1925 207.481 54.2116 207.415 54.2043C207.097 54.1863 206.779 54.2464 206.49 54.3792C206.2 54.5121 205.947 54.7137 205.754 54.9665C205.717 55.0052 205.669 55.0304 205.617 55.0382Z" fill="#263238"/>
<path d="M232.016 79.5669C232.635 82.6159 233.091 85.6193 233.456 88.6879C233.837 91.7622 234.055 94.8547 234.107 97.9522V98.2454C234.107 98.2454 234.107 98.4539 234.107 98.5711C234.106 98.7153 234.093 98.8591 234.068 99.0011C233.951 99.7407 233.585 100.418 233.032 100.923C232.585 101.321 232.041 101.595 231.456 101.718C231.094 101.797 230.725 101.834 230.354 101.829C229.824 101.814 229.295 101.746 228.778 101.627C228.322 101.529 227.898 101.405 227.475 101.281C225.958 100.768 224.48 100.148 223.051 99.4246C220.293 98.0357 217.628 96.4711 215.07 94.7403L216.373 92.3689C217.748 92.9292 219.136 93.5155 220.523 94.0562C221.911 94.597 223.286 95.1508 224.673 95.6264C225.997 96.1046 227.348 96.5027 228.719 96.8186C229.045 96.8903 229.371 96.9489 229.638 96.9815C229.854 97.0066 230.073 97.0066 230.289 96.9815C230.361 96.9815 230.368 96.9815 230.289 96.9815C230.074 97.031 229.877 97.1366 229.716 97.2877C229.446 97.5319 229.261 97.8561 229.188 98.2128V98.3627C229.188 98.3627 229.188 98.493 229.188 98.4083V98.1346C228.941 95.2355 228.537 92.2711 228.113 89.3654C227.69 86.4598 227.162 83.4694 226.661 80.5832L232.016 79.5669Z" fill="#FFB573"/>
<path d="M229.522 73.3646C231.698 74.0161 234.304 81.4953 234.304 81.4953L225.881 87.5217C225.881 87.5217 222.812 81.2804 223.724 78.4724C224.675 75.5472 227.047 72.6024 229.522 73.3646Z" fill="#263238"/>
<path d="M211.727 55.4226L210.652 55.3184C210.652 55.3184 211.323 56.0155 211.727 55.4226Z" fill="#263238"/>
<path d="M216.927 92.5971L211.715 90.1279L213.096 95.3725C213.096 95.3725 216.165 96.9035 217.657 95.2618L216.927 92.5971Z" fill="#FFB573"/>
<path d="M207.352 91.1117L208.739 95.4377L213.104 95.3725L211.723 90.1279L207.352 91.1117Z" fill="#FFB573"/>
<path d="M226.38 106.025C218.803 107.002 211.153 107.277 203.525 106.845C203.396 106.837 203.276 106.778 203.189 106.682C203.103 106.586 203.058 106.46 203.063 106.331C203.063 105.855 203.115 105.38 203.135 104.904C203.137 104.84 203.152 104.777 203.179 104.719C203.206 104.661 203.244 104.609 203.292 104.566C203.339 104.523 203.394 104.49 203.455 104.469C203.515 104.447 203.579 104.438 203.643 104.441C211.126 104.866 218.633 104.598 226.067 103.64C226.194 103.625 226.322 103.66 226.423 103.738C226.524 103.816 226.59 103.931 226.608 104.057C226.667 104.533 226.732 105.008 226.797 105.484C226.805 105.547 226.801 105.611 226.785 105.672C226.768 105.733 226.74 105.79 226.701 105.841C226.662 105.891 226.614 105.933 226.559 105.965C226.504 105.996 226.443 106.017 226.38 106.025Z" fill="#D2AE6D"/>
<path opacity="0.4" d="M226.38 106.025C218.803 107.002 211.153 107.277 203.525 106.845C203.396 106.837 203.276 106.778 203.189 106.682C203.103 106.586 203.058 106.46 203.063 106.331C203.063 105.855 203.115 105.38 203.135 104.904C203.137 104.84 203.152 104.777 203.179 104.719C203.206 104.661 203.244 104.609 203.292 104.566C203.339 104.523 203.394 104.49 203.455 104.469C203.515 104.447 203.579 104.438 203.643 104.441C211.126 104.866 218.633 104.598 226.067 103.64C226.194 103.625 226.322 103.66 226.423 103.738C226.524 103.816 226.59 103.931 226.608 104.057C226.667 104.533 226.732 105.008 226.797 105.484C226.805 105.547 226.801 105.611 226.785 105.672C226.768 105.733 226.74 105.79 226.701 105.841C226.662 105.891 226.614 105.933 226.559 105.965C226.504 105.996 226.443 106.017 226.38 106.025Z" fill="black"/>
<path d="M218.753 34.7897C218.753 35.2536 218.616 35.7071 218.358 36.0928C218.1 36.4785 217.734 36.7791 217.305 36.9566C216.877 37.1341 216.405 37.1806 215.95 37.0901C215.495 36.9996 215.077 36.7762 214.749 36.4482C214.421 36.1202 214.198 35.7023 214.108 35.2473C214.017 34.7923 214.064 34.3208 214.241 33.8922C214.419 33.4636 214.719 33.0973 215.105 32.8396C215.491 32.5819 215.944 32.4443 216.408 32.4443C217.03 32.4443 217.627 32.6914 218.066 33.1313C218.506 33.5711 218.753 34.1677 218.753 34.7897Z" fill="white"/>
<path d="M207.142 37.1351C208.438 37.1351 209.488 36.0851 209.488 34.7897C209.488 33.4944 208.438 32.4443 207.142 32.4443C205.847 32.4443 204.797 33.4944 204.797 34.7897C204.797 36.0851 205.847 37.1351 207.142 37.1351Z" fill="white"/>
<path d="M227.953 34.7897C227.953 35.2536 227.815 35.7071 227.557 36.0928C227.3 36.4785 226.933 36.7791 226.505 36.9566C226.076 37.1341 225.605 37.1806 225.15 37.0901C224.695 36.9996 224.277 36.7762 223.949 36.4482C223.621 36.1202 223.397 35.7023 223.307 35.2473C223.216 34.7923 223.263 34.3208 223.44 33.8922C223.618 33.4636 223.918 33.0973 224.304 32.8396C224.69 32.5819 225.143 32.4443 225.607 32.4443C225.915 32.4443 226.22 32.505 226.505 32.6229C226.789 32.7407 227.048 32.9135 227.266 33.1313C227.483 33.3491 227.656 33.6076 227.774 33.8922C227.892 34.1767 227.953 34.4817 227.953 34.7897Z" fill="white"/>
<path d="M131.359 228.742L136.076 227.647L134.232 216.617L129.516 217.712L131.359 228.742Z" fill="#CE7A63"/>
<path d="M136.199 227.041L130.902 228.272C130.812 228.29 130.732 228.342 130.68 228.417C130.628 228.493 130.607 228.586 130.622 228.676L131.306 232.918C131.33 233.027 131.375 233.131 131.439 233.223C131.503 233.315 131.585 233.393 131.679 233.454C131.774 233.514 131.879 233.556 131.989 233.576C132.1 233.595 132.213 233.593 132.323 233.569C134.16 233.113 135.013 232.8 137.346 232.266C138.779 231.934 144.909 230.663 146.884 230.207C148.858 229.751 148.369 227.81 147.489 227.823C143.548 227.908 138.642 227.895 137.065 227.171C136.799 227.034 136.494 226.988 136.199 227.041Z" fill="#263238"/>
<path opacity="0.2" d="M129.516 217.718L134.232 216.617L135.184 222.305L130.46 223.399L129.516 217.718Z" fill="black"/>
<path d="M122.434 108.201C122.434 108.201 128.649 147.519 130.474 161.233C132.474 176.25 136.695 220.174 136.695 220.174L128.148 222.558C128.148 222.558 120.05 179.989 116.714 165.389C113.092 149.545 105.176 108.227 105.176 108.227L122.434 108.201Z" fill="#D2AE6D"/>
<path opacity="0.5" d="M122.434 108.201C122.434 108.201 128.649 147.519 130.474 161.233C132.474 176.25 136.695 220.174 136.695 220.174L128.148 222.558C128.148 222.558 120.05 179.989 116.714 165.389C113.092 149.545 105.176 108.227 105.176 108.227L122.434 108.201Z" fill="black"/>
<path opacity="0.3" d="M112.299 122.012C115.556 130.345 115.374 146.822 113.973 152.633C112.018 143.102 109.751 131.7 108.012 122.833C108.65 120.553 110.312 116.944 112.299 122.012Z" fill="black"/>
<path d="M127.935 222.702L137.088 220.181L136.938 216.461L126.625 220.018L127.935 222.702Z" fill="#D2AE6D"/>
<path d="M138.055 227.478C137.626 227.564 137.189 227.606 136.752 227.601C136.729 227.602 136.707 227.595 136.688 227.582C136.67 227.569 136.656 227.551 136.648 227.53C136.638 227.512 136.633 227.492 136.633 227.471C136.633 227.451 136.638 227.431 136.648 227.413C136.778 227.269 137.905 226.051 138.537 226.142C138.608 226.154 138.675 226.183 138.732 226.227C138.789 226.272 138.834 226.33 138.863 226.396C138.924 226.494 138.957 226.607 138.957 226.722C138.957 226.837 138.924 226.95 138.863 227.048C138.654 227.284 138.367 227.437 138.055 227.478ZM137.025 227.367C137.905 227.367 138.524 227.171 138.693 226.904C138.73 226.842 138.749 226.771 138.749 226.699C138.749 226.627 138.73 226.556 138.693 226.494C138.682 226.46 138.661 226.43 138.633 226.407C138.606 226.384 138.572 226.369 138.537 226.364C138.192 226.318 137.495 226.898 137.025 227.367Z" fill="#D2AE6D"/>
<path d="M136.785 227.595H136.733C136.715 227.591 136.697 227.583 136.684 227.57C136.67 227.558 136.66 227.541 136.655 227.523C136.655 227.464 136.225 226.135 136.596 225.568C136.644 225.495 136.707 225.434 136.782 225.389C136.856 225.344 136.94 225.316 137.026 225.308C137.121 225.287 137.22 225.3 137.307 225.344C137.393 225.388 137.462 225.46 137.502 225.549C137.724 226.037 137.241 227.178 136.851 227.569L136.785 227.595ZM137 225.542C136.956 225.552 136.915 225.57 136.878 225.596C136.841 225.621 136.809 225.654 136.785 225.692C136.62 226.2 136.62 226.748 136.785 227.256C137.146 226.798 137.32 226.221 137.274 225.64C137.274 225.581 137.189 225.516 137.026 225.529L137 225.542Z" fill="#D2AE6D"/>
<path d="M122.694 70.8242C123.45 71.8731 124.076 72.8308 124.714 73.8602C125.352 74.8896 125.952 75.8929 126.519 76.9353C127.684 79.0226 128.741 81.1689 129.685 83.3656C130.154 84.4666 130.617 85.5807 131.02 86.7208C131.235 87.2876 131.418 87.8675 131.607 88.4473C131.698 88.7535 131.802 88.988 131.887 89.3464C131.972 89.7047 132.056 90.05 132.115 90.4539C132.191 90.9259 132.232 91.4027 132.239 91.8807C132.238 92.248 132.204 92.6145 132.135 92.9752C132.006 93.6234 131.72 94.2299 131.301 94.7408C131.001 95.0946 130.633 95.3848 130.219 95.5942C129.863 95.7782 129.477 95.8973 129.079 95.9461C128.592 96.0033 128.098 95.9635 127.626 95.8288C127.124 95.6924 126.648 95.4721 126.219 95.1773C125.626 94.767 125.086 94.2857 124.61 93.744C124.169 93.2539 123.766 92.7312 123.404 92.1804L125.815 89.4701C126.714 89.8616 127.642 90.184 128.59 90.4344C128.747 90.4344 128.897 90.4344 128.779 90.3562C128.593 90.2739 128.387 90.2489 128.186 90.2845C127.928 90.3131 127.677 90.3859 127.444 90.4995C127.135 90.6572 126.862 90.8777 126.643 91.147C126.424 91.4163 126.264 91.7283 126.173 92.0631C126.128 92.2325 126.121 92.2911 126.095 92.2977C126.069 92.3042 126.01 92.1804 125.932 92.0371L125.665 91.4963C125.567 91.3139 125.457 91.0207 125.352 90.7862C125.137 90.291 124.942 89.7959 124.701 89.3073C124.258 88.3235 123.795 87.3528 123.3 86.369C122.31 84.4145 121.248 82.5056 120.14 80.6097C119.58 79.6651 119.013 78.7204 118.434 77.7887C117.854 76.8571 117.254 75.8994 116.707 75.072L122.694 70.8242Z" fill="#CE7A63"/>
<path d="M120.879 66.4268C116.084 65.3127 113.171 68.3813 114.605 74.3816C115.494 77.8143 116.582 81.1925 117.862 84.4994C118.142 85.2421 118.403 85.9066 118.618 86.4539L129.498 80.3689C128.325 75.6064 124.084 67.176 120.879 66.4268Z" fill="#D2AE6D"/>
<path opacity="0.3" d="M121.077 72.1145C118.184 69.5085 121.142 80.0107 122.38 84.3627L125.579 82.5776C125.24 79.5612 123.298 74.1016 121.077 72.1145Z" fill="black"/>
<path d="M95.6055 230.813H100.433L101.15 219.627H96.3221L95.6055 230.813Z" fill="#CE7A63"/>
<path d="M100.694 230.253H95.2675C95.2221 230.251 95.1769 230.258 95.1343 230.274C95.0918 230.29 95.0527 230.314 95.0194 230.345C94.9862 230.375 94.9593 230.413 94.9404 230.454C94.9215 230.495 94.9108 230.54 94.9092 230.585L94.6095 234.878C94.6077 234.99 94.6282 235.101 94.6697 235.204C94.7111 235.307 94.7728 235.402 94.851 235.481C94.9292 235.56 95.0224 235.624 95.1253 235.667C95.2281 235.71 95.3384 235.732 95.4499 235.732C97.3393 235.699 98.2383 235.588 100.629 235.588C102.095 235.588 108.337 235.745 110.363 235.745C112.389 235.745 112.35 233.738 111.49 233.556C107.646 232.741 102.877 231.601 101.522 230.552C101.289 230.36 100.997 230.254 100.694 230.253Z" fill="#263238"/>
<path opacity="0.2" d="M96.3206 219.627H101.148L100.777 225.393H95.9492L96.3206 219.627Z" fill="black"/>
<path d="M113.007 108.201C113.007 108.201 113.17 144.867 112.277 158.692C111.3 173.839 102.863 224.005 102.863 224.005H94.0156C94.0156 224.005 98.4133 175.058 97.9963 160.067C97.5468 143.779 96.6021 108.201 96.6021 108.201H113.007Z" fill="#D2AE6D"/>
<path opacity="0.5" d="M113.007 108.201C113.007 108.201 113.17 144.867 112.277 158.692C111.3 173.839 102.863 224.005 102.863 224.005H94.0156C94.0156 224.005 98.4133 175.058 97.9963 160.067C97.5468 143.779 96.6021 108.201 96.6021 108.201H113.007Z" fill="black"/>
<path d="M93.6553 224.005H103.219L103.773 220.644L93.2188 221.171L93.6553 224.005Z" fill="#D2AE6D"/>
<path d="M102.401 231.094C101.961 231.083 101.525 231.027 101.098 230.924C101.077 230.917 101.058 230.905 101.044 230.889C101.029 230.873 101.018 230.854 101.013 230.833C101.01 230.811 101.013 230.789 101.022 230.77C101.032 230.75 101.046 230.734 101.065 230.722C101.215 230.611 102.59 229.68 103.182 229.908C103.249 229.935 103.307 229.978 103.351 230.034C103.396 230.09 103.425 230.157 103.436 230.227C103.466 230.333 103.469 230.445 103.444 230.552C103.419 230.659 103.367 230.758 103.293 230.84C103.037 231.031 102.719 231.121 102.401 231.094ZM101.423 230.761C102.283 230.931 102.922 230.905 103.15 230.677C103.198 230.624 103.231 230.559 103.246 230.489C103.261 230.42 103.257 230.347 103.235 230.279C103.23 230.244 103.216 230.21 103.194 230.182C103.172 230.153 103.144 230.131 103.111 230.116C102.785 229.993 101.984 230.377 101.423 230.761Z" fill="#D2AE6D"/>
<path d="M101.136 230.924H101.083C101.067 230.914 101.054 230.901 101.044 230.885C101.033 230.869 101.027 230.852 101.025 230.833C101.025 230.774 100.921 229.387 101.416 228.917C101.476 228.855 101.551 228.808 101.634 228.781C101.717 228.754 101.805 228.747 101.891 228.761C101.987 228.765 102.078 228.8 102.151 228.861C102.224 228.923 102.275 229.007 102.295 229.1C102.406 229.628 101.676 230.637 101.194 230.924H101.136ZM101.787 228.97C101.742 228.968 101.698 228.977 101.656 228.993C101.615 229.01 101.577 229.035 101.546 229.067C101.276 229.53 101.16 230.066 101.214 230.598C101.669 230.233 101.969 229.71 102.054 229.132C102.054 229.067 102.002 228.989 101.839 228.97H101.787Z" fill="#D2AE6D"/>
<path d="M122.433 108.201H96.6008C96.4379 105.894 97.0308 98.3892 96.705 88.8317C96.5195 81.7526 95.7194 74.7029 94.314 67.7622C94.2033 67.241 94.086 66.7263 93.9688 66.2051C93.9688 66.2051 95.2717 65.938 97.1546 65.6643C98.7182 65.4363 100.673 65.2018 102.588 65.1106C106.244 64.9019 109.91 64.9019 113.566 65.1106C115.253 65.2669 116.902 65.5471 118.211 65.8012C119.892 66.1399 120.882 66.4527 120.882 66.4527C120.882 66.4527 127.124 81.0398 122.433 108.201Z" fill="#D2AE6D"/>
<path d="M122.784 88.6035C122.335 87.8219 121.737 87.1358 121.025 86.5838C120.544 86.3079 120.084 85.9965 119.65 85.6522C119.605 85.6187 119.553 85.5975 119.497 85.5907C119.442 85.584 119.385 85.5919 119.334 85.6136C119.283 85.6354 119.238 85.6702 119.204 85.7147C119.17 85.7592 119.149 85.8118 119.142 85.8672C119.09 86.2451 119.246 86.864 120.171 87.7631C120.243 88.9553 121.995 90.2713 121.995 90.2713L122.784 88.6035Z" fill="#CE7A63"/>
<path opacity="0.3" d="M118.845 91.4834H113.477L117.19 80.8965H122.558L118.845 91.4834Z" fill="black"/>
<path d="M119.208 91.4834H113.84L117.553 80.8965H122.922L119.208 91.4834Z" fill="#263238"/>
<path opacity="0.3" d="M96.7074 88.832C96.5218 81.7528 95.7218 74.7032 94.3164 67.7624C96.0429 67.6126 98.9942 67.7624 99.4633 70.5704C99.9584 73.5673 99.2352 80.6165 96.7074 88.832Z" fill="black"/>
<path d="M99.0169 72.3295L96.2676 81.7372L94.9059 86.4345L94.2544 88.7799L93.9287 89.9461L93.7723 90.5324V90.6041C93.7754 90.5629 93.7754 90.5215 93.7723 90.4803C93.7846 90.359 93.7846 90.2368 93.7723 90.1155C93.7256 89.806 93.6122 89.5103 93.44 89.249C93.3358 89.0928 93.2005 88.9597 93.0426 88.8581C92.8732 88.7668 92.984 88.8581 93.1664 88.9428C93.7264 89.1392 94.3085 89.2661 94.8994 89.3206C96.414 89.4811 97.9371 89.5464 99.4599 89.5161C102.62 89.477 105.916 89.2946 109.141 89.073L109.858 92.6302C106.605 93.6669 103.277 94.4489 99.9029 94.9691C98.1296 95.2523 96.3369 95.396 94.5411 95.3991C93.4769 95.4001 92.4163 95.2755 91.3813 95.0278C90.6214 94.8492 89.9012 94.5311 89.2574 94.0896C88.757 93.7418 88.3298 93.2991 88 92.7866C87.5905 92.1839 87.3334 91.4909 87.2508 90.767C87.2185 90.4398 87.2185 90.1103 87.2508 89.7832C87.2508 89.6399 87.2508 89.4965 87.3094 89.3532L87.355 89.0926L87.4723 88.4411L87.7003 87.1967C87.8567 86.3693 88.0261 85.5419 88.2085 84.721C88.5603 83.0792 88.9252 81.4635 89.3356 79.8152C90.1369 76.5577 91.0295 73.3654 92.0589 70.147L99.0169 72.3295Z" fill="#CE7A63"/>
<path d="M93.9633 66.1989C90.7449 66.9481 87.1356 75.4241 85.8651 80.1866C85.6501 81.0009 85.4807 81.6981 85.3504 82.2323C85.1811 82.9359 85.0898 83.3594 85.0898 83.3594L95.8852 86.4345C96.1067 85.9002 96.3803 85.2357 96.667 84.48C98.01 81.1773 99.1586 77.799 100.107 74.3622C101.638 68.3749 98.7714 65.0913 93.9633 66.1989Z" fill="#D2AE6D"/>
<path d="M113.04 65.0716C109.854 64.3159 109.314 62.3418 109.542 60.1723C109.597 59.6287 109.686 59.0891 109.809 58.5566L105.835 55.234L102.916 52.7974C103.704 56.335 104.571 62.7783 102.16 65.1368C105.356 67.7971 108.901 70.0087 112.695 71.7104C116.467 68.9415 113.04 65.0716 113.04 65.0716Z" fill="#CE7A63"/>
<path opacity="0.2" d="M109.805 58.5565C109.682 59.089 109.593 59.6286 109.538 60.1723C108.052 59.8726 105.805 58.5435 105.629 56.8626C105.638 56.3124 105.714 55.7654 105.857 55.2339L109.805 58.5565Z" fill="black"/>
<path d="M117.255 41.5785C118.643 43.7805 116.024 50.1196 112.694 49.6636C109.365 49.2075 114.636 37.3958 117.255 41.5785Z" fill="#263238"/>
<path d="M103.208 45.6635C102.622 50.439 102.029 53.1948 103.938 56.0875C104.554 57.0464 105.421 57.8186 106.444 58.3208C107.468 58.823 108.609 59.0359 109.744 58.9366C110.88 58.8374 111.967 58.4297 112.887 57.7576C113.808 57.0855 114.527 56.1745 114.968 55.1232C116.76 51.1035 117.424 43.9761 113.202 41.116C112.295 40.4753 111.236 40.0834 110.131 39.9792C109.025 39.875 107.911 40.0622 106.901 40.5222C105.89 40.9821 105.017 41.6987 104.369 42.6007C103.721 43.5028 103.321 44.5587 103.208 45.6635Z" fill="#CE7A63"/>
<path d="M102.654 49.3248C105.097 49.0186 106.863 44.9467 106.361 43.0443C108.159 44.3473 122.434 46.0021 120.258 36.6922C116.186 36.6922 99.1947 35.9299 102.016 39.5979C100.061 39.5979 98.211 41.3699 99.54 45.4614C100.882 49.6701 102.654 49.3248 102.654 49.3248Z" fill="#263238"/>
<path d="M100.562 49.9501C100.976 51.0614 101.764 51.9941 102.79 52.5887C104.093 53.3119 104.875 52.1196 104.601 50.6342C104.36 49.2856 103.383 47.2855 101.995 47.1878C100.608 47.0901 100.041 48.5429 100.562 49.9501Z" fill="#CE7A63"/>
<path d="M110.05 48.5038C109.978 48.8882 110.121 49.24 110.369 49.2921C110.617 49.3443 110.877 49.0772 110.949 48.6928C111.02 48.3084 110.877 47.9566 110.63 47.9044C110.382 47.8523 110.121 48.1194 110.05 48.5038Z" fill="#263238"/>
<path d="M114.347 49.4226C114.275 49.807 114.418 50.1653 114.666 50.2174C114.913 50.2696 115.174 50.0024 115.246 49.6181C115.317 49.2337 115.174 48.8819 114.926 48.8297C114.679 48.7776 114.418 49.0447 114.347 49.4226Z" fill="#263238"/>
<path d="M112.941 49.3247C113.178 50.5953 113.583 51.8287 114.146 52.9926C113.849 53.1237 113.527 53.1876 113.203 53.1798C112.878 53.1719 112.56 53.0924 112.27 52.947L112.941 49.3247Z" fill="#BA4D3C"/>
<path d="M110.526 53.6507C110.1 53.5075 109.707 53.2795 109.371 52.9806C109.036 52.6817 108.764 52.3179 108.572 51.9112C108.563 51.8966 108.557 51.8802 108.555 51.8632C108.554 51.8462 108.555 51.8291 108.561 51.8128C108.566 51.7966 108.575 51.7818 108.587 51.7694C108.599 51.757 108.613 51.7473 108.629 51.7411C108.645 51.7348 108.662 51.7321 108.679 51.7331C108.696 51.7342 108.713 51.7389 108.728 51.7471C108.743 51.7552 108.756 51.7665 108.766 51.7803C108.776 51.794 108.783 51.8098 108.787 51.8265C109.002 52.2655 109.316 52.6489 109.703 52.9472C110.091 53.2455 110.542 53.4505 111.021 53.5465C111.037 53.5487 111.051 53.5542 111.065 53.5625C111.078 53.5708 111.089 53.5817 111.097 53.5946C111.106 53.6075 111.112 53.6221 111.114 53.6373C111.117 53.6526 111.116 53.6683 111.113 53.6833C111.105 53.7122 111.087 53.7371 111.061 53.7528C111.036 53.7686 111.005 53.774 110.976 53.768C110.824 53.738 110.674 53.6988 110.526 53.6507Z" fill="#263238"/>
<path d="M108.981 46.8167C108.944 46.8037 108.911 46.7812 108.884 46.7514C108.858 46.7216 108.841 46.6856 108.833 46.6468C108.825 46.608 108.827 46.5678 108.839 46.5302C108.852 46.4926 108.874 46.4589 108.903 46.4323C109.166 46.1844 109.486 46.0048 109.835 45.9094C110.184 45.8139 110.55 45.8056 110.903 45.8851C110.961 45.9032 111.01 45.9432 111.039 45.9967C111.069 46.0502 111.076 46.113 111.06 46.1717C111.04 46.229 111 46.2769 110.947 46.3058C110.894 46.3348 110.832 46.3427 110.773 46.3281C110.496 46.2696 110.209 46.2794 109.936 46.3566C109.664 46.4338 109.414 46.576 109.209 46.7711C109.179 46.7985 109.142 46.8171 109.102 46.8251C109.061 46.8332 109.02 46.8303 108.981 46.8167Z" fill="#263238"/>
<path d="M116.465 48.3279C116.43 48.3176 116.398 48.2983 116.373 48.272C116.348 48.2457 116.33 48.2133 116.322 48.178C116.254 47.8929 116.122 47.6271 115.936 47.4011C115.75 47.1752 115.514 46.9952 115.247 46.875C115.218 46.8656 115.191 46.8504 115.168 46.8303C115.146 46.8102 115.127 46.7856 115.115 46.7581C115.102 46.7306 115.095 46.7008 115.094 46.6705C115.093 46.6402 115.098 46.61 115.11 46.5818C115.129 46.525 115.17 46.4781 115.224 46.4513C115.277 46.4245 115.339 46.4199 115.396 46.4385C115.733 46.5819 116.032 46.8021 116.268 47.0815C116.505 47.3609 116.672 47.6918 116.758 48.0477C116.774 48.1056 116.767 48.1675 116.737 48.2199C116.708 48.2724 116.659 48.3112 116.602 48.3279C116.558 48.3443 116.509 48.3443 116.465 48.3279Z" fill="#263238"/>
<path d="M108.283 89.2488L113.443 86.5776L112.557 92.604C112.557 92.604 108.315 93.7702 107.918 91.5356L108.283 89.2488Z" fill="#CE7A63"/>
<path d="M111.801 87.4245C112.378 86.7221 113.086 86.138 113.886 85.7045C114.463 85.4438 115.015 85.1298 115.534 84.7664C115.583 84.7403 115.638 84.7275 115.693 84.7291C115.749 84.7308 115.803 84.7469 115.85 84.7758C115.898 84.8048 115.937 84.8456 115.963 84.8942C115.99 84.9428 116.004 84.9975 116.003 85.053C115.904 85.4628 115.721 85.8478 115.467 86.184C115.212 86.5202 114.891 86.8005 114.524 87.0075C114.25 88.1737 112.296 89.1966 112.296 89.1966L111.801 87.4245Z" fill="#CE7A63"/>
<path d="M117.665 87.4117L116.942 91.1709C116.911 91.3322 116.832 91.4805 116.716 91.5967C116.6 91.7128 116.452 91.7914 116.29 91.8224L112.512 92.6042L113.43 86.6299L116.825 86.454C116.948 86.4456 117.071 86.4656 117.185 86.5126C117.299 86.5596 117.401 86.6323 117.482 86.7249C117.563 86.8176 117.622 86.9278 117.654 87.0469C117.686 87.166 117.689 87.2909 117.665 87.4117Z" fill="#CE7A63"/>
<path d="M107.887 91.5356L108.284 89.2488L113.444 86.5776" fill="#CE7A63"/>
<path d="M125.075 89.7441L120.964 87.2554L120.664 92.6042C120.664 92.6042 124.997 94.2655 125.433 92.0309L125.075 89.7441Z" fill="#CE7A63"/>
<path d="M119.07 87.3137L118.744 91.5289C118.735 91.6444 118.764 91.7596 118.828 91.8563C118.892 91.9531 118.986 92.0258 119.096 92.0631L120.653 92.6039L120.952 87.2551L119.767 86.8511C119.69 86.825 119.609 86.8167 119.528 86.8271C119.448 86.8374 119.372 86.8661 119.304 86.9108C119.237 86.9555 119.181 87.015 119.14 87.0849C119.099 87.1548 119.075 87.233 119.07 87.3137Z" fill="#CE7A63"/>
<path d="M113.007 21.382C113.007 21.8459 112.87 22.2994 112.612 22.6851C112.354 23.0708 111.988 23.3714 111.559 23.5489C111.131 23.7264 110.659 23.7729 110.204 23.6824C109.749 23.5919 109.331 23.3685 109.003 23.0405C108.675 22.7125 108.452 22.2945 108.361 21.8396C108.271 21.3846 108.317 20.913 108.495 20.4845C108.672 20.0559 108.973 19.6896 109.359 19.4319C109.744 19.1742 110.198 19.0366 110.662 19.0366C111.284 19.0366 111.88 19.2837 112.32 19.7236C112.76 20.1634 113.007 20.76 113.007 21.382Z" fill="#D2AE6D"/>
<path d="M103.773 22.7629C103.773 23.2268 103.635 23.6802 103.378 24.0659C103.12 24.4516 102.754 24.7522 102.325 24.9297C101.896 25.1073 101.425 25.1537 100.97 25.0632C100.515 24.9727 100.097 24.7493 99.769 24.4213C99.441 24.0933 99.2176 23.6754 99.1271 23.2204C99.0366 22.7655 99.083 22.2939 99.2606 21.8653C99.4381 21.4368 99.7387 21.0705 100.124 20.8127C100.51 20.555 100.964 20.4175 101.427 20.4175C102.049 20.4175 102.646 20.6646 103.086 21.1044C103.526 21.5443 103.773 22.1408 103.773 22.7629Z" fill="#D2AE6D"/>
<path d="M119.9 26.4965C121.195 26.4965 122.245 25.4464 122.245 24.1511C122.245 22.8557 121.195 21.8057 119.9 21.8057C118.605 21.8057 117.555 22.8557 117.555 24.1511C117.555 25.4464 118.605 26.4965 119.9 26.4965Z" fill="#D2AE6D"/>
</svg>
