<svg width="327" height="297" viewBox="0 0 327 297" fill="none" xmlns="http://www.w3.org/2000/svg">
<path d="M48.179 263.417C111.738 308.007 214.825 308.007 278.393 263.417C341.961 218.828 341.952 146.539 278.393 101.974C214.834 57.4079 111.755 57.3845 48.179 101.974C-15.3974 146.563 -15.3887 218.84 48.179 263.417Z" fill="#F5F5F5"/>
<path d="M163.474 277.986V282.729L0.6875 188.75V184.006L163.474 277.986Z" fill="#E0E0E0"/>
<path d="M326.252 188.743L163.473 282.729V277.986L326.252 184.006V188.743Z" fill="#EBEBEB"/>
<path d="M297.464 167.379L163.474 244.739L29.4839 167.379L0.6875 184.006L163.474 277.985L326.253 184.006L297.464 167.379Z" fill="#F5F5F5"/>
<path d="M170.449 240.589L199.245 257.209L197.232 258.369L168.312 241.817L170.449 240.589Z" fill="#E0E0E0"/>
<path d="M297.457 167.38L248.758 195.507L246.615 196.736L246.403 196.859L223.019 210.359V210.366H223.012L220.876 211.595H220.869L196.789 225.512L194.646 226.74L170.566 240.651L168.423 241.886L163.474 244.746L161.331 243.511L29.4844 167.38L55.7418 152.221L140.971 103.009L163.474 90.0205L297.457 167.38Z" fill="#D2AE6D"/>
<path opacity="0.3" d="M297.457 167.38L248.758 195.507L246.615 196.736L246.403 196.859L223.019 210.359V210.366H223.012L220.876 211.595H220.869L196.789 225.512L194.646 226.74L170.566 240.651L168.423 241.886L163.474 244.746L161.331 243.511L29.4844 167.38L55.7418 152.221L140.971 103.009L163.474 90.0205L297.457 167.38Z" fill="white"/>
<path d="M248.984 198.108L225.525 211.813L222.911 210.298L220.87 209.124L201.957 198.203L199.929 197.036L185.152 188.504L208.755 174.874L223.532 183.406L225.661 184.634L244.479 195.507L246.615 196.736L248.984 198.108Z" fill="#F5F5F5"/>
<path d="M297.461 167.379L326.251 184.006L297.461 167.379Z" fill="#F5F5F5"/>
<path d="M196.733 225.478L225.523 242.098L223.509 243.258L194.59 226.713L196.733 225.478Z" fill="#E0E0E0"/>
<path d="M161.339 243.51L132.543 260.13L134.556 261.29L163.476 244.746L161.339 243.51Z" fill="#E0E0E0"/>
<path d="M134.801 228.222L106.012 244.842L108.025 246.009L136.945 229.457L134.801 228.222Z" fill="#E0E0E0"/>
<path d="M108.27 212.933L79.4805 229.553L81.494 230.72L110.413 214.168L108.27 212.933Z" fill="#E0E0E0"/>
<path d="M81.7388 197.644L52.9492 214.264L54.9627 215.431L83.882 198.879L81.7388 197.644Z" fill="#E0E0E0"/>
<path d="M55.2076 182.354L26.418 198.974L28.4315 200.142L57.3439 183.59L55.2076 182.354Z" fill="#E0E0E0"/>
<path d="M248.756 195.501L277.546 212.128L275.533 213.288L246.613 196.736L248.756 195.501Z" fill="#E0E0E0"/>
<path d="M275.035 180.389L303.824 197.015L301.818 198.176L272.898 181.624L275.035 180.389Z" fill="#E0E0E0"/>
<path d="M223.011 210.366L251.808 226.986L249.794 228.153L220.875 211.602L223.011 210.366Z" fill="#E0E0E0"/>
<path d="M246.613 196.736L222.908 210.298L220.867 209.124L244.476 195.507L246.613 196.736Z" fill="#E0E0E0"/>
<path d="M225.661 184.635L201.957 198.204L199.93 197.037L223.532 183.406L225.661 184.635Z" fill="#E0E0E0"/>
<g opacity="0.1">
<path d="M237.107 158.514L234.944 159.674L211.334 173.298L151.796 207.678L55.7422 152.221L140.971 103.01L237.107 158.514Z" fill="black"/>
</g>
<path opacity="0.1" d="M187.491 260.574C195.984 260.574 202.869 256.599 202.869 251.694C202.869 246.79 195.984 242.814 187.491 242.814C178.998 242.814 172.113 246.79 172.113 251.694C172.113 256.599 178.998 260.574 187.491 260.574Z" fill="black"/>
<path opacity="0.1" d="M141.905 262.042C150.398 262.042 157.283 258.066 157.283 253.162C157.283 248.258 150.398 244.282 141.905 244.282C133.412 244.282 126.527 248.258 126.527 253.162C126.527 258.066 133.412 262.042 141.905 262.042Z" fill="black"/>
<g opacity="0.1">
<path d="M273.242 161.709C275.29 162.903 275.29 164.828 273.242 166.016C272.086 166.601 270.808 166.906 269.512 166.906C268.216 166.906 266.938 166.601 265.782 166.016C263.734 164.828 263.734 162.903 265.782 161.709C266.938 161.123 268.216 160.818 269.512 160.818C270.808 160.818 272.086 161.123 273.242 161.709Z" fill="black"/>
</g>
<g opacity="0.1">
<path d="M251.536 188.648C253.584 189.842 253.584 191.767 251.536 192.955C250.381 193.541 249.104 193.846 247.809 193.846C246.514 193.846 245.238 193.541 244.083 192.955C242.035 191.767 242.035 189.842 244.083 188.648C245.238 188.062 246.514 187.757 247.809 187.757C249.104 187.757 250.381 188.062 251.536 188.648Z" fill="black"/>
</g>
<g opacity="0.1">
<path d="M62.7772 170.752C64.8248 171.939 64.8248 173.871 62.7772 175.059C61.6209 175.644 60.3431 175.949 59.0471 175.949C57.7511 175.949 56.4733 175.644 55.317 175.059C53.2693 173.871 53.2693 171.939 55.317 170.752C56.4733 170.166 57.7511 169.861 59.0471 169.861C60.3431 169.861 61.6209 170.166 62.7772 170.752Z" fill="black"/>
</g>
<path d="M66.793 100.662V153.654L151.858 202.763V130.81L83.1944 90.915L66.793 100.662Z" fill="#EBEBEB"/>
<path d="M232.143 84.4583V156.405L203.797 172.766L180.195 186.396L151.855 202.763V130.817L193.839 75.4624L232.143 84.4583Z" fill="#FAFAFA"/>
<path d="M203.798 121.636V172.765L180.195 186.416V135.266C180.284 131.05 181.298 126.905 183.164 123.124C183.328 122.783 183.492 122.441 183.669 122.121C185.792 118.025 188.748 114.613 191.996 112.729C193.406 111.853 195.02 111.363 196.679 111.309C200.87 111.289 203.798 115.166 203.798 121.636Z" fill="#D2AE6D"/>
<path opacity="0.3" d="M203.798 121.636V172.765L180.195 186.416V135.266C180.284 131.05 181.298 126.905 183.164 123.124C183.328 122.783 183.492 122.441 183.669 122.121C185.792 118.025 188.748 114.613 191.996 112.729C193.406 111.853 195.02 111.363 196.679 111.309C200.87 111.289 203.798 115.166 203.798 121.636Z" fill="black"/>
<path d="M201.723 120.018L195.293 123.725L193.409 124.817L192.556 125.308L191.444 125.991L190.44 126.564L189.355 127.192L182.086 131.355C182.462 128.783 183.211 126.278 184.311 123.922C184.321 123.897 184.332 123.872 184.345 123.847C184.488 123.527 184.645 123.213 184.802 122.912C184.81 122.885 184.824 122.859 184.843 122.837C185.089 122.353 185.348 121.888 185.621 121.431C186.949 119.119 188.7 117.077 190.782 115.411C191 115.254 191.218 115.097 191.464 114.954C191.71 114.811 191.764 114.749 191.921 114.654L192.208 114.483C192.338 114.408 192.461 114.34 192.577 114.285C194.904 113.036 197.04 112.961 198.719 113.834C198.938 113.942 199.146 114.07 199.341 114.217L199.648 114.442L199.73 114.517C199.877 114.688 200.014 114.868 200.139 115.056C201.07 116.553 201.615 118.259 201.723 120.018Z" fill="#FAFAFA"/>
<path d="M202.438 120.742L194.371 125.411L191.463 127.09L191.381 127.138L190.303 127.759L181.969 132.571C182.003 132.168 182.051 131.758 182.105 131.356L189.374 127.158L190.46 126.53L191.463 125.957L192.575 125.274L193.429 124.783L195.312 123.691L201.742 119.985C201.633 118.227 201.089 116.524 200.159 115.029C200.034 114.841 199.897 114.661 199.749 114.49V114.442C199.927 114.591 200.096 114.75 200.254 114.92C201.408 116.237 202.206 118.203 202.438 120.742Z" fill="#D2AE6D"/>
<path opacity="0.6" d="M202.438 120.742L194.371 125.411L191.463 127.09L191.381 127.138L190.303 127.759L181.969 132.571C182.003 132.168 182.051 131.758 182.105 131.356L189.374 127.158L190.46 126.53L191.463 125.957L192.575 125.274L193.429 124.783L195.312 123.691L201.742 119.985C201.633 118.227 201.089 116.524 200.159 115.029C200.034 114.841 199.897 114.661 199.749 114.49V114.442C199.927 114.591 200.096 114.75 200.254 114.92C201.408 116.237 202.206 118.203 202.438 120.742Z" fill="black"/>
<path d="M190.704 126.803L189.694 127.383L189.626 127.424L189.277 127.199L188.697 126.824L184.309 123.923C184.319 123.897 184.33 123.872 184.343 123.848C184.486 123.527 184.643 123.213 184.8 122.913L189.783 126.196L190.363 126.571L190.704 126.803Z" fill="#D2AE6D"/>
<path opacity="0.6" d="M190.704 126.803L189.694 127.383L189.626 127.424L189.277 127.199L188.697 126.824L184.309 123.923C184.319 123.897 184.33 123.872 184.343 123.848C184.486 123.527 184.643 123.213 184.8 122.913L189.783 126.196L190.363 126.571L190.704 126.803Z" fill="black"/>
<path d="M199.642 114.442L199.546 114.619L199.485 114.729L194.639 123.39L194.052 124.448L193.697 125.076L193.055 125.445L192.557 125.738L191.444 126.38L190.762 126.755V115.411C190.98 115.254 191.199 115.097 191.444 114.954C191.69 114.811 191.745 114.749 191.902 114.654V126.004L192.161 125.533L192.557 124.851L192.755 124.503L198.713 113.855C198.932 113.963 199.14 114.091 199.334 114.237L199.642 114.442Z" fill="#D2AE6D"/>
<path opacity="0.6" d="M199.642 114.442L199.546 114.619L199.485 114.729L194.639 123.39L194.052 124.448L193.697 125.076L193.055 125.445L192.557 125.738L191.444 126.38L190.762 126.755V115.411C190.98 115.254 191.199 115.097 191.444 114.954C191.69 114.811 191.745 114.749 191.902 114.654V126.004L192.161 125.533L192.557 124.851L192.755 124.503L198.713 113.855C198.932 113.963 199.14 114.091 199.334 114.237L199.642 114.442Z" fill="black"/>
<path d="M191.36 127.138L190.282 127.759L189.695 127.383L189.354 127.158L184.344 123.848C184.487 123.527 184.644 123.213 184.801 122.913L184.494 122.708L184.535 122.633L184.842 122.838L190.439 126.53L190.78 126.755L191.36 127.138Z" fill="#D2AE6D"/>
<path d="M200.03 114.79C199.927 114.694 199.825 114.599 199.723 114.517C199.726 114.501 199.726 114.485 199.723 114.469L200.03 114.79Z" fill="#455A64"/>
<path d="M200.195 114.934L200.133 115.043L195.294 123.711L194.372 125.411L191.465 127.09V114.934C191.615 114.824 191.765 114.729 191.922 114.633L192.209 114.463C192.338 114.387 192.461 114.319 192.577 114.265V126.318L193.076 125.424L193.431 124.796L199.335 114.251L199.642 114.476L199.724 114.551V114.504C199.889 114.638 200.046 114.781 200.195 114.934Z" fill="#D2AE6D"/>
<path opacity="0.3" d="M200.195 114.934L200.133 115.043L195.294 123.711L194.372 125.411L191.465 127.09V114.934C191.615 114.824 191.765 114.729 191.922 114.633L192.209 114.463C192.338 114.387 192.461 114.319 192.577 114.265V126.318L193.076 125.424L193.431 124.796L199.335 114.251L199.642 114.476L199.724 114.551V114.504C199.889 114.638 200.046 114.781 200.195 114.934Z" fill="black"/>
<path opacity="0.3" d="M191.36 127.138L190.282 127.759L189.695 127.383L189.354 127.158L184.344 123.848C184.487 123.527 184.644 123.213 184.801 122.913L184.494 122.708L184.535 122.633L184.842 122.838L190.439 126.53L190.78 126.755L191.36 127.138Z" fill="black"/>
<path d="M183.451 155.49C183.422 155.496 183.391 155.496 183.362 155.49C183.336 155.473 183.314 155.45 183.298 155.423C183.283 155.395 183.274 155.364 183.273 155.333V137.457C183.274 137.426 183.283 137.395 183.298 137.368C183.314 137.34 183.336 137.317 183.362 137.3L190.802 133.007C190.828 132.99 190.859 132.981 190.891 132.981C190.922 132.981 190.953 132.99 190.979 133.007C191.008 133.023 191.031 133.045 191.048 133.073C191.065 133.1 191.074 133.132 191.075 133.164V150.999C191.073 151.031 191.063 151.062 191.046 151.089C191.03 151.116 191.007 151.139 190.979 151.156L183.546 155.449C183.518 155.469 183.485 155.483 183.451 155.49ZM183.635 137.573V154.992L190.706 150.896V133.492L183.635 137.573Z" fill="#D2AE6D"/>
<path d="M193.103 149.928C193.074 149.937 193.044 149.937 193.015 149.928C192.987 149.913 192.964 149.89 192.948 149.862C192.932 149.834 192.925 149.803 192.926 149.771V131.916C192.926 131.883 192.933 131.851 192.949 131.822C192.965 131.794 192.987 131.769 193.015 131.752L200.454 127.459C200.482 127.445 200.512 127.438 200.543 127.438C200.574 127.438 200.604 127.445 200.632 127.459C200.66 127.474 200.684 127.497 200.701 127.524C200.717 127.552 200.727 127.583 200.727 127.616V145.45C200.729 145.483 200.721 145.516 200.704 145.544C200.687 145.572 200.662 145.594 200.632 145.607L193.199 149.901C193.171 149.92 193.137 149.929 193.103 149.928ZM193.288 132.018V149.43L200.359 145.334V127.936L193.288 132.018Z" fill="#D2AE6D"/>
<path d="M183.451 177.045C183.422 177.052 183.392 177.052 183.362 177.045C183.336 177.028 183.314 177.005 183.298 176.978C183.283 176.951 183.274 176.92 183.274 176.888V159.06C183.272 159.028 183.28 158.997 183.296 158.969C183.311 158.941 183.334 158.919 183.362 158.903L190.802 154.61C190.828 154.593 190.859 154.584 190.891 154.584C190.922 154.584 190.953 154.593 190.979 154.61C191.008 154.625 191.032 154.648 191.049 154.675C191.066 154.703 191.075 154.735 191.075 154.767V172.595C191.074 172.628 191.065 172.661 191.048 172.689C191.031 172.718 191.008 172.742 190.979 172.759L183.54 177.045C183.51 177.051 183.48 177.051 183.451 177.045ZM183.635 159.135V176.547L190.706 172.452V155.081L183.635 159.135Z" fill="#D2AE6D"/>
<path d="M193.103 171.517C193.074 171.526 193.043 171.526 193.015 171.517C192.987 171.501 192.964 171.478 192.949 171.45C192.933 171.423 192.925 171.392 192.926 171.36V153.498C192.927 153.466 192.935 153.436 192.95 153.408C192.966 153.381 192.988 153.358 193.015 153.341L200.454 149.048C200.481 149.031 200.512 149.021 200.543 149.021C200.574 149.021 200.605 149.031 200.632 149.048C200.66 149.063 200.684 149.086 200.7 149.113C200.717 149.141 200.726 149.172 200.727 149.205V167.039C200.726 167.072 200.717 167.103 200.7 167.131C200.684 167.158 200.66 167.181 200.632 167.196L193.199 171.49C193.171 171.509 193.137 171.518 193.103 171.517ZM193.288 153.607V171.019L200.359 166.923V149.519L193.288 153.607Z" fill="#D2AE6D"/>
<path d="M199.988 150.699C199.826 150.701 199.668 150.648 199.539 150.551C199.41 150.453 199.317 150.315 199.275 150.159C199.233 150.003 199.244 149.837 199.306 149.688C199.368 149.538 199.479 149.414 199.619 149.334L201.994 147.969L201.38 147.614C201.298 147.566 201.225 147.503 201.167 147.428C201.109 147.352 201.067 147.266 201.042 147.174C201.017 147.082 201.011 146.986 201.023 146.892C201.036 146.798 201.066 146.707 201.114 146.624C201.162 146.542 201.225 146.469 201.3 146.411C201.376 146.353 201.462 146.311 201.554 146.286C201.646 146.261 201.741 146.255 201.836 146.267C201.93 146.28 202.021 146.31 202.104 146.358L203.817 147.341C203.927 147.405 204.019 147.497 204.083 147.608C204.147 147.719 204.18 147.844 204.18 147.972C204.18 148.1 204.147 148.226 204.083 148.336C204.019 148.447 203.927 148.539 203.817 148.604L200.35 150.603C200.24 150.668 200.115 150.701 199.988 150.699Z" fill="#263238"/>
<path d="M232.136 151.122L227.516 153.811V148.522L232.136 145.833V151.122Z" fill="#E0E0E0"/>
<path d="M232.136 140.543L227.516 143.232V137.943L232.136 135.253V140.543Z" fill="#E0E0E0"/>
<path d="M232.136 129.97L227.516 132.659V127.369L232.136 124.68V129.97Z" fill="#E0E0E0"/>
<path d="M232.136 119.391L227.516 122.08V116.79L232.136 114.101V119.391Z" fill="#E0E0E0"/>
<path d="M232.136 108.818L227.516 111.507V106.218L232.136 103.528V108.818Z" fill="#E0E0E0"/>
<path d="M232.136 98.2384L227.516 100.928V95.6379L232.136 92.9487V98.2384Z" fill="#E0E0E0"/>
<path d="M232.136 87.6662L227.516 90.3554V85.0657L232.136 82.3765V87.6662Z" fill="#E0E0E0"/>
<path d="M156.476 194.784L151.855 197.474V192.184L156.476 189.495V194.784Z" fill="#E0E0E0"/>
<path d="M156.476 184.212L151.855 186.894V181.611L156.476 178.922V184.212Z" fill="#E0E0E0"/>
<path d="M156.476 173.632L151.855 176.322V171.032L156.476 168.343V173.632Z" fill="#E0E0E0"/>
<path d="M156.476 163.052L151.855 165.742V160.459L156.476 157.77V163.052Z" fill="#E0E0E0"/>
<path d="M156.476 152.481L151.855 155.17V149.88L156.476 147.191V152.481Z" fill="#E0E0E0"/>
<path d="M156.476 141.908L151.855 144.59V139.307L156.476 136.618V141.908Z" fill="#E0E0E0"/>
<path d="M156.476 131.328L151.855 134.017V128.728L156.476 126.039V131.328Z" fill="#E0E0E0"/>
<path d="M147.227 189.495L151.854 192.184V186.894L147.227 184.212V189.495Z" fill="#E0E0E0"/>
<path d="M147.227 200.074L151.854 202.763V197.473L147.227 194.784V200.074Z" fill="#E0E0E0"/>
<path d="M147.227 178.922L151.854 181.611V176.322L147.227 173.632V178.922Z" fill="#E0E0E0"/>
<path d="M147.227 168.342L151.854 171.031V165.741L147.227 163.052V168.342Z" fill="#E0E0E0"/>
<path d="M147.227 157.77L151.854 160.459V155.17L147.227 152.48V157.77Z" fill="#E0E0E0"/>
<path d="M147.227 147.191L151.854 149.88V144.591L147.227 141.908V147.191Z" fill="#E0E0E0"/>
<path d="M147.227 136.618L151.854 139.307V134.017L147.227 131.328V136.618Z" fill="#E0E0E0"/>
<path d="M147.227 126.039L151.854 128.728V123.445L147.227 120.756V126.039Z" fill="#E0E0E0"/>
<path d="M66.793 143.075L71.4206 145.765V140.475L66.793 137.786V143.075Z" fill="#E0E0E0"/>
<path d="M66.793 153.654L71.4206 156.337V151.054L66.793 148.365V153.654Z" fill="#E0E0E0"/>
<path d="M66.793 132.503L71.4206 135.185V129.902L66.793 127.213V132.503Z" fill="#E0E0E0"/>
<path d="M66.793 121.923L71.4206 124.612V119.323L66.793 116.633V121.923Z" fill="#E0E0E0"/>
<path d="M66.793 111.351L71.4206 114.04V108.75L66.793 106.061V111.351Z" fill="#E0E0E0"/>
<path d="M101.401 134.496V158.296L85.5664 149.15V125.343L101.401 134.496Z" fill="#FAFAFA"/>
<path d="M86.418 137.649L101.4 146.297V134.495L86.418 125.841V137.649Z" fill="#D2AE6D"/>
<path opacity="0.6" d="M86.418 137.649L101.4 146.297V134.495L86.418 125.841V137.649Z" fill="white"/>
<path d="M86.794 148.426V138.359L101.4 146.788V145.566L86.794 137.13V126.053L85.5586 125.343V149.15L101.4 158.296V156.863L86.794 148.426Z" fill="#D2AE6D"/>
<path opacity="0.2" d="M86.794 148.426V138.359L101.4 146.788V145.566L86.794 137.13V126.053L85.5586 125.343V149.15L101.4 158.296V156.863L86.794 148.426Z" fill="black"/>
<path d="M133.077 152.787V176.587L117.242 167.448V143.641L133.077 152.787Z" fill="#FAFAFA"/>
<path d="M118.098 155.941L133.079 164.589V152.787L118.098 144.133V155.941Z" fill="#D2AE6D"/>
<path opacity="0.6" d="M118.098 155.941L133.079 164.589V152.787L118.098 144.133V155.941Z" fill="white"/>
<path d="M118.471 166.725V156.65L133.077 165.087V163.865L118.471 155.429V144.351L117.242 143.641V167.441L133.084 176.587V175.161L118.471 166.725Z" fill="#D2AE6D"/>
<path opacity="0.2" d="M118.471 166.725V156.65L133.077 165.087V163.865L118.471 155.429V144.351L117.242 143.641V167.441L133.084 176.587V175.161L118.471 166.725Z" fill="black"/>
<path d="M207.836 125.342V149.143L223.671 139.997V116.189L207.836 125.342Z" fill="#FAFAFA"/>
<path d="M222.811 128.496L207.836 137.144V125.343L222.811 116.688V128.496Z" fill="#D2AE6D"/>
<path opacity="0.8" d="M222.811 128.496L207.836 137.144V125.343L222.811 116.688V128.496Z" fill="white"/>
<path d="M222.445 139.28V116.906L223.674 116.196V139.997L207.832 149.143V147.716L222.445 139.28Z" fill="#D2AE6D"/>
<path d="M207.836 136.413V137.642L223.377 128.667V127.438L207.836 136.413Z" fill="#D2AE6D"/>
<path d="M160.32 152.787V176.587L176.155 167.448V143.641L160.32 152.787Z" fill="#FAFAFA"/>
<path d="M175.302 155.941L160.32 164.589V152.787L175.302 144.133V155.941Z" fill="#D2AE6D"/>
<path opacity="0.8" d="M175.302 155.941L160.32 164.589V152.787L175.302 144.133V155.941Z" fill="white"/>
<path d="M174.927 166.725V144.351L176.162 143.641V167.441L160.32 176.587V175.161L174.927 166.725Z" fill="#D2AE6D"/>
<path d="M160.32 163.866V165.087L175.869 156.112V154.89L160.32 163.866Z" fill="#D2AE6D"/>
<path d="M136.246 149.142L143.822 143.832L193.102 80.6152L237.563 90.6213L242.845 87.5908L192.665 75.8716L136.246 149.142Z" fill="#455A64"/>
<path d="M192.665 75.872L112.589 30.8584L56.5664 103.146L136.246 149.143L192.665 75.872Z" fill="#263238"/>
<path d="M192.666 75.872L242.846 87.5913L162.6 42.5776L112.59 30.8584L192.666 75.872Z" fill="#37474F"/>
<path d="M77.707 177.665L74.8608 179.316C75.7167 176.331 75.9353 173.198 75.5024 170.123C75.3121 169.035 74.9184 167.993 74.3421 167.051C74.1236 166.587 72.4036 163.707 73.9189 162.383C75.4341 161.058 78.9697 163.693 78.8127 170.798C78.7356 173.125 78.364 175.432 77.707 177.665Z" fill="#D2AE6D"/>
<path opacity="0.5" d="M77.707 177.665L74.8608 179.316C75.7167 176.331 75.9353 173.198 75.5024 170.123C75.3121 169.035 74.9184 167.993 74.3421 167.051C74.1236 166.587 72.4036 163.707 73.9189 162.383C75.4341 161.058 78.9697 163.693 78.8127 170.798C78.7356 173.125 78.364 175.432 77.707 177.665Z" fill="black"/>
<path d="M76.3864 178.573H76.3318C76.2977 178.558 76.2704 178.531 76.2553 178.497C76.2402 178.463 76.2382 178.424 76.2499 178.389C77.0099 175.891 77.3512 173.285 77.26 170.676C77.2054 165.967 74.7483 163.469 74.7278 163.448C74.7019 163.42 74.6875 163.384 74.6875 163.346C74.6875 163.308 74.7019 163.271 74.7278 163.243C74.7545 163.218 74.7899 163.204 74.8268 163.204C74.8636 163.204 74.8991 163.218 74.9258 163.243C74.9258 163.243 77.4921 165.844 77.5467 170.669C77.6329 173.315 77.2848 175.958 76.5161 178.491C76.5044 178.516 76.4861 178.537 76.4631 178.551C76.4402 178.566 76.4135 178.573 76.3864 178.573Z" fill="white"/>
<path d="M75.5005 178.955L70.8319 181.726C70.8319 181.726 68.6751 181.406 68.8389 179.378C69.0027 177.351 69.8764 176.874 68.7911 175.966C67.7059 175.058 67.426 175.01 67.4738 174.143C67.5633 173.512 67.8904 172.938 68.3884 172.539C68.6931 172.29 68.9075 171.947 68.9988 171.563C69.09 171.18 69.053 170.777 68.8935 170.417C68.3475 169.366 67.6171 168.369 68.7024 167.864C69.3849 167.577 70.4497 167.939 71.1732 168.704C71.7069 169.382 72.4145 169.903 73.2208 170.212C73.9033 170.389 75.3435 170.403 75.2684 171.577C75.1934 172.751 74.9135 173.174 75.2002 173.7C75.6984 174.717 78.0122 175.249 75.5005 178.955Z" fill="#D2AE6D"/>
<path opacity="0.2" d="M75.5005 178.955L70.8319 181.726C70.8319 181.726 68.6751 181.406 68.8389 179.378C69.0027 177.351 69.8764 176.874 68.7911 175.966C67.7059 175.058 67.426 175.01 67.4738 174.143C67.5633 173.512 67.8904 172.938 68.3884 172.539C68.6931 172.29 68.9075 171.947 68.9988 171.563C69.09 171.18 69.053 170.777 68.8935 170.417C68.3475 169.366 67.6171 168.369 68.7024 167.864C69.3849 167.577 70.4497 167.939 71.1732 168.704C71.7069 169.382 72.4145 169.903 73.2208 170.212C73.9033 170.389 75.3435 170.403 75.2684 171.577C75.1934 172.751 74.9135 173.174 75.2002 173.7C75.6984 174.717 78.0122 175.249 75.5005 178.955Z" fill="black"/>
<path d="M73.5631 180.225C73.5446 180.224 73.5264 180.219 73.5097 180.211C73.493 180.203 73.4781 180.192 73.466 180.178C73.4538 180.164 73.4447 180.147 73.4391 180.129C73.4335 180.112 73.4316 180.093 73.4335 180.075C73.4335 180.006 73.9385 173.119 69.1607 168.601C69.1353 168.574 69.1211 168.539 69.1211 168.502C69.1211 168.465 69.1353 168.43 69.1607 168.403C69.1885 168.377 69.2251 168.363 69.2631 168.363C69.3011 168.363 69.3377 168.377 69.3655 168.403C74.2389 173.01 73.727 180.006 73.7201 180.102C73.715 180.139 73.6958 180.172 73.6665 180.195C73.6372 180.218 73.6001 180.229 73.5631 180.225Z" fill="white"/>
<path d="M72.7437 174.218C72.7248 174.217 72.7065 174.211 72.6897 174.202C72.673 174.194 72.6582 174.182 72.6461 174.167C72.6341 174.152 72.625 174.136 72.6195 174.117C72.614 174.099 72.6121 174.08 72.614 174.061C72.6489 173.482 72.8041 172.917 73.0697 172.401C73.3353 171.885 73.7054 171.43 74.1565 171.065C74.1879 171.045 74.2255 171.038 74.262 171.044C74.2986 171.05 74.3315 171.07 74.3545 171.099C74.3799 171.126 74.3941 171.161 74.3941 171.198C74.3941 171.235 74.3799 171.27 74.3545 171.297C73.9433 171.642 73.6057 172.067 73.3619 172.545C73.118 173.024 72.9727 173.546 72.9348 174.082C72.9336 174.104 72.9273 174.126 72.9165 174.146C72.9056 174.166 72.8905 174.183 72.8721 174.196C72.8537 174.209 72.8327 174.218 72.8104 174.222C72.7882 174.226 72.7654 174.225 72.7437 174.218Z" fill="white"/>
<path d="M73.09 175.413C73.0694 175.414 73.0488 175.41 73.0299 175.402C73.011 175.393 72.9942 175.381 72.9808 175.365C72.9808 175.365 71.7932 174.089 69.1108 174.457C69.0737 174.463 69.0358 174.455 69.0052 174.433C68.9745 174.411 68.9536 174.378 68.947 174.341C68.9441 174.323 68.945 174.303 68.9496 174.285C68.9543 174.266 68.9625 174.249 68.974 174.234C68.9854 174.218 68.9998 174.206 69.0163 174.196C69.0327 174.186 69.0509 174.18 69.0698 174.178C71.9092 173.789 73.1651 175.12 73.1651 175.174C73.191 175.202 73.2054 175.238 73.2054 175.276C73.2054 175.314 73.191 175.351 73.1651 175.379C73.1434 175.396 73.1175 175.408 73.09 175.413Z" fill="white"/>
<path d="M114.448 198.817L111.601 200.475C112.458 197.487 112.676 194.353 112.243 191.275C112.053 190.187 111.659 189.145 111.083 188.203C110.864 187.739 109.144 184.866 110.653 183.535C112.161 182.204 115.71 184.845 115.553 191.951C115.477 194.277 115.106 196.584 114.448 198.817Z" fill="#D2AE6D"/>
<path opacity="0.5" d="M114.448 198.817L111.601 200.475C112.458 197.487 112.676 194.353 112.243 191.275C112.053 190.187 111.659 189.145 111.083 188.203C110.864 187.739 109.144 184.866 110.653 183.535C112.161 182.204 115.71 184.845 115.553 191.951C115.477 194.277 115.106 196.584 114.448 198.817Z" fill="black"/>
<path d="M113.148 199.732H113.094C113.059 199.717 113.032 199.69 113.017 199.655C113.002 199.621 113 199.583 113.012 199.548C113.772 197.048 114.113 194.439 114.022 191.828C113.967 187.125 111.51 184.627 111.49 184.6C111.464 184.572 111.449 184.536 111.449 184.498C111.449 184.46 111.464 184.423 111.49 184.395C111.516 184.37 111.552 184.355 111.588 184.355C111.625 184.355 111.661 184.37 111.687 184.395C111.687 184.395 114.254 186.996 114.308 191.828C114.396 194.472 114.048 197.112 113.278 199.643C113.268 199.669 113.25 199.692 113.227 199.708C113.204 199.724 113.176 199.732 113.148 199.732Z" fill="white"/>
<path d="M112.242 200.114L107.539 202.878C107.539 202.878 105.382 202.557 105.546 200.537C105.71 198.517 106.583 198.032 105.498 197.124C104.413 196.217 104.133 196.176 104.181 195.302C104.268 194.671 104.596 194.099 105.095 193.705C105.4 193.453 105.614 193.109 105.705 192.725C105.796 192.34 105.759 191.937 105.601 191.575C105.054 190.524 104.324 189.528 105.409 189.023C106.092 188.736 107.157 189.098 107.88 189.869C108.402 190.544 109.098 191.063 109.894 191.371C110.576 191.548 112.016 191.562 111.941 192.736C111.866 193.91 111.586 194.326 111.873 194.852C112.467 195.875 114.753 196.408 112.242 200.114Z" fill="#D2AE6D"/>
<path opacity="0.2" d="M112.242 200.114L107.539 202.878C107.539 202.878 105.382 202.557 105.546 200.537C105.71 198.517 106.583 198.032 105.498 197.124C104.413 196.217 104.133 196.176 104.181 195.302C104.268 194.671 104.596 194.099 105.095 193.705C105.4 193.453 105.614 193.109 105.705 192.725C105.796 192.34 105.759 191.937 105.601 191.575C105.054 190.524 104.324 189.528 105.409 189.023C106.092 188.736 107.157 189.098 107.88 189.869C108.402 190.544 109.098 191.063 109.894 191.371C110.576 191.548 112.016 191.562 111.941 192.736C111.866 193.91 111.586 194.326 111.873 194.852C112.467 195.875 114.753 196.408 112.242 200.114Z" fill="black"/>
<path d="M110.324 201.384C110.305 201.382 110.287 201.377 110.27 201.368C110.254 201.359 110.239 201.347 110.227 201.332C110.215 201.318 110.206 201.301 110.2 201.283C110.195 201.265 110.193 201.246 110.195 201.227C110.195 201.158 110.7 194.272 105.922 189.76C105.908 189.747 105.897 189.731 105.89 189.713C105.883 189.696 105.879 189.677 105.879 189.658C105.879 189.639 105.883 189.62 105.89 189.602C105.897 189.585 105.908 189.569 105.922 189.555C105.949 189.53 105.984 189.516 106.021 189.516C106.058 189.516 106.093 189.53 106.12 189.555C111 194.162 110.488 201.158 110.481 201.247C110.478 201.286 110.46 201.322 110.43 201.347C110.401 201.373 110.363 201.386 110.324 201.384Z" fill="white"/>
<path d="M109.485 195.37C109.449 195.367 109.414 195.349 109.39 195.321C109.366 195.293 109.354 195.257 109.356 195.22C109.389 194.641 109.544 194.075 109.81 193.558C110.075 193.042 110.446 192.588 110.898 192.224C110.913 192.212 110.93 192.204 110.949 192.199C110.967 192.195 110.986 192.194 111.005 192.197C111.023 192.201 111.041 192.208 111.057 192.218C111.072 192.228 111.086 192.242 111.096 192.258C111.118 192.289 111.126 192.327 111.12 192.364C111.113 192.401 111.093 192.434 111.062 192.456C110.649 192.799 110.31 193.224 110.066 193.702C109.822 194.181 109.678 194.704 109.642 195.24C109.641 195.259 109.635 195.278 109.626 195.294C109.618 195.311 109.605 195.326 109.591 195.338C109.576 195.35 109.559 195.359 109.541 195.365C109.523 195.37 109.504 195.372 109.485 195.37Z" fill="white"/>
<path d="M109.832 196.565C109.792 196.566 109.753 196.551 109.723 196.524C109.723 196.524 108.535 195.248 105.853 195.616C105.834 195.619 105.815 195.618 105.796 195.614C105.778 195.609 105.76 195.601 105.745 195.589C105.73 195.578 105.717 195.564 105.708 195.547C105.698 195.531 105.692 195.512 105.689 195.494C105.686 195.475 105.687 195.456 105.692 195.438C105.697 195.42 105.705 195.403 105.717 195.388C105.728 195.374 105.742 195.362 105.759 195.353C105.775 195.344 105.793 195.338 105.812 195.337C108.651 194.948 109.907 196.272 109.907 196.333C109.933 196.36 109.947 196.395 109.947 196.432C109.947 196.469 109.933 196.504 109.907 196.531C109.887 196.55 109.86 196.562 109.832 196.565Z" fill="white"/>
<path d="M243.988 176.361L241.142 178.013C241.998 175.025 242.217 171.89 241.783 168.813C241.591 167.725 241.198 166.684 240.623 165.741C240.398 165.277 238.685 162.403 240.193 161.079C241.701 159.755 245.251 162.39 245.094 169.495C245.017 171.821 244.645 174.129 243.988 176.361Z" fill="#D2AE6D"/>
<path opacity="0.5" d="M243.988 176.361L241.142 178.013C241.998 175.025 242.217 171.89 241.783 168.813C241.591 167.725 241.198 166.684 240.623 165.741C240.398 165.277 238.685 162.403 240.193 161.079C241.701 159.755 245.251 162.39 245.094 169.495C245.017 171.821 244.645 174.129 243.988 176.361Z" fill="black"/>
<path d="M242.663 177.242H242.615C242.58 177.228 242.552 177.201 242.536 177.166C242.521 177.132 242.52 177.093 242.533 177.057C243.289 174.559 243.63 171.954 243.543 169.345C243.489 164.628 241.032 162.137 241.011 162.11C240.998 162.097 240.987 162.082 240.98 162.065C240.973 162.048 240.969 162.029 240.969 162.011C240.969 161.992 240.973 161.974 240.98 161.957C240.987 161.94 240.998 161.925 241.011 161.912C241.039 161.886 241.076 161.872 241.114 161.872C241.152 161.872 241.188 161.886 241.216 161.912C241.216 161.912 243.782 164.512 243.837 169.338C243.927 171.98 243.588 174.619 242.834 177.153C242.821 177.186 242.797 177.214 242.765 177.23C242.734 177.247 242.697 177.251 242.663 177.242Z" fill="white"/>
<path d="M241.78 177.625L237.077 180.355C237.077 180.355 234.92 180.041 235.084 178.014C235.248 175.986 236.122 175.509 235.029 174.601C233.937 173.693 233.664 173.652 233.712 172.779C233.807 172.151 234.133 171.581 234.627 171.181C234.933 170.933 235.149 170.59 235.241 170.206C235.332 169.822 235.294 169.419 235.132 169.059C234.593 168.001 233.856 167.011 234.948 166.506C235.63 166.219 236.695 166.574 237.418 167.345C237.94 168.02 238.636 168.539 239.432 168.847C240.114 169.031 241.555 169.045 241.479 170.212C241.404 171.379 241.118 171.809 241.411 172.335C241.978 173.386 244.292 173.918 241.78 177.625Z" fill="#D2AE6D"/>
<path opacity="0.2" d="M241.78 177.625L237.077 180.355C237.077 180.355 234.92 180.041 235.084 178.014C235.248 175.986 236.122 175.509 235.029 174.601C233.937 173.693 233.664 173.652 233.712 172.779C233.807 172.151 234.133 171.581 234.627 171.181C234.933 170.933 235.149 170.59 235.241 170.206C235.332 169.822 235.294 169.419 235.132 169.059C234.593 168.001 233.856 167.011 234.948 166.506C235.63 166.219 236.695 166.574 237.418 167.345C237.94 168.02 238.636 168.539 239.432 168.847C240.114 169.031 241.555 169.045 241.479 170.212C241.404 171.379 241.118 171.809 241.411 172.335C241.978 173.386 244.292 173.918 241.78 177.625Z" fill="black"/>
<path d="M239.864 178.894C239.845 178.892 239.827 178.887 239.81 178.878C239.793 178.869 239.779 178.857 239.767 178.842C239.754 178.828 239.745 178.811 239.74 178.793C239.734 178.775 239.733 178.756 239.734 178.737C239.734 178.668 240.239 171.782 235.469 167.27C235.45 167.259 235.434 167.244 235.423 167.226C235.411 167.208 235.403 167.188 235.4 167.167C235.397 167.146 235.399 167.124 235.405 167.104C235.411 167.083 235.422 167.065 235.437 167.049C235.452 167.033 235.47 167.021 235.489 167.013C235.509 167.005 235.531 167.002 235.552 167.004C235.574 167.005 235.594 167.012 235.613 167.022C235.631 167.033 235.647 167.048 235.66 167.065C240.54 171.672 240.028 178.668 240.021 178.764C240.019 178.783 240.014 178.801 240.005 178.818C239.996 178.835 239.984 178.849 239.97 178.862C239.955 178.874 239.938 178.883 239.92 178.888C239.902 178.894 239.883 178.896 239.864 178.894Z" fill="white"/>
<path d="M239.021 172.881C239.002 172.88 238.984 172.875 238.968 172.867C238.951 172.859 238.936 172.847 238.924 172.833C238.912 172.819 238.903 172.803 238.897 172.785C238.891 172.768 238.889 172.749 238.891 172.73C238.925 172.151 239.08 171.585 239.345 171.069C239.611 170.553 239.982 170.098 240.434 169.734C240.461 169.71 240.496 169.697 240.533 169.697C240.569 169.697 240.604 169.71 240.632 169.734C240.653 169.765 240.662 169.803 240.655 169.84C240.649 169.877 240.628 169.91 240.598 169.932C240.184 170.276 239.844 170.7 239.599 171.178C239.354 171.657 239.208 172.18 239.171 172.717C239.176 172.738 239.175 172.76 239.169 172.781C239.164 172.802 239.153 172.821 239.138 172.837C239.124 172.853 239.105 172.866 239.085 172.873C239.064 172.881 239.043 172.883 239.021 172.881Z" fill="white"/>
<path d="M239.365 174.082C239.326 174.079 239.29 174.062 239.263 174.034C239.263 174.034 238.075 172.758 235.386 173.126C235.354 173.119 235.325 173.102 235.305 173.076C235.285 173.051 235.273 173.019 235.273 172.986C235.273 172.954 235.285 172.922 235.305 172.897C235.325 172.871 235.354 172.854 235.386 172.847C238.225 172.457 239.481 173.788 239.481 173.843C239.497 173.865 239.507 173.89 239.509 173.917C239.512 173.943 239.508 173.97 239.497 173.995C239.486 174.019 239.468 174.04 239.446 174.055C239.424 174.071 239.398 174.08 239.372 174.082H239.365Z" fill="white"/>
<path d="M172.691 216.829L169.845 218.481C170.697 215.492 170.913 212.358 170.48 209.28C170.291 208.193 169.899 207.152 169.326 206.209C169.101 205.745 167.388 202.871 168.896 201.54C170.405 200.209 173.954 202.858 173.79 209.956C173.717 212.284 173.348 214.594 172.691 216.829Z" fill="#D2AE6D"/>
<path opacity="0.5" d="M172.691 216.829L169.845 218.481C170.697 215.492 170.913 212.358 170.48 209.28C170.291 208.193 169.899 207.152 169.326 206.209C169.101 205.745 167.388 202.871 168.896 201.54C170.405 200.209 173.954 202.858 173.79 209.956C173.717 212.284 173.348 214.594 172.691 216.829Z" fill="black"/>
<path d="M171.37 217.737H171.322C171.304 217.731 171.288 217.721 171.273 217.709C171.259 217.696 171.248 217.681 171.239 217.663C171.231 217.646 171.226 217.628 171.225 217.609C171.224 217.59 171.227 217.571 171.234 217.553C171.994 215.055 172.338 212.449 172.251 209.84C172.196 205.13 169.739 202.632 169.712 202.605C169.686 202.578 169.672 202.543 169.672 202.506C169.672 202.469 169.686 202.434 169.712 202.407C169.724 202.393 169.74 202.381 169.758 202.373C169.775 202.365 169.795 202.361 169.814 202.361C169.833 202.361 169.852 202.365 169.87 202.373C169.888 202.381 169.903 202.393 169.916 202.407C169.916 202.407 172.476 205.028 172.53 209.806C172.614 212.45 172.266 215.089 171.5 217.621C171.494 217.652 171.478 217.68 171.455 217.701C171.431 217.722 171.401 217.735 171.37 217.737Z" fill="white"/>
<path d="M170.48 218.119L165.777 220.883C165.777 220.883 163.627 220.569 163.791 218.542C163.955 216.515 164.829 216.037 163.737 215.13C162.644 214.222 162.371 214.181 162.419 213.307C162.512 212.679 162.839 212.108 163.334 211.71C163.64 211.462 163.856 211.119 163.948 210.735C164.039 210.351 164.001 209.947 163.839 209.587C163.3 208.529 162.563 207.54 163.655 207.035C164.303 206.741 165.402 207.103 166.125 207.874C166.646 208.55 167.342 209.07 168.139 209.376C168.821 209.553 170.255 209.574 170.187 210.741C170.118 211.908 169.832 212.338 170.118 212.864C170.685 213.901 172.992 214.413 170.48 218.119Z" fill="#D2AE6D"/>
<path opacity="0.2" d="M170.48 218.119L165.777 220.883C165.777 220.883 163.627 220.569 163.791 218.542C163.955 216.515 164.829 216.037 163.737 215.13C162.644 214.222 162.371 214.181 162.419 213.307C162.512 212.679 162.839 212.108 163.334 211.71C163.64 211.462 163.856 211.119 163.948 210.735C164.039 210.351 164.001 209.947 163.839 209.587C163.3 208.529 162.563 207.54 163.655 207.035C164.303 206.741 165.402 207.103 166.125 207.874C166.646 208.55 167.342 209.07 168.139 209.376C168.821 209.553 170.255 209.574 170.187 210.741C170.118 211.908 169.832 212.338 170.118 212.864C170.685 213.901 172.992 214.413 170.48 218.119Z" fill="black"/>
<path d="M168.572 219.362C168.553 219.36 168.534 219.355 168.518 219.346C168.501 219.337 168.486 219.325 168.474 219.31C168.462 219.296 168.453 219.279 168.447 219.261C168.442 219.243 168.44 219.224 168.442 219.205C168.442 219.137 168.947 212.25 164.169 207.738C164.143 207.71 164.129 207.674 164.129 207.636C164.129 207.598 164.143 207.561 164.169 207.533C164.196 207.508 164.231 207.494 164.268 207.494C164.305 207.494 164.34 207.508 164.367 207.533C169.247 212.14 168.729 219.137 168.729 219.232C168.727 219.251 168.721 219.269 168.713 219.286C168.704 219.303 168.692 219.318 168.677 219.33C168.663 219.342 168.646 219.351 168.628 219.356C168.609 219.362 168.59 219.364 168.572 219.362Z" fill="white"/>
<path d="M167.751 213.376C167.733 213.375 167.715 213.37 167.698 213.362C167.681 213.354 167.666 213.342 167.654 213.328C167.642 213.314 167.633 213.298 167.627 213.28C167.622 213.263 167.62 213.244 167.622 213.225C167.657 212.647 167.811 212.082 168.076 211.566C168.34 211.05 168.708 210.595 169.158 210.229C169.172 210.218 169.19 210.209 169.208 210.205C169.226 210.2 169.245 210.199 169.264 210.203C169.283 210.206 169.3 210.213 169.316 210.223C169.332 210.234 169.345 210.247 169.355 210.263C169.381 210.29 169.395 210.325 169.395 210.362C169.395 210.399 169.381 210.434 169.355 210.461C168.941 210.804 168.601 211.228 168.355 211.707C168.11 212.185 167.965 212.709 167.929 213.246C167.928 213.267 167.922 213.287 167.912 213.305C167.901 213.324 167.887 213.34 167.87 213.352C167.854 213.364 167.834 213.373 167.814 213.377C167.793 213.381 167.772 213.381 167.751 213.376Z" fill="white"/>
<path d="M168.072 214.583C168.052 214.583 168.033 214.578 168.015 214.57C167.998 214.562 167.982 214.55 167.969 214.536C167.969 214.536 166.782 213.259 164.092 213.628C164.074 213.632 164.054 213.632 164.036 213.627C164.017 213.623 164 213.615 163.985 213.603C163.97 213.591 163.958 213.577 163.949 213.56C163.941 213.543 163.936 213.524 163.935 213.505C163.932 213.487 163.933 213.469 163.937 213.451C163.942 213.433 163.95 213.417 163.96 213.402C163.971 213.387 163.985 213.375 164 213.366C164.016 213.357 164.033 213.35 164.051 213.348C166.898 212.959 168.147 214.29 168.147 214.345C168.172 214.371 168.186 214.407 168.186 214.443C168.186 214.48 168.172 214.516 168.147 214.542C168.127 214.564 168.1 214.578 168.072 214.583Z" fill="white"/>
<path d="M269.518 165.557C269.228 165.557 268.95 165.442 268.746 165.237C268.541 165.033 268.426 164.755 268.426 164.465V119.554C268.426 119.264 268.541 118.987 268.746 118.782C268.95 118.577 269.228 118.462 269.518 118.462C269.807 118.462 270.085 118.577 270.29 118.782C270.495 118.987 270.61 119.264 270.61 119.554V164.465C270.61 164.755 270.495 165.033 270.29 165.237C270.085 165.442 269.807 165.557 269.518 165.557Z" fill="#37474F"/>
<path d="M269.52 136.003C269.392 136.003 269.265 135.969 269.153 135.904C269.042 135.839 268.95 135.746 268.886 135.634L262.668 124.714C262.574 124.545 262.549 124.346 262.6 124.159C262.651 123.973 262.774 123.814 262.941 123.717C263.024 123.67 263.115 123.639 263.21 123.627C263.304 123.615 263.4 123.622 263.492 123.648C263.584 123.673 263.67 123.716 263.746 123.775C263.821 123.834 263.884 123.907 263.93 123.99L270.148 134.911C270.197 134.994 270.228 135.086 270.241 135.181C270.253 135.277 270.247 135.374 270.221 135.466C270.196 135.559 270.152 135.646 270.093 135.722C270.033 135.797 269.959 135.86 269.875 135.907C269.768 135.971 269.645 136.004 269.52 136.003Z" fill="#37474F"/>
<path d="M269.395 138.958C269.271 138.959 269.148 138.926 269.04 138.862C268.957 138.816 268.884 138.753 268.825 138.678C268.767 138.602 268.723 138.516 268.698 138.424C268.673 138.332 268.666 138.236 268.678 138.142C268.689 138.047 268.72 137.956 268.767 137.873L277.074 123.294C277.17 123.125 277.329 123.002 277.516 122.951C277.703 122.9 277.902 122.925 278.07 123.021C278.239 123.117 278.362 123.275 278.413 123.462C278.465 123.649 278.439 123.849 278.343 124.017L270.03 138.589C269.97 138.705 269.879 138.801 269.766 138.866C269.654 138.932 269.525 138.963 269.395 138.958Z" fill="#37474F"/>
<path d="M288.158 125.342C296.329 121.958 300.208 112.591 296.824 104.421C293.44 96.2502 284.073 92.3704 275.903 95.7546C267.733 99.1389 263.853 108.506 267.237 116.676C270.621 124.846 279.988 128.726 288.158 125.342Z" fill="#D2AE6D"/>
<path opacity="0.3" d="M288.158 125.342C296.329 121.958 300.208 112.591 296.824 104.421C293.44 96.2502 284.073 92.3704 275.903 95.7546C267.733 99.1389 263.853 108.506 267.237 116.676C270.621 124.846 279.988 128.726 288.158 125.342Z" fill="black"/>
<path d="M278.57 106.019C278.564 103.892 278.984 101.786 279.805 99.8234C280.625 97.8612 281.83 96.083 283.348 94.5932C282.911 94.5932 282.467 94.5386 282.017 94.5386C279.389 94.5379 276.802 95.1838 274.483 96.4195C272.164 97.6551 270.184 99.4425 268.719 101.624C267.254 103.805 266.349 106.314 266.082 108.928C265.816 111.542 266.197 114.181 267.192 116.613C268.187 119.045 269.765 121.195 271.787 122.873C273.809 124.551 276.213 125.706 278.787 126.235C281.361 126.765 284.025 126.652 286.545 125.908C289.065 125.165 291.364 123.812 293.238 121.97C289.239 121.633 285.512 119.807 282.796 116.853C280.079 113.898 278.571 110.032 278.57 106.019Z" fill="#D2AE6D"/>
<path opacity="0.4" d="M278.57 106.019C278.564 103.892 278.984 101.786 279.805 99.8234C280.625 97.8612 281.83 96.083 283.348 94.5932C282.911 94.5932 282.467 94.5386 282.017 94.5386C279.389 94.5379 276.802 95.1838 274.483 96.4195C272.164 97.6551 270.184 99.4425 268.719 101.624C267.254 103.805 266.349 106.314 266.082 108.928C265.816 111.542 266.197 114.181 267.192 116.613C268.187 119.045 269.765 121.195 271.787 122.873C273.809 124.551 276.213 125.706 278.787 126.235C281.361 126.765 284.025 126.652 286.545 125.908C289.065 125.165 291.364 123.812 293.238 121.97C289.239 121.633 285.512 119.807 282.796 116.853C280.079 113.898 278.571 110.032 278.57 106.019Z" fill="black"/>
<path d="M255.88 126.563C262.216 126.563 267.353 121.426 267.353 115.09C267.353 108.753 262.216 103.616 255.88 103.616C249.543 103.616 244.406 108.753 244.406 115.09C244.406 121.426 249.543 126.563 255.88 126.563Z" fill="#D2AE6D"/>
<path opacity="0.3" d="M255.88 126.563C262.216 126.563 267.353 121.426 267.353 115.09C267.353 108.753 262.216 103.616 255.88 103.616C249.543 103.616 244.406 108.753 244.406 115.09C244.406 121.426 249.543 126.563 255.88 126.563Z" fill="black"/>
<path d="M257.125 103.678C255.598 103.511 254.053 103.653 252.582 104.096C251.112 104.539 249.746 105.275 248.566 106.258C248.525 106.749 248.504 107.241 248.504 107.746C248.5 112.718 250.305 117.521 253.582 121.26C253.808 121.517 253.956 121.833 254.008 122.171C254.061 122.509 254.016 122.855 253.879 123.169C253.743 123.482 253.52 123.75 253.236 123.942C252.953 124.133 252.621 124.24 252.279 124.25H252.238C250.803 124.247 249.382 123.976 248.047 123.451C249.375 124.691 250.979 125.597 252.727 126.096C254.474 126.594 256.315 126.671 258.098 126.319C259.88 125.967 261.554 125.196 262.981 124.071C264.407 122.945 265.546 121.497 266.304 119.846C267.061 118.194 267.416 116.386 267.338 114.57C267.26 112.755 266.752 110.984 265.855 109.403C264.959 107.823 263.7 106.477 262.182 105.478C260.664 104.48 258.931 103.855 257.125 103.657V103.678Z" fill="#D2AE6D"/>
<path opacity="0.4" d="M257.125 103.678C255.598 103.511 254.053 103.653 252.582 104.096C251.112 104.539 249.746 105.275 248.566 106.258C248.525 106.749 248.504 107.241 248.504 107.746C248.5 112.718 250.305 117.521 253.582 121.26C253.808 121.517 253.956 121.833 254.008 122.171C254.061 122.509 254.016 122.855 253.879 123.169C253.743 123.482 253.52 123.75 253.236 123.942C252.953 124.133 252.621 124.24 252.279 124.25H252.238C250.803 124.247 249.382 123.976 248.047 123.451C249.375 124.691 250.979 125.597 252.727 126.096C254.474 126.594 256.315 126.671 258.098 126.319C259.88 125.967 261.554 125.196 262.981 124.071C264.407 122.945 265.546 121.497 266.304 119.846C267.061 118.194 267.416 116.386 267.338 114.57C267.26 112.755 266.752 110.984 265.855 109.403C264.959 107.823 263.7 106.477 262.182 105.478C260.664 104.48 258.931 103.855 257.125 103.657V103.678Z" fill="black"/>
<path d="M289.499 108.615C292.105 97.5723 285.266 86.5073 274.223 83.9009C263.18 81.2945 252.115 88.1337 249.508 99.1767C246.902 110.22 253.741 121.285 264.784 123.891C275.827 126.498 286.892 119.658 289.499 108.615Z" fill="#D2AE6D"/>
<path opacity="0.2" d="M275.376 117.404C271.866 117.403 268.415 116.503 265.352 114.789C262.288 113.076 259.715 110.606 257.878 107.616C256.04 104.626 254.999 101.215 254.854 97.7076C254.709 94.2008 255.465 90.7152 257.05 87.5835C254.609 89.4631 252.622 91.8678 251.237 94.6194C249.851 97.3709 249.103 100.399 249.046 103.479C248.99 106.559 249.627 109.613 250.911 112.413C252.195 115.213 254.092 117.689 256.462 119.657C258.832 121.625 261.615 123.034 264.604 123.781C267.593 124.527 270.711 124.592 273.728 123.97C276.745 123.348 279.584 122.055 282.034 120.187C284.483 118.319 286.482 115.924 287.88 113.179C284.293 115.929 279.896 117.414 275.376 117.404Z" fill="black"/>
<path d="M59.1585 173.789C58.8688 173.789 58.5911 173.674 58.3863 173.469C58.1815 173.264 58.0664 172.986 58.0664 172.697V127.785C58.0664 127.496 58.1815 127.218 58.3863 127.013C58.5911 126.808 58.8688 126.693 59.1585 126.693C59.4481 126.693 59.7259 126.808 59.9307 127.013C60.1355 127.218 60.2505 127.496 60.2505 127.785V172.697C60.2505 172.986 60.1355 173.264 59.9307 173.469C59.7259 173.674 59.4481 173.789 59.1585 173.789Z" fill="#37474F"/>
<path d="M59.1595 144.234C59.0307 144.238 58.9034 144.206 58.7923 144.141C58.6812 144.075 58.5908 143.98 58.5316 143.866L52.3068 132.945C52.2108 132.777 52.1857 132.577 52.2369 132.39C52.2881 132.203 52.4115 132.044 52.5798 131.948C52.7482 131.852 52.9477 131.827 53.1346 131.879C53.3215 131.93 53.4804 132.053 53.5763 132.221L59.7943 143.142C59.8417 143.225 59.8722 143.316 59.8841 143.411C59.896 143.506 59.8891 143.602 59.8637 143.694C59.8383 143.786 59.795 143.872 59.7362 143.947C59.6775 144.022 59.6044 144.085 59.5212 144.132C59.4126 144.199 59.2873 144.235 59.1595 144.234Z" fill="#37474F"/>
<path d="M59.0442 147.197C58.9168 147.196 58.792 147.161 58.6821 147.097C58.5722 147.033 58.481 146.941 58.4175 146.831C58.3541 146.72 58.3205 146.595 58.3203 146.468C58.3201 146.34 58.3531 146.215 58.4162 146.105L66.7364 131.526C66.8323 131.357 66.9912 131.234 67.1781 131.183C67.365 131.132 67.5646 131.157 67.7329 131.253C67.9013 131.349 68.0246 131.507 68.0758 131.694C68.127 131.881 68.1019 132.081 68.0059 132.249L59.6789 146.828C59.614 146.939 59.5214 147.032 59.4102 147.096C59.2989 147.161 59.1728 147.195 59.0442 147.197Z" fill="#37474F"/>
<path d="M77.8146 133.573C85.9848 130.189 89.8647 120.822 86.4804 112.652C83.0962 104.482 73.7294 100.602 65.5592 103.986C57.3889 107.37 53.5091 116.737 56.8933 124.907C60.2775 133.078 69.6443 136.957 77.8146 133.573Z" fill="#D2AE6D"/>
<path opacity="0.3" d="M77.8146 133.573C85.9848 130.189 89.8647 120.822 86.4804 112.652C83.0962 104.482 73.7294 100.602 65.5592 103.986C57.3889 107.37 53.5091 116.737 56.8933 124.907C60.2775 133.078 69.6443 136.957 77.8146 133.573Z" fill="black"/>
<path d="M68.2163 114.25C68.2115 112.124 68.6316 110.017 69.4521 108.055C70.2726 106.093 71.4768 104.315 72.9941 102.825C72.5504 102.825 72.1136 102.77 71.629 102.77C69.001 102.768 66.4131 103.413 64.0934 104.648C61.7736 105.883 59.7935 107.67 58.3277 109.851C56.8619 112.032 55.9555 114.541 55.6884 117.155C55.4213 119.769 55.8017 122.409 56.7962 124.842C57.7906 127.274 59.3685 129.425 61.3905 131.103C63.4125 132.782 65.8166 133.937 68.3906 134.466C70.9646 134.996 73.6294 134.884 76.1499 134.14C78.6704 133.396 80.9691 132.044 82.8431 130.201C78.8515 129.855 75.1349 128.024 72.427 125.071C69.719 122.118 68.2166 118.257 68.2163 114.25Z" fill="#D2AE6D"/>
<path opacity="0.4" d="M68.2163 114.25C68.2115 112.124 68.6316 110.017 69.4521 108.055C70.2726 106.093 71.4768 104.315 72.9941 102.825C72.5504 102.825 72.1136 102.77 71.629 102.77C69.001 102.768 66.4131 103.413 64.0934 104.648C61.7736 105.883 59.7935 107.67 58.3277 109.851C56.8619 112.032 55.9555 114.541 55.6884 117.155C55.4213 119.769 55.8017 122.409 56.7962 124.842C57.7906 127.274 59.3685 129.425 61.3905 131.103C63.4125 132.782 65.8166 133.937 68.3906 134.466C70.9646 134.996 73.6294 134.884 76.1499 134.14C78.6704 133.396 80.9691 132.044 82.8431 130.201C78.8515 129.855 75.1349 128.024 72.427 125.071C69.719 122.118 68.2166 118.257 68.2163 114.25Z" fill="black"/>
<path d="M45.5282 134.795C51.8649 134.795 57.0017 129.658 57.0017 123.322C57.0017 116.985 51.8649 111.848 45.5282 111.848C39.1916 111.848 34.0547 116.985 34.0547 123.322C34.0547 129.658 39.1916 134.795 45.5282 134.795Z" fill="#D2AE6D"/>
<path opacity="0.3" d="M45.5282 134.795C51.8649 134.795 57.0017 129.658 57.0017 123.322C57.0017 116.985 51.8649 111.848 45.5282 111.848C39.1916 111.848 34.0547 116.985 34.0547 123.322C34.0547 129.658 39.1916 134.795 45.5282 134.795Z" fill="black"/>
<path d="M46.7702 111.909C45.2424 111.743 43.6968 111.886 42.2253 112.329C40.7538 112.773 39.3864 113.507 38.2043 114.489C38.2043 114.981 38.1497 115.472 38.1497 115.977C38.1439 120.951 39.949 125.758 43.2278 129.498C43.4545 129.755 43.603 130.071 43.6558 130.41C43.7085 130.748 43.6633 131.095 43.5255 131.408C43.3878 131.722 43.1631 131.99 42.8782 132.18C42.5932 132.37 42.2598 132.474 41.9174 132.481C40.4826 132.481 39.0607 132.21 37.7266 131.683C39.0552 132.918 40.6581 133.82 42.4035 134.316C44.1488 134.811 45.9868 134.886 47.7664 134.532C49.546 134.179 51.2164 133.409 52.6404 132.285C54.0643 131.16 55.2012 129.714 55.9575 128.065C56.7139 126.416 57.0681 124.611 56.9911 122.798C56.914 120.986 56.408 119.217 55.5145 117.638C54.621 116.059 53.3656 114.715 51.8514 113.715C50.3372 112.716 48.6075 112.09 46.8044 111.889L46.7702 111.909Z" fill="#D2AE6D"/>
<path opacity="0.4" d="M46.7702 111.909C45.2424 111.743 43.6968 111.886 42.2253 112.329C40.7538 112.773 39.3864 113.507 38.2043 114.489C38.2043 114.981 38.1497 115.472 38.1497 115.977C38.1439 120.951 39.949 125.758 43.2278 129.498C43.4545 129.755 43.603 130.071 43.6558 130.41C43.7085 130.748 43.6633 131.095 43.5255 131.408C43.3878 131.722 43.1631 131.99 42.8782 132.18C42.5932 132.37 42.2598 132.474 41.9174 132.481C40.4826 132.481 39.0607 132.21 37.7266 131.683C39.0552 132.918 40.6581 133.82 42.4035 134.316C44.1488 134.811 45.9868 134.886 47.7664 134.532C49.546 134.179 51.2164 133.409 52.6404 132.285C54.0643 131.16 55.2012 129.714 55.9575 128.065C56.7139 126.416 57.0681 124.611 56.9911 122.798C56.914 120.986 56.408 119.217 55.5145 117.638C54.621 116.059 53.3656 114.715 51.8514 113.715C50.3372 112.716 48.6075 112.09 46.8044 111.889L46.7702 111.909Z" fill="black"/>
<path d="M79.1549 116.853C81.7612 105.81 74.922 94.7446 63.879 92.1382C52.836 89.5318 41.771 96.371 39.1646 107.414C36.5582 118.457 43.3974 129.522 54.4404 132.128C65.4835 134.735 76.5485 127.896 79.1549 116.853Z" fill="#D2AE6D"/>
<path opacity="0.2" d="M65.0216 125.636C61.5113 125.638 58.059 124.74 54.9945 123.028C51.9299 121.316 49.3556 118.847 47.5173 115.856C45.679 112.866 44.6383 109.454 44.4944 105.946C44.3505 102.439 45.1083 98.9533 46.6954 95.8223C44.2442 97.6966 42.2469 100.099 40.8518 102.851C39.4567 105.604 38.6997 108.635 38.637 111.72C38.5744 114.805 39.2077 117.864 40.4899 120.671C41.7721 123.478 43.6702 125.959 46.0433 127.932C48.4163 129.904 51.2033 131.316 54.1971 132.063C57.1909 132.811 60.3146 132.874 63.3361 132.248C66.3576 131.622 69.1993 130.323 71.65 128.448C74.1006 126.573 76.0973 124.17 77.4917 121.418C73.9126 124.158 69.5293 125.641 65.0216 125.636Z" fill="black"/>
<path d="M250.339 190.73V181.959H245.336V190.73C245.357 190.949 245.435 191.16 245.564 191.34C245.692 191.519 245.865 191.662 246.066 191.753C246.616 192.03 247.222 192.173 247.837 192.173C248.453 192.173 249.059 192.03 249.609 191.753C249.81 191.663 249.985 191.521 250.113 191.341C250.241 191.161 250.319 190.95 250.339 190.73Z" fill="#455A64"/>
<path d="M249.587 180.936C250.563 181.502 250.563 182.417 249.587 182.983C249.038 183.263 248.431 183.408 247.816 183.408C247.2 183.408 246.593 183.263 246.045 182.983C245.068 182.424 245.068 181.509 246.045 180.936C246.593 180.656 247.2 180.511 247.816 180.511C248.431 180.511 249.038 180.656 249.587 180.936Z" fill="#37474F"/>
<path d="M257.843 142.467C257.649 142.467 257.464 142.39 257.327 142.253C257.19 142.116 257.113 141.931 257.113 141.737V133.546C257.103 133.445 257.114 133.343 257.146 133.246C257.179 133.149 257.23 133.06 257.299 132.985C257.367 132.91 257.451 132.849 257.544 132.808C257.637 132.767 257.738 132.746 257.84 132.746C257.942 132.746 258.042 132.767 258.135 132.808C258.229 132.849 258.312 132.91 258.38 132.985C258.449 133.06 258.501 133.149 258.533 133.246C258.565 133.343 258.576 133.445 258.567 133.546V141.737C258.568 141.833 258.549 141.927 258.514 142.016C258.478 142.104 258.424 142.185 258.357 142.253C258.29 142.321 258.21 142.375 258.122 142.412C258.033 142.448 257.939 142.467 257.843 142.467Z" fill="#37474F"/>
<path d="M269.504 149.832C269.409 149.832 269.314 149.813 269.226 149.776C269.138 149.74 269.058 149.686 268.99 149.618C268.923 149.55 268.87 149.469 268.834 149.381C268.798 149.292 268.78 149.197 268.781 149.102V140.911C268.771 140.81 268.782 140.708 268.814 140.611C268.847 140.514 268.898 140.425 268.967 140.35C269.035 140.274 269.119 140.214 269.212 140.173C269.305 140.132 269.406 140.11 269.508 140.11C269.61 140.11 269.71 140.132 269.803 140.173C269.897 140.214 269.98 140.274 270.048 140.35C270.117 140.425 270.169 140.514 270.201 140.611C270.233 140.708 270.244 140.81 270.235 140.911V149.102C270.235 149.295 270.158 149.481 270.021 149.618C269.884 149.755 269.698 149.832 269.504 149.832Z" fill="#37474F"/>
<path d="M247.875 182.253C247.681 182.253 247.495 182.176 247.358 182.039C247.221 181.902 247.145 181.716 247.145 181.522V127.827C247.147 127.699 247.182 127.575 247.248 127.465C247.313 127.355 247.405 127.264 247.516 127.201C247.627 127.138 247.752 127.104 247.879 127.104C248.007 127.104 248.132 127.136 248.243 127.199L278.514 144.679C278.671 144.781 278.783 144.939 278.827 145.121C278.87 145.303 278.842 145.495 278.749 145.657C278.655 145.819 278.503 145.939 278.323 145.992C278.143 146.045 277.95 146.027 277.784 145.942L248.605 129.09V181.522C248.605 181.618 248.586 181.713 248.55 181.802C248.513 181.891 248.459 181.971 248.391 182.039C248.323 182.107 248.243 182.16 248.154 182.197C248.066 182.234 247.971 182.253 247.875 182.253Z" fill="#37474F"/>
<path d="M251.543 136.495V157.292C251.542 157.787 251.672 158.273 251.921 158.701C252.169 159.129 252.526 159.484 252.956 159.729L276.367 173.25C276.547 173.354 276.752 173.409 276.96 173.409C277.168 173.409 277.372 173.355 277.553 173.251C277.733 173.147 277.883 172.998 277.988 172.818C278.092 172.638 278.148 172.434 278.148 172.226V151.429C278.147 150.935 278.016 150.449 277.768 150.022C277.52 149.594 277.164 149.239 276.736 148.992L253.324 135.471C253.144 135.367 252.94 135.312 252.732 135.312C252.524 135.312 252.319 135.366 252.139 135.47C251.958 135.574 251.808 135.723 251.704 135.903C251.599 136.083 251.544 136.287 251.543 136.495Z" fill="#455A64"/>
<path d="M257.199 143.314C257.199 143.371 257.19 143.414 257.171 143.443C257.152 143.473 257.127 143.489 257.095 143.491C257.063 143.494 257.027 143.484 256.987 143.461C256.946 143.437 256.91 143.406 256.878 143.366C256.846 143.327 256.82 143.282 256.802 143.231C256.783 143.18 256.774 143.126 256.774 143.069C256.774 143.012 256.783 142.969 256.802 142.939C256.82 142.91 256.846 142.894 256.878 142.891C256.91 142.889 256.946 142.899 256.987 142.922C257.027 142.945 257.063 142.976 257.095 143.016C257.127 143.056 257.152 143.101 257.171 143.152C257.19 143.202 257.199 143.256 257.199 143.314ZM257.102 143.258C257.102 143.221 257.097 143.187 257.087 143.156C257.078 143.125 257.065 143.098 257.047 143.075C257.03 143.052 257.01 143.033 256.987 143.02C256.963 143.007 256.943 143.002 256.926 143.005C256.908 143.008 256.895 143.02 256.885 143.039C256.876 143.059 256.871 143.088 256.871 143.125C256.871 143.162 256.876 143.196 256.885 143.227C256.895 143.258 256.908 143.285 256.926 143.308C256.943 143.331 256.963 143.349 256.987 143.363C257.01 143.376 257.03 143.381 257.047 143.378C257.065 143.375 257.078 143.363 257.087 143.343C257.097 143.323 257.102 143.295 257.102 143.258ZM257.27 143.617V143.092L257.45 143.195C257.484 143.215 257.514 143.24 257.538 143.269C257.562 143.298 257.581 143.329 257.593 143.363C257.606 143.397 257.613 143.432 257.613 143.467C257.613 143.502 257.606 143.528 257.593 143.548C257.58 143.567 257.561 143.577 257.537 143.577C257.512 143.578 257.482 143.568 257.447 143.548L257.333 143.483V143.394L257.432 143.451C257.45 143.461 257.466 143.466 257.478 143.466C257.49 143.465 257.499 143.46 257.505 143.45C257.511 143.441 257.514 143.427 257.514 143.41C257.514 143.392 257.511 143.376 257.505 143.359C257.499 143.343 257.49 143.327 257.478 143.313C257.465 143.299 257.45 143.286 257.431 143.276L257.367 143.238V143.672L257.27 143.617ZM257.675 143.849V143.325L257.981 143.501V143.592L257.771 143.472V143.596L257.966 143.708V143.8L257.771 143.688V143.813L257.982 143.934V144.026L257.675 143.849ZM258.438 143.763V144.287L258.355 144.24L258.157 143.796L258.154 143.794V144.124L258.058 144.069V143.545L258.142 143.593L258.338 144.036L258.342 144.038V143.708L258.438 143.763Z" fill="#FAFAFA"/>
<path d="M254.739 149.452V148.928L254.835 148.983V149.199L255.03 149.311V149.095L255.126 149.15V149.674L255.03 149.619V149.403L254.835 149.291V149.507L254.739 149.452ZM255.623 149.698C255.623 149.755 255.613 149.798 255.594 149.827C255.576 149.857 255.55 149.873 255.518 149.875C255.486 149.878 255.45 149.868 255.41 149.845C255.369 149.822 255.333 149.79 255.301 149.75C255.269 149.711 255.244 149.666 255.225 149.615C255.206 149.564 255.197 149.51 255.197 149.453C255.197 149.396 255.206 149.353 255.225 149.323C255.244 149.294 255.269 149.278 255.301 149.275C255.333 149.273 255.369 149.283 255.41 149.306C255.45 149.329 255.486 149.361 255.518 149.4C255.55 149.44 255.576 149.485 255.594 149.536C255.613 149.587 255.623 149.641 255.623 149.698ZM255.525 149.642C255.525 149.605 255.52 149.571 255.511 149.54C255.501 149.509 255.488 149.482 255.471 149.459C255.453 149.436 255.433 149.418 255.41 149.404C255.387 149.391 255.366 149.386 255.349 149.389C255.332 149.392 255.318 149.404 255.309 149.424C255.299 149.444 255.294 149.472 255.294 149.509C255.294 149.546 255.299 149.58 255.309 149.611C255.318 149.642 255.332 149.669 255.349 149.692C255.366 149.715 255.387 149.733 255.41 149.747C255.433 149.76 255.453 149.765 255.471 149.762C255.488 149.759 255.501 149.747 255.511 149.727C255.52 149.707 255.525 149.679 255.525 149.642ZM255.974 149.638L256.071 149.693V150.034C256.071 150.072 256.063 150.101 256.047 150.12C256.031 150.14 256.009 150.15 255.981 150.149C255.953 150.149 255.92 150.138 255.882 150.116C255.844 150.095 255.811 150.068 255.783 150.036C255.755 150.003 255.733 149.969 255.717 149.931C255.702 149.893 255.694 149.855 255.694 149.817V149.477L255.79 149.532V149.863C255.79 149.883 255.794 149.903 255.801 149.922C255.809 149.942 255.82 149.961 255.834 149.978C255.847 149.995 255.864 150.008 255.882 150.019C255.901 150.03 255.917 150.035 255.931 150.034C255.945 150.033 255.955 150.027 255.963 150.015C255.971 150.004 255.974 149.989 255.974 149.969V149.638ZM256.396 150.031C256.394 150.009 256.387 149.989 256.373 149.97C256.36 149.951 256.342 149.934 256.318 149.921C256.303 149.912 256.29 149.907 256.279 149.906C256.268 149.905 256.26 149.907 256.254 149.912C256.248 149.918 256.245 149.927 256.245 149.938C256.245 149.947 256.247 149.956 256.251 149.965C256.254 149.974 256.26 149.984 256.266 149.992C256.273 150.001 256.281 150.01 256.289 150.019C256.298 150.027 256.307 150.036 256.317 150.044L256.358 150.079C256.378 150.095 256.396 150.113 256.413 150.131C256.429 150.149 256.444 150.167 256.456 150.187C256.468 150.206 256.477 150.226 256.484 150.247C256.491 150.268 256.494 150.289 256.494 150.311C256.494 150.343 256.487 150.367 256.473 150.382C256.459 150.398 256.439 150.404 256.413 150.402C256.387 150.4 256.355 150.388 256.318 150.367C256.281 150.346 256.249 150.321 256.222 150.292C256.195 150.264 256.174 150.233 256.159 150.198C256.144 150.164 256.136 150.128 256.135 150.09L256.228 150.143C256.229 150.161 256.233 150.179 256.241 150.195C256.249 150.211 256.259 150.226 256.272 150.239C256.285 150.252 256.3 150.264 256.317 150.273C256.333 150.283 256.347 150.288 256.359 150.29C256.371 150.291 256.381 150.289 256.387 150.283C256.394 150.277 256.397 150.268 256.397 150.255C256.397 150.243 256.394 150.232 256.388 150.22C256.382 150.209 256.374 150.197 256.362 150.185C256.351 150.173 256.337 150.159 256.32 150.145L256.271 150.103C256.232 150.07 256.202 150.036 256.18 150C256.158 149.964 256.147 149.927 256.147 149.889C256.147 149.857 256.154 149.833 256.169 149.818C256.184 149.803 256.204 149.796 256.23 149.798C256.256 149.799 256.286 149.81 256.319 149.829C256.353 149.848 256.382 149.872 256.407 149.9C256.433 149.927 256.452 149.957 256.466 149.989C256.481 150.021 256.488 150.052 256.488 150.084L256.396 150.031ZM256.559 150.498V149.974L256.865 150.15V150.241L256.655 150.12V150.245L256.85 150.357V150.448L256.655 150.337V150.462L256.866 150.583V150.675L256.559 150.498Z" fill="#FAFAFA"/>
<path d="M194.372 244.821C194.372 244.821 194.003 245.422 194.167 248.159C194.331 250.896 194.331 251.1 194.372 252.882C194.413 254.663 194.331 256.649 196.617 256.049C198.904 255.448 199.293 253.858 199.027 252.459C198.653 250.602 198.397 248.723 198.262 246.834C198.208 245.155 197.648 244.596 197.648 244.596L194.372 244.821Z" fill="#37474F"/>
<path d="M196.49 215.827L196.319 219.239C196.259 220.421 196.339 221.606 196.558 222.768C197.104 225.696 198.128 231.812 197.923 235.696C197.636 240.958 197.684 244.569 197.684 244.569C197.684 244.569 198.135 250.029 198.155 251.176C198.162 251.372 198.13 251.567 198.06 251.75C197.99 251.934 197.883 252.101 197.747 252.242C197.61 252.383 197.447 252.494 197.266 252.57C197.085 252.646 196.891 252.685 196.694 252.684C196.176 252.684 194.742 253.203 194.408 245.654C193.922 241.345 193.144 237.074 192.08 232.87C190.981 228.679 190.203 224.973 189.801 222.925C189.593 221.869 189.456 220.799 189.391 219.724L189.098 214.946L196.49 215.827Z" fill="#945959"/>
<path d="M185.368 244.507V244.555C185.362 245.189 185.23 245.815 184.979 246.397C184.799 246.861 184.709 247.354 184.713 247.851V249.899C184.713 249.983 184.68 250.063 184.621 250.123C184.563 250.183 184.483 250.218 184.399 250.22C184.357 250.22 184.315 250.211 184.276 250.195C184.237 250.179 184.202 250.156 184.172 250.126C184.142 250.096 184.119 250.061 184.103 250.022C184.086 249.983 184.078 249.941 184.078 249.899V246.759L185.368 244.507Z" fill="#263238"/>
<path d="M184.325 242.425C184.325 242.425 183.233 243.23 183.233 245.36C183.192 246.239 182.957 247.098 182.544 247.874C182.131 248.651 181.55 249.326 180.844 249.851C180.038 250.335 178.257 249.168 178.257 249.168C178.257 249.168 176.359 250.779 176.359 251.503C176.359 252.226 177.288 252.82 179.431 252.526C181.574 252.233 183.355 251.919 183.69 249.598C184.079 246.868 184.093 246.541 184.912 245.646C185.731 244.752 185.417 242.916 184.325 242.425Z" fill="#263238"/>
<path d="M188.075 207.868L179.7 216.632L180.335 236.828L180.533 242.336C180.369 245.544 178.15 248.779 178.15 248.779C178.106 249.21 178.106 249.645 178.15 250.076H180.164C184.027 250.076 184.314 242.022 184.314 242.022L184.444 240.043C184.569 238.159 184.816 236.285 185.181 234.432C187.099 224.911 186.341 219.949 186.341 219.949L188.075 207.868Z" fill="#945959"/>
<path d="M184.315 242.05C184.315 242.05 183.427 242.685 183.202 244.985C183.163 245.868 182.925 246.731 182.506 247.509C182.086 248.286 181.496 248.959 180.779 249.476C179.96 249.954 178.151 248.794 178.151 248.794C178.151 248.794 176.227 250.405 176.227 251.128C176.227 251.852 177.168 252.445 179.346 252.145C181.523 251.845 182.943 251.463 183.345 249.156C183.748 246.849 183.755 246.309 184.588 245.415C185.42 244.521 185.953 243.702 184.315 242.05Z" fill="#37474F"/>
<path d="M194.078 198.374C194.078 198.374 197.027 202.469 196.931 212.168C196.863 219.628 196.624 221.198 196.624 221.198C194.057 223.561 190.687 224.857 187.198 224.822C183.731 224.822 179.465 221.409 179.465 221.409C179.465 221.409 179.526 212.741 179.731 209.24C179.958 205.783 180.511 202.355 181.383 199.001L194.078 198.374Z" fill="#263238"/>
<path d="M167.693 182.594C167.606 182.293 167.549 181.984 167.522 181.672C167.529 180.995 167.269 180.343 166.798 179.857C166.307 179.174 166.587 178.614 166.116 178.492C165.645 178.369 165.324 179.945 165.836 180.676C165.316 180.327 164.888 179.859 164.587 179.311C164.259 178.567 163.693 177.461 163.222 177.263C162.751 177.065 161.106 179.01 161.782 180.812C162.457 182.614 165.399 184.436 165.399 184.436L167.693 182.594Z" fill="#945959"/>
<path d="M183.965 180.676H183.91C182.689 180.664 181.495 181.036 180.498 181.74L172.655 187.201L167.577 182.184C166.914 183.092 166.014 183.8 164.977 184.232L170.635 191.535C170.901 191.879 171.278 192.121 171.702 192.22C172.126 192.32 172.571 192.271 172.962 192.081L180.122 188.62L183.965 180.676Z" fill="#37474F"/>
<path d="M186.142 180.669H183.964C183.964 180.669 176.102 188.115 181.535 192.886C181.773 194.91 181.723 196.958 181.384 198.968C181.384 198.968 185.35 201.63 194.155 198.968L193.383 192.784L195.09 187.324L194.735 181.72C194.722 181.543 194.646 181.377 194.521 181.252C194.396 181.126 194.229 181.05 194.052 181.038L190.79 180.894L186.142 180.669Z" fill="#455A64"/>
<path d="M186.283 180.047L185.089 180.73L182.857 184.218C182.799 184.31 182.761 184.414 182.746 184.522C182.731 184.63 182.738 184.741 182.768 184.846L183.403 187.05L183.15 187.351C183.029 187.495 182.944 187.667 182.903 187.851C182.861 188.035 182.864 188.226 182.911 188.409L183.45 190.422L186.03 188.682C186.21 188.56 186.353 188.391 186.442 188.194C186.531 187.996 186.564 187.777 186.535 187.562V187.371L189.832 186.183C189.947 186.142 190.05 186.074 190.133 185.985C190.216 185.896 190.277 185.789 190.31 185.672L191.675 180.962L190.754 180.279L186.283 180.047Z" fill="#263238"/>
<path d="M190.736 169.271C190.736 170.265 190.441 171.238 189.889 172.065C189.336 172.893 188.55 173.537 187.631 173.918C186.712 174.299 185.701 174.398 184.725 174.204C183.749 174.01 182.853 173.531 182.149 172.828C181.446 172.124 180.967 171.228 180.772 170.252C180.578 169.276 180.678 168.265 181.059 167.346C181.439 166.426 182.084 165.641 182.911 165.088C183.739 164.535 184.711 164.24 185.706 164.24C186.367 164.239 187.021 164.369 187.632 164.621C188.243 164.874 188.798 165.244 189.265 165.712C189.732 166.179 190.103 166.734 190.355 167.344C190.608 167.955 190.737 168.61 190.736 169.271Z" fill="#263238"/>
<path d="M197.894 176.505C197.894 177.061 197.729 177.605 197.42 178.067C197.111 178.53 196.672 178.89 196.158 179.103C195.644 179.316 195.078 179.371 194.533 179.263C193.988 179.154 193.486 178.887 193.093 178.493C192.7 178.1 192.432 177.599 192.324 177.054C192.215 176.508 192.271 175.943 192.484 175.429C192.696 174.915 193.057 174.476 193.519 174.167C193.982 173.858 194.525 173.693 195.082 173.693C195.451 173.692 195.817 173.764 196.159 173.905C196.5 174.046 196.811 174.253 197.072 174.515C197.333 174.776 197.54 175.086 197.681 175.428C197.822 175.769 197.895 176.135 197.894 176.505Z" fill="#263238"/>
<path d="M194.223 176.23C195.383 175.07 195.558 173.365 194.614 172.422C193.671 171.478 191.966 171.653 190.806 172.813C189.647 173.972 189.472 175.677 190.416 176.621C191.359 177.564 193.064 177.389 194.223 176.23Z" fill="#D2AE6D"/>
<path d="M193.008 167.018C193.202 166.797 193.346 166.537 193.431 166.256C193.516 165.974 193.539 165.678 193.499 165.387C193.417 164.295 194.448 165.086 194.537 165.714C194.527 166.092 194.41 166.459 194.2 166.773C193.989 167.088 193.694 167.336 193.349 167.489L193.008 167.018Z" fill="#263238"/>
<path d="M193.356 167.237C193.649 167.253 193.942 167.205 194.216 167.098C194.489 166.991 194.736 166.826 194.94 166.616C195.745 165.878 195.759 167.175 195.322 167.633C195.024 167.854 194.67 167.988 194.299 168.019C193.929 168.05 193.558 167.978 193.227 167.81L193.356 167.237Z" fill="#263238"/>
<path d="M186.142 177.829V180.669C186.142 180.669 184.039 187.494 184.729 186.996C186.776 185.556 189.807 182.048 190.578 181.14C190.7 180.997 190.768 180.816 190.769 180.628V175.167L186.142 177.829Z" fill="#945959"/>
<path d="M190.714 174.232V174.396C189.683 178.491 187.007 179.344 186.141 179.556V173.263H190.611L190.714 174.232Z" fill="#703838"/>
<path d="M186.92 165.127C185.442 165.222 184.061 165.89 183.069 166.989C182.077 168.088 181.553 169.531 181.61 171.011C181.555 175.509 182.244 178.942 184.579 179.085C186.629 179.033 188.581 178.194 190.03 176.741C191.479 175.289 192.313 173.334 192.36 171.284C192.605 165.441 188.578 164.991 186.92 165.127Z" fill="#945959"/>
<path d="M184.758 172.82L184.799 175.461L183.25 175.011L184.758 172.82Z" fill="#703838"/>
<path d="M187.078 172.751C187.08 172.858 187.049 172.963 186.991 173.053C186.932 173.142 186.849 173.212 186.75 173.254C186.652 173.296 186.543 173.308 186.438 173.288C186.333 173.268 186.236 173.217 186.16 173.142C186.084 173.067 186.032 172.971 186.011 172.866C185.99 172.761 186 172.652 186.04 172.553C186.081 172.454 186.15 172.37 186.239 172.31C186.328 172.251 186.432 172.219 186.539 172.219C186.61 172.218 186.68 172.231 186.745 172.257C186.81 172.284 186.87 172.323 186.92 172.372C186.97 172.422 187.01 172.481 187.037 172.546C187.064 172.611 187.078 172.681 187.078 172.751Z" fill="#263238"/>
<path d="M183.536 172.424C183.537 172.495 183.524 172.565 183.498 172.631C183.471 172.697 183.432 172.757 183.383 172.807C183.333 172.858 183.274 172.898 183.209 172.926C183.144 172.954 183.074 172.969 183.004 172.97C182.933 172.971 182.863 172.958 182.798 172.932C182.732 172.905 182.673 172.866 182.623 172.817C182.573 172.767 182.533 172.708 182.506 172.643C182.478 172.578 182.464 172.508 182.464 172.438C182.456 172.362 182.463 172.286 182.486 172.214C182.509 172.141 182.547 172.074 182.598 172.018C182.649 171.961 182.711 171.916 182.78 171.885C182.849 171.854 182.924 171.838 183 171.838C183.076 171.838 183.151 171.854 183.22 171.885C183.29 171.916 183.352 171.961 183.402 172.018C183.453 172.074 183.491 172.141 183.514 172.214C183.537 172.286 183.544 172.362 183.536 172.438V172.424Z" fill="#263238"/>
<path d="M182.329 171.318L183.373 170.683C183.373 170.683 182.964 170.267 182.561 170.526C182.447 170.619 182.364 170.745 182.322 170.886C182.281 171.027 182.283 171.178 182.329 171.318Z" fill="#D2AE6D"/>
<path d="M184.457 176.362C185.002 176.103 185.531 175.811 186.041 175.488C186.041 175.488 186.382 176.355 185.672 176.71C185.46 176.801 185.224 176.817 185.002 176.753C184.781 176.69 184.588 176.551 184.457 176.362Z" fill="#703838"/>
<path d="M182.329 171.318L183.373 170.683C183.373 170.683 182.964 170.267 182.561 170.526C182.447 170.619 182.364 170.745 182.322 170.886C182.281 171.027 182.283 171.178 182.329 171.318Z" fill="#263238"/>
<path d="M189.377 172.069C189.377 172.069 189.097 174.417 190.783 174.417L191.192 172.315L189.377 172.069Z" fill="#263238"/>
<path d="M189.506 172.758C189.506 172.758 182.77 171.584 182.77 165.086C182.77 163.12 183.978 161.749 186.728 163.789C189.479 165.83 195.055 164.267 195.055 171.666C195.067 172.982 194.659 174.268 193.891 175.337C193.122 176.406 192.034 177.202 190.783 177.611V172.949L189.506 172.758Z" fill="#263238"/>
<path d="M190.7 174.178C190.692 173.754 190.781 173.334 190.959 172.949C191.041 172.714 191.19 172.509 191.388 172.358C191.585 172.208 191.823 172.119 192.072 172.103C192.276 172.105 192.478 172.15 192.663 172.237C192.849 172.323 193.013 172.448 193.147 172.603C193.28 172.758 193.378 172.94 193.435 173.136C193.492 173.332 193.507 173.539 193.478 173.741C193.425 174.418 193.11 175.048 192.601 175.497C192.091 175.946 191.426 176.178 190.747 176.144L190.7 174.178Z" fill="#945959"/>
<path d="M191.964 188.914L188.715 188.579V187.965L191.964 188.299V188.914Z" fill="#263238"/>
<path d="M182.954 191.958H181.63C181.63 191.596 181.486 191.249 181.23 190.993C180.974 190.737 180.627 190.593 180.265 190.593C179.903 190.593 179.556 190.737 179.3 190.993C179.044 191.249 178.9 191.596 178.9 191.958H178.115C178.032 191.957 177.951 191.976 177.877 192.013C177.802 192.05 177.738 192.104 177.689 192.171C177.64 192.237 177.607 192.315 177.593 192.396C177.579 192.478 177.585 192.561 177.61 192.64L178.013 193.93H183.964L183.459 192.32C183.425 192.213 183.357 192.121 183.266 192.056C183.175 191.991 183.066 191.957 182.954 191.958Z" fill="#D2AE6D"/>
<path opacity="0.7" d="M182.954 191.958H181.63C181.63 191.596 181.486 191.249 181.23 190.993C180.974 190.737 180.627 190.593 180.265 190.593C179.903 190.593 179.556 190.737 179.3 190.993C179.044 191.249 178.9 191.596 178.9 191.958H178.115C178.032 191.957 177.951 191.976 177.877 192.013C177.802 192.05 177.738 192.104 177.689 192.171C177.64 192.237 177.607 192.315 177.593 192.396C177.579 192.478 177.585 192.561 177.61 192.64L178.013 193.93H183.964L183.459 192.32C183.425 192.213 183.357 192.121 183.266 192.056C183.175 191.991 183.066 191.957 182.954 191.958Z" fill="black"/>
<path d="M186.928 192.647L190.245 205.165L179.556 205.213L175.434 192.77L186.928 192.647Z" fill="#D2AE6D"/>
<path opacity="0.3" d="M186.928 192.647L190.245 205.165L179.556 205.213L175.434 192.77L186.928 192.647Z" fill="black"/>
<path d="M182.954 192.517H181.63C181.63 192.155 181.486 191.808 181.23 191.552C180.974 191.296 180.627 191.152 180.265 191.152C179.903 191.152 179.556 191.296 179.3 191.552C179.044 191.808 178.9 192.155 178.9 192.517H178.115C178.032 192.517 177.951 192.536 177.877 192.573C177.802 192.61 177.738 192.664 177.689 192.73C177.64 192.797 177.607 192.874 177.593 192.956C177.579 193.037 177.585 193.121 177.61 193.2L177.801 193.828H183.746L183.459 192.879C183.425 192.773 183.357 192.681 183.266 192.616C183.175 192.551 183.066 192.516 182.954 192.517Z" fill="#D2AE6D"/>
<path opacity="0.5" d="M182.954 192.517H181.63C181.63 192.155 181.486 191.808 181.23 191.552C180.974 191.296 180.627 191.152 180.265 191.152C179.903 191.152 179.556 191.296 179.3 191.552C179.044 191.808 178.9 192.155 178.9 192.517H178.115C178.032 192.517 177.951 192.536 177.877 192.573C177.802 192.61 177.738 192.664 177.689 192.73C177.64 192.797 177.607 192.874 177.593 192.956C177.579 193.037 177.585 193.121 177.61 193.2L177.801 193.828H183.746L183.459 192.879C183.425 192.773 183.357 192.681 183.266 192.616C183.175 192.551 183.066 192.516 182.954 192.517Z" fill="black"/>
<path d="M191.433 197.343C190.851 197.472 190.252 197.505 189.659 197.438C188.976 197.302 188.976 196.688 187.966 196.708L188.294 198.073C187.298 198.265 186.282 198.327 185.27 198.257C183.905 198.1 184.369 199.302 184.587 199.622C184.806 199.943 185.72 201.834 187.673 201.67C189.225 201.467 190.759 201.138 192.259 200.687C192.408 200.105 192.41 199.495 192.266 198.911C192.122 198.328 191.836 197.789 191.433 197.343Z" fill="#945959"/>
<path d="M194.078 181.058C195.002 181.071 195.898 181.375 196.639 181.926C197.38 182.478 197.929 183.249 198.207 184.13L201.518 194.572C201.65 194.985 201.697 195.42 201.658 195.851C201.619 196.283 201.493 196.702 201.289 197.084C201.084 197.466 200.805 197.803 200.468 198.075C200.131 198.347 199.743 198.548 199.327 198.668L192.242 200.715C192.272 199.55 191.992 198.398 191.43 197.378L196.972 195.03L193.627 186.198C193.339 185.469 193.179 184.695 193.157 183.911C193.115 183.398 193.175 182.882 193.333 182.393C193.491 181.903 193.744 181.45 194.078 181.058Z" fill="#37474F"/>
<path d="M193.643 199.514C193.645 199.587 193.624 199.659 193.585 199.72C193.545 199.782 193.488 199.83 193.421 199.859C193.353 199.888 193.279 199.896 193.207 199.883C193.135 199.869 193.069 199.835 193.017 199.783C192.964 199.732 192.929 199.667 192.914 199.595C192.899 199.523 192.906 199.449 192.934 199.381C192.961 199.313 193.009 199.255 193.069 199.214C193.13 199.174 193.202 199.152 193.275 199.152C193.371 199.152 193.464 199.19 193.533 199.257C193.602 199.325 193.642 199.417 193.643 199.514Z" fill="#263238"/>
<path d="M194.886 199.193C194.887 199.266 194.866 199.339 194.826 199.4C194.786 199.462 194.729 199.51 194.661 199.539C194.594 199.568 194.519 199.575 194.447 199.561C194.375 199.547 194.308 199.512 194.256 199.46C194.204 199.408 194.169 199.342 194.155 199.27C194.141 199.198 194.149 199.123 194.178 199.055C194.207 198.988 194.255 198.93 194.316 198.89C194.378 198.85 194.45 198.83 194.524 198.831C194.619 198.833 194.71 198.872 194.778 198.939C194.845 199.006 194.884 199.097 194.886 199.193Z" fill="#263238"/>
<path d="M166.271 184.921C166.18 184.966 166.076 184.974 165.98 184.942C165.884 184.91 165.804 184.841 165.759 184.75C165.714 184.66 165.706 184.555 165.738 184.459C165.77 184.363 165.839 184.284 165.93 184.239C166.02 184.193 166.125 184.186 166.221 184.218C166.317 184.25 166.396 184.319 166.442 184.409C166.487 184.5 166.494 184.604 166.462 184.7C166.43 184.796 166.361 184.876 166.271 184.921Z" fill="#263238"/>
<path d="M167.145 185.869C167.081 185.904 167.008 185.919 166.935 185.912C166.862 185.905 166.794 185.876 166.737 185.83C166.681 185.784 166.639 185.722 166.618 185.653C166.596 185.583 166.596 185.508 166.617 185.438C166.638 185.369 166.68 185.307 166.736 185.26C166.792 185.214 166.861 185.185 166.934 185.178C167.006 185.171 167.079 185.185 167.144 185.22C167.208 185.254 167.261 185.307 167.295 185.371C167.341 185.457 167.351 185.558 167.323 185.651C167.295 185.745 167.231 185.823 167.145 185.869Z" fill="#263238"/>
<path d="M141.132 244.042C141.132 244.042 140.531 244.37 140.45 245.653C140.368 246.936 139.18 249.332 141.931 249.428C144.681 249.523 144.299 249.667 145.418 250.11C146.538 250.554 148.961 251.578 150.879 250.213C152.797 248.848 150.585 248.124 149.78 247.851C148.35 247.379 146.991 246.716 145.739 245.879C145.234 245.542 144.775 245.14 144.374 244.684L141.132 244.042Z" fill="#263238"/>
<path d="M132.259 247.237C132.259 247.237 131.788 247.373 131.767 248.315C131.747 249.257 131.003 250.69 132.013 251.544C133.023 252.397 133.18 252.288 133.795 253.591C134.17 254.543 134.889 255.319 135.809 255.768C136.728 256.216 137.782 256.304 138.764 256.014C141.705 255.366 139.849 253.598 139.603 253.339C139.357 253.079 136.477 250.233 136.19 249.298C136.018 248.782 135.801 248.282 135.542 247.803L132.259 247.237Z" fill="#263238"/>
<path d="M132.258 246.063V247.803C132.258 247.803 132.469 248.615 134.08 248.615C134.947 248.615 135.514 248.104 135.527 247.803V245.892L132.258 246.063Z" fill="#FFA8A7"/>
<path d="M141.133 242.958V244.691C141.133 244.691 141.344 245.51 142.955 245.51C143.822 245.51 144.395 244.992 144.409 244.691V242.787L141.133 242.958Z" fill="#FFA8A7"/>
<path d="M146.044 202.381L147.272 222.468C147.328 223.416 147.292 224.367 147.163 225.307L144.604 243.893C143.979 244.147 143.299 244.231 142.631 244.138C141.964 244.044 141.333 243.776 140.802 243.361L139.805 228.502C139.718 227.25 139.887 225.993 140.304 224.809L140.7 223.69L137.109 203.773L146.044 202.381Z" fill="#455A64"/>
<path d="M143.581 207.636C143.581 207.636 142.974 210.011 139.936 211.479L139.329 215.956L138.012 208.667L143.581 207.636Z" fill="#37474F"/>
<path d="M144.544 203.192C144.544 203.192 144.974 206.994 142.032 209.458C141.22 210.178 140.226 210.662 139.158 210.857L138.182 224.972L135.821 247.032C135.821 247.032 134.394 248.227 131.76 247.032L130.511 230.501C130.373 228.645 130.709 226.785 131.487 225.095L131.541 224.972C130.89 217.634 130.662 210.264 130.859 202.899L144.544 203.192Z" fill="#455A64"/>
<path d="M148.594 188.586L149.659 190.702C149.659 190.702 154.437 192.395 157.262 192.333L158.484 195.302C156.213 195.471 153.933 195.496 151.659 195.377C148.335 195.166 147.843 195.077 146.881 193.814C145.919 192.552 144.438 190.238 144.438 190.238L148.594 188.586Z" fill="#FFA8A7"/>
<path d="M157.258 192.334C157.516 192.157 157.756 191.956 157.974 191.733C158.183 191.47 158.442 191.25 158.736 191.087C159.03 190.924 159.354 190.821 159.688 190.784C160.486 190.586 160.636 189.958 161.053 190.17C161.469 190.382 160.739 191.794 159.879 192.033C160.497 192.1 161.122 192.015 161.701 191.788C162.425 191.419 163.564 190.921 164.029 191.105C164.493 191.289 164.554 193.801 162.889 194.757C161.223 195.712 157.79 195.262 157.79 195.262L157.258 192.334Z" fill="#FFA8A7"/>
<path d="M141.133 179.092C141.882 178.942 142.659 179.036 143.35 179.362C144.041 179.688 144.608 180.227 144.969 180.901L149.003 188.457C149.003 188.457 147.924 190.764 144.416 190.88L141.133 179.092Z" fill="#D2AE6D"/>
<path opacity="0.5" d="M141.133 179.092C141.882 178.942 142.659 179.036 143.35 179.362C144.041 179.688 144.608 180.227 144.969 180.901L149.003 188.457C149.003 188.457 147.924 190.764 144.416 190.88L141.133 179.092Z" fill="black"/>
<path d="M131.036 192.32L129.828 195.425L128.566 205.93L125.521 206.892C125.521 206.892 125.262 200.572 125.392 196.326C125.425 195.19 125.637 194.066 126.02 192.995L126.873 190.606L131.036 192.32Z" fill="#FFA8A7"/>
<path d="M135.436 180.136L131.607 181.235L130.891 191.944V202.899C130.891 202.899 133.273 204.946 138.931 204.946C141.531 204.894 144.04 203.984 146.07 202.36V188.586C146.07 187.35 146.562 180.272 141.177 179.03L140.255 179.215L135.436 180.136Z" fill="#D2AE6D"/>
<path opacity="0.3" d="M135.436 180.136L131.607 181.235L130.891 191.944V202.899C130.891 202.899 133.273 204.946 138.931 204.946C141.531 204.894 144.04 203.984 146.07 202.36V188.586C146.07 187.35 146.562 180.272 141.177 179.03L140.255 179.215L135.436 180.136Z" fill="black"/>
<path d="M133.773 180.614C133.773 180.614 135.056 181.884 134.134 185.433C133.378 188.121 132.467 190.762 131.404 193.344C130.445 193.525 129.454 193.442 128.538 193.104C127.622 192.766 126.815 192.186 126.203 191.426L128.933 183.918C129.164 183.265 129.546 182.677 130.05 182.202C130.553 181.727 131.162 181.38 131.827 181.188L133.773 180.614Z" fill="#D2AE6D"/>
<path opacity="0.5" d="M133.773 180.614C133.773 180.614 135.056 181.884 134.134 185.433C133.378 188.121 132.467 190.762 131.404 193.344C130.445 193.525 129.454 193.442 128.538 193.104C127.622 192.766 126.815 192.186 126.203 191.426L128.933 183.918C129.164 183.265 129.546 182.677 130.05 182.202C130.553 181.727 131.162 181.38 131.827 181.188L133.773 180.614Z" fill="black"/>
<path d="M128.566 205.93C128.726 206.197 128.911 206.448 129.119 206.68C129.615 207.139 129.914 207.773 129.951 208.448C130.095 209.26 130.716 209.452 130.477 209.868C130.238 210.284 128.873 209.452 128.695 208.578C128.586 209.191 128.629 209.821 128.818 210.414C129.139 211.158 129.569 212.332 129.378 212.782C129.187 213.233 126.648 213.13 125.808 211.417C124.969 209.704 125.631 206.305 125.631 206.305L128.566 205.93Z" fill="#FFA8A7"/>
<path d="M144.642 166.67C144.642 166.67 145.536 167.585 145.536 169.994C145.536 172.403 143.543 174.485 143.543 174.485V166.806L144.642 166.67Z" fill="#263238"/>
<path d="M144.64 167.298C145.025 167.072 145.351 166.757 145.588 166.38C145.826 166.002 145.969 165.572 146.005 165.127C146.128 163.592 145.227 164.145 144.92 164.274C144.613 164.404 143.678 164.745 143.678 164.745C143.678 164.745 144.531 163.858 144.026 163.264C143.651 162.827 141.828 164.206 139.535 164.479C137.242 164.752 135.03 164.732 134.382 166.786C134.382 166.786 132.163 167.23 132.696 171.12C133.228 175.011 134.743 177.263 135.426 177.222L144.64 167.298Z" fill="#263238"/>
<path d="M135.438 180.137L137.444 181.406C137.887 181.689 138.399 181.844 138.923 181.855C139.448 181.865 139.966 181.731 140.42 181.468C140.598 181.365 140.746 181.22 140.852 181.044C140.958 180.869 141.018 180.669 141.025 180.465C141.033 180.26 140.988 180.056 140.895 179.874C140.802 179.691 140.665 179.535 140.495 179.42L140.229 179.249V173.714H135.451L135.438 180.137Z" fill="#FFA8A7"/>
<path d="M140.231 179.249C139.192 179.105 138.219 178.655 137.437 177.956C136.654 177.257 136.097 176.341 135.836 175.325V173.714H140.231V179.249Z" fill="#F28F8F"/>
<path d="M141.348 165.857C141.348 165.857 145.907 166.028 145.081 173.365C144.699 176.819 144.399 178.723 141.457 178.723C138.515 178.723 134.147 176.498 134.427 170.574C134.707 164.649 141.348 165.857 141.348 165.857Z" fill="#FFA8A7"/>
<path d="M141.809 171.912V174.485L143.317 174.021L141.809 171.912Z" fill="#F28F8F"/>
<path d="M139.609 172.356C139.609 172.46 139.64 172.562 139.698 172.648C139.756 172.735 139.839 172.802 139.935 172.842C140.032 172.881 140.138 172.891 140.24 172.871C140.342 172.85 140.436 172.799 140.509 172.725C140.582 172.651 140.632 172.556 140.651 172.454C140.671 172.352 140.659 172.246 140.618 172.15C140.578 172.054 140.509 171.972 140.422 171.915C140.335 171.858 140.232 171.829 140.128 171.83C139.99 171.832 139.858 171.888 139.761 171.986C139.664 172.085 139.609 172.217 139.609 172.356Z" fill="#263238"/>
<path d="M143.055 171.986C143.055 172.09 143.086 172.192 143.143 172.278C143.201 172.365 143.283 172.432 143.379 172.472C143.475 172.512 143.581 172.522 143.683 172.502C143.785 172.482 143.878 172.432 143.952 172.358C144.025 172.285 144.075 172.191 144.096 172.089C144.116 171.987 144.106 171.881 144.066 171.785C144.026 171.689 143.959 171.607 143.872 171.55C143.786 171.492 143.684 171.461 143.58 171.461C143.441 171.461 143.307 171.516 143.209 171.615C143.11 171.713 143.055 171.847 143.055 171.986Z" fill="#263238"/>
<path d="M144.22 170.902L143.176 170.287C143.176 170.287 143.572 169.878 143.968 170.123C144.084 170.212 144.171 170.334 144.216 170.473C144.261 170.612 144.262 170.762 144.22 170.902Z" fill="#263238"/>
<path d="M139.853 170.717L138.932 171.475C138.932 171.475 138.68 170.963 139.048 170.676C139.169 170.596 139.313 170.557 139.457 170.565C139.602 170.572 139.741 170.626 139.853 170.717Z" fill="#263238"/>
<path d="M141.567 175.68C141.567 175.68 139.697 175.202 140.154 175.304C140.154 175.304 140.058 176.048 140.68 176.192C140.864 176.223 141.053 176.188 141.215 176.095C141.377 176.002 141.501 175.855 141.567 175.68Z" fill="#F28F8F"/>
<path d="M144.639 167.298C144.639 167.298 143.185 168.663 139.452 168.383C135.718 168.103 136.039 169.134 136.455 170.881C136.735 172.082 136.762 175.277 135.834 173.714H133.984V170.021C133.984 169.402 134.106 168.788 134.343 168.216C134.58 167.644 134.928 167.124 135.366 166.686C135.804 166.248 136.324 165.901 136.896 165.664C137.468 165.427 138.081 165.305 138.701 165.305H142.496L144.639 167.298Z" fill="#263238"/>
<path d="M135.876 173.523C135.876 173.523 135.691 171.755 134.463 171.721C134.246 171.721 134.032 171.767 133.835 171.857C133.638 171.946 133.462 172.076 133.319 172.239C133.176 172.402 133.07 172.593 133.007 172.801C132.944 173.008 132.926 173.226 132.954 173.441C133.003 174.156 133.328 174.824 133.861 175.304C134.393 175.784 135.091 176.039 135.807 176.014L135.876 173.523Z" fill="#FFA8A7"/>
<path d="M134.402 166.807C134.402 166.807 133.46 165.551 134.067 165.032C134.675 164.513 134.955 166.663 134.955 166.663L134.402 166.807Z" fill="#263238"/>
<path d="M134.483 167.202C134.483 167.202 132.913 167.202 132.879 166.383C132.845 165.564 134.709 166.676 134.709 166.676L134.483 167.202Z" fill="#263238"/>
<path d="M233.466 35.7589L238.578 38.6665V36.8578C238.578 36.7281 238.578 36.5984 238.578 36.4687C238.578 36.3391 238.578 36.223 238.578 36.107V36.066C238.763 33.6635 240.578 32.7489 242.79 34.0184C243.793 34.6335 244.652 35.4576 245.308 36.4346C245.806 33.1789 248.468 32.0049 251.676 33.8614C255.246 35.9091 258.133 40.9257 258.133 45.0483V48.9183C258.133 49.2255 258.213 49.5274 258.365 49.7943C258.517 50.0611 258.736 50.2838 259 50.4404L262.003 52.2013C262.656 52.5836 263.197 53.13 263.573 53.7861C263.949 54.4423 264.146 55.1854 264.146 55.9417C264.147 56.2549 264.064 56.5626 263.908 56.8338C263.751 57.1051 263.526 57.3303 263.255 57.4867C262.983 57.6432 262.676 57.7253 262.362 57.7249C262.049 57.7244 261.742 57.6414 261.471 57.4842L233.534 41.3489C232.794 40.9198 232.179 40.3036 231.751 39.5622C231.324 38.8207 231.098 37.9799 231.098 37.124C231.097 36.8467 231.17 36.5743 231.309 36.3342C231.447 36.0941 231.647 35.8948 231.887 35.7563C232.127 35.6179 232.4 35.5452 232.677 35.5457C232.954 35.5461 233.226 35.6197 233.466 35.7589Z" fill="#E6E6E6"/>
<path d="M207.181 2.93516L210.962 5.08516V3.72008C210.962 3.62452 210.962 3.52897 210.962 3.44024C210.962 3.35151 210.962 3.25595 210.962 3.16722C211.099 1.39261 212.443 0.710071 214.082 1.6588C214.826 2.11097 215.462 2.72149 215.945 3.44706C216.313 1.03769 218.279 0.170862 220.654 1.54277C222.046 2.44787 223.204 3.66895 224.034 5.10651C224.865 6.54407 225.344 8.15744 225.432 9.81518V12.6819C225.433 12.9081 225.492 13.1302 225.605 13.3265C225.717 13.5227 225.879 13.6863 226.074 13.8012L228.299 15.1049C228.777 15.3915 229.173 15.7977 229.447 16.2835C229.721 16.7694 229.864 17.3182 229.862 17.876C229.862 18.1077 229.801 18.3353 229.685 18.5359C229.569 18.7365 229.403 18.903 229.202 19.0186C229.001 19.1342 228.774 19.1948 228.542 19.1943C228.31 19.1938 228.083 19.1323 227.883 19.0158L207.242 7.09184C206.693 6.77597 206.236 6.32062 205.918 5.77174C205.601 5.22287 205.434 4.59992 205.434 3.96579C205.431 3.75974 205.482 3.55652 205.583 3.37678C205.684 3.19705 205.83 3.04722 206.008 2.94252C206.185 2.83782 206.387 2.78199 206.593 2.7807C206.799 2.7794 207.002 2.83269 207.181 2.93516Z" fill="#E6E6E6"/>
<path d="M80.1607 29.9979L75.0485 32.9056V31.0968C75.0485 30.9672 75.0485 30.8375 75.0485 30.7146C75.0485 30.5918 75.0485 30.4621 75.0485 30.346V30.2983C74.8642 27.9025 73.0486 26.9811 70.8304 28.2506C69.8288 28.8685 68.9721 29.6949 68.3186 30.6737C67.8135 27.4179 65.1585 26.2371 61.9505 28.0937C58.3808 30.1413 55.4937 35.158 55.4937 39.2805V43.1573C55.494 43.4636 55.4142 43.7646 55.2621 44.0305C55.11 44.2963 54.891 44.5177 54.6268 44.6726L51.6168 46.4335C50.9661 46.8172 50.4267 47.3641 50.052 48.02C49.6773 48.676 49.4803 49.4184 49.4805 50.1739C49.481 50.4868 49.5637 50.7942 49.7203 51.0652C49.8768 51.3362 50.1018 51.5613 50.3726 51.7182C50.6434 51.875 50.9507 51.958 51.2636 51.9589C51.5766 51.9598 51.8843 51.8785 52.156 51.7232L80.0925 35.5811C80.8344 35.1536 81.4504 34.5378 81.8783 33.796C82.3061 33.0541 82.5306 32.2126 82.5291 31.3562C82.5282 31.0795 82.4545 30.808 82.3155 30.5688C82.1764 30.3297 81.9768 30.1313 81.7369 29.9937C81.4969 29.856 81.2249 29.784 80.9482 29.7847C80.6716 29.7855 80.4 29.859 80.1607 29.9979Z" fill="#E6E6E6"/>
</svg>
