<svg width="327" height="231" viewBox="0 0 327 231" fill="none" xmlns="http://www.w3.org/2000/svg">
<path d="M317.34 127.13C317.34 127.211 247.768 127.28 161.961 127.28C76.1535 127.28 6.56641 127.211 6.56641 127.13C6.56641 127.049 76.1319 126.956 161.961 126.956C247.789 126.956 317.34 127.043 317.34 127.13Z" fill="#E0E0E0"/>
<path d="M100.942 106.13C97.6302 105.389 94.5414 104.117 91.8634 102.392C89.1854 100.666 86.9742 98.5225 85.3643 96.0917C83.7544 93.6608 82.7794 90.9934 82.4987 88.2516C82.218 85.5099 82.6374 82.7511 83.7314 80.1431C85.4307 76.0935 88.7138 72.5126 90.1167 68.382C91.7148 63.6961 90.7602 58.7267 89.7768 53.9193C88.7933 49.1119 87.7882 44.1715 89.2851 39.4567C90.7819 34.7418 95.4895 30.3278 101.578 29.9923C107.19 29.6857 112.382 33.0121 114.725 37.1079C117.068 41.2038 117.09 45.9012 116.54 50.4136C115.99 54.9259 114.927 59.3747 115.26 63.8754C115.94 72.9754 122.311 81.5488 121.566 90.6487C121.175 95.3867 118.883 98.4181 114.956 101.982C111.572 105.054 105.953 107.078 100.971 106.135" fill="#F0F0F0"/>
<path d="M102.018 128.767C101.932 128.767 101.859 112.337 101.859 92.0779C101.859 71.8186 101.932 55.3774 102.018 55.3774C102.105 55.3774 102.17 71.807 102.17 92.0779C102.17 112.349 102.098 128.767 102.018 128.767Z" fill="#E0E0E0"/>
<path d="M112.211 84.476C112.261 84.5281 110.041 85.9917 107.243 87.733C104.444 89.4743 102.137 90.857 102.087 90.7991C102.036 90.7413 104.256 89.2892 107.055 87.5421C109.853 85.795 112.16 84.424 112.211 84.476Z" fill="#E0E0E0"/>
<path d="M102.026 83.4177C100.926 82.9608 99.8759 82.4306 98.8873 81.8326C97.8459 81.3001 96.8571 80.7044 95.9297 80.0508C97.0305 80.5042 98.0805 81.0326 99.0681 81.6301C100.114 82.1594 101.103 82.7573 102.026 83.4177Z" fill="#E0E0E0"/>
<path d="M39.296 57.3613L26.9087 77.3487L30.6039 77.4587L20.1112 93.3445H25.6215L17.0234 107.46H65.0901L54.5107 93.3445L59.5799 93.1709L49.4343 77.2909L53.1873 77.1173L39.296 57.3613Z" fill="#F0F0F0"/>
<path d="M39.7661 80.4785C39.8673 80.4785 39.7661 90.8569 39.607 103.654C39.4479 116.45 39.1731 126.828 39.0718 126.828C38.9706 126.828 39.0718 116.45 39.2309 103.648C39.39 90.8454 39.6576 80.4727 39.7661 80.4785Z" fill="#E0E0E0"/>
<path d="M46.9109 86.4604C45.8222 87.3762 44.6447 88.2215 43.3892 88.9885C42.2142 89.8382 40.9569 90.612 39.6289 91.3025C40.7187 90.3878 41.8962 89.5425 43.1506 88.7745C44.3264 87.9256 45.5837 87.1519 46.9109 86.4604Z" fill="#E0E0E0"/>
<path d="M26.3281 18.7751H61.5809C61.5809 18.7751 61.5809 12.319 57.4156 12.319C55.9242 12.2805 54.4627 12.6592 53.2827 13.3899C52.1027 14.1206 51.2781 15.1575 50.9508 16.3222C50.9508 16.3222 50.9508 4.31243 43.3724 6.04795C36.2061 7.72562 35.4179 15.4371 35.4179 15.4371C35.4179 15.4371 34.1235 11.5553 30.2403 13.7421C26.3571 15.9288 26.3281 18.7751 26.3281 18.7751Z" fill="#F0F0F0"/>
<path d="M326.25 221.554C326.25 221.635 253.322 221.704 163.386 221.704C73.4497 221.704 0.5 221.635 0.5 221.554C0.5 221.473 73.4136 221.403 163.386 221.403C253.358 221.403 326.25 221.467 326.25 221.554Z" fill="#263238"/>
<path d="M139.312 48.7425V154.956H288.632V48.7425H272.478L239.777 15.9585L212.197 48.4243L139.312 48.7425Z" fill="#D2AE6D"/>
<g opacity="0.5">
<path d="M139.312 48.7425V154.956H288.632V48.7425H272.478L239.777 15.9585L212.197 48.4243L139.312 48.7425Z" fill="white"/>
</g>
<path d="M168.83 9.69887C168.107 10.4856 125.941 50.2811 125.941 50.2811H211.228L239.777 15.9583L272.477 48.7423L302.386 48.7134L265.875 8.72119L168.83 9.69887Z" fill="#263238"/>
<path d="M197.16 150.554H161.777V154.962H197.16V150.554Z" fill="#E6E6E6"/>
<path d="M200.842 157.148H153.629V160.567H200.842V157.148Z" fill="#E6E6E6"/>
<path d="M164.129 107.848L164.418 150.316H194.811V107.848H164.129Z" fill="#D2AE6D"/>
<g opacity="0.2">
<path d="M164.133 107.848L164.422 150.316H194.815V107.848H164.133Z" fill="black"/>
</g>
<g opacity="0.4">
<path d="M188.002 130.156C188.741 130.156 189.34 129.676 189.34 129.085C189.34 128.494 188.741 128.015 188.002 128.015C187.263 128.015 186.664 128.494 186.664 129.085C186.664 129.676 187.263 130.156 188.002 130.156Z" fill="black"/>
</g>
<path d="M179.576 93.2642L151.547 111.747V116.861L179.821 98.4881L205.717 115.467V110.128L179.576 93.2642Z" fill="#263238"/>
<path d="M194.77 4.20898H188.219V11.4692H194.77V4.20898Z" fill="#D2AE6D"/>
<path d="M206.101 0.384766H199.195V11.469H206.101V0.384766Z" fill="#D2AE6D"/>
<g opacity="0.4">
<path d="M194.77 4.2085H188.219V11.4688H194.77V4.2085Z" fill="black"/>
<path d="M206.101 0.384766H199.195V11.469H206.101V0.384766Z" fill="black"/>
</g>
<path d="M244.68 33.0298H236.957V39.2082H244.68V33.0298Z" fill="white"/>
<g opacity="0.1">
<path d="M211.227 50.2813H215.341L242.357 18.5502L239.776 15.9585L211.227 50.2813Z" fill="black"/>
</g>
<g opacity="0.1">
<path d="M139.312 50.2808V53.7113L211.228 50.2808H139.312Z" fill="black"/>
</g>
<g opacity="0.1">
<path d="M272.477 48.7422L288.631 53.0289V48.7422H272.477Z" fill="black"/>
</g>
<path d="M199.195 153.267H158.07V157.542H199.195V153.267Z" fill="#E6E6E6"/>
<path d="M198.116 153.325C198.116 153.406 189.222 153.475 178.252 153.475C167.282 153.475 158.395 153.406 158.395 153.325C158.395 153.244 167.282 153.174 178.252 153.174C189.222 153.174 198.116 153.238 198.116 153.325Z" fill="#E0E0E0"/>
<path d="M198.116 157.148C198.116 157.229 189.222 157.299 178.252 157.299C167.282 157.299 158.395 157.229 158.395 157.148C158.395 157.067 167.282 156.998 178.252 156.998C189.222 156.998 198.116 157.039 198.116 157.148Z" fill="#E0E0E0"/>
<path d="M196.047 56.1646H161.777V82.2089H196.047V56.1646Z" fill="white"/>
<path d="M177.284 56.1646C177.284 56.1646 167.565 69.4181 162.243 69.5338C162.243 69.5338 167.175 71.547 167.551 82.2089H161.766V56.1761L177.284 56.1646Z" fill="#D2AE6D"/>
<path d="M180.543 56.1646C180.543 56.1646 190.255 69.4181 195.584 69.5338C195.584 69.5338 190.645 71.547 190.276 82.2089H196.061V56.1761L180.543 56.1646Z" fill="#D2AE6D"/>
<path d="M179.178 55.9331H178.094V83.713H179.178V55.9331Z" fill="#263238"/>
<path d="M161.273 69.3891V70.2568H195.998V69.3891H161.273Z" fill="#263238"/>
<path d="M197.768 82.209H159.492V82.8569H197.768V82.209Z" fill="#263238"/>
<path d="M267.597 56.1646H233.328V82.2089H267.597V56.1646Z" fill="white"/>
<path d="M248.831 56.1646C248.831 56.1646 239.119 69.4181 233.79 69.5338C233.79 69.5338 238.729 71.547 239.098 82.2089H233.312V56.1761L248.831 56.1646Z" fill="#D2AE6D"/>
<path d="M252.09 56.1646C252.09 56.1646 261.802 69.4181 267.131 69.5338C267.131 69.5338 262.199 71.547 261.823 82.2089H267.608V56.1761L252.09 56.1646Z" fill="#D2AE6D"/>
<path d="M250.725 55.9331H249.641V83.713H250.725V55.9331Z" fill="#263238"/>
<path d="M232.82 69.3891V70.2568H267.545V69.3891H232.82Z" fill="#263238"/>
<path d="M269.326 82.209H231.051V82.8569H269.326V82.209Z" fill="#263238"/>
<path d="M267.597 111.163H233.328V137.207H267.597V111.163Z" fill="white"/>
<path d="M248.831 111.163C248.831 111.163 239.119 124.422 233.79 124.538C233.79 124.538 238.729 126.551 239.098 137.207H233.312V111.175L248.831 111.163Z" fill="#D2AE6D"/>
<path d="M252.09 111.163C252.09 111.163 261.802 124.422 267.131 124.538C267.131 124.538 262.199 126.551 261.823 137.207H267.608V111.175L252.09 111.163Z" fill="#D2AE6D"/>
<path d="M250.725 110.932H249.641V138.712H250.725V110.932Z" fill="#263238"/>
<path d="M232.82 124.393V125.261H267.545V124.393H232.82Z" fill="#263238"/>
<path d="M269.326 137.208H231.051V137.855H269.326V137.208Z" fill="#263238"/>
<path d="M142.785 134.176V221.137H152.114V140.019H223.089V134.176H142.785Z" fill="#455A64"/>
<path d="M152.113 140.019H149.098V221.137H152.113V140.019Z" fill="#263238"/>
<path d="M223.091 134.176H217.414V140.019H223.091V134.176Z" fill="#263238"/>
<path d="M224.758 144.277H156.277V178.825H224.758V144.277Z" fill="#D2AE6D"/>
<path d="M224.758 144.277H156.277V178.825H224.758V144.277Z" fill="#D2AE6D"/>
<path d="M224.766 144.277H220.984V178.825H224.766V144.277Z" fill="#D2AE6D"/>
<g opacity="0.2">
<path d="M224.766 144.277H220.984V178.826H224.766V144.277Z" fill="black"/>
</g>
<path d="M217.411 175.846C217.411 175.846 217.411 175.661 217.411 175.32C217.411 174.978 217.411 174.463 217.411 173.81C217.411 172.479 217.411 170.541 217.375 168.059C217.375 163.09 217.332 155.951 217.295 147.233L217.447 147.349L160.32 147.383L160.508 147.233C160.508 157.38 160.508 167.053 160.508 175.858L160.334 175.719L201.408 175.782L213.188 175.823H216.334H217.144H217.426H216.37H213.26L201.509 175.863L160.291 175.933H160.117V175.794C160.117 166.989 160.117 157.316 160.117 147.169V147.013H160.312L217.44 147.048H217.585V147.204C217.585 155.963 217.527 163.13 217.512 168.117C217.512 170.587 217.512 172.514 217.469 173.839V175.325C217.418 175.678 217.411 175.846 217.411 175.846Z" fill="#263238"/>
<path d="M169.505 140.019H167.473V144.277H169.505V140.019Z" fill="#D2AE6D"/>
<path d="M202.95 140.019H200.918V144.277H202.95V140.019Z" fill="#D2AE6D"/>
<path d="M178.904 154.349V156.165H183.453V157.97H178.904V160.793H176.012V152.544H184.096V154.349H178.904Z" fill="#D2AE6D"/>
<path opacity="0.2" d="M178.904 154.349V156.165H183.453V157.97H178.904V160.793H176.012V152.544H184.096V154.349H178.904Z" fill="black"/>
<path d="M184.828 156.669C184.828 154.198 187.258 152.382 190.555 152.382C193.853 152.382 196.29 154.198 196.29 156.669C196.29 159.139 193.86 160.961 190.555 160.961C187.251 160.961 184.828 159.145 184.828 156.669ZM193.339 156.669C193.308 156.233 193.118 155.814 192.793 155.464C192.468 155.114 192.021 154.847 191.509 154.698C190.997 154.548 190.441 154.522 189.91 154.623C189.379 154.723 188.897 154.946 188.523 155.263C188.148 155.581 187.898 155.979 187.804 156.408C187.709 156.838 187.774 157.281 187.99 157.681C188.206 158.082 188.565 158.423 189.02 158.662C189.476 158.902 190.01 159.029 190.555 159.029C190.936 159.032 191.314 158.972 191.665 158.853C192.015 158.733 192.331 158.557 192.593 158.336C192.854 158.114 193.055 157.852 193.184 157.565C193.312 157.278 193.365 156.973 193.339 156.669Z" fill="#D2AE6D"/>
<path opacity="0.2" d="M184.828 156.669C184.828 154.198 187.258 152.382 190.555 152.382C193.853 152.382 196.29 154.198 196.29 156.669C196.29 159.139 193.86 160.961 190.555 160.961C187.251 160.961 184.828 159.145 184.828 156.669ZM193.339 156.669C193.308 156.233 193.118 155.814 192.793 155.464C192.468 155.114 192.021 154.847 191.509 154.698C190.997 154.548 190.441 154.522 189.91 154.623C189.379 154.723 188.897 154.946 188.523 155.263C188.148 155.581 187.898 155.979 187.804 156.408C187.709 156.838 187.774 157.281 187.99 157.681C188.206 158.082 188.565 158.423 189.02 158.662C189.476 158.902 190.01 159.029 190.555 159.029C190.936 159.032 191.314 158.972 191.665 158.853C192.015 158.733 192.331 158.557 192.593 158.336C192.854 158.114 193.055 157.852 193.184 157.565C193.312 157.278 193.365 156.973 193.339 156.669Z" fill="black"/>
<path d="M202.327 158.601H200.736V160.793H197.844V152.544H202.559C205.372 152.544 207.136 153.701 207.136 155.598C207.164 156.144 206.986 156.684 206.627 157.148C206.267 157.612 205.742 157.979 205.118 158.202L207.346 160.793H204.2L202.327 158.601ZM202.327 154.384H200.707V156.802H202.327C203.535 156.802 204.142 156.351 204.142 155.598C204.142 154.846 203.564 154.384 202.356 154.384H202.327Z" fill="#D2AE6D"/>
<path opacity="0.2" d="M202.327 158.601H200.736V160.793H197.844V152.544H202.559C205.372 152.544 207.136 153.701 207.136 155.598C207.164 156.144 206.986 156.684 206.627 157.148C206.267 157.612 205.742 157.979 205.118 158.202L207.346 160.793H204.2L202.327 158.601ZM202.327 154.384H200.707V156.802H202.327C203.535 156.802 204.142 156.351 204.142 155.598C204.142 154.846 203.564 154.384 202.356 154.384H202.327Z" fill="black"/>
<path d="M170.703 171.779L171.708 169.974C172.774 170.519 174.009 170.813 175.273 170.825C176.539 170.825 177.038 170.541 177.038 170.125C177.038 168.754 170.884 169.755 170.884 166.538C170.884 164.993 172.46 163.732 175.678 163.732C177.044 163.715 178.393 163.975 179.598 164.49L178.658 166.307C177.742 165.888 176.711 165.658 175.657 165.636C174.377 165.636 173.914 165.983 173.914 166.417C173.914 167.736 180.046 166.752 180.046 169.94C180.046 171.444 178.47 172.728 175.259 172.728C173.659 172.76 172.08 172.431 170.703 171.779Z" fill="#D2AE6D"/>
<path opacity="0.2" d="M170.703 171.779L171.708 169.974C172.774 170.519 174.009 170.813 175.273 170.825C176.539 170.825 177.038 170.541 177.038 170.125C177.038 168.754 170.884 169.755 170.884 166.538C170.884 164.993 172.46 163.732 175.678 163.732C177.044 163.715 178.393 163.975 179.598 164.49L178.658 166.307C177.742 165.888 176.711 165.658 175.657 165.636C174.377 165.636 173.914 165.983 173.914 166.417C173.914 167.736 180.046 166.752 180.046 169.94C180.046 171.444 178.47 172.728 175.259 172.728C173.659 172.76 172.08 172.431 170.703 171.779Z" fill="black"/>
<path d="M188.704 170.877H184.126L183.28 172.56H180.156L184.929 163.883H187.944L192.732 172.56H189.55L188.704 170.877ZM187.807 169.072L186.411 166.295L185.023 169.06L187.807 169.072Z" fill="#D2AE6D"/>
<path opacity="0.2" d="M188.704 170.877H184.126L183.28 172.56H180.156L184.929 163.883H187.944L192.732 172.56H189.55L188.704 170.877ZM187.807 169.072L186.411 166.295L185.023 169.06L187.807 169.072Z" fill="black"/>
<path d="M193.598 163.906H196.657V170.616H201.82V172.56H193.598V163.906Z" fill="#D2AE6D"/>
<path opacity="0.2" d="M193.598 163.906H196.657V170.616H201.82V172.56H193.598V163.906Z" fill="black"/>
<path d="M211.709 170.669V172.56H203.031V163.883H211.506V165.775H206.054V167.232H210.856V169.06H206.054V170.646L211.709 170.669Z" fill="#D2AE6D"/>
<path opacity="0.2" d="M211.709 170.669V172.56H203.031V163.883H211.506V165.775H206.054V167.232H210.856V169.06H206.054V170.646L211.709 170.669Z" fill="black"/>
<path d="M216.066 149.588C216.03 149.588 216.022 149.478 215.943 149.304C215.838 149.07 215.643 148.867 215.386 148.726C215.202 148.621 214.987 148.554 214.763 148.532C214.538 148.509 214.31 148.532 214.099 148.599C213.845 148.676 213.628 148.813 213.474 148.992C213.32 149.171 213.238 149.383 213.238 149.6C213.24 149.816 213.323 150.027 213.476 150.206C213.63 150.384 213.847 150.522 214.099 150.6C214.31 150.664 214.538 150.685 214.762 150.663C214.986 150.641 215.2 150.576 215.386 150.473C215.641 150.33 215.835 150.128 215.943 149.895C216.022 149.721 216.03 149.617 216.066 149.617C216.102 149.617 216.124 149.721 216.066 149.923C216.004 150.214 215.811 150.475 215.523 150.658C215.308 150.798 215.051 150.891 214.778 150.93C214.505 150.968 214.224 150.95 213.961 150.878C213.635 150.785 213.353 150.613 213.154 150.387C212.955 150.161 212.848 149.891 212.848 149.614C212.848 149.337 212.955 149.067 213.154 148.841C213.353 148.614 213.635 148.443 213.961 148.35C214.224 148.277 214.505 148.26 214.778 148.298C215.051 148.337 215.308 148.43 215.523 148.57C215.811 148.753 216.004 149.014 216.066 149.304C216.124 149.478 216.08 149.588 216.066 149.588Z" fill="#263238"/>
<path d="M215.379 148.865C215.451 148.922 215.184 149.246 214.772 149.594C214.359 149.941 213.976 150.172 213.897 150.12C213.817 150.068 214.092 149.738 214.504 149.391C214.916 149.044 215.299 148.807 215.379 148.865Z" fill="#263238"/>
<path d="M215.539 150.039C215.539 150.114 214.982 150.039 214.484 149.68C213.985 149.321 213.76 148.968 213.84 148.922C213.919 148.876 214.267 149.148 214.722 149.449C215.178 149.749 215.583 149.958 215.539 150.039Z" fill="#263238"/>
<path d="M215.509 173.978C215.509 173.978 215.465 173.868 215.393 173.694C215.286 173.46 215.091 173.259 214.836 173.116C214.652 173.011 214.438 172.944 214.213 172.922C213.988 172.9 213.76 172.923 213.549 172.988C213.296 173.066 213.078 173.203 212.924 173.382C212.771 173.56 212.688 173.772 212.689 173.989C212.693 174.201 212.775 174.407 212.924 174.582C213.073 174.756 213.283 174.892 213.528 174.973C213.739 175.036 213.967 175.057 214.191 175.035C214.415 175.013 214.629 174.948 214.815 174.845C215.068 174.701 215.261 174.499 215.371 174.267C215.444 174.093 215.458 173.989 215.487 173.989C215.516 173.989 215.552 174.093 215.487 174.296C215.426 174.584 215.236 174.845 214.952 175.03C214.736 175.17 214.48 175.263 214.206 175.301C213.933 175.34 213.652 175.322 213.39 175.25C213.061 175.16 212.775 174.99 212.573 174.763C212.37 174.536 212.262 174.265 212.262 173.986C212.262 173.708 212.37 173.436 212.573 173.21C212.775 172.983 213.061 172.813 213.39 172.722C213.652 172.65 213.933 172.633 214.206 172.671C214.48 172.71 214.736 172.803 214.952 172.942C215.236 173.127 215.426 173.388 215.487 173.677C215.574 173.868 215.531 173.978 215.509 173.978Z" fill="#263238"/>
<path d="M214.825 173.237C214.904 173.295 214.637 173.619 214.225 173.966C213.812 174.313 213.429 174.545 213.35 174.493C213.27 174.441 213.545 174.111 213.95 173.764C214.355 173.417 214.753 173.197 214.825 173.237Z" fill="#263238"/>
<path d="M214.977 174.429C214.977 174.504 214.42 174.4 213.921 174.07C213.422 173.74 213.198 173.359 213.277 173.312C213.357 173.266 213.704 173.538 214.16 173.839C214.615 174.14 215.035 174.348 214.977 174.429Z" fill="#263238"/>
<path d="M164.871 173.388C164.871 173.388 164.828 173.284 164.748 173.11C164.641 172.876 164.446 172.674 164.191 172.531C164.005 172.429 163.791 172.364 163.567 172.342C163.343 172.32 163.116 172.341 162.904 172.404C162.652 172.484 162.436 172.621 162.283 172.8C162.13 172.978 162.046 173.189 162.044 173.405C162.048 173.62 162.133 173.83 162.287 174.006C162.442 174.183 162.659 174.318 162.911 174.394C163.122 174.461 163.35 174.484 163.575 174.461C163.8 174.439 164.014 174.372 164.198 174.267C164.455 174.126 164.65 173.923 164.755 173.688C164.835 173.515 164.842 173.405 164.878 173.405C164.914 173.405 164.936 173.515 164.878 173.717C164.817 174.007 164.624 174.269 164.336 174.452C164.12 174.592 163.864 174.685 163.59 174.724C163.317 174.762 163.036 174.744 162.774 174.672C162.448 174.579 162.166 174.407 161.967 174.181C161.767 173.955 161.66 173.685 161.66 173.408C161.66 173.131 161.767 172.861 161.967 172.635C162.166 172.408 162.448 172.237 162.774 172.144C163.036 172.071 163.317 172.054 163.59 172.092C163.864 172.131 164.12 172.224 164.336 172.364C164.624 172.547 164.817 172.808 164.878 173.098C164.929 173.284 164.885 173.393 164.871 173.388Z" fill="#263238"/>
<path d="M164.184 172.658C164.256 172.711 163.988 173.04 163.583 173.387C163.178 173.735 162.781 173.966 162.701 173.914C162.622 173.862 162.896 173.526 163.309 173.179C163.721 172.832 164.104 172.612 164.184 172.658Z" fill="#263238"/>
<path d="M164.356 173.844C164.32 173.919 163.799 173.81 163.3 173.486C162.801 173.162 162.577 172.768 162.656 172.728C162.736 172.687 163.083 172.953 163.539 173.248C163.994 173.543 164.356 173.763 164.356 173.844Z" fill="#263238"/>
<path d="M165.136 150.062C165.1 150.062 165.093 149.958 165.013 149.784C164.906 149.551 164.711 149.349 164.456 149.206C164.27 149.103 164.056 149.038 163.832 149.016C163.608 148.994 163.381 149.015 163.169 149.079C162.917 149.157 162.7 149.295 162.547 149.473C162.393 149.652 162.31 149.863 162.309 150.079C162.308 150.296 162.39 150.508 162.544 150.687C162.698 150.866 162.916 151.003 163.169 151.08C163.38 151.147 163.608 151.17 163.833 151.147C164.058 151.125 164.272 151.058 164.456 150.953C164.713 150.812 164.908 150.609 165.013 150.375C165.093 150.201 165.1 150.091 165.136 150.091C165.172 150.091 165.194 150.201 165.136 150.403C165.075 150.693 164.882 150.955 164.594 151.138C164.378 151.278 164.122 151.371 163.848 151.41C163.575 151.448 163.294 151.43 163.032 151.358C162.706 151.265 162.424 151.093 162.224 150.867C162.025 150.641 161.918 150.371 161.918 150.094C161.918 149.817 162.025 149.547 162.224 149.321C162.424 149.094 162.706 148.923 163.032 148.83C163.294 148.757 163.575 148.74 163.848 148.778C164.122 148.817 164.378 148.91 164.594 149.05C164.882 149.233 165.075 149.494 165.136 149.784C165.194 149.958 165.15 150.062 165.136 150.062Z" fill="#263238"/>
<path d="M164.449 149.345C164.522 149.397 164.254 149.727 163.842 150.074C163.43 150.421 163.046 150.652 162.967 150.6C162.887 150.548 163.162 150.213 163.574 149.865C163.986 149.518 164.355 149.287 164.449 149.345Z" fill="#263238"/>
<path d="M164.61 150.519C164.573 150.594 164.053 150.484 163.554 150.16C163.055 149.836 162.831 149.443 162.91 149.403C162.99 149.362 163.337 149.628 163.792 149.923C164.248 150.218 164.653 150.438 164.61 150.519Z" fill="#263238"/>
<path d="M176.006 154.349V156.165H180.554V157.97H176.006V160.793H173.113V152.544H181.205V154.349H176.006Z" fill="#FAFAFA"/>
<path d="M181.93 156.669C181.93 154.198 184.359 152.382 187.657 152.382C190.954 152.382 193.384 154.198 193.384 156.669C193.384 159.139 190.954 160.961 187.657 160.961C184.359 160.961 181.93 159.145 181.93 156.669ZM190.441 156.669C190.41 156.233 190.22 155.814 189.895 155.464C189.569 155.114 189.123 154.847 188.611 154.698C188.098 154.548 187.542 154.522 187.011 154.623C186.481 154.723 185.998 154.946 185.624 155.263C185.25 155.581 185 155.979 184.905 156.408C184.811 156.838 184.875 157.281 185.092 157.681C185.308 158.082 185.666 158.423 186.122 158.662C186.578 158.902 187.112 159.029 187.657 159.029C188.038 159.032 188.416 158.972 188.766 158.853C189.117 158.733 189.433 158.557 189.694 158.336C189.956 158.114 190.157 157.852 190.285 157.565C190.414 157.278 190.467 156.973 190.441 156.669Z" fill="#FAFAFA"/>
<path d="M199.429 158.601H197.838V160.793H194.945V152.544H199.66C202.473 152.544 204.245 153.701 204.245 155.598C204.272 156.144 204.095 156.684 203.735 157.148C203.376 157.612 202.85 157.979 202.227 158.202L204.447 160.793H201.323L199.429 158.601ZM199.429 154.384H197.838V156.802H199.458C200.665 156.802 201.266 156.351 201.266 155.598C201.266 154.846 200.665 154.384 199.458 154.384H199.429Z" fill="#FAFAFA"/>
<path d="M167.801 171.779L168.806 169.974C169.875 170.518 171.112 170.812 172.378 170.825C173.644 170.825 174.135 170.541 174.135 170.125C174.135 168.754 167.989 169.755 167.989 166.538C167.989 164.993 169.565 163.732 172.776 163.732C174.144 163.715 175.495 163.975 176.703 164.49L175.755 166.295C174.842 165.877 173.813 165.647 172.761 165.624C171.482 165.624 171.019 165.971 171.019 166.405C171.019 167.724 177.151 166.741 177.151 169.928C177.151 171.432 175.574 172.717 172.357 172.717C170.758 172.751 169.18 172.427 167.801 171.779Z" fill="#FAFAFA"/>
<path d="M185.798 170.877H181.228L180.375 172.56H177.258L182.03 163.883H185.046L189.833 172.56H186.651L185.798 170.877ZM184.901 169.072L183.513 166.295L182.125 169.06L184.901 169.072Z" fill="#FAFAFA"/>
<path d="M190.699 163.906H193.751V170.616H198.914V172.56H190.699V163.906Z" fill="#FAFAFA"/>
<path d="M208.799 170.669V172.56H200.121V163.883H208.603V165.775H203.151V167.232H207.953V169.06H203.151V170.646L208.799 170.669Z" fill="#FAFAFA"/>
<path d="M250.747 208.329C246.408 206.46 244.665 203.822 243.638 199.964C243.144 198.027 243.175 196.028 243.727 194.101C244.28 192.174 245.342 190.364 246.842 188.793C249.366 186.195 253.068 184.298 254.796 181.319C256.633 178.137 255.968 174.093 258.766 171.403C260.69 169.552 263.785 168.817 266.251 167.434C268.254 166.277 269.816 164.75 271.609 163.385C273.403 162.02 275.594 160.863 278.045 160.782C281.748 160.666 285.016 163.286 285.616 166.208C286.217 169.129 284.568 172.132 282.037 174.307C280.207 175.875 277.85 177.165 276.787 179.138C274.784 182.846 278.096 187.428 275.897 191.061C274.292 193.716 270.011 195.307 269.816 198.251C269.736 199.333 270.271 200.38 270.416 201.456C270.872 204.829 267.328 207.907 263.271 208.884C259.215 209.862 254.833 209.214 250.747 208.306" fill="#D2AE6D"/>
<path d="M271.803 173.375C271.697 173.531 271.568 173.677 271.42 173.809L270.241 175.007C269.721 175.516 269.091 176.164 268.419 176.916C267.746 177.668 266.915 178.518 266.141 179.519C265.736 180.011 265.309 180.526 264.876 181.064C264.442 181.602 264.037 182.221 263.588 182.799C262.684 183.956 261.86 185.304 260.956 186.681C257.17 192.732 254.587 199.218 253.298 205.905C253.038 207.45 252.756 208.913 252.647 210.296C252.582 210.984 252.488 211.65 252.452 212.292C252.416 212.934 252.401 213.553 252.373 214.143C252.286 215.3 252.373 216.387 252.373 217.319C252.373 218.25 252.423 219.054 252.488 219.72C252.553 220.385 252.561 220.877 252.589 221.241C252.608 221.418 252.608 221.596 252.589 221.773C252.532 221.601 252.498 221.425 252.488 221.247C252.438 220.859 252.373 220.356 252.293 219.731C252.213 219.106 252.112 218.268 252.091 217.33C252.069 216.393 251.968 215.317 252.025 214.137C252.025 213.559 252.062 212.922 252.076 212.28C252.091 211.638 252.185 210.961 252.242 210.267C252.336 208.878 252.604 207.403 252.85 205.847C254.095 199.111 256.688 192.579 260.529 186.502C261.448 185.119 262.294 183.794 263.22 182.614C263.675 182.036 264.087 181.457 264.536 180.879L265.837 179.34C266.64 178.345 267.486 177.512 268.187 176.76C268.889 176.008 269.533 175.383 270.082 174.885L271.333 173.728C271.473 173.597 271.631 173.479 271.803 173.375Z" fill="#263238"/>
<path d="M231.737 195.677C232.604 195.734 233.449 195.93 234.22 196.253C234.991 196.576 235.674 197.02 236.227 197.557C237.326 198.643 238.098 199.915 238.483 201.277C239.322 203.88 238.758 206.941 237.804 209.515C234.296 208.491 232.163 205.466 231.201 203.892C229.676 201.387 228.83 196.128 231.737 195.677Z" fill="#D2AE6D"/>
<path d="M242.827 212.702C242.304 212.045 242.01 211.288 241.973 210.509C241.936 209.731 242.158 208.958 242.617 208.271C243.086 207.589 243.72 206.989 244.482 206.506C245.245 206.023 246.12 205.667 247.057 205.459C247.476 205.327 247.925 205.269 248.375 205.288C248.824 205.308 249.263 205.406 249.661 205.575C249.996 205.783 250.256 206.059 250.413 206.374C250.569 206.69 250.617 207.033 250.55 207.369C250.412 208.035 250.055 208.66 249.516 209.179C247.788 211.019 245.691 212.546 242.827 212.72" fill="#D2AE6D"/>
<g opacity="0.2">
<path d="M231.733 195.677C232.6 195.734 233.445 195.93 234.216 196.253C234.988 196.576 235.67 197.019 236.223 197.557C237.322 198.642 238.094 199.915 238.48 201.277C239.318 203.88 238.754 206.94 237.8 209.515C234.293 208.491 232.159 205.465 231.198 203.892C229.672 201.387 228.826 196.128 231.733 195.677Z" fill="black"/>
</g>
<g opacity="0.2">
<path d="M242.831 212.702C242.308 212.045 242.013 211.288 241.977 210.509C241.94 209.731 242.162 208.958 242.621 208.271C243.089 207.589 243.724 206.989 244.486 206.506C245.249 206.023 246.124 205.667 247.061 205.459C247.48 205.327 247.929 205.269 248.379 205.288C248.828 205.308 249.267 205.406 249.665 205.575C250 205.783 250.26 206.059 250.417 206.374C250.573 206.69 250.621 207.033 250.554 207.369C250.416 208.035 250.059 208.66 249.52 209.179C247.792 211.019 245.695 212.546 242.831 212.72" fill="black"/>
</g>
<g opacity="0.2">
<path d="M239.176 215.254C238.018 213.899 236.474 212.783 234.671 212.001C232.868 211.218 230.857 210.79 228.806 210.753C227.765 210.753 226.528 210.938 226.116 211.707C225.704 212.477 226.391 213.327 227.143 213.906C228.741 215.092 230.741 215.873 232.893 216.151C235.044 216.429 237.251 216.191 239.234 215.468" fill="black"/>
</g>
<path d="M239.176 215.254C238.018 213.899 236.474 212.783 234.671 212.001C232.868 211.218 230.857 210.79 228.806 210.753C227.765 210.753 226.528 210.938 226.116 211.707C225.704 212.477 226.391 213.327 227.143 213.906C228.741 215.092 230.741 215.873 232.893 216.151C235.044 216.429 237.251 216.191 239.234 215.468" fill="#D2AE6D"/>
<path d="M242.859 221.629C242.767 221.456 242.708 221.273 242.685 221.085C242.599 220.727 242.483 220.212 242.367 219.57C242.029 217.89 241.976 216.181 242.208 214.49C242.464 212.78 243.299 211.157 244.623 209.799C245.024 209.392 245.488 209.029 246.005 208.717C246.185 208.594 246.387 208.492 246.605 208.416C245.965 208.881 245.373 209.386 244.833 209.926C243.618 211.294 242.854 212.886 242.613 214.554C242.395 216.22 242.414 217.901 242.671 219.564C242.783 220.249 242.845 220.938 242.859 221.629Z" fill="#263238"/>
<path d="M232.828 199.64C233.025 199.907 233.196 200.185 233.342 200.473C233.66 201.016 234.065 201.815 234.614 202.787C235.663 204.759 237.058 207.502 238.505 210.556C239.951 213.611 241.173 216.411 242.012 218.447C242.439 219.459 242.735 220.287 242.981 220.859C243.111 221.153 243.212 221.455 243.285 221.762C243.105 221.486 242.958 221.197 242.844 220.9C242.569 220.287 242.2 219.482 241.759 218.516C240.855 216.497 239.589 213.721 238.143 210.666C236.697 207.611 235.345 204.881 234.361 202.868L233.204 200.507C233.048 200.227 232.922 199.937 232.828 199.64Z" fill="#263238"/>
<path d="M230.602 212.795C230.825 212.77 231.051 212.77 231.274 212.795C231.539 212.804 231.802 212.829 232.062 212.87C232.411 212.911 232.756 212.969 233.096 213.044C233.983 213.225 234.845 213.475 235.671 213.79C236.678 214.19 237.628 214.674 238.505 215.236C239.373 215.807 240.159 216.453 240.848 217.163C241.411 217.741 241.895 218.366 242.295 219.025C242.454 219.275 242.594 219.532 242.714 219.795C242.816 219.983 242.903 220.176 242.974 220.373C243.056 220.544 243.105 220.723 243.119 220.906C243.054 220.906 242.786 220.182 242.063 219.101C241.646 218.471 241.162 217.871 240.617 217.307C239.922 216.628 239.147 216.005 238.303 215.444C237.445 214.9 236.525 214.421 235.555 214.016C234.753 213.695 233.918 213.43 233.06 213.223C231.549 212.911 230.594 212.853 230.602 212.795Z" fill="#263238"/>
<path d="M66.7317 219.772L66.5509 221.05C66.5509 221.05 62.335 228.964 63.116 229.56C63.6475 229.961 64.3181 230.223 65.0397 230.313C65.7612 230.403 66.4998 230.316 67.1583 230.064C69.024 229.445 76.0529 222.26 76.0529 222.26L76.3349 221.207L66.7317 219.772Z" fill="#D2AE6D"/>
<path d="M63.4018 227.894C63.4018 227.894 65.6436 226.737 67.5165 229.051C67.5165 229.051 68.4999 228.611 71.0092 226.309C73.5185 224.007 75.9338 221.768 75.9338 221.768C75.9338 221.768 76.1941 221.542 76.1435 221.768C76.0928 221.993 76.035 222.317 76.035 222.317L71.2334 226.945C71.2334 226.945 68.3409 229.659 67.5454 229.948C66.726 230.35 65.7448 230.484 64.8047 230.324C64.0847 230.21 63.4417 229.889 62.9969 229.421C62.9752 229.288 63.4018 227.894 63.4018 227.894Z" fill="#F0F0F0"/>
<path d="M67.9983 229.826C67.6156 229.132 66.9735 228.55 66.1604 228.159C65.3472 227.769 64.4029 227.589 63.457 227.645C63.7268 227.564 64.016 227.532 64.3031 227.553C65.0002 227.562 65.6817 227.72 66.2773 228.01C66.8758 228.29 67.3739 228.688 67.7235 229.167C67.8833 229.365 67.9778 229.592 67.9983 229.826Z" fill="#263238"/>
<path d="M76.3353 221.397C76.2029 221.555 76.058 221.706 75.9014 221.849L74.6866 223.04L70.4996 226.922C69.7567 227.659 68.9366 228.344 68.0482 228.97C67.2966 229.483 66.3585 229.79 65.3726 229.844C64.7032 229.862 64.0473 229.69 63.5214 229.358C63.3286 229.24 63.1706 229.09 63.0586 228.918C63.2203 229.055 63.3943 229.183 63.5793 229.3C64.0976 229.598 64.728 229.745 65.3654 229.716C66.3109 229.646 67.2043 229.338 67.9181 228.837C68.7906 228.214 69.5984 227.535 70.3333 226.807L74.5637 222.954L75.8653 221.797C76.0062 221.652 76.1635 221.519 76.3353 221.397Z" fill="#263238"/>
<path d="M68.1206 225.551C67.7206 225.472 67.3362 225.35 66.9781 225.187C66.5922 225.074 66.2235 224.926 65.8789 224.747C66.2977 224.762 66.7064 224.855 67.0721 225.019C67.4676 225.13 67.8261 225.312 68.1206 225.551Z" fill="#263238"/>
<path d="M69.1131 224.359C68.6519 224.321 68.198 224.24 67.7608 224.116C67.3046 224.053 66.8601 223.944 66.4375 223.792C67.3755 223.805 68.295 224.004 69.1131 224.371V224.359Z" fill="#263238"/>
<path d="M70.0445 223.33C70.0011 223.37 69.4298 223.092 68.6416 222.901C67.8534 222.711 67.1953 222.67 67.1953 222.618C67.7131 222.562 68.2398 222.597 68.7391 222.72C69.2385 222.843 69.6986 223.051 70.0878 223.33H70.0445Z" fill="#263238"/>
<path d="M70.4819 222.184C70.4458 222.231 69.9251 222.023 69.2381 221.878C68.8113 221.817 68.3889 221.738 67.9727 221.641C68.4152 221.59 68.8661 221.611 69.2976 221.705C69.7292 221.798 70.1322 221.962 70.4819 222.184Z" fill="#455A64"/>
<path d="M70.0008 221.212C69.7213 221.168 69.4573 221.075 69.227 220.941C68.9689 220.815 68.7267 220.67 68.5039 220.507C68.3809 220.414 68.2508 220.31 68.1206 220.2C68.0477 220.141 67.9845 220.075 67.9326 220.003C67.8975 219.957 67.8789 219.904 67.8789 219.85C67.8789 219.796 67.8975 219.743 67.9326 219.697C68.0075 219.623 68.1086 219.57 68.2224 219.544C68.3362 219.519 68.4571 219.521 68.569 219.552C68.7583 219.587 68.936 219.654 69.0896 219.749C69.339 219.907 69.5291 220.117 69.6392 220.356C69.7628 220.563 69.8128 220.793 69.7838 221.022C69.7838 221.022 69.7043 220.767 69.4946 220.408C69.3742 220.201 69.1931 220.021 68.9667 219.882C68.7353 219.743 68.2942 219.627 68.1206 219.795C68.0555 219.859 68.1206 219.974 68.2797 220.084C68.3928 220.19 68.5136 220.291 68.6413 220.385C68.8554 220.547 69.0824 220.698 69.321 220.836C69.726 221.074 70.0152 221.189 70.0008 221.212Z" fill="#455A64"/>
<path d="M69.8477 221.103C69.8528 220.866 69.946 220.637 70.1153 220.443C70.2754 220.217 70.492 220.02 70.7517 219.865C70.9048 219.772 71.0726 219.696 71.2506 219.639C71.3532 219.604 71.465 219.59 71.576 219.599C71.6465 219.602 71.7144 219.621 71.772 219.654C71.8295 219.686 71.8744 219.731 71.9014 219.784C71.9291 219.873 71.9298 219.966 71.9034 220.056C71.877 220.145 71.8243 220.229 71.7496 220.299C71.6507 220.429 71.529 220.548 71.388 220.651C71.152 220.826 70.8704 220.956 70.5637 221.033C70.2915 221.126 69.9883 221.142 69.7031 221.079C69.9771 221.037 70.2476 220.981 70.513 220.912C70.7822 220.822 71.0277 220.693 71.2362 220.53C71.3595 220.434 71.4665 220.325 71.5543 220.206C71.6049 220.156 71.6425 220.099 71.6648 220.037C71.6872 219.976 71.6939 219.911 71.6845 219.847C71.6484 219.76 71.4748 219.755 71.3157 219.807C71.1573 219.858 71.0069 219.924 70.8674 220.003C70.622 220.135 70.4088 220.302 70.2382 220.495C69.9562 220.848 69.8911 221.108 69.8477 221.103Z" fill="#455A64"/>
<path d="M74.6366 221.016C74.3673 221.009 74.1005 221.059 73.8629 221.161C73.3153 221.443 72.8987 221.862 72.6769 222.352C72.4553 222.845 72.4276 223.38 72.5974 223.885C72.7276 224.273 72.9011 224.493 72.8722 224.51C72.6672 224.352 72.5198 224.152 72.4455 223.932C72.2057 223.405 72.2057 222.827 72.4455 222.3C72.683 221.771 73.1534 221.329 73.7689 221.056C74.304 220.848 74.6872 220.999 74.6366 221.016Z" fill="#263238"/>
<path d="M71.9191 224.348C71.7199 224.669 71.456 224.962 71.1381 225.215C70.8748 225.505 70.552 225.758 70.1836 225.962C70.3828 225.64 70.6467 225.347 70.9646 225.094C71.2279 224.804 71.5507 224.552 71.9191 224.348Z" fill="#263238"/>
<path d="M72.8942 223.631C72.9593 223.631 73.0316 223.735 73.0967 223.88C73.1618 224.024 73.1907 224.152 73.0967 224.175C73.0027 224.198 72.9159 224.099 72.8508 223.937C72.7858 223.776 72.8364 223.642 72.8942 223.631Z" fill="#263238"/>
<path d="M72.9955 222.485C73.0534 222.485 73.0462 222.635 72.9955 222.786C72.9449 222.936 72.9015 223.058 72.8365 223.052C72.7714 223.046 72.728 222.913 72.7714 222.751C72.8148 222.589 72.9377 222.468 72.9955 222.485Z" fill="#263238"/>
<path d="M73.8338 221.559C73.8699 221.6 73.7759 221.71 73.6458 221.814C73.5156 221.918 73.3782 222.005 73.3276 221.976C73.277 221.947 73.3276 221.814 73.4794 221.693C73.6313 221.571 73.7904 221.519 73.8338 221.559Z" fill="#455A64"/>
<path d="M75.1497 221.114C75.1497 221.166 75.0051 221.218 74.8243 221.259C74.6435 221.299 74.4772 221.317 74.4555 221.259C74.4338 221.201 74.564 221.12 74.7664 221.074C74.9689 221.027 75.1425 221.068 75.1497 221.114Z" fill="#455A64"/>
<path d="M89.9241 222.63L91.3703 217.337L78.9975 215.144L76.8281 222.861L77.5874 223.041C80.9572 223.799 94.7908 226.703 97.2277 226.552C99.9105 226.39 89.9241 222.63 89.9241 222.63Z" fill="#D2AE6D"/>
<path d="M81.2955 223.567C81.3506 222.7 80.9971 221.847 80.3048 221.178C79.6333 220.511 78.6734 220.069 77.6148 219.94L76.8555 222.723L81.2955 223.567Z" fill="#D2AE6D"/>
<path d="M94.7618 224.614C94.7618 224.614 98.2112 226.118 97.6544 226.523C97.0975 226.928 82.9386 224.411 76.8281 222.861L76.9077 222.647L93.3517 225.69C93.3517 225.69 94.0315 224.51 94.7618 224.614Z" fill="#F0F0F0"/>
<path d="M76.6836 222.606C76.7482 222.632 76.8161 222.651 76.8861 222.664L77.4935 222.797L79.7208 223.278C81.6009 223.671 84.2114 224.186 87.1112 224.706C90.0109 225.227 92.6432 225.644 94.5595 225.933L96.8301 226.257L97.4448 226.338H97.6617C97.5941 226.318 97.5237 226.304 97.452 226.297L96.8373 226.193L94.5812 225.829C92.6721 225.522 90.0399 225.082 87.1473 224.568C84.2548 224.053 81.6371 223.567 79.7497 223.191L77.5152 222.751L76.9005 222.635L76.6836 222.606Z" fill="#263238"/>
<path d="M93.2656 225.846C93.4481 225.565 93.6688 225.301 93.9237 225.059C94.2177 224.848 94.5403 224.664 94.8854 224.51C94.4685 224.555 94.0871 224.722 93.8152 224.978C93.5056 225.204 93.3101 225.513 93.2656 225.846Z" fill="#263238"/>
<path d="M90.0306 223.712C90.0306 223.741 90.2837 223.602 90.5223 223.405C90.761 223.208 90.9418 223.029 90.9128 223.006C90.8839 222.983 90.6597 223.122 90.4139 223.318C90.168 223.515 90.0017 223.689 90.0306 223.712Z" fill="#263238"/>
<path d="M89.1523 223.11C89.1523 223.139 89.3982 223.07 89.6585 222.96C89.9189 222.85 90.0996 222.722 90.0852 222.694C90.0707 222.665 89.8393 222.734 89.579 222.85C89.3187 222.965 89.1523 223.081 89.1523 223.11Z" fill="#263238"/>
<path d="M88.7773 222.063C88.7773 222.098 89.0449 222.179 89.4065 222.248C89.6173 222.308 89.8425 222.328 90.0645 222.306C89.8723 222.212 89.6582 222.151 89.4354 222.127C89.2244 222.067 88.9999 222.046 88.7773 222.063Z" fill="#263238"/>
<path d="M88.7383 221.369C88.9189 221.52 89.1539 221.623 89.4108 221.664C89.6526 221.747 89.9215 221.765 90.1773 221.716C89.9442 221.64 89.7019 221.584 89.4542 221.548C89.2221 221.473 88.9827 221.413 88.7383 221.369Z" fill="#263238"/>
<path d="M90.6914 222.925C90.9444 223.008 91.2136 223.055 91.4868 223.064C91.7828 223.084 92.0804 223.084 92.3763 223.064C92.5549 223.056 92.732 223.033 92.9042 222.994C93.0114 222.965 93.1014 222.905 93.1573 222.827C93.1823 222.782 93.1908 222.733 93.1818 222.685C93.1728 222.636 93.1468 222.591 93.1067 222.555C92.8382 222.379 92.5023 222.284 92.1557 222.284C91.8092 222.284 91.4733 222.379 91.2048 222.555C91.0488 222.66 90.9209 222.79 90.8288 222.936C90.7909 222.988 90.7685 223.045 90.7637 223.104C90.8967 222.92 91.0707 222.758 91.2771 222.624C91.5019 222.496 91.7678 222.421 92.0437 222.41C92.2096 222.395 92.3778 222.406 92.538 222.444C92.6983 222.482 92.8474 222.545 92.9765 222.63C93.085 222.728 92.9765 222.838 92.8391 222.879C92.6818 222.919 92.5192 222.944 92.3546 222.954C92.0657 222.97 91.7757 222.97 91.4868 222.954C91.0023 222.989 90.6986 222.908 90.6914 222.925Z" fill="#263238"/>
<path d="M90.8883 222.988C91.0222 222.871 91.0992 222.719 91.1053 222.56C91.1264 222.389 91.0967 222.217 91.0185 222.057C90.9759 221.952 90.9015 221.856 90.8019 221.78C90.7022 221.703 90.5803 221.647 90.4472 221.617C90.4054 221.616 90.3638 221.622 90.3249 221.634C90.2859 221.646 90.2503 221.665 90.2201 221.688C90.1899 221.711 90.1656 221.738 90.1488 221.769C90.1319 221.8 90.1227 221.833 90.1218 221.866C90.108 221.972 90.1253 222.079 90.1724 222.178C90.2383 222.337 90.3282 222.488 90.44 222.63C90.5323 222.764 90.6638 222.879 90.8232 222.965C90.8232 222.965 90.7003 222.821 90.534 222.583C90.4418 222.443 90.3667 222.296 90.3098 222.144C90.2375 221.988 90.2303 221.733 90.44 221.739C90.6497 221.745 90.8015 221.953 90.8883 222.103C90.9663 222.245 91.0033 222.399 90.9968 222.554C90.978 222.701 90.9417 222.847 90.8883 222.988Z" fill="#263238"/>
<path d="M77.6875 219.945C77.6875 219.945 78.0491 219.98 78.5914 220.131C79.3021 220.326 79.9296 220.677 80.4017 221.145C80.8737 221.613 81.1711 222.177 81.2598 222.774C81.3249 223.231 81.2598 223.521 81.2598 223.521C81.29 223.457 81.3094 223.391 81.3176 223.324C81.3458 223.132 81.3458 222.938 81.3176 222.745C81.2582 222.125 80.9651 221.534 80.4772 221.05C79.9892 220.565 79.3292 220.211 78.5842 220.032C78.3606 219.976 78.1304 219.94 77.8972 219.922C77.7743 219.934 77.6875 219.934 77.6875 219.945Z" fill="#263238"/>
<path d="M80.1111 216.046C79.843 216.708 79.6186 217.38 79.4386 218.06C79.2164 218.732 79.0426 219.414 78.918 220.102C79.1924 219.442 79.417 218.77 79.5905 218.089C79.8183 217.417 79.9922 216.735 80.1111 216.046Z" fill="#455A64"/>
<path d="M83.1289 222.896C84.2751 223.289 85.4993 223.516 86.7446 223.567C86.7446 223.532 85.9347 223.428 84.944 223.243C83.9533 223.058 83.1434 222.861 83.1289 222.896Z" fill="#263238"/>
<path d="M80.705 222.462C80.6616 222.462 80.705 222.607 80.77 222.774C80.8351 222.942 80.8207 223.075 80.864 223.081C80.9074 223.087 80.9725 222.936 80.9219 222.745C80.8713 222.554 80.7339 222.439 80.705 222.462Z" fill="#263238"/>
<path d="M80.0408 221.386C80.0046 221.386 80.0408 221.525 80.1565 221.652C80.2722 221.779 80.3662 221.866 80.4024 221.849C80.4385 221.831 80.4024 221.71 80.2867 221.583C80.171 221.455 80.0769 221.369 80.0408 221.386Z" fill="#455A64"/>
<path d="M78.8438 220.738C78.8438 220.773 79.0101 220.802 79.1764 220.888C79.3427 220.975 79.4584 221.073 79.4946 221.056C79.5307 221.039 79.4946 220.883 79.2559 220.784C79.0173 220.686 78.8438 220.709 78.8438 220.738Z" fill="#455A64"/>
<path d="M77.9688 220.379C77.9688 220.408 78.0049 220.472 78.0989 220.518C78.1929 220.565 78.2869 220.588 78.3086 220.559C78.3303 220.53 78.3086 220.466 78.1857 220.42C78.0628 220.374 77.9977 220.351 77.9688 220.379Z" fill="#455A64"/>
<path d="M95.8167 133.088L81.195 128.946L61.0195 131.874L61.598 222.306L80.7466 222.103C80.7466 222.103 80.7466 221.05 80.7032 219.211L91.9335 221.669C91.9335 221.669 102.875 192.096 106.606 179.959C109.694 169.824 95.8167 133.088 95.8167 133.088ZM80.4718 204.476C80.1753 182.597 79.7849 147.615 80.1826 143.062C80.1826 143.062 90.9066 173.595 91.0296 176.181C91.0802 177.738 85.136 192.854 80.4718 204.476Z" fill="#263238"/>
<path d="M80.6611 203.632C80.7623 203.632 80.8491 207.681 80.8491 212.685C80.8491 217.69 80.7695 221.745 80.6683 221.745C80.5671 221.745 80.4803 217.695 80.473 212.685C80.4658 207.676 80.5598 203.632 80.6611 203.632Z" fill="#455A64"/>
<path d="M84.8125 219.957C84.8125 219.957 84.8125 219.887 84.8631 219.749C84.9137 219.61 84.9644 219.396 85.0439 219.17C85.2102 218.62 85.4489 217.839 85.767 216.856C86.4106 214.825 87.329 211.916 88.4716 208.329C90.7928 201.115 93.9891 191.182 97.5252 180.213C98.2483 177.998 98.9715 175.828 99.6223 173.751V173.815C97.2721 164.235 94.9219 155.852 93.0635 149.876L90.8941 142.853C90.641 142.043 90.4457 141.407 90.3011 140.962C90.2432 140.753 90.1926 140.591 90.1565 140.47C90.1481 140.412 90.1481 140.354 90.1565 140.296C90.1864 140.349 90.2106 140.403 90.2288 140.458L90.4023 140.944C90.5614 141.39 90.7784 142.02 91.0604 142.824C91.6172 144.462 92.4126 146.845 93.3599 149.83C95.2835 155.795 97.6987 164.177 100.042 173.757V173.815L97.9518 180.277C94.3362 191.24 91.1327 201.161 88.7825 208.369L85.9623 216.873C85.6296 217.863 85.3621 218.638 85.1813 219.187C85.0873 219.442 85.0222 219.639 84.9644 219.766C84.9253 219.835 84.8742 219.899 84.8125 219.957Z" fill="#455A64"/>
<path d="M69.6646 221.554C69.5633 221.554 69.4766 203.354 69.4766 180.908C69.4766 158.462 69.5633 140.262 69.6646 140.262C69.7658 140.262 69.8526 158.456 69.8526 180.908C69.8526 203.359 69.773 221.554 69.6646 221.554Z" fill="#455A64"/>
<path d="M74.9777 83.8867L86.5478 84.3437C86.6708 83.2676 86.772 79.1024 86.772 79.1024C86.772 79.1024 91.5881 78.6512 91.834 74.8157C92.0798 70.9802 91.6532 62.1579 91.6532 62.1579C88.9765 61.1335 86.006 60.7005 83.0497 60.9039C80.0934 61.1074 77.259 61.9398 74.8403 63.3149L74.1172 63.7315L74.9777 83.8867Z" fill="#E6BBAC"/>
<path d="M89.2359 68.7122C89.1119 68.6053 89.043 68.4647 89.043 68.3188C89.043 68.1729 89.1119 68.0324 89.2359 67.9255C89.2901 67.8479 89.366 67.7814 89.4575 67.7311C89.5491 67.6808 89.6539 67.648 89.7638 67.6353C89.8737 67.6226 89.9859 67.6304 90.0915 67.658C90.197 67.6856 90.2933 67.7322 90.3727 67.7944C90.4521 67.8565 90.5125 67.9324 90.5493 68.0163C90.5861 68.1001 90.5982 68.1896 90.5848 68.2778C90.5714 68.366 90.5327 68.4506 90.4719 68.5249C90.411 68.5993 90.3295 68.6614 90.2338 68.7064C90.1003 68.8098 89.9221 68.868 89.7363 68.8691C89.5505 68.8702 89.3713 68.814 89.2359 68.7122Z" fill="#263238"/>
<path d="M91.4524 67.8733C91.3729 67.9369 90.9173 67.6361 90.2592 67.613C89.6012 67.5898 89.1095 67.8502 89.0371 67.775C88.9648 67.6998 89.0805 67.6303 89.2975 67.5089C89.5871 67.3532 89.9326 67.2779 90.2809 67.2948C90.6281 67.3043 90.9615 67.406 91.2282 67.5841C91.4235 67.7229 91.4886 67.8444 91.4524 67.8733Z" fill="#263238"/>
<path d="M83.1257 68.105C83.25 68.1653 83.3487 68.2543 83.4089 68.3603C83.469 68.4662 83.4878 68.5842 83.4629 68.6989C83.4379 68.8135 83.3702 68.9195 83.2688 69.0029C83.1674 69.0863 83.0369 69.1433 82.8943 69.1664C82.7518 69.1896 82.6038 69.1778 82.4698 69.1326C82.3357 69.0875 82.2218 69.011 82.1429 68.9132C82.064 68.8155 82.0238 68.7009 82.0276 68.5846C82.0313 68.4683 82.0788 68.3555 82.1639 68.2612C82.2703 68.1431 82.4284 68.0615 82.6066 68.0326C82.7849 68.0036 82.9702 68.0295 83.1257 68.105Z" fill="#263238"/>
<path d="M84.2622 68.122C84.1826 68.1857 83.727 67.8849 83.069 67.8617C82.4109 67.8386 81.912 68.0989 81.8469 68.0295C81.7818 67.9601 81.8903 67.8791 82.1072 67.7576C82.3961 67.6047 82.7384 67.5295 83.0844 67.5431C83.4303 67.5566 83.7619 67.6581 84.0307 67.8328C84.2332 67.9485 84.2983 68.0989 84.2622 68.122Z" fill="#263238"/>
<path d="M86.7048 72.5767C87.0475 72.4761 87.41 72.4251 87.775 72.4263C87.9486 72.4263 88.086 72.3915 88.1077 72.3163C88.1141 72.1781 88.0768 72.0408 87.9992 71.9172C87.8474 71.5643 87.6883 71.2056 87.5292 70.8296C87.0757 69.9086 86.7413 68.953 86.5312 67.9775C87.0952 68.8572 87.5482 69.7797 87.8835 70.7312C88.0354 71.113 88.1872 71.4717 88.3318 71.8304C88.4321 72.0123 88.455 72.2156 88.3969 72.4089C88.3697 72.461 88.3273 72.5071 88.2731 72.5433C88.219 72.5795 88.1549 72.6049 88.086 72.6172C87.9876 72.6275 87.8879 72.6275 87.7895 72.6172C87.4277 72.6535 87.0608 72.6398 86.7048 72.5767Z" fill="#263238"/>
<path d="M84.5296 73.0797C83.8571 72.7326 86.388 73.9417 87.7331 73.9301C87.4969 74.199 87.1541 74.3961 86.7604 74.4896C86.3666 74.5831 85.9449 74.5673 85.5637 74.445C84.1391 73.9822 84.5296 73.0797 84.5296 73.0797Z" fill="white"/>
<path d="M86.7922 79.0501C84.5777 79.0155 82.4258 78.4558 80.6094 77.4419C80.6094 77.4419 81.9616 80.2419 86.756 80.0394L86.7922 79.0501Z" fill="#D88876"/>
<path d="M75.0225 67.9484C74.9141 67.9484 71.4575 67.6244 71.8841 70.8756C72.3108 74.1269 76.2663 72.7095 76.2663 72.6112C76.2663 72.5128 75.0225 67.9484 75.0225 67.9484Z" fill="#E6BBAC"/>
<path d="M74.8677 71.599C74.8677 71.599 74.8026 71.6453 74.6869 71.7031C74.5256 71.7735 74.3369 71.7921 74.159 71.7552C73.8798 71.6427 73.6425 71.4733 73.4711 71.2641C73.2997 71.0549 73.2003 70.8132 73.1828 70.5635C73.139 70.2855 73.1711 70.0033 73.2768 69.7362C73.3029 69.6316 73.3599 69.5334 73.4429 69.4499C73.5259 69.3664 73.6326 69.2999 73.7541 69.256C73.8327 69.2317 73.9195 69.2306 73.999 69.2529C74.0785 69.2751 74.1455 69.3193 74.188 69.3775C74.2603 69.4643 74.2386 69.5337 74.2603 69.5337C74.282 69.5337 74.3398 69.4759 74.2603 69.3428C74.2291 69.2645 74.1653 69.1971 74.0795 69.1519C73.957 69.0956 73.813 69.077 73.6746 69.0998C73.5097 69.1418 73.3612 69.2171 73.2434 69.3185C73.1255 69.4198 73.0424 69.5438 73.002 69.6783C72.8658 69.9739 72.8211 70.2915 72.8719 70.604C72.8906 70.8948 73.0157 71.1749 73.2317 71.4094C73.4477 71.6439 73.745 71.8225 74.0867 71.9229C74.199 71.9396 74.3146 71.9357 74.4247 71.9117C74.5349 71.8877 74.6369 71.844 74.7231 71.7841C74.8677 71.68 74.8822 71.6048 74.8677 71.599Z" fill="#D88876"/>
<path d="M90.9864 62.3949C91.5683 62.2456 92.0717 61.9458 92.4173 61.5426C92.7629 61.1394 92.9311 60.6557 92.8955 60.1676C92.8374 59.6809 92.6149 59.216 92.2519 58.8226C91.8888 58.4293 91.3989 58.1223 90.8345 57.9346C90.2676 57.7523 89.6588 57.6678 89.0482 57.6868C88.4376 57.7057 87.8388 57.8276 87.2912 58.0445C87.0992 57.3339 86.5972 56.7012 85.8752 56.2597C85.1532 55.8183 84.2583 55.5968 83.3507 55.6351C82.4432 55.6734 81.5824 55.9689 80.9224 56.4687C80.2625 56.9685 79.8464 57.6399 79.7489 58.3627C79.6115 57.628 78.5485 57.2057 77.6229 57.2057C77.158 57.1773 76.6912 57.2339 76.2577 57.3712C75.8242 57.5085 75.4354 57.723 75.1209 57.9982C74.8206 58.2823 74.6625 58.6453 74.6772 59.0171C74.6919 59.3889 74.8783 59.7431 75.2004 60.0114C74.1543 59.9216 73.1035 60.1441 72.25 60.6362C71.8316 60.8868 71.498 61.217 71.2795 61.5968C71.061 61.9767 70.9646 62.3942 70.999 62.8114C71.0526 63.2253 71.267 63.6152 71.612 63.9265C71.957 64.2378 72.4154 64.4548 72.9225 64.5469C73.2696 64.599 73.6963 64.6048 73.8915 64.842C73.9818 64.9849 74.0194 65.1454 74 65.3048V68.0585C74.32 67.9637 74.6733 67.9708 74.9869 68.0785C75.3005 68.1862 75.5504 68.3861 75.6849 68.637C75.9416 69.1425 76.024 69.6939 75.9235 70.2337C76.2272 70.5865 76.9721 70.4651 77.283 70.118C77.5459 69.7457 77.6548 69.3164 77.594 68.8915L77.5289 64.4602C77.8046 64.5765 78.1129 64.6346 78.4245 64.6289C78.7361 64.6232 79.0408 64.5539 79.3095 64.4276C79.5783 64.3012 79.8022 64.1221 79.9601 63.9071C80.118 63.692 80.2046 63.4483 80.2117 63.199C80.6124 63.4922 81.0896 63.7104 81.6088 63.8377C82.1279 63.9651 82.676 63.9984 83.2132 63.9353C83.7505 63.8721 84.2634 63.7141 84.7148 63.4727C85.1663 63.2313 85.5449 62.9125 85.8232 62.5395C86.389 62.908 87.0081 63.2207 87.6672 63.4709C88.3379 63.7149 89.0977 63.752 89.8005 63.575C90.1463 63.4787 90.4471 63.3002 90.6629 63.0635C90.8786 62.8268 90.9991 62.5431 91.0081 62.2503L90.7622 62.0883" fill="#263238"/>
<path d="M129.256 94.855C128.474 94.855 127.709 95.0406 127.059 95.3883C126.408 95.736 125.901 96.2302 125.602 96.8084C125.302 97.3867 125.224 98.0229 125.377 98.6368C125.529 99.2506 125.906 99.8145 126.459 100.257C127.013 100.7 127.717 101.001 128.485 101.123C129.252 101.245 130.047 101.182 130.77 100.943C131.493 100.703 132.111 100.298 132.545 99.7775C132.98 99.2571 133.212 98.6453 133.212 98.0194C133.213 97.6036 133.111 97.1918 132.913 96.8075C132.714 96.4233 132.423 96.0741 132.055 95.7801C131.688 95.4861 131.252 95.2531 130.771 95.0943C130.291 94.9356 129.776 94.8542 129.256 94.855ZM129.256 97.4467C129.032 97.4467 128.812 97.3934 128.626 97.2936C128.439 97.1938 128.293 97.052 128.207 96.886C128.121 96.7201 128.099 96.5374 128.143 96.3613C128.187 96.1851 128.295 96.0232 128.454 95.8962C128.612 95.7692 128.815 95.6827 129.035 95.6476C129.255 95.6126 129.483 95.6306 129.691 95.6993C129.898 95.7681 130.076 95.8845 130.2 96.0338C130.325 96.1832 130.392 96.3588 130.392 96.5384C130.394 96.6584 130.366 96.7775 130.309 96.8887C130.253 96.9999 130.17 97.101 130.064 97.1861C129.958 97.2713 129.832 97.3387 129.694 97.3844C129.555 97.4301 129.406 97.4533 129.256 97.4525V97.4467Z" fill="#D2AE6D"/>
<path d="M127.945 100.953V106.639C127.945 106.639 129.522 107.218 129.435 107.293C129.348 107.368 130.57 106.639 130.57 106.639V105.957L129.847 105.378L130.57 104.852L129.847 104.129L130.57 103.486L129.76 102.758L130.57 102.104V100.947L127.945 100.953Z" fill="#D2AE6D"/>
<path d="M133.661 89.7929L129.142 86.5591L124.586 89.8392L125.931 90.007L126.047 93.3218L132.201 93.4086L132.02 89.9376L133.661 89.7929ZM129.106 92.7896C128.966 92.7806 128.832 92.7392 128.721 92.6704C128.61 92.6016 128.526 92.5085 128.48 92.4023C128.434 92.2961 128.428 92.1815 128.462 92.0725C128.496 91.9635 128.569 91.8648 128.672 91.7885C128.775 91.7121 128.904 91.6614 129.042 91.6426C129.181 91.6238 129.323 91.6376 129.452 91.6825C129.581 91.7273 129.69 91.8012 129.768 91.895C129.845 91.9889 129.886 92.0987 129.887 92.2111C129.887 92.2911 129.866 92.3703 129.826 92.4437C129.787 92.5171 129.728 92.5831 129.655 92.6374C129.581 92.6918 129.495 92.7334 129.4 92.7596C129.306 92.7858 129.205 92.796 129.106 92.7896Z" fill="#263238"/>
<path d="M129.712 92.5757C129.712 92.5757 129.574 92.6046 129.357 92.6046C129.054 92.586 128.75 92.6236 128.468 92.7145C128.056 92.8375 127.699 93.0548 127.441 93.3393C127.127 93.6873 126.985 94.116 127.043 94.5426C127.107 94.9678 127.364 95.3593 127.766 95.6418C128.096 95.8758 128.502 96.0286 128.938 96.0814C129.358 96.1021 129.779 96.0749 130.189 96.0005C130.016 96.1182 129.814 96.2053 129.596 96.2561C129.377 96.307 129.148 96.3204 128.923 96.2955C128.419 96.2695 127.937 96.1155 127.549 95.8558C127.064 95.534 126.755 95.0731 126.689 94.5715C126.624 94.0709 126.803 93.5695 127.188 93.1716C127.494 92.851 127.924 92.6194 128.41 92.5121C128.729 92.4316 129.068 92.4216 129.393 92.4831C129.596 92.5236 129.719 92.5583 129.712 92.5757Z" fill="#455A64"/>
<path d="M131.149 95.2425C131.055 95.202 131.28 94.7913 131.243 94.2822C131.207 93.7731 130.969 93.3855 131.041 93.3335C131.113 93.2814 131.598 93.6516 131.619 94.2649C131.641 94.8781 131.229 95.2946 131.149 95.2425Z" fill="#455A64"/>
<path d="M117.828 90.6204C118.276 89.5571 118.85 88.5304 119.542 87.5543C120.168 86.7794 121.073 86.1744 122.138 85.8188C123.526 85.3965 125.074 85.5643 126.549 85.7378L130.107 86.1601C130.591 86.218 131.206 86.3973 131.192 86.7849C131.168 86.8977 131.103 87.0025 131.006 87.0859C130.908 87.1693 130.781 87.2276 130.642 87.2535C130.358 87.297 130.066 87.297 129.782 87.2535C128.995 87.1736 128.201 87.1542 127.41 87.1957C126.846 87.2246 126.144 87.3866 126.05 87.832C125.956 88.2775 126.498 88.5725 126.997 88.5841C127.504 88.5562 127.991 88.4137 128.4 88.1733L129.796 87.5138C130.042 87.359 130.353 87.2864 130.664 87.3114C131.177 87.4039 131.3 87.994 131.025 88.3527C130.699 88.6865 130.287 88.9607 129.818 89.1568C128.024 90.1287 127.193 91.7022 126.368 93.7849" fill="#E6BBAC"/>
<path d="M117.866 90.1804L109.911 106.587L101.639 91.2738C99.05 83.8631 87.61 83.3772 87.61 83.3772L76.2929 82.2202C72.2217 80.8954 65.6267 82.0003 63.0451 83.14C59.7549 84.5863 56.8334 89.035 56.1826 92.3151C56.1826 92.3151 44.786 115.889 46.7312 118.348C48.6765 120.807 60.8468 130.427 60.8468 130.427L59.1474 135.391L78.513 136.368L80.4726 130.254L80.7041 136.797L98.9126 137.82C98.1171 132.064 96.8299 126.279 96.4828 124.631L95.0366 107.744L95.2246 104.273L95.3981 103.914C97.1047 106.199 99.2524 109.121 101.906 112.869C107.229 120.39 112.601 118.469 115.754 115.45C117.099 114.068 118.111 112.499 118.741 110.822L126.572 93.2118L117.866 90.1804ZM62.3943 118.331C62.3943 118.423 60.4419 115.548 60.4419 115.548L63.291 108.027C63.291 108.027 62.3943 118.244 62.3943 118.331Z" fill="#D2AE6D"/>
<path d="M74.8125 82.4111L80.923 101.184L87.2576 83.5565L86.5562 83.5103L86.7225 81.1904L74.8125 80.0508V82.4111Z" fill="white"/>
<path d="M74.4861 82.5903C74.502 82.6747 74.502 82.7605 74.4861 82.8449C74.4427 83.0358 74.3921 83.2788 74.327 83.568C74.1751 84.2333 73.9582 85.1415 73.6906 86.2581C73.4231 87.3746 73.0687 88.7919 72.6855 90.3423C72.5047 91.1002 72.2299 91.9737 72.765 92.6911C73.3001 93.4084 74.4138 93.7555 75.5129 94.0506L75.7226 94.1084L75.6069 94.2588C74.7319 95.4795 74.8042 97.1514 75.4478 98.5918C75.8707 99.5079 76.3683 100.401 76.9375 101.265C77.4726 102.128 77.9908 102.963 78.4922 103.769C79.4757 105.378 80.3941 106.864 81.2112 108.183L80.922 108.241C80.922 106.118 80.922 104.365 80.922 103.098C80.922 102.52 80.922 102.04 80.922 101.681C80.9049 101.516 80.9049 101.349 80.922 101.184C80.9655 101.347 80.9849 101.514 80.9798 101.681C80.9798 102.04 81.016 102.508 81.0449 103.098C81.081 104.36 81.1389 106.112 81.204 108.236V108.768L80.9003 108.293C80.0759 106.974 79.143 105.493 78.1307 103.897C77.6317 103.093 77.111 102.254 76.5687 101.398C75.9903 100.521 75.4854 99.6146 75.0573 98.6844C74.3921 97.1687 74.3342 95.439 75.2598 94.1142L75.3611 94.3282C74.7945 94.1846 74.2451 94.0007 73.7195 93.7787C73.1909 93.5617 72.7459 93.2337 72.4324 92.8299C72.1531 92.4305 72.0345 91.972 72.0925 91.5167C72.1404 91.1036 72.225 90.6938 72.3456 90.2903C72.7578 88.7456 73.1193 87.3977 73.4303 86.2407C73.7412 85.0837 73.9871 84.2275 74.1534 83.568C74.233 83.2788 74.3053 83.0416 74.3631 82.8507C74.3905 82.7601 74.4317 82.6727 74.4861 82.5903Z" fill="#263238"/>
<path d="M88.3638 83.6724C88.4739 83.958 88.5561 84.2501 88.6097 84.5459C88.7399 85.1244 88.9206 85.9401 89.1159 86.9814C89.3111 88.0227 89.5425 89.255 89.6799 90.6665C89.6799 91.0194 89.7378 91.3781 89.7233 91.7599C89.7273 92.1734 89.5706 92.5777 89.275 92.9169C88.6436 93.576 87.8191 94.1005 86.8742 94.4442V94.1896C87.2041 94.4086 87.4853 94.6707 87.7058 94.9648C87.7636 95.0342 87.8142 95.1095 87.8649 95.1847C87.8962 95.2491 87.9109 95.318 87.9082 95.3871V95.526C87.8649 95.7053 87.807 95.8673 87.7492 96.0351C87.026 97.8458 86.1293 99.5061 85.3411 101.004C84.5529 102.503 83.8008 103.856 83.1717 104.979C82.5426 106.101 82.0147 107.015 81.6459 107.64L81.2048 108.357C81.1036 108.519 81.0457 108.6 81.0312 108.594C81.0485 108.502 81.0852 108.412 81.1397 108.328C81.241 108.132 81.3639 107.889 81.5085 107.594L82.9548 104.898C83.5622 103.741 84.2709 102.393 85.0519 100.895C85.8329 99.3962 86.7006 97.7243 87.4165 95.9483C87.4775 95.7948 87.5258 95.6383 87.5611 95.4797V95.3756C87.557 95.3603 87.557 95.3445 87.5611 95.3293L87.4093 95.121C87.2153 94.8624 86.9712 94.63 86.6861 94.4326L86.4548 94.2764L86.7151 94.1723C87.602 93.8563 88.379 93.3717 88.9785 92.7607C89.5425 92.1822 89.3617 91.3954 89.3473 90.707C89.2388 89.3128 89.0291 88.069 88.87 87.0277C88.7109 85.9864 88.5735 85.2054 88.4723 84.5864C88.3999 84.2852 88.3636 83.9791 88.3638 83.6724Z" fill="#263238"/>
<path d="M80.4721 130.971C80.3636 130.971 80.4721 125.66 80.6963 119.123C80.9204 112.586 81.1952 107.287 81.3254 107.287C81.4556 107.287 81.3254 112.592 81.1012 119.135C80.8771 125.678 80.6023 130.971 80.4721 130.971Z" fill="#263238"/>
<path d="M83.4449 112.025C83.4015 112.025 83.6402 111.811 84.0307 111.955C84.1635 112 84.275 112.078 84.3486 112.177C84.4222 112.276 84.4541 112.391 84.4395 112.506C84.4249 112.621 84.3647 112.729 84.2676 112.814C84.1706 112.899 84.0419 112.957 83.9005 112.979C83.7629 113.02 83.6126 113.023 83.4724 112.989C83.3322 112.955 83.2099 112.885 83.1239 112.79C83.038 112.695 82.9931 112.58 82.9962 112.463C82.9994 112.346 83.0503 112.233 83.1412 112.141C83.3871 111.863 83.7125 111.927 83.6908 111.961C83.6691 111.996 83.4811 112.036 83.3726 112.245C83.3422 112.297 83.3264 112.355 83.3264 112.412C83.3264 112.47 83.3422 112.528 83.3726 112.58C83.4177 112.633 83.4836 112.672 83.5597 112.691C83.6358 112.709 83.7177 112.707 83.792 112.684C83.8706 112.675 83.9429 112.644 83.9978 112.598C84.0527 112.552 84.0871 112.493 84.0957 112.43C84.093 112.372 84.0732 112.316 84.038 112.266C84.0028 112.215 83.9532 112.173 83.8933 112.141C83.6763 112.002 83.4738 112.06 83.4449 112.025Z" fill="#263238"/>
<path d="M83.5258 118.036C83.4751 118.036 83.7138 117.827 84.1115 117.966C84.2252 118.009 84.3229 118.075 84.3952 118.157C84.4675 118.239 84.5118 118.335 84.5237 118.435C84.5285 118.567 84.4766 118.696 84.3766 118.802C84.2766 118.907 84.1346 118.982 83.9741 119.013C83.8193 119.049 83.6541 119.042 83.5048 118.994C83.3554 118.945 83.2305 118.859 83.1497 118.747C83.0959 118.655 83.0735 118.553 83.0849 118.451C83.0964 118.349 83.1412 118.252 83.2148 118.169C83.4679 117.885 83.7861 117.949 83.7644 117.989C83.7427 118.03 83.5547 118.065 83.4462 118.273C83.4158 118.325 83.4 118.383 83.4 118.441C83.4 118.499 83.4158 118.556 83.4462 118.608C83.4967 118.657 83.5635 118.693 83.6386 118.712C83.7138 118.731 83.7942 118.732 83.8704 118.716C83.9465 118.699 84.0151 118.666 84.0681 118.619C84.1211 118.572 84.1562 118.514 84.1694 118.452C84.1655 118.395 84.1452 118.339 84.1101 118.289C84.075 118.239 84.026 118.196 83.9669 118.163C83.7499 118.012 83.5475 118.076 83.5258 118.036Z" fill="#263238"/>
<path d="M83.2015 124.839C83.1582 124.839 83.3896 124.631 83.7873 124.769C83.9013 124.811 83.9999 124.875 84.0734 124.956C84.147 125.038 84.1929 125.133 84.2067 125.232C84.2111 125.365 84.1582 125.495 84.0568 125.601C83.9554 125.706 83.8117 125.78 83.6499 125.811C83.4951 125.846 83.3299 125.839 83.1806 125.791C83.0312 125.743 82.9063 125.656 82.8255 125.545C82.7716 125.452 82.7493 125.35 82.7607 125.248C82.7722 125.147 82.817 125.049 82.8906 124.966C83.1437 124.683 83.4691 124.746 83.4402 124.787C83.4113 124.827 83.2305 124.856 83.122 125.07C83.0916 125.123 83.0758 125.18 83.0758 125.238C83.0758 125.296 83.0916 125.353 83.122 125.406C83.1713 125.456 83.2386 125.493 83.3149 125.511C83.3912 125.53 83.4728 125.529 83.5486 125.51C83.6273 125.498 83.6992 125.466 83.7538 125.42C83.8085 125.373 83.843 125.313 83.8524 125.25C83.8456 125.192 83.8234 125.136 83.7872 125.087C83.751 125.037 83.7017 124.994 83.6427 124.96C83.4257 124.816 83.2232 124.879 83.2015 124.839Z" fill="#263238"/>
<path d="M87.2547 101.849H92.5769V101.184H86.9727L87.2547 101.849Z" fill="#263238"/>
<path d="M125.047 96.4632C123.573 96.0674 122.141 95.576 120.766 94.9938C119.337 94.5039 117.959 93.9235 116.645 93.2583C118.119 93.6571 119.55 94.1504 120.925 94.7335C122.355 95.2202 123.734 95.7987 125.047 96.4632Z" fill="#455A64"/>
<path d="M117.828 91.9796C117.828 91.9796 117.872 91.7887 118.19 91.6962C118.38 91.6338 118.593 91.6338 118.783 91.6962C118.905 91.7439 119.007 91.8204 119.074 91.9154C119.142 92.0105 119.171 92.1197 119.159 92.2284C119.16 92.3425 119.111 92.4533 119.022 92.542C118.932 92.6306 118.807 92.6915 118.667 92.7144C118.553 92.7253 118.438 92.7071 118.338 92.6624C118.238 92.6177 118.158 92.5488 118.11 92.4656C118.075 92.4153 118.056 92.3585 118.056 92.3007C118.056 92.243 118.075 92.1862 118.11 92.1358C118.168 92.0664 118.226 92.0606 118.24 92.0722C118.255 92.0838 118.197 92.2168 118.349 92.3499C118.501 92.483 118.775 92.483 118.797 92.2111C118.819 91.9392 118.508 91.8524 118.269 91.8813C118.031 91.9102 117.872 92.0086 117.828 91.9796Z" fill="#455A64"/>
<path d="M109.499 110.029C109.4 109.407 109.429 108.775 109.585 108.161C109.617 107.533 109.776 106.914 110.055 106.327C110.117 107.577 109.929 108.826 109.499 110.029Z" fill="#263238"/>
<path d="M111.344 109.85C110.943 109.347 110.645 108.797 110.462 108.218C110.168 107.667 109.992 107.081 109.941 106.483C110.647 107.53 111.122 108.667 111.344 109.844V109.85Z" fill="#263238"/>
<path d="M82.3952 81.9947C82.1329 82.8102 81.6735 83.5766 81.043 84.2509L82.106 86.5649H83.0099L83.7764 84.3434C83.7764 84.3434 83.2413 84.0021 82.8508 81.9253L82.3952 81.9947Z" fill="#455A64"/>
<path d="M86.5177 83.4583C86.5177 83.4583 86.4309 83.6145 86.1995 83.8575C85.8792 84.2333 85.4026 84.5059 84.8545 84.6269C84.65 84.6663 84.437 84.668 84.2316 84.632C84.0261 84.5959 83.8336 84.5229 83.6686 84.4186C83.3504 84.1423 83.1372 83.7991 83.0539 83.4294C82.7733 82.6318 82.6131 81.8103 82.5766 80.9823L82.9382 81.017C82.7646 81.4914 82.6128 81.9947 82.3958 82.498C82.1907 83.0026 81.9218 83.4891 81.5932 83.95C81.4182 84.1894 81.1692 84.3886 80.87 84.5285C80.5832 84.6612 80.2531 84.7217 79.9227 84.7021C79.3603 84.6538 78.8124 84.5286 78.3029 84.3319C77.8613 84.1645 77.4359 83.9711 77.0302 83.7533C76.4491 83.45 75.8891 83.1217 75.3525 82.7699C75.1406 82.6557 74.9485 82.5195 74.7812 82.3649C74.8246 82.3186 75.6924 82.8451 77.1676 83.5682C77.571 83.7621 77.9916 83.9322 78.4258 84.0773C78.9042 84.2505 79.4147 84.3599 79.9372 84.4013C80.2093 84.4088 80.4786 84.3546 80.714 84.2451C80.9493 84.1356 81.1413 83.9752 81.2678 83.7823C81.5629 83.3387 81.805 82.8738 81.9909 82.3939C82.1934 81.9021 82.3525 81.4046 82.5332 80.9244C82.5391 80.9057 82.5496 80.8881 82.5641 80.8726C82.5787 80.8572 82.5969 80.8442 82.6178 80.8345C82.6387 80.8248 82.6618 80.8185 82.6858 80.8161C82.7098 80.8137 82.7341 80.8151 82.7574 80.8203C82.7952 80.8296 82.8285 80.8479 82.8531 80.8727C82.8776 80.8974 82.8922 80.9276 82.8948 80.9592C82.9213 81.7676 83.062 82.571 83.3142 83.3542C83.3774 83.6799 83.5499 83.9858 83.8132 84.2393C83.944 84.3245 84.0969 84.3853 84.2607 84.4174C84.4246 84.4494 84.5953 84.4518 84.7605 84.4244C85.2686 84.3269 85.7231 84.0994 86.0549 83.7765C86.1919 83.6554 86.3474 83.5485 86.5177 83.4583Z" fill="#E0E0E0"/>
<path d="M82.1071 86.5592C81.9552 86.86 79.1133 95.6302 79.1133 95.6302L80.9139 101.184L84.2475 91.9277C84.2475 91.9277 83.1194 86.2642 83.0688 86.4146C83.0182 86.565 82.1071 86.5592 82.1071 86.5592Z" fill="#455A64"/>
<path d="M71.6951 127.633C70.2254 127.864 68.7186 127.903 67.2333 127.749C65.7455 127.689 64.2798 127.435 62.8945 126.997C62.8945 126.91 64.8615 127.275 67.2912 127.448C69.7209 127.622 71.6878 127.535 71.6951 127.633Z" fill="#263238"/>
<path d="M96.808 128.831C95.7849 128.931 94.7505 128.931 93.7274 128.831C92.6991 128.837 91.6739 128.74 90.6758 128.542C91.6966 128.444 92.7283 128.444 93.7491 128.542C94.7794 128.541 95.8062 128.638 96.808 128.831Z" fill="#263238"/>
<path d="M63.4076 99.7666C63.4275 99.8721 63.4275 99.9793 63.4076 100.085C63.4076 100.328 63.4221 100.634 63.451 101.005C63.451 101.803 63.5016 102.954 63.5088 104.383C63.5088 107.235 63.4148 111.175 63.1256 115.519C62.8363 119.864 62.4024 123.792 61.9975 126.627C61.8022 128.044 61.6215 129.189 61.4841 129.982C61.419 130.346 61.3611 130.647 61.3177 130.89C61.302 130.996 61.2754 131.1 61.2382 131.203C61.2175 131.097 61.2175 130.99 61.2382 130.884C61.2382 130.642 61.296 130.335 61.3322 129.965C61.4262 129.132 61.5636 127.992 61.7227 126.609C62.0481 123.769 62.4458 119.847 62.7423 115.502C63.0388 111.157 63.169 107.229 63.234 104.377C63.234 102.983 63.2847 101.843 63.2991 101.005C63.2991 100.634 63.2991 100.328 63.2991 100.085C63.3144 99.9749 63.351 99.8675 63.4076 99.7666Z" fill="#263238"/>
<path d="M60.4336 115.832C60.82 114.208 61.3271 112.605 61.9522 111.03C62.4598 109.425 63.0901 107.847 63.8396 106.304C63.4575 107.929 62.9528 109.535 62.3282 111.111C61.8171 112.714 61.1844 114.29 60.4336 115.832Z" fill="#263238"/>
<path d="M62.6743 118.886C61.7677 117.886 60.9625 116.83 60.2662 115.728C59.4586 114.673 58.762 113.566 58.1836 112.418C59.093 113.417 59.8984 114.473 60.5916 115.577C61.3992 116.632 62.0958 117.739 62.6743 118.886Z" fill="#263238"/>
</svg>
