<svg width="327" height="276" viewBox="0 0 327 276" fill="none" xmlns="http://www.w3.org/2000/svg">
<path d="M59.7551 252.727C118.328 283.337 213.328 283.337 271.909 252.727C330.49 222.116 330.482 172.49 271.909 141.896C213.336 111.301 118.344 111.285 59.7551 141.896C1.16617 172.506 1.17419 222.124 59.7551 252.727Z" fill="#F5F5F5"/>
<path d="M114.829 247.054L36.1247 201.632C35.9546 201.578 35.8063 201.471 35.701 201.327C35.5958 201.182 35.5391 201.009 35.5391 200.83C35.5391 200.651 35.5958 200.478 35.701 200.333C35.8063 200.189 35.9546 200.082 36.1247 200.028L124.602 148.941C125.034 148.724 125.51 148.61 125.994 148.61C126.477 148.61 126.954 148.724 127.386 148.941L206.106 194.363C206.909 194.812 206.909 195.526 206.106 195.968L117.605 247.054C117.175 247.272 116.699 247.386 116.217 247.386C115.735 247.386 115.259 247.272 114.829 247.054Z" fill="#EBEBEB"/>
<path d="M290.658 184.895L286.742 182.953C286.85 177.995 287.526 173.066 288.756 168.261C291.677 157.486 300.695 149.077 307.628 148.555C316.574 147.881 314.312 155.865 308.96 158.93C300.407 163.8 293.386 171.784 290.658 184.895Z" fill="#D2AE6D"/>
<g opacity="0.2">
<path d="M290.65 184.895L286.734 182.953C286.842 177.995 287.518 173.066 288.748 168.261C291.669 157.486 300.688 149.077 307.62 148.555C316.566 147.881 314.304 155.865 308.952 158.93C300.399 163.8 293.378 171.784 290.65 184.895Z" fill="black"/>
</g>
<path d="M290.025 181.268H290.073C290.13 181.263 290.185 181.247 290.235 181.22C290.285 181.193 290.33 181.157 290.366 181.113C290.402 181.069 290.428 181.018 290.444 180.963C290.46 180.908 290.465 180.851 290.458 180.795C289.536 171.607 298.434 155.48 308.808 151.58C308.861 151.561 308.91 151.531 308.951 151.492C308.993 151.454 309.026 151.407 309.049 151.356C309.072 151.304 309.085 151.249 309.086 151.192C309.088 151.136 309.078 151.079 309.057 151.027C309.017 150.92 308.937 150.832 308.833 150.784C308.729 150.736 308.611 150.731 308.503 150.77C297.816 154.782 288.645 171.407 289.6 180.883C289.611 180.988 289.661 181.085 289.739 181.156C289.818 181.227 289.919 181.267 290.025 181.268Z" fill="white"/>
<path d="M288.286 183.539C288.222 182.215 288.286 180.289 288.286 179.816C288.336 178.15 288.726 176.511 289.434 175.002C290.369 172.995 291.963 171.37 293.951 170.396C295.034 169.883 296.27 169.594 297.024 168.639C297.587 167.776 297.933 166.791 298.035 165.766C298.38 164.162 299.046 162.421 300.442 161.53C301.838 160.639 303.652 160.728 305.256 161.081C307.607 161.538 309.798 162.051 312.117 161.153C313.969 160.368 315.869 159.701 317.805 159.155C320.213 158.553 325.661 157.847 326.495 161.273C326.58 161.745 326.559 162.231 326.434 162.694C326.309 163.157 326.083 163.587 325.773 163.953C325.142 164.673 324.41 165.298 323.599 165.807L319.587 168.575C319.119 168.863 318.703 169.229 318.359 169.658C317.557 170.821 317.91 172.434 317.629 173.838C317.466 174.55 317.151 175.218 316.705 175.795C316.259 176.373 315.693 176.847 315.045 177.184C313.74 177.851 312.253 178.076 310.809 177.826C308.875 177.529 305.842 175.764 304.462 177.954C304.056 178.704 303.784 179.518 303.66 180.361C303.537 181.206 303.188 182.002 302.649 182.664C301.798 183.563 300.434 183.731 299.191 183.747C297.456 183.638 295.715 183.765 294.015 184.125C293.325 184.325 292.836 185.144 292.411 185.673C291.359 185.079 290.076 184.478 288.286 183.539Z" fill="#D2AE6D"/>
<path d="M289.451 182.953C289.387 182.952 289.324 182.938 289.266 182.913C289.172 182.865 289.1 182.781 289.067 182.68C289.034 182.58 289.042 182.47 289.09 182.375C295.147 170.42 311.829 162.926 321.561 160.8C321.613 160.788 321.666 160.786 321.717 160.795C321.769 160.804 321.818 160.824 321.862 160.852C321.906 160.881 321.944 160.918 321.974 160.961C322.004 161.004 322.024 161.053 322.035 161.104C322.047 161.156 322.048 161.21 322.039 161.262C322.03 161.314 322.011 161.364 321.983 161.409C321.954 161.453 321.917 161.492 321.874 161.523C321.831 161.553 321.782 161.574 321.73 161.586C312.15 163.672 295.741 171.03 289.804 182.736C289.77 182.801 289.719 182.856 289.657 182.894C289.595 182.932 289.524 182.952 289.451 182.953Z" fill="white"/>
<path d="M312.878 171.64C312.788 171.638 312.701 171.607 312.63 171.551C309.517 169.056 304.895 168.294 304.847 168.286C304.795 168.277 304.744 168.258 304.7 168.23C304.655 168.202 304.616 168.165 304.585 168.122C304.555 168.078 304.533 168.029 304.521 167.978C304.51 167.926 304.509 167.873 304.518 167.82C304.526 167.768 304.544 167.719 304.571 167.674C304.598 167.629 304.634 167.59 304.677 167.559C304.72 167.529 304.768 167.507 304.819 167.495C304.87 167.484 304.923 167.482 304.975 167.491C305.176 167.491 309.854 168.294 313.127 170.926C313.21 170.992 313.263 171.088 313.275 171.193C313.287 171.298 313.257 171.404 313.191 171.487C313.154 171.534 313.106 171.572 313.052 171.598C312.998 171.625 312.939 171.639 312.878 171.64Z" fill="white"/>
<path d="M301.877 169.963H301.757C301.656 169.929 301.572 169.858 301.524 169.763C301.476 169.668 301.467 169.558 301.5 169.457C301.977 167.472 302.169 165.43 302.07 163.391C302.061 163.285 302.095 163.179 302.165 163.098C302.234 163.017 302.333 162.966 302.439 162.958C302.545 162.949 302.651 162.983 302.732 163.053C302.813 163.122 302.864 163.221 302.872 163.327C302.973 165.469 302.768 167.614 302.262 169.698C302.234 169.777 302.181 169.844 302.112 169.892C302.043 169.939 301.961 169.964 301.877 169.963Z" fill="white"/>
<path d="M15.6405 174.512C15.532 173.875 15.2795 173.271 14.9023 172.747C14.2341 172.017 13.3197 171.559 12.3347 171.463C11.3574 171.37 10.3853 171.228 9.42215 171.037C8.69389 170.841 8.01182 170.502 7.41529 170.04C6.81877 169.578 6.31961 169.003 5.94662 168.347C5.57363 167.691 5.3342 166.968 5.24215 166.22C5.1501 165.471 5.20725 164.711 5.41031 163.985C5.67509 163.054 6.21268 162.195 6.42932 161.265C7.10331 158.809 5.20972 157.782 3.46858 156.603C2.257 155.801 0.259107 154.573 0.523889 152.832C0.997286 149.582 5.7794 148.764 10.3609 150.064C14.9424 151.363 17.3736 152.39 20.7917 151.468C24.2098 150.545 27.3551 150.344 29.1444 153.393C30.9336 156.442 29.1444 159.299 31.4391 161.417C33.7339 163.535 37.8581 162.083 39.3665 166.705V194.218C39.3665 194.057 38.5642 193.52 38.4598 193.416L36.0046 191.201C35.2022 190.519 34.119 189.885 33.5975 189.011C32.8593 187.799 32.4902 186.363 31.728 185.143C30.8746 183.674 29.6376 182.465 28.1494 181.645C25.2288 180.144 21.7305 180.401 18.7216 178.941C17.637 178.45 16.7554 177.6 16.2262 176.534C15.9681 175.88 15.772 175.203 15.6405 174.512Z" fill="#D2AE6D"/>
<path opacity="0.1" d="M15.6405 174.512C15.532 173.875 15.2795 173.271 14.9023 172.747C14.2341 172.017 13.3197 171.559 12.3347 171.463C11.3574 171.37 10.3853 171.228 9.42215 171.037C8.69389 170.841 8.01182 170.502 7.41529 170.04C6.81877 169.578 6.31961 169.003 5.94662 168.347C5.57363 167.691 5.3342 166.968 5.24215 166.22C5.1501 165.471 5.20725 164.711 5.41031 163.985C5.67509 163.054 6.21268 162.195 6.42932 161.265C7.10331 158.809 5.20972 157.782 3.46858 156.603C2.257 155.801 0.259107 154.573 0.523889 152.832C0.997286 149.582 5.7794 148.764 10.3609 150.064C14.9424 151.363 17.3736 152.39 20.7917 151.468C24.2098 150.545 27.3551 150.344 29.1444 153.393C30.9336 156.442 29.1444 159.299 31.4391 161.417C33.7339 163.535 37.8581 162.083 39.3665 166.705V194.218C39.3665 194.057 38.5642 193.52 38.4598 193.416L36.0046 191.201C35.2022 190.519 34.119 189.885 33.5975 189.011C32.8593 187.799 32.4902 186.363 31.728 185.143C30.8746 183.674 29.6376 182.465 28.1494 181.645C25.2288 180.144 21.7305 180.401 18.7216 178.941C17.637 178.45 16.7554 177.6 16.2262 176.534C15.9681 175.88 15.772 175.203 15.6405 174.512Z" fill="black"/>
<path d="M39.5175 188.232C39.4235 188.234 39.3321 188.201 39.26 188.141C39.1878 188.08 39.1397 187.996 39.1244 187.903C36.2198 171.359 16.8426 156.074 5.30457 153.217C5.25189 153.204 5.20221 153.182 5.15838 153.15C5.11454 153.118 5.07741 153.078 5.04909 153.032C5.02078 152.985 5.00185 152.934 4.99337 152.88C4.98489 152.827 4.98703 152.772 4.99967 152.72C5.01232 152.667 5.03521 152.617 5.06706 152.573C5.0989 152.53 5.13907 152.492 5.18526 152.464C5.23146 152.436 5.28277 152.417 5.33628 152.408C5.3898 152.4 5.44446 152.402 5.49714 152.415C17.2358 155.319 36.95 170.869 39.9107 187.719C39.9211 187.771 39.921 187.824 39.9104 187.876C39.8998 187.927 39.8789 187.976 39.8489 188.02C39.819 188.063 39.7806 188.1 39.7361 188.128C39.6916 188.157 39.6418 188.176 39.5898 188.184L39.5175 188.232Z" fill="white"/>
<path d="M12.0845 165.22C12.0232 165.219 11.9627 165.205 11.9073 165.179C11.8519 165.153 11.8029 165.115 11.7635 165.068C11.6984 164.982 11.6694 164.875 11.6829 164.768C11.6964 164.662 11.7513 164.565 11.8357 164.498C14.6039 162.316 20.2285 161.666 22.4832 161.81C22.5366 161.813 22.5889 161.827 22.637 161.85C22.685 161.874 22.7279 161.907 22.7631 161.947C22.7982 161.988 22.8249 162.035 22.8416 162.086C22.8583 162.136 22.8647 162.19 22.8603 162.243C22.8573 162.296 22.8438 162.347 22.8206 162.394C22.7975 162.441 22.7651 162.483 22.7255 162.518C22.6859 162.552 22.6397 162.578 22.5899 162.594C22.54 162.611 22.4873 162.617 22.435 162.613C20.1403 162.46 14.8125 163.174 12.3332 165.132C12.2618 165.187 12.1747 165.218 12.0845 165.22Z" fill="white"/>
<path d="M24.89 164.723C24.8399 164.735 24.7877 164.735 24.7376 164.723C24.6886 164.703 24.6439 164.675 24.606 164.638C24.5682 164.601 24.538 164.557 24.5171 164.509C24.4962 164.46 24.4851 164.408 24.4844 164.356C24.4837 164.303 24.4934 164.25 24.5129 164.201C25.9813 160.647 25.1789 154.637 25.1709 154.573C25.1571 154.467 25.1855 154.359 25.25 154.274C25.3145 154.188 25.41 154.132 25.5159 154.116C25.6212 154.102 25.7276 154.131 25.8119 154.195C25.8961 154.26 25.9512 154.355 25.9652 154.461C26.0053 154.717 26.8077 160.743 25.2591 164.498C25.2263 164.568 25.1738 164.626 25.1082 164.666C25.0426 164.706 24.9668 164.726 24.89 164.723Z" fill="white"/>
<path d="M37.9938 199.072C37.1915 196.593 33.1074 191.377 25.7738 187.293C19.403 183.747 9.56595 181.107 10.4325 176.429C11.2991 171.751 20.3498 171.615 26.6082 175.41C34.4634 180.136 38.8765 189.797 39.398 193.608L37.9938 199.072Z" fill="#D2AE6D"/>
<path d="M38.76 196.505C38.6671 196.507 38.5767 196.475 38.5047 196.417C38.4327 196.358 38.3839 196.275 38.3669 196.184C36.7621 187.551 24.51 175.82 14.7371 176.077C14.6307 176.077 14.5287 176.034 14.4534 175.959C14.3782 175.884 14.3359 175.782 14.3359 175.676C14.3359 175.569 14.3782 175.467 14.4534 175.392C14.5287 175.317 14.6307 175.274 14.7371 175.274C24.871 174.978 37.4923 187.117 39.1772 196.032C39.1962 196.137 39.1732 196.245 39.1132 196.334C39.0532 196.422 38.961 196.484 38.8563 196.505H38.76Z" fill="white"/>
<path d="M284.168 41.4714C284.17 42.1129 284.001 42.7433 283.68 43.2986C283.358 43.8538 282.896 44.3141 282.339 44.6328L274.42 49.1822C273.964 49.4446 273.457 49.6055 272.934 49.654C272.41 49.7025 271.883 49.6373 271.387 49.463C271.291 49.9603 271.092 50.4318 270.801 50.8466C270.511 51.2614 270.136 51.6102 269.702 51.8701L269.413 52.0386L261.75 56.4677L261.534 56.588C261.084 56.8058 260.594 56.9302 260.095 56.9536C259.596 56.9771 259.097 56.8991 258.629 56.7244C258.544 57.2578 258.341 57.7653 258.034 58.2097C257.727 58.654 257.325 59.0239 256.856 59.292L249.634 63.4643C250.97 65.6933 251.719 68.225 251.809 70.8221C251.809 73.4458 250.758 75.1789 249.137 75.8208C248.871 76.0302 248.577 76.2004 248.262 76.3263C247.997 76.5406 247.699 76.7113 247.38 76.8318C246.795 77.1731 246.209 77.5128 245.623 77.8508C245.353 78.059 245.056 78.2291 244.74 78.3563C244.474 78.5661 244.18 78.7364 243.865 78.8618C243.596 79.07 243.299 79.2401 242.983 79.3673C242.72 79.5809 242.425 79.7515 242.108 79.8728C240.736 80.956 238.722 80.9961 236.444 79.6802C232.327 77.2731 228.982 71.5201 228.982 66.746C228.982 64.3389 229.832 62.67 231.188 61.9719C231.334 61.9035 231.484 61.8445 231.637 61.7954C231.773 61.6744 231.918 61.5644 232.071 61.4664C232.214 61.3993 232.362 61.3404 232.512 61.2899C232.645 61.1665 232.79 61.0563 232.945 60.9609C233.09 60.889 233.24 60.83 233.395 60.7844C233.53 60.6609 233.675 60.5482 233.828 60.4474C233.972 60.383 234.119 60.3267 234.269 60.2789C234.404 60.1554 234.549 60.0427 234.702 59.9419C234.847 59.8727 234.997 59.8163 235.152 59.7734C235.285 59.6475 235.43 59.5346 235.585 59.4364C235.729 59.3693 235.876 59.3104 236.026 59.2599C236.162 59.1389 236.307 59.0289 236.46 58.931C236.605 58.8625 236.755 58.8035 236.909 58.7544C237.044 58.6334 237.189 58.5234 237.342 58.4255C237.486 58.3584 237.633 58.2994 237.783 58.2489C237.919 58.1587 238.061 58.0782 238.209 58.0082C238.355 57.9411 238.505 57.8822 238.658 57.8317C238.791 57.7082 238.937 57.5981 239.091 57.5027C238.889 57.3129 238.674 57.136 238.449 56.9732L237.792 56.4998L237.142 56.0665C236.909 55.9141 236.676 55.7696 236.436 55.6332C235.667 55.1901 234.862 54.8142 234.028 54.5099C233.772 54.4136 233.515 54.3254 233.226 54.2532C232.296 53.9625 231.328 53.8111 230.354 53.8038H229.896H229.559C229.388 53.8038 229.22 53.8038 229.054 53.8038C228.242 53.8129 227.443 53.6058 226.738 53.204C226.033 52.8021 225.448 52.2199 225.042 51.5171L224.849 51.1881C224.849 51.1881 226.615 45.1062 226.631 45.0821L232.247 41.7121C233.356 40.9271 234.583 40.3231 235.882 39.9229C236.101 39.8751 236.324 39.8429 236.548 39.8266H236.732C237.018 39.8064 237.305 39.8064 237.591 39.8266H237.896H237.976C238.54 39.8945 239.098 40.0044 239.645 40.1555C241.707 40.7605 243.68 41.6374 245.51 42.7632C245.944 43.012 246.313 43.2687 246.754 43.5656C246.056 42.9317 245.342 42.338 244.612 41.7683C244.283 41.5035 243.954 41.2468 243.617 40.9659C243.572 40.9191 243.52 40.8786 243.464 40.8456C243.175 40.6209 242.879 40.4043 242.574 40.1876C242.036 39.8025 241.49 39.3853 240.929 39.0483L240.191 38.5668C239.813 38.3181 239.388 38.0774 239.043 37.8447C238.698 37.612 238.088 37.267 237.607 36.9862C233.138 34.4106 229.086 33.3194 225.419 33.3194H224.657L223.798 33.3755C223.582 33.3755 223.373 33.3755 223.156 33.4477L222.707 33.5119L222.306 33.5761L221.704 33.6885L221.006 33.857C220.757 33.9211 220.509 33.9853 220.26 34.0656C220.011 34.1458 219.843 34.1939 219.642 34.2581C219.141 34.4315 218.615 34.5209 218.085 34.5229C217.274 34.5303 216.476 34.3226 215.771 33.9209C215.066 33.5192 214.481 32.9379 214.074 32.2362L213.985 32.0837L215.357 26.2104C215.357 26.2104 215.357 26.2104 215.454 26.1301C216.087 25.6808 219.217 23.5064 219.465 23.362C220.938 22.499 222.485 21.7686 224.087 21.1795C224.745 20.9281 225.419 20.7035 226.109 20.5055L227.024 20.2568C227.329 20.1846 227.634 20.1044 227.946 20.0402C228.572 19.9038 229.198 19.7914 229.84 19.6952L230.642 19.5828H230.827L231.79 19.4946C231.799 19.4908 231.808 19.4889 231.818 19.4889C231.828 19.4889 231.837 19.4908 231.846 19.4946L232.737 19.4384C232.819 19.4303 232.903 19.4303 232.985 19.4384C234.072 19.4067 235.16 19.4388 236.243 19.5347C237.654 19.6724 239.052 19.9219 240.423 20.2809C235.573 17.5615 230.192 15.9246 224.649 15.4827C222.655 15.3549 220.654 15.414 218.671 15.6592C218.174 15.7154 217.668 15.7876 217.179 15.8759H217.026C216.721 15.924 216.432 15.9802 216.136 16.0524C215.63 16.1567 215.133 16.269 214.635 16.3974C214.138 16.5258 213.656 16.6702 213.175 16.8227C212.822 16.9243 212.477 17.0366 212.14 17.1597C211.699 17.3121 211.257 17.4806 210.832 17.6491C210.22 17.898 209.567 18.0261 208.906 18.0262C207.964 18.0207 207.04 17.768 206.226 17.2935C205.413 16.819 204.737 16.1393 204.269 15.3223L204.156 15.1297C204.22 14.8248 205.689 8.3577 205.689 8.3577H205.729L205.833 8.27746L205.905 8.22129C206.644 7.67568 209.035 5.91849 209.283 5.81419C211.026 4.79856 212.851 3.93161 214.739 3.22254C215.809 2.82136 216.879 2.46832 217.949 2.16342L219.112 1.86654L220.324 1.59374C221.568 1.34582 222.824 1.16104 224.087 1.0401C224.512 0.991957 224.938 0.959863 225.371 0.927768C225.804 0.895674 226.237 0.879625 226.671 0.863577C227.104 0.84753 227.545 0.863577 227.987 0.863577C235.08 0.863577 242.862 2.79729 250.91 7.443C254.047 9.25635 256.872 11.0135 259.472 12.8028C259.792 13.0195 260.105 13.2361 260.41 13.4608C261.213 14.0385 262.015 14.6322 262.817 15.226L263.868 16.0283C264.671 16.6381 265.401 17.256 266.139 17.8979C266.436 18.1466 266.717 18.3953 267.006 18.6521L267.439 19.0372L268.354 19.8797C270.183 21.5936 271.916 23.407 273.545 25.3117L274.171 26.0579C274.492 26.435 274.805 26.8603 275.118 27.2133C275.607 27.8151 276.097 28.441 276.578 29.0829L277.42 30.2062C278.014 31.0085 278.608 31.8109 279.202 32.7256C279.491 33.1509 279.787 33.5761 280.076 34.0174C280.365 34.4587 280.662 34.9 280.959 35.3574C281.256 35.8147 281.553 36.2721 281.842 36.7374C282.435 37.6762 283.037 38.6391 283.639 39.642C283.976 40.1936 284.158 40.8253 284.168 41.4714Z" fill="#D2AE6D"/>
<g opacity="0.2">
<path d="M284.168 41.4714C284.17 42.1129 284.001 42.7433 283.68 43.2986C283.358 43.8538 282.896 44.3141 282.339 44.6328L274.42 49.1822C273.964 49.4446 273.457 49.6055 272.934 49.654C272.41 49.7025 271.883 49.6373 271.387 49.463C271.291 49.9603 271.092 50.4318 270.801 50.8466C270.511 51.2614 270.136 51.6102 269.702 51.8701L269.413 52.0386L261.75 56.4677L261.534 56.588C261.084 56.8058 260.594 56.9302 260.095 56.9536C259.596 56.9771 259.097 56.8991 258.629 56.7244C258.544 57.2578 258.341 57.7653 258.034 58.2097C257.727 58.654 257.325 59.0239 256.856 59.292L249.634 63.4643C250.97 65.6933 251.719 68.225 251.809 70.8221C251.809 73.4458 250.758 75.1789 249.137 75.8208C248.871 76.0302 248.577 76.2004 248.262 76.3263C247.997 76.5406 247.699 76.7113 247.38 76.8318C246.795 77.1731 246.209 77.5128 245.623 77.8508C245.353 78.059 245.056 78.2291 244.74 78.3563C244.474 78.5661 244.18 78.7364 243.865 78.8618C243.596 79.07 243.299 79.2401 242.983 79.3673C242.72 79.5809 242.425 79.7515 242.108 79.8728C240.736 80.956 238.722 80.9961 236.444 79.6802C232.327 77.2731 228.982 71.5201 228.982 66.746C228.982 64.3389 229.832 62.67 231.188 61.9719C231.334 61.9035 231.484 61.8445 231.637 61.7954C231.773 61.6744 231.918 61.5644 232.071 61.4664C232.214 61.3993 232.362 61.3404 232.512 61.2899C232.645 61.1665 232.79 61.0563 232.945 60.9609C233.09 60.889 233.24 60.83 233.395 60.7844C233.53 60.6609 233.675 60.5482 233.828 60.4474C233.972 60.383 234.119 60.3267 234.269 60.2789C234.404 60.1554 234.549 60.0427 234.702 59.9419C234.847 59.8727 234.997 59.8163 235.152 59.7734C235.285 59.6475 235.43 59.5346 235.585 59.4364C235.729 59.3693 235.876 59.3104 236.026 59.2599C236.162 59.1389 236.307 59.0289 236.46 58.931C236.605 58.8625 236.755 58.8035 236.909 58.7544C237.044 58.6334 237.189 58.5234 237.342 58.4255C237.486 58.3584 237.633 58.2994 237.783 58.2489C237.919 58.1587 238.061 58.0782 238.209 58.0082C238.355 57.9411 238.505 57.8822 238.658 57.8317C238.791 57.7082 238.937 57.5981 239.091 57.5027C238.889 57.3129 238.674 57.136 238.449 56.9732L237.792 56.4998L237.142 56.0665C236.909 55.9141 236.676 55.7696 236.436 55.6332C235.667 55.1901 234.862 54.8142 234.028 54.5099C233.772 54.4136 233.515 54.3254 233.226 54.2532C232.296 53.9625 231.328 53.8111 230.354 53.8038H229.896H229.559C229.388 53.8038 229.22 53.8038 229.054 53.8038C228.242 53.8129 227.443 53.6058 226.738 53.204C226.033 52.8021 225.448 52.2199 225.042 51.5171L224.849 51.1881C224.849 51.1881 226.615 45.1062 226.631 45.0821L232.247 41.7121C233.356 40.9271 234.583 40.3231 235.882 39.9229C236.101 39.8751 236.324 39.8429 236.548 39.8266H236.732C237.018 39.8064 237.305 39.8064 237.591 39.8266H237.896H237.976C238.54 39.8945 239.098 40.0044 239.645 40.1555C241.707 40.7605 243.68 41.6374 245.51 42.7632C245.944 43.012 246.313 43.2687 246.754 43.5656C246.056 42.9317 245.342 42.338 244.612 41.7683C244.283 41.5035 243.954 41.2468 243.617 40.9659C243.572 40.9191 243.52 40.8786 243.464 40.8456C243.175 40.6209 242.879 40.4043 242.574 40.1876C242.036 39.8025 241.49 39.3853 240.929 39.0483L240.191 38.5668C239.813 38.3181 239.388 38.0774 239.043 37.8447C238.698 37.612 238.088 37.267 237.607 36.9862C233.138 34.4106 229.086 33.3194 225.419 33.3194H224.657L223.798 33.3755C223.582 33.3755 223.373 33.3755 223.156 33.4477L222.707 33.5119L222.306 33.5761L221.704 33.6885L221.006 33.857C220.757 33.9211 220.509 33.9853 220.26 34.0656C220.011 34.1458 219.843 34.1939 219.642 34.2581C219.141 34.4315 218.615 34.5209 218.085 34.5229C217.274 34.5303 216.476 34.3226 215.771 33.9209C215.066 33.5192 214.481 32.9379 214.074 32.2362L213.985 32.0837L215.357 26.2104C215.357 26.2104 215.357 26.2104 215.454 26.1301C216.087 25.6808 219.217 23.5064 219.465 23.362C220.938 22.499 222.485 21.7686 224.087 21.1795C224.745 20.9281 225.419 20.7035 226.109 20.5055L227.024 20.2568C227.329 20.1846 227.634 20.1044 227.946 20.0402C228.572 19.9038 229.198 19.7914 229.84 19.6952L230.642 19.5828H230.827L231.79 19.4946C231.799 19.4908 231.808 19.4889 231.818 19.4889C231.828 19.4889 231.837 19.4908 231.846 19.4946L232.737 19.4384C232.819 19.4303 232.903 19.4303 232.985 19.4384C234.072 19.4067 235.16 19.4388 236.243 19.5347C237.654 19.6724 239.052 19.9219 240.423 20.2809C235.573 17.5615 230.192 15.9246 224.649 15.4827C222.655 15.3549 220.654 15.414 218.671 15.6592C218.174 15.7154 217.668 15.7876 217.179 15.8759H217.026C216.721 15.924 216.432 15.9802 216.136 16.0524C215.63 16.1567 215.133 16.269 214.635 16.3974C214.138 16.5258 213.656 16.6702 213.175 16.8227C212.822 16.9243 212.477 17.0366 212.14 17.1597C211.699 17.3121 211.257 17.4806 210.832 17.6491C210.22 17.898 209.567 18.0261 208.906 18.0262C207.964 18.0207 207.04 17.768 206.226 17.2935C205.413 16.819 204.737 16.1393 204.269 15.3223L204.156 15.1297C204.22 14.8248 205.689 8.3577 205.689 8.3577H205.729L205.833 8.27746L205.905 8.22129C206.644 7.67568 209.035 5.91849 209.283 5.81419C211.026 4.79856 212.851 3.93161 214.739 3.22254C215.809 2.82136 216.879 2.46832 217.949 2.16342L219.112 1.86654L220.324 1.59374C221.568 1.34582 222.824 1.16104 224.087 1.0401C224.512 0.991957 224.938 0.959863 225.371 0.927768C225.804 0.895674 226.237 0.879625 226.671 0.863577C227.104 0.84753 227.545 0.863577 227.987 0.863577C235.08 0.863577 242.862 2.79729 250.91 7.443C254.047 9.25635 256.872 11.0135 259.472 12.8028C259.792 13.0195 260.105 13.2361 260.41 13.4608C261.213 14.0385 262.015 14.6322 262.817 15.226L263.868 16.0283C264.671 16.6381 265.401 17.256 266.139 17.8979C266.436 18.1466 266.717 18.3953 267.006 18.6521L267.439 19.0372L268.354 19.8797C270.183 21.5936 271.916 23.407 273.545 25.3117L274.171 26.0579C274.492 26.435 274.805 26.8603 275.118 27.2133C275.607 27.8151 276.097 28.441 276.578 29.0829L277.42 30.2062C278.014 31.0085 278.608 31.8109 279.202 32.7256C279.491 33.1509 279.787 33.5761 280.076 34.0174C280.365 34.4587 280.662 34.9 280.959 35.3574C281.256 35.8147 281.553 36.2721 281.842 36.7374C282.435 37.6762 283.037 38.6391 283.639 39.642C283.976 40.1936 284.158 40.8253 284.168 41.4714Z" fill="black"/>
</g>
<path d="M243.885 75.4438C243.885 80.1778 240.547 82.1276 236.431 79.7365C232.315 77.3455 228.969 71.5845 228.969 66.8104C228.969 64.4033 229.819 62.7343 231.175 62.0363C232.531 61.3382 234.385 61.3382 236.431 62.5097C238.606 63.924 240.416 65.8333 241.711 68.0815C243.007 70.3296 243.752 72.8525 243.885 75.4438Z" fill="#D2AE6D"/>
<path d="M250.114 58.5862C246.878 53.9025 242.595 50.0373 237.605 47.2969C235.287 45.9063 232.738 44.9442 230.079 44.4565C229.313 44.3217 228.526 44.3762 227.786 44.6153C227.046 44.8545 226.376 45.271 225.834 45.8286L225.786 45.8847C225.119 46.5774 224.68 47.4577 224.528 48.4072C224.376 49.3568 224.518 50.3301 224.936 51.1964C224.991 51.3199 225.052 51.4405 225.12 51.5575C225.526 52.2603 226.111 52.8425 226.816 53.2444C227.521 53.6462 228.321 53.8533 229.132 53.8442C229.298 53.8442 229.466 53.8442 229.638 53.8442H229.975H230.432C231.406 53.8515 232.374 54.0029 233.304 54.2936C233.561 54.3658 233.818 54.454 234.107 54.5503C234.94 54.8546 235.745 55.2305 236.514 55.6736C236.755 55.81 236.987 55.9545 237.22 56.1069C237.453 56.2594 237.661 56.3877 237.87 56.5402C238.078 56.6926 238.311 56.8451 238.528 57.0136C238.744 57.1821 238.969 57.3506 239.186 57.5271C241.089 59.0904 242.778 60.8979 244.209 62.903C244.79 63.6496 245.638 64.1429 246.574 64.2802C247.511 64.4175 248.464 64.1882 249.236 63.64C250.007 63.0918 250.538 62.2671 250.716 61.3376C250.895 60.4081 250.708 59.4455 250.194 58.6504L250.114 58.5862Z" fill="#D2AE6D"/>
<path d="M262.999 51.3968C256.355 40.6611 249.551 33.6725 239.457 27.7109C236.02 25.6599 232.166 24.4082 228.18 24.0484C224.194 23.6887 220.178 24.2302 216.429 25.6328C216.087 25.7552 215.761 25.9196 215.458 26.1222L215.362 26.2025C214.461 26.8495 213.826 27.8014 213.573 28.8815C213.321 29.9616 213.469 31.0966 213.99 32.0758L214.078 32.2283C214.485 32.9299 215.071 33.5112 215.776 33.9129C216.48 34.3146 217.279 34.5224 218.09 34.515C218.62 34.513 219.146 34.4235 219.647 34.2502C219.847 34.186 220.056 34.1138 220.265 34.0577C220.473 34.0015 220.762 33.9132 221.011 33.849L221.709 33.6805L222.311 33.5682L222.712 33.504L223.161 33.4398C223.378 33.4398 223.586 33.3837 223.803 33.3676L224.662 33.3114H225.424C229.091 33.3114 233.143 34.4027 237.612 36.9783L239.048 37.8368C239.433 38.0695 239.85 38.3102 240.195 38.5589L240.934 39.0404C241.495 39.4094 242.041 39.7946 242.578 40.1797C242.883 40.3964 243.18 40.613 243.469 40.8377C243.525 40.8707 243.576 40.9112 243.621 40.958C243.958 41.1987 244.287 41.4555 244.616 41.7604C245.347 42.3301 246.061 42.9238 246.759 43.5577C246.759 43.5577 246.759 43.5577 246.799 43.5577C250.68 47.0106 254.056 50.9918 256.828 55.3846C257.252 56.042 257.881 56.5412 258.618 56.8048C259.086 56.9794 259.585 57.0574 260.084 57.034C260.583 57.0105 261.073 56.8862 261.522 56.6684L261.739 56.548C262.165 56.2996 262.537 55.9681 262.833 55.5731C263.128 55.1781 263.342 54.7278 263.46 54.2488C263.578 53.7699 263.599 53.272 263.521 52.7848C263.443 52.2977 263.268 51.8311 263.007 51.4129L262.999 51.3968Z" fill="#D2AE6D"/>
<path d="M275.732 44.1595C266.104 28.1121 258.08 20.6742 242.996 11.9444C229.604 4.24971 216.943 4.009 206.993 7.68385C206.603 7.83205 206.229 8.02027 205.878 8.24551L205.806 8.30168L205.702 8.38191H205.661C204.647 9.14595 203.937 10.2448 203.656 11.4832C203.376 12.7216 203.543 14.0193 204.129 15.1459C204.129 15.2181 204.201 15.2743 204.241 15.3465C204.71 16.1635 205.385 16.8432 206.199 17.3177C207.013 17.7922 207.937 18.0449 208.879 18.0504C209.539 18.0503 210.193 17.9222 210.805 17.6733C211.23 17.5048 211.671 17.3363 212.112 17.1839C212.554 17.0314 212.794 16.9512 213.148 16.8469C213.629 16.6944 214.11 16.55 214.608 16.4216C215.105 16.2933 215.603 16.1809 216.108 16.0766C216.405 16.0044 216.694 15.9482 216.999 15.9001H217.151C217.641 15.8118 218.146 15.7396 218.644 15.6835C220.633 15.4247 222.643 15.3576 224.645 15.4829C230.219 15.907 235.632 17.5505 240.5 20.2971L241.696 20.9711C254.373 28.2887 261.362 34.6113 269.458 47.9627C269.979 48.7489 270.784 49.3032 271.705 49.5099C272.625 49.7166 273.59 49.5598 274.398 49.0721C275.205 48.5844 275.793 47.8036 276.039 46.8927C276.285 45.9818 276.169 45.0112 275.716 44.1836L275.732 44.1595Z" fill="#D2AE6D"/>
<path d="M226.562 188.537L251.243 174.287L240.139 139.023L226.562 188.537Z" fill="#37474F"/>
<path d="M225.563 195.526C225.988 195.246 226.309 194.835 226.477 194.354L242.91 137.386L240.134 138.991L223.477 196.697L225.563 195.526Z" fill="#263238"/>
<path d="M221.401 195.526L223.48 196.729L240.137 139.047L237.401 137.442L220.968 194.411C220.921 194.618 220.937 194.836 221.014 195.035C221.091 195.233 221.226 195.404 221.401 195.526Z" fill="#37474F"/>
<path d="M295.503 192.734C295.541 192.962 295.511 193.196 295.417 193.407C295.323 193.618 295.169 193.797 294.974 193.921L292.895 195.125L276.238 118.186L279.014 116.581L293.2 182.127L295.503 192.734Z" fill="#37474F"/>
<path d="M290.808 193.921C290.383 193.647 290.077 193.223 289.95 192.734L273.461 116.581L276.237 118.186L292.894 195.125L290.808 193.921Z" fill="#263238"/>
<path d="M240.135 139.047L256.792 215.986L254.714 214.783C254.289 214.51 253.981 214.09 253.847 213.603L237.398 137.442L240.135 139.047Z" fill="#263238"/>
<path d="M258.88 214.759C259.075 214.637 259.229 214.459 259.322 214.249C259.415 214.039 259.443 213.805 259.402 213.579L242.913 137.442L240.137 139.047L256.794 215.986L258.88 214.759Z" fill="#37474F"/>
<path d="M276.234 114.976L279.01 116.581L240.136 139.023L237.359 137.418L276.234 114.976Z" fill="#37474F"/>
<path d="M279.011 116.581L240.137 139.023L254.331 204.569L293.197 182.127L279.011 116.581Z" fill="#455A64"/>
<path d="M255.498 158.617C255.089 158.617 254.856 158.617 254.808 158.617C254.741 158.61 254.675 158.589 254.616 158.556C254.557 158.523 254.505 158.478 254.463 158.424C254.381 158.317 254.343 158.182 254.359 158.047C254.519 156.579 255.675 152.784 262.8 149.173C268.601 146.228 272.974 147.055 273.832 147.44C273.953 147.495 274.047 147.593 274.097 147.716C274.146 147.838 274.146 147.975 274.097 148.098C274.041 148.242 272.597 151.669 266.17 155.375C261.083 158.304 257.047 158.617 255.498 158.617ZM270.912 148.042C268.237 148.102 265.615 148.792 263.257 150.056C257.336 153.065 255.851 156.154 255.482 157.59C259.085 157.433 262.588 156.355 265.656 154.461C270.326 151.773 272.22 149.269 272.878 148.218C272.23 148.093 271.571 148.034 270.912 148.042Z" fill="white"/>
<path d="M263.88 170.58C262.931 170.587 261.992 170.387 261.128 169.994C257.172 168.197 255.431 162.773 254.364 158.2C254.34 158.132 254.332 158.06 254.338 157.988C254.344 157.917 254.365 157.847 254.4 157.784C254.435 157.721 254.482 157.667 254.54 157.623C254.597 157.58 254.663 157.549 254.733 157.533C254.802 157.516 254.875 157.515 254.946 157.528C255.016 157.542 255.083 157.57 255.142 157.611C255.201 157.652 255.251 157.704 255.288 157.766C255.325 157.827 255.35 157.896 255.359 157.967C256.378 162.284 257.999 167.451 261.553 169.064C263.463 169.93 265.781 169.641 268.453 168.221C276.148 164.137 275.241 154.99 273.131 148.034C273.104 147.967 273.092 147.896 273.094 147.825C273.096 147.754 273.113 147.684 273.144 147.62C273.175 147.555 273.219 147.498 273.273 147.452C273.327 147.405 273.39 147.37 273.458 147.35C273.526 147.329 273.598 147.323 273.669 147.331C273.74 147.34 273.808 147.363 273.869 147.4C273.931 147.436 273.984 147.485 274.025 147.543C274.067 147.601 274.096 147.667 274.11 147.737C277.32 158.24 275.514 165.637 268.935 169.128C267.393 170.016 265.658 170.515 263.88 170.58Z" fill="white"/>
<path d="M275.052 159.403C274.95 159.403 274.851 159.372 274.767 159.315C274.682 159.258 274.617 159.177 274.579 159.082C274.553 159.02 274.539 158.954 274.539 158.886C274.539 158.819 274.553 158.752 274.579 158.69C274.605 158.628 274.643 158.572 274.692 158.525C274.74 158.478 274.797 158.441 274.86 158.416C277.227 157.446 278.213 155.006 278.342 153.049C278.446 151.484 278.005 150.377 277.539 150.096C277.409 150.014 277.263 149.961 277.111 149.941C276.959 149.92 276.804 149.932 276.657 149.975C275.935 150.305 275.346 150.871 274.988 151.58C274.925 151.701 274.817 151.793 274.687 151.834C274.556 151.876 274.415 151.864 274.294 151.801C274.173 151.738 274.081 151.63 274.04 151.5C273.998 151.369 274.01 151.228 274.073 151.107C274.569 150.148 275.379 149.389 276.368 148.956C276.648 148.873 276.943 148.849 277.233 148.886C277.524 148.924 277.803 149.021 278.053 149.173C278.984 149.711 279.505 151.251 279.377 153.089C279.224 155.351 278.069 158.184 275.261 159.331C275.197 159.369 275.126 159.393 275.052 159.403Z" fill="white"/>
<path d="M257.668 149.309L257.523 149.245C257.382 149.195 257.247 149.127 257.122 149.044L256.849 148.844L256.576 148.571C256.368 148.329 256.195 148.059 256.063 147.769C255.912 147.423 255.807 147.059 255.75 146.686C255.678 146.28 255.651 145.869 255.67 145.458C255.705 144.57 255.867 143.692 256.151 142.85C256.295 142.417 256.472 142.048 256.624 141.631C256.765 141.273 256.88 140.905 256.969 140.531C257.135 139.881 257.135 139.2 256.969 138.55C256.829 138.077 256.582 137.643 256.247 137.282C256.15 137.174 256.045 137.072 255.934 136.977L255.822 136.873C256.013 136.939 256.199 137.023 256.376 137.121C256.866 137.401 257.262 137.82 257.515 138.325C257.864 139.059 257.981 139.882 257.852 140.684C257.795 141.127 257.69 141.563 257.539 141.984C257.395 142.393 257.234 142.786 257.114 143.171C256.994 143.556 256.865 143.974 256.769 144.359C256.677 144.742 256.607 145.131 256.56 145.522C256.516 145.884 256.494 146.249 256.496 146.613C256.507 146.937 256.544 147.259 256.608 147.576C256.675 147.852 256.769 148.121 256.889 148.379C256.988 148.569 257.106 148.75 257.242 148.916C257.332 149.032 257.434 149.137 257.547 149.229L257.668 149.309Z" fill="white"/>
<path d="M260.1 146.381L259.988 146.252C259.88 146.14 259.778 146.022 259.683 145.899C259.541 145.692 259.415 145.475 259.306 145.249C259.166 144.949 259.072 144.63 259.025 144.302C258.956 143.916 258.94 143.522 258.977 143.131C259.009 142.704 259.076 142.28 259.177 141.863C259.37 141.005 259.667 140.146 259.883 139.296C259.996 138.87 260.116 138.429 260.18 138.028C260.254 137.634 260.287 137.233 260.277 136.832C260.254 136.466 260.192 136.103 260.092 135.749C259.895 135.144 259.557 134.594 259.105 134.145C258.94 133.977 258.766 133.819 258.584 133.671C258.422 133.541 258.253 133.421 258.078 133.31C258.286 133.354 258.49 133.415 258.688 133.495C259.224 133.715 259.71 134.043 260.116 134.457C260.704 135.084 261.075 135.883 261.175 136.736C261.201 136.973 261.214 137.212 261.215 137.45C261.214 137.689 261.196 137.928 261.159 138.164C261.088 138.629 260.992 139.09 260.87 139.544C260.614 140.443 260.301 141.302 260.068 142.088C259.948 142.481 259.827 142.89 259.755 143.219C259.679 143.554 259.636 143.895 259.627 144.238C259.614 144.391 259.614 144.543 259.627 144.696C259.629 144.836 259.647 144.977 259.683 145.113C259.725 145.339 259.784 145.562 259.859 145.779C260.004 146.164 260.1 146.381 260.1 146.381Z" fill="white"/>
<path d="M264.246 146.268L264.102 146.204C263.955 146.154 263.816 146.081 263.692 145.988C263.482 145.854 263.292 145.689 263.131 145.498L262.858 145.129C262.778 144.985 262.705 144.832 262.625 144.664C262.48 144.308 262.377 143.936 262.32 143.556C262.253 143.127 262.237 142.69 262.272 142.257C262.32 141.35 262.499 140.456 262.802 139.601C262.954 139.159 263.139 138.75 263.291 138.357C263.444 137.964 263.58 137.555 263.684 137.21C263.886 136.542 263.949 135.84 263.869 135.148C263.823 134.87 263.739 134.6 263.62 134.345C263.526 134.142 263.407 133.951 263.267 133.775C263.177 133.656 263.078 133.543 262.97 133.439L262.866 133.326C263.054 133.411 263.234 133.513 263.404 133.631C263.609 133.769 263.793 133.937 263.949 134.129C264.161 134.381 264.327 134.669 264.439 134.979C264.692 135.757 264.733 136.587 264.559 137.386C264.482 137.829 264.366 138.263 264.214 138.686C264.061 139.111 263.893 139.488 263.765 139.914C263.621 140.31 263.501 140.715 263.404 141.125C263.302 141.516 263.221 141.913 263.163 142.313C263.116 142.685 263.092 143.06 263.091 143.436C263.092 143.77 263.124 144.103 263.187 144.431C263.255 144.707 263.349 144.975 263.468 145.233C263.566 145.431 263.688 145.617 263.829 145.787C263.921 145.903 264.023 146.01 264.134 146.108L264.246 146.268Z" fill="white"/>
<path d="M267.185 182.584C267.297 182.519 267.418 182.583 267.418 182.728C267.315 183.491 267.039 184.221 266.611 184.86C266.182 185.5 265.613 186.033 264.946 186.419C263.117 187.478 261.793 187.061 261.793 184.63C261.791 183.597 262.063 182.583 262.582 181.691C263.101 180.798 263.848 180.06 264.746 179.551C265.973 178.844 266.567 179.278 266.567 179.92C266.558 180.065 266.516 180.207 266.444 180.334C266.372 180.46 266.271 180.568 266.15 180.65C265.901 180.794 265.837 180.722 265.837 180.722C265.874 180.605 265.893 180.483 265.893 180.361C265.893 179.743 265.492 179.559 264.698 180.008C264.044 180.485 263.513 181.111 263.149 181.833C262.785 182.556 262.598 183.355 262.603 184.164C262.603 186.226 263.703 186.692 264.946 185.978C265.529 185.656 266.023 185.194 266.383 184.634C266.743 184.073 266.958 183.432 267.008 182.768C267.05 182.692 267.111 182.629 267.185 182.584Z" fill="white"/>
<path d="M268.84 183.715C267.877 184.277 267.043 184.06 267.043 182.736C267.047 182.125 267.211 181.525 267.519 180.997C267.828 180.469 268.269 180.031 268.8 179.727C269.779 179.158 270.557 179.39 270.557 180.706C270.544 181.311 270.38 181.903 270.08 182.428C269.78 182.954 269.354 183.396 268.84 183.715ZM268.84 183.37C269.062 183.244 269.25 183.067 269.39 182.853C269.529 182.64 269.616 182.396 269.643 182.142C269.349 182.289 269.014 182.329 268.694 182.258C268.374 182.186 268.089 182.007 267.885 181.749C267.885 181.902 267.885 182.07 267.885 182.247C267.885 183.45 268.166 183.763 268.84 183.37ZM268.206 180.867C268.206 181.669 268.904 182.014 269.699 181.773C269.699 181.597 269.699 181.404 269.699 181.188C269.699 180 269.506 179.647 268.776 180.072C268.625 180.151 268.495 180.264 268.397 180.402C268.298 180.54 268.232 180.699 268.206 180.867Z" fill="white"/>
<path d="M271.97 178.363V185.151C271.889 185.287 271.772 185.397 271.633 185.472C271.392 185.608 271.176 185.576 271.176 185.191V177.448C271.176 176.012 271.425 175.121 272.259 174.64C272.845 174.303 273.134 174.512 273.134 175.314C273.112 176.256 272.791 177.166 272.219 177.914L273.021 177.456C273.278 177.312 273.326 177.384 273.326 177.593L271.97 178.363ZM272.772 175.547C272.772 174.945 272.596 174.801 272.347 174.945C272.098 175.089 272.01 175.426 271.986 177.866C272.502 177.192 272.773 176.363 272.756 175.515L272.772 175.547Z" fill="white"/>
<path d="M274.439 176.903V183.691C274.358 183.826 274.241 183.937 274.102 184.012C273.861 184.148 273.645 184.116 273.645 183.739V175.956C273.645 174.52 273.893 173.629 274.728 173.148C275.313 172.811 275.602 173.02 275.602 173.822C275.58 174.763 275.26 175.674 274.688 176.422L275.49 175.964C275.747 175.82 275.795 175.892 275.795 176.101L274.439 176.903ZM275.241 174.087C275.241 173.485 275.065 173.34 274.816 173.485C274.567 173.629 274.479 173.966 274.455 176.414C274.963 175.745 275.234 174.926 275.225 174.087H275.241Z" fill="white"/>
<path d="M279.824 175.37C279.936 175.298 280.008 175.37 280.008 175.547C279.96 176.116 279.774 176.664 279.465 177.144C279.155 177.624 278.733 178.02 278.235 178.299C276.935 179.045 276.125 178.845 276.125 177.585C276.124 176.961 276.285 176.347 276.593 175.804C276.901 175.26 277.346 174.807 277.882 174.488C278.685 174.022 278.949 174.408 278.949 174.865C278.859 175.434 278.634 175.973 278.293 176.437C277.953 176.902 277.507 177.279 276.992 177.537C277.104 178.243 277.577 178.339 278.235 177.954C278.666 177.701 279.024 177.344 279.279 176.914C279.533 176.485 279.673 175.998 279.688 175.499C279.688 175.499 279.696 175.443 279.824 175.37ZM276.959 177.224C277.312 177.019 277.616 176.74 277.851 176.407C278.085 176.073 278.243 175.692 278.315 175.29C278.315 174.825 278.099 174.704 277.738 174.913C277.192 175.226 276.935 175.836 276.935 177.144L276.959 177.224Z" fill="white"/>
<path d="M283.41 173.293C283.53 173.228 283.594 173.293 283.594 173.469C283.55 174.039 283.364 174.588 283.055 175.069C282.745 175.549 282.321 175.945 281.821 176.221C280.529 176.975 279.719 176.775 279.719 175.507C279.717 174.884 279.878 174.27 280.184 173.728C280.491 173.185 280.933 172.731 281.468 172.41C282.27 171.945 282.543 172.33 282.543 172.795C282.45 173.363 282.224 173.901 281.882 174.364C281.54 174.828 281.093 175.203 280.577 175.459C280.698 176.173 281.171 176.261 281.821 175.876C282.252 175.624 282.612 175.266 282.868 174.837C283.123 174.407 283.265 173.92 283.281 173.421C283.281 173.421 283.289 173.365 283.41 173.293ZM280.553 175.154C280.906 174.951 281.21 174.672 281.443 174.338C281.676 174.004 281.833 173.622 281.901 173.22C281.901 172.763 281.693 172.635 281.332 172.843C280.786 173.164 280.529 173.774 280.529 175.074L280.553 175.154Z" fill="white"/>
<path d="M212.344 123.305V164.443C212.353 164.623 212.405 164.799 212.496 164.955C212.587 165.111 212.713 165.244 212.865 165.341L214.261 166.144C214.423 166.227 214.602 166.27 214.783 166.27C214.964 166.27 215.143 166.227 215.304 166.144L216.709 165.341C216.86 165.242 216.986 165.107 217.077 164.95C217.168 164.793 217.22 164.616 217.23 164.435V123.305C217.228 123.146 217.164 122.995 217.052 122.882C216.939 122.77 216.787 122.706 216.628 122.704H212.946C212.786 122.704 212.633 122.767 212.52 122.88C212.407 122.993 212.344 123.146 212.344 123.305Z" fill="#263238"/>
<path d="M216.631 122.704H215.387C215.228 122.706 215.076 122.77 214.964 122.882C214.851 122.995 214.787 123.146 214.785 123.305V165.831C214.785 166.16 215.018 166.296 215.307 166.128L216.711 165.325C216.863 165.225 216.989 165.091 217.079 164.934C217.17 164.777 217.222 164.6 217.232 164.419V123.305C217.23 123.146 217.166 122.995 217.054 122.882C216.941 122.77 216.79 122.706 216.631 122.704Z" fill="#455A64"/>
<path d="M188.738 136.881V178.018C188.748 178.199 188.8 178.374 188.891 178.531C188.981 178.687 189.108 178.819 189.26 178.917L190.656 179.72C190.817 179.803 190.996 179.846 191.177 179.846C191.359 179.846 191.538 179.803 191.699 179.72L193.103 178.917C193.255 178.819 193.382 178.687 193.472 178.531C193.563 178.374 193.615 178.199 193.625 178.018V136.881C193.625 136.721 193.561 136.568 193.448 136.456C193.336 136.343 193.183 136.279 193.023 136.279H189.34C189.18 136.279 189.027 136.343 188.915 136.456C188.802 136.568 188.738 136.721 188.738 136.881Z" fill="#263238"/>
<path d="M193.025 136.279H191.781C191.623 136.281 191.471 136.345 191.358 136.458C191.246 136.57 191.182 136.722 191.18 136.881V179.407C191.18 179.736 191.42 179.872 191.701 179.703L193.105 178.901C193.257 178.803 193.384 178.671 193.475 178.515C193.565 178.358 193.617 178.183 193.627 178.002V136.881C193.627 136.721 193.564 136.568 193.451 136.456C193.338 136.343 193.185 136.279 193.025 136.279Z" fill="#455A64"/>
<path d="M190.305 106.688C190.341 106.976 190.32 107.267 190.243 107.547C190.166 107.826 190.035 108.088 189.857 108.317C189.679 108.546 189.457 108.737 189.205 108.88C188.953 109.023 188.675 109.115 188.388 109.151H188.115C187.577 109.151 187.057 108.955 186.654 108.599C186.25 108.243 185.991 107.751 185.924 107.217C184.657 97.0594 186.462 74.3203 190.811 61.5466C190.914 61.2342 191.085 60.9488 191.313 60.7115C191.541 60.4743 191.819 60.2911 192.127 60.1756C192.435 60.0601 192.765 60.0152 193.093 60.0442C193.42 60.0732 193.737 60.1753 194.02 60.3431C194.463 60.5986 194.802 61.0006 194.979 61.4798C195.156 61.9589 195.161 62.4849 194.991 62.9668C190.795 75.0103 189.086 96.907 190.305 106.688Z" fill="#455A64"/>
<path d="M215.889 112.569C215.594 112.569 215.307 112.476 215.068 112.303C214.829 112.13 214.65 111.887 214.558 111.606C211.725 102.941 196.986 94.8049 187.654 94.8049C187.282 94.8049 186.925 94.6569 186.661 94.3936C186.398 94.1303 186.25 93.7731 186.25 93.4007C186.25 93.0283 186.398 92.6712 186.661 92.4078C186.925 92.1445 187.282 91.9966 187.654 91.9966C197.981 91.9966 213.972 100.823 217.229 110.684C217.287 110.859 217.31 111.044 217.296 111.228C217.282 111.412 217.231 111.592 217.148 111.757C217.064 111.921 216.949 112.068 216.809 112.188C216.669 112.308 216.506 112.4 216.331 112.457C216.191 112.519 216.042 112.557 215.889 112.569Z" fill="#37474F"/>
<path d="M217.4 99.7314C217.104 99.7319 216.815 99.638 216.575 99.4635C216.336 99.289 216.158 99.0428 216.068 98.7605C213.099 89.758 197.999 82.1997 188.884 83.1384C188.519 83.1656 188.159 83.0497 187.878 82.8152C187.598 82.5807 187.42 82.2462 187.382 81.8827C187.345 81.5192 187.45 81.1553 187.677 80.8684C187.903 80.5815 188.233 80.3942 188.595 80.3462C198.897 79.2951 215.346 87.6076 218.732 97.886C218.789 98.0614 218.812 98.2465 218.798 98.4306C218.784 98.6147 218.734 98.7943 218.65 98.959C218.567 99.1237 218.452 99.2703 218.311 99.3905C218.171 99.5106 218.009 99.6019 217.833 99.6592C217.694 99.7065 217.547 99.7309 217.4 99.7314Z" fill="#37474F"/>
<path d="M220.793 89.8067C220.524 89.8101 220.259 89.7364 220.03 89.5942C219.801 89.452 219.618 89.2473 219.502 89.0043C215.177 79.1592 199.322 70.7424 191.098 71.8817C190.91 71.9199 190.716 71.9192 190.528 71.8797C190.341 71.8401 190.163 71.7624 190.007 71.6516C189.85 71.5407 189.718 71.399 189.618 71.2351C189.519 71.0712 189.454 70.8887 189.427 70.6987C189.401 70.5087 189.414 70.3153 189.465 70.1305C189.516 69.9457 189.605 69.7733 189.725 69.6241C189.846 69.4748 189.996 69.3518 190.165 69.2626C190.335 69.1734 190.521 69.12 190.713 69.1056C200.036 67.8137 217.239 76.8645 222.077 87.881C222.152 88.0495 222.192 88.231 222.196 88.4152C222.2 88.5993 222.168 88.7825 222.1 88.954C222.033 89.1256 221.933 89.2821 221.805 89.4147C221.677 89.5473 221.524 89.6532 221.355 89.7264C221.175 89.7909 220.984 89.8182 220.793 89.8067Z" fill="#37474F"/>
<path d="M224.093 77.7462C224.56 78.0179 224.91 78.4519 225.077 78.9654C225.244 79.4789 225.217 80.036 225 80.5304C219.929 92.3814 217.257 106.864 217.257 122.719V124.845L217.088 125.022C217.003 125.111 216.899 125.182 216.784 125.229C216.67 125.276 216.546 125.298 216.422 125.294C216.104 125.275 215.791 125.199 215.5 125.07C215.353 125.012 215.203 124.963 215.05 124.925C214.465 124.925 213.904 124.693 213.49 124.279C213.076 123.865 212.844 123.304 212.844 122.719C212.844 106.27 215.644 91.2019 220.956 78.7892C221.077 78.5013 221.257 78.2424 221.486 78.0298C221.715 77.8172 221.987 77.6558 222.283 77.5563C222.579 77.4569 222.893 77.4216 223.203 77.453C223.514 77.4843 223.815 77.5816 224.085 77.7381L224.093 77.7462Z" fill="#455A64"/>
<path d="M217.231 124.324V124.862C217.203 125.354 217.073 125.835 216.849 126.274C216.625 126.713 216.313 127.101 215.931 127.413L192.47 144.359C192.073 144.618 191.614 144.768 191.14 144.791C190.667 144.815 190.195 144.713 189.774 144.495L156.716 125.407C156.313 125.142 155.978 124.786 155.737 124.368C155.496 123.95 155.356 123.482 155.328 123V122.446C155.351 121.972 155.497 121.512 155.754 121.112C156.01 120.712 156.367 120.386 156.788 120.168L186.476 106.455C186.932 106.274 187.421 106.193 187.911 106.216C188.401 106.24 188.88 106.368 189.316 106.592L215.851 121.917C216.253 122.183 216.587 122.539 216.826 122.957C217.066 123.375 217.204 123.843 217.231 124.324Z" fill="#263238"/>
<path d="M215.845 121.917L189.311 106.592C188.875 106.368 188.395 106.24 187.906 106.216C187.416 106.193 186.926 106.274 186.471 106.455L156.783 120.168C155.981 120.537 155.981 121.195 156.711 121.644L189.784 140.732C190.206 140.95 190.677 141.052 191.151 141.028C191.624 141.004 192.083 140.855 192.48 140.596L215.926 123.658C216.087 123.573 216.221 123.443 216.312 123.284C216.403 123.126 216.447 122.945 216.438 122.762C216.43 122.579 216.37 122.403 216.265 122.253C216.16 122.104 216.014 121.987 215.845 121.917Z" fill="#37474F"/>
<path d="M44.4294 124.188V165.317C44.4199 165.499 44.3678 165.675 44.2771 165.833C44.1865 165.99 44.06 166.124 43.9079 166.224L42.5038 167.026C42.3439 167.109 42.1664 167.153 41.9862 167.153C41.8061 167.153 41.6286 167.109 41.4687 167.026L40.0646 166.224C39.9124 166.124 39.7859 165.99 39.6953 165.833C39.6047 165.675 39.5525 165.499 39.543 165.317V124.188C39.5419 124.108 39.5568 124.03 39.5866 123.956C39.6165 123.883 39.6608 123.816 39.7169 123.76C39.773 123.704 39.8397 123.659 39.9132 123.63C39.9867 123.6 40.0655 123.585 40.1448 123.586H43.8277C43.907 123.585 43.9857 123.6 44.0592 123.63C44.1327 123.659 44.1995 123.704 44.2556 123.76C44.3117 123.816 44.356 123.883 44.3858 123.956C44.4157 124.03 44.4305 124.108 44.4294 124.188Z" fill="#263238"/>
<path d="M40.1446 123.586H41.3883C41.5479 123.586 41.7009 123.649 41.8138 123.762C41.9266 123.875 41.99 124.028 41.99 124.188V166.713C41.99 167.05 41.7573 167.187 41.4765 167.018L40.0724 166.216C39.9203 166.116 39.7938 165.982 39.7031 165.825C39.6125 165.667 39.5603 165.491 39.5508 165.309V124.188C39.5498 124.109 39.5643 124.031 39.5937 123.958C39.6231 123.885 39.6666 123.819 39.7219 123.763C39.7771 123.707 39.8429 123.662 39.9155 123.632C39.9881 123.602 40.0659 123.586 40.1446 123.586Z" fill="#455A64"/>
<path d="M68.0388 137.763V178.893C68.0293 179.074 67.9771 179.251 67.8865 179.409C67.7959 179.566 67.6694 179.7 67.5173 179.8L66.1131 180.602C65.9507 180.681 65.7724 180.723 65.5916 180.723C65.4108 180.723 65.2325 180.681 65.0701 180.602L63.6739 179.8C63.5218 179.7 63.3953 179.566 63.3047 179.409C63.2141 179.251 63.1619 179.074 63.1524 178.893V137.763C63.1513 137.684 63.1661 137.605 63.196 137.532C63.2259 137.458 63.2701 137.392 63.3262 137.336C63.3823 137.279 63.4491 137.235 63.5226 137.205C63.5961 137.175 63.6748 137.161 63.7542 137.162H67.437C67.5966 137.162 67.7497 137.225 67.8626 137.338C67.9754 137.451 68.0388 137.604 68.0388 137.763Z" fill="#263238"/>
<path d="M63.7542 137.162H64.9898C65.0691 137.161 65.1479 137.175 65.2214 137.205C65.2949 137.235 65.3616 137.279 65.4177 137.336C65.4738 137.392 65.5181 137.458 65.548 137.532C65.5778 137.605 65.5927 137.684 65.5916 137.763V180.289C65.5916 180.626 65.3589 180.754 65.0701 180.594L63.6739 179.791C63.5218 179.692 63.3953 179.558 63.3047 179.401C63.2141 179.243 63.1619 179.066 63.1524 178.885V137.763C63.1513 137.684 63.1661 137.605 63.196 137.532C63.2259 137.458 63.2701 137.392 63.3262 137.336C63.3823 137.279 63.4491 137.235 63.5226 137.205C63.5961 137.175 63.6748 137.161 63.7542 137.162Z" fill="#455A64"/>
<path d="M66.4933 107.562C66.4573 107.85 66.4784 108.142 66.5554 108.422C66.6323 108.701 66.7636 108.963 66.9417 109.191C67.1197 109.42 67.3412 109.612 67.5933 109.755C67.8454 109.898 68.1232 109.99 68.4109 110.026H68.6837C69.2218 110.026 69.7415 109.83 70.1449 109.473C70.5483 109.117 70.8077 108.626 70.8742 108.092C72.142 97.934 70.3366 75.1949 65.9878 62.4212C65.5385 61.1053 64.2707 60.8165 63.0672 61.5146C62.1525 62.0441 61.4624 62.8465 61.8395 63.8494C65.9798 75.885 67.6888 97.7816 66.4933 107.562Z" fill="#D2AE6D"/>
<path d="M40.8833 113.372C40.6608 113.375 40.4409 113.324 40.2421 113.225C40.0433 113.125 39.8713 112.979 39.7408 112.799C39.6102 112.619 39.5249 112.41 39.4919 112.19C39.4589 111.97 39.4793 111.745 39.5513 111.535C42.7608 101.641 58.8082 92.8394 69.1266 92.8394C69.499 92.8394 69.8562 92.9873 70.1195 93.2506C70.3828 93.5139 70.5308 93.8711 70.5308 94.2435C70.5308 94.6159 70.3828 94.973 70.1195 95.2364C69.8562 95.4997 69.499 95.6476 69.1266 95.6476C59.7871 95.6476 45.0556 103.776 42.2152 112.409C42.1246 112.691 41.9466 112.936 41.707 113.109C41.4675 113.282 41.1789 113.374 40.8833 113.372Z" fill="#37474F"/>
<path d="M39.3755 100.582C39.2256 100.581 39.0767 100.556 38.9342 100.51C38.5811 100.392 38.289 100.14 38.122 99.8073C37.955 99.4748 37.9268 99.0897 38.0436 98.7364C41.4216 88.4581 57.8862 80.1375 68.1805 81.2047C68.5428 81.2527 68.8721 81.44 69.0985 81.7269C69.3249 82.0138 69.4305 82.3777 69.3929 82.7412C69.3553 83.1047 69.1774 83.4392 68.8971 83.6737C68.6168 83.9082 68.2561 84.0241 67.8917 83.9969C58.7848 83.0662 43.6762 90.6085 40.7075 99.619C40.6147 99.8991 40.4362 100.143 40.1971 100.316C39.958 100.489 39.6705 100.582 39.3755 100.582Z" fill="#37474F"/>
<path d="M36.0058 90.6889C35.7726 90.6869 35.5435 90.6273 35.339 90.5152C35.1345 90.4032 34.961 90.2422 34.8338 90.0467C34.7067 89.8513 34.6299 89.6273 34.6104 89.395C34.5909 89.1626 34.6292 88.929 34.722 88.7151C39.5362 77.6986 56.7711 68.6559 66.0866 69.9397C66.4558 69.9907 66.7896 70.1864 67.0145 70.4836C67.2395 70.7808 67.3372 71.1551 67.2861 71.5243C67.235 71.8935 67.0394 72.2274 66.7422 72.4523C66.445 72.6773 66.0706 72.7749 65.7014 72.7239C57.4611 71.5765 41.6304 80.0014 37.2896 89.8464C37.1797 90.0957 37 90.3079 36.7722 90.4574C36.5444 90.6069 36.2782 90.6873 36.0058 90.6889Z" fill="#37474F"/>
<path d="M32.675 78.6213C32.2077 78.8945 31.8571 79.3299 31.6899 79.8448C31.5227 80.3596 31.5506 80.918 31.7683 81.4136C36.8473 93.2646 39.5192 107.739 39.5192 123.594V125.72L39.6877 125.897C39.7733 125.987 39.8768 126.057 39.9916 126.104C40.1063 126.151 40.2297 126.174 40.3536 126.17C40.6721 126.15 40.9846 126.074 41.2764 125.945C41.4227 125.887 41.5728 125.839 41.7257 125.801C42.3109 125.801 42.8721 125.568 43.2859 125.154C43.6997 124.741 43.9322 124.179 43.9322 123.594C43.9322 107.154 41.1319 92.0771 35.8122 79.6644C35.6902 79.3784 35.509 79.1214 35.2806 78.9104C35.0522 78.6993 34.7818 78.5389 34.4871 78.4396C34.1924 78.3404 33.88 78.3045 33.5705 78.3345C33.261 78.3644 32.9613 78.4594 32.691 78.6133L32.675 78.6213Z" fill="#455A64"/>
<path d="M39.543 125.206V125.744C39.567 126.233 39.6929 126.712 39.9126 127.15C40.1322 127.588 40.4409 127.975 40.8187 128.287L64.2639 145.241C64.6626 145.497 65.121 145.644 65.5938 145.668C66.0666 145.692 66.5375 145.592 66.9599 145.378L100.025 126.281C100.432 126.019 100.77 125.664 101.012 125.245C101.255 124.827 101.395 124.357 101.422 123.874V123.321C101.395 122.847 101.247 122.389 100.991 121.989C100.735 121.59 100.38 121.264 99.9613 121.042L70.2737 107.338C69.8169 107.156 69.3267 107.073 68.8356 107.095C68.3446 107.117 67.8638 107.244 67.4253 107.466L40.9311 122.799C40.526 123.062 40.189 123.418 39.9477 123.836C39.7064 124.254 39.5677 124.724 39.543 125.206Z" fill="#263238"/>
<path d="M40.9284 122.799L67.4546 107.466C67.8932 107.244 68.3739 107.117 68.865 107.095C69.3561 107.073 69.8463 107.156 70.3031 107.338L99.9907 121.042C100.793 121.419 100.793 122.077 100.055 122.518L66.9893 141.615C66.5669 141.829 66.096 141.928 65.6232 141.905C65.1504 141.881 64.692 141.734 64.2933 141.478L40.816 124.54C40.6525 124.455 40.5174 124.323 40.427 124.162C40.3366 124.001 40.2948 123.818 40.3067 123.633C40.3186 123.449 40.3836 123.272 40.494 123.124C40.6043 122.976 40.7552 122.863 40.9284 122.799Z" fill="#37474F"/>
<path d="M116.435 168.294C121.651 175.692 125.855 177.497 127.292 179.11C128.728 180.723 127.765 183.772 124.082 184.374C120.399 184.975 116.492 183.956 114.213 181.533C111.934 179.11 110.418 175.981 108.075 174.184C105.732 172.386 104.52 171.889 104.231 169.851C103.943 167.813 105.957 161.827 105.957 161.827L116.435 168.294Z" fill="#D2AE6D"/>
<path d="M114.184 157.213C113.582 159.813 112.949 162.084 114.617 165.301C115.163 166.333 115.769 167.332 116.431 168.294C119.472 172.683 121.951 176.117 122.392 176.719C122.834 177.321 120.066 179.126 117.017 177.722C113.968 176.318 111.488 171.68 109.571 168.896C108.712 167.636 107.878 166.489 107.204 165.614C106.313 164.435 105.88 162.972 105.984 161.498L106.289 157.318L114.184 157.213Z" fill="#FFA8A7"/>
<path d="M97.1617 177.353C102.377 184.75 106.582 186.564 108.026 188.177C109.47 189.789 108.491 192.83 104.816 193.432C101.141 194.034 97.2259 193.023 94.9552 190.6C92.6845 188.177 91.152 185.047 88.8091 183.25C86.4662 181.453 85.2546 180.955 84.9657 178.917C84.6769 176.879 86.6988 170.894 86.6988 170.894L97.1617 177.353Z" fill="#37474F"/>
<path d="M94.9153 166.28C94.3135 168.879 93.6797 171.15 95.3566 174.36C95.893 175.395 96.4961 176.395 97.1619 177.352C100.203 181.749 102.682 185.184 103.124 185.785C103.565 186.387 100.797 188.192 97.7557 186.78C94.7147 185.368 92.2193 180.746 90.3017 177.954C89.4512 176.695 88.6087 175.547 87.9427 174.673C87.0446 173.493 86.6081 172.027 86.7151 170.548L87.02 166.376L94.9153 166.28Z" fill="#FFA8A7"/>
<path d="M68.5726 56.8605C64.3378 56.8605 60.2765 55.1783 57.2821 52.1839C54.2877 49.1895 52.6055 45.1282 52.6055 40.8934V40.757C52.6055 37.0011 54.0975 33.399 56.7534 30.7431C59.4092 28.0873 63.0113 26.5952 66.7673 26.5952H70.3699C72.2303 26.5942 74.0727 26.9597 75.7918 27.6709C77.511 28.3821 79.0731 29.4251 80.389 30.7403C81.7049 32.0554 82.7488 33.617 83.461 35.3357C84.1732 37.0544 84.5397 38.8966 84.5397 40.757V40.8934C84.5397 42.9902 84.1267 45.0665 83.3243 47.0038C82.5219 48.941 81.3457 50.7012 79.8631 52.1839C78.3804 53.6666 76.6202 54.8427 74.6829 55.6451C72.7457 56.4475 70.6694 56.8605 68.5726 56.8605Z" fill="#37474F"/>
<path d="M84.4861 95.0294C83.435 94.1789 82.3117 92.6785 81.2285 89.5493C80.4823 87.3909 73.5819 67.9816 72.4827 63.2958C72.4827 63.2958 71.5038 61.9478 74.0874 60.2308C77.5296 59.8376 80.5064 59.8536 82.9135 66.2645C85.3206 72.6755 90.1829 87.8483 90.1829 87.8483" fill="#FFA8A7"/>
<path d="M50.3298 107.554C48.5806 110.724 47.1203 116.758 48.7892 121.588C49.728 124.26 62.269 138.06 71.1031 136.905C86.3481 134.923 100.47 114.679 100.47 114.679L80.2662 103.149L50.3298 107.554Z" fill="#D2AE6D"/>
<g opacity="0.1">
<path d="M50.3259 107.554C48.5767 110.724 47.1164 116.758 48.7853 121.588C49.7241 124.26 62.2651 138.06 71.0992 136.905C86.3442 134.923 100.466 114.679 100.466 114.679L80.2622 103.149L50.3259 107.554Z" fill="black"/>
</g>
<path d="M73.1228 60.2873C75.4496 60.1028 78.2098 60.0867 80.8255 64.8608C82.8715 68.5758 83.9788 70.1163 83.8986 75.1873C83.8424 78.8461 81.5958 83.2511 81.0903 86.1717C80.5848 89.0923 80.328 102.002 80.2879 103.15C78.3451 105.341 75.9682 107.104 73.3079 108.328C70.6477 109.551 67.7621 110.209 64.8343 110.259C54.7004 110.532 50.3516 107.555 50.3516 107.555L58.0864 93.6658L56.0644 65.4305L63.6308 60.9051L73.1228 60.2873Z" fill="#D2AE6D"/>
<g opacity="0.5">
<path d="M73.1267 60.2868C75.4535 60.1023 78.2137 60.0862 80.8294 64.8603C82.8755 68.5753 83.9827 70.1158 83.9025 75.1868C83.8463 78.8456 81.5997 83.2506 81.0942 86.1712C80.5887 89.0918 80.3319 102.002 80.2918 103.149C78.349 105.34 75.9721 107.103 73.3118 108.327C70.6516 109.551 67.766 110.209 64.8382 110.258C54.7043 110.531 50.3555 107.554 50.3555 107.554L58.0903 93.6653L56.0683 65.43L63.6347 60.9046L73.1267 60.2868Z" fill="white"/>
</g>
<path d="M77.302 33.0469C78.987 34.0498 83.063 38.2863 82.8624 47.1846C82.6859 54.7188 80.2467 56.5884 79.0191 57.1179C77.7914 57.6475 75.4245 57.3346 73.1217 56.9494V61.4748C73.1217 61.4748 76.3311 65.1657 76.0984 67.2358C75.8658 69.3059 71.5089 69.8034 68.5401 67.7734C66.609 66.3869 64.9521 64.6538 63.6537 62.6623V51.734C63.6537 51.734 62.0971 53.8041 59.5616 52.1192C57.0262 50.4342 56.9219 46.2539 58.3982 44.7534C59.8746 43.253 63.06 43.7344 63.6537 45.8045C63.6537 45.8045 66.783 46.6069 71.6774 43.9109C76.5719 41.215 76.9811 35.9755 77.302 33.0469Z" fill="#FFA8A7"/>
<path d="M74.4483 45.2904C74.4496 45.4759 74.3964 45.6577 74.2953 45.8132C74.1942 45.9687 74.0496 46.0911 73.8796 46.1652C73.7095 46.2393 73.5214 46.2618 73.3387 46.2299C73.156 46.198 72.9866 46.1131 72.8517 45.9858C72.7168 45.8585 72.6222 45.6944 72.5798 45.5138C72.5374 45.3333 72.5489 45.1442 72.613 44.9701C72.6771 44.796 72.7909 44.6446 72.9403 44.5347C73.0897 44.4247 73.2681 44.3611 73.4533 44.3516C73.5804 44.3473 73.7071 44.3683 73.8261 44.4133C73.9451 44.4582 74.054 44.5263 74.1465 44.6136C74.239 44.7009 74.3133 44.8056 74.3651 44.9218C74.4169 45.038 74.4451 45.1632 74.4483 45.2904Z" fill="#37474F"/>
<path d="M72.7413 42.3864L70.7675 43.606C70.6178 43.3384 70.5751 43.024 70.6481 42.7262C70.721 42.4284 70.9042 42.1694 71.1606 42.0013C71.2893 41.9213 71.4326 41.8678 71.5822 41.8439C71.7318 41.82 71.8846 41.8261 72.0318 41.862C72.179 41.8978 72.3176 41.9627 72.4394 42.0527C72.5612 42.1428 72.6638 42.2562 72.7413 42.3864Z" fill="#37474F"/>
<path d="M74.6935 51.6777L76.9241 52.3918C76.8853 52.5406 76.8169 52.68 76.7229 52.8016C76.6289 52.9232 76.5113 53.0245 76.3771 53.0995C76.243 53.1744 76.095 53.2215 75.9422 53.2377C75.7893 53.254 75.6348 53.2392 75.4878 53.1942C75.1828 53.0964 74.9285 52.8825 74.7799 52.5988C74.6312 52.315 74.6002 51.9842 74.6935 51.6777Z" fill="#F28F8F"/>
<path d="M81.7423 44.6088C81.7521 44.7349 81.7368 44.8616 81.6972 44.9818C81.6576 45.1019 81.5946 45.213 81.5117 45.3085C81.4288 45.4041 81.3278 45.4822 81.2145 45.5384C81.1012 45.5946 80.9779 45.6277 80.8516 45.6358C80.5947 45.6423 80.3455 45.5475 80.1578 45.3719C79.9702 45.1963 79.8591 44.9539 79.8487 44.697C79.8429 44.5727 79.8616 44.4484 79.9039 44.3314C79.9461 44.2143 80.011 44.1066 80.0948 44.0146C80.1786 43.9226 80.2797 43.848 80.3924 43.7951C80.505 43.7421 80.627 43.7119 80.7513 43.7061C80.8757 43.7003 80.9999 43.7191 81.117 43.7613C81.2341 43.8035 81.3417 43.8684 81.4338 43.9522C81.5258 44.036 81.6004 44.1371 81.6533 44.2498C81.7062 44.3625 81.7365 44.4844 81.7423 44.6088Z" fill="#37474F"/>
<path d="M77.3047 44.063L77.4571 49.7678L80.458 48.8371L77.3047 44.063Z" fill="#F28F8F"/>
<path d="M73.1191 56.9492C71.2015 56.7326 67.3581 55.5692 66.5156 54.2773C66.6793 55.1021 67.1351 55.84 67.7994 56.3555C69.0591 57.551 73.1191 58.4176 73.1191 58.4176V56.9492Z" fill="#F28F8F"/>
<path d="M76.1219 32.3967C76.1219 32.3967 77.7909 38.1978 75.793 43.6298C75.793 43.6298 83.0624 44.0872 83.4636 38.5909C83.4636 38.5909 83.1106 34.0656 79.8931 31.3696L76.1219 32.3967Z" fill="#37474F"/>
<path d="M59.2734 25.8572C61.8169 28.1198 59.7308 30.3103 57.2996 33.0384C54.8684 35.7664 53.015 37.989 50.4715 35.7183C49.2755 34.5198 48.5836 32.9091 48.5376 31.2166C48.4916 29.5242 49.0952 27.8783 50.2243 26.6167C51.3535 25.3551 52.9226 24.5735 54.6098 24.4323C56.297 24.2911 57.9743 24.8009 59.2975 25.8572H59.2734Z" fill="#37474F"/>
<path d="M112.957 187.503V242.352C112.971 242.594 113.041 242.828 113.162 243.038C113.284 243.247 113.452 243.424 113.655 243.556L115.525 244.631C115.739 244.742 115.977 244.799 116.219 244.799C116.46 244.799 116.698 244.742 116.913 244.631L118.782 243.556C118.985 243.424 119.154 243.247 119.275 243.038C119.396 242.828 119.467 242.594 119.48 242.352V187.503C119.48 187.29 119.396 187.086 119.245 186.935C119.095 186.785 118.891 186.7 118.678 186.7H113.759C113.547 186.7 113.343 186.785 113.192 186.935C113.042 187.086 112.957 187.29 112.957 187.503Z" fill="#263238"/>
<path d="M118.653 186.7H117.048C116.836 186.7 116.632 186.785 116.481 186.935C116.331 187.086 116.246 187.29 116.246 187.503V244.23C116.246 244.671 116.559 244.856 116.936 244.631L118.806 243.556C119.008 243.424 119.177 243.247 119.298 243.037C119.42 242.828 119.49 242.594 119.504 242.352V187.503C119.504 187.393 119.482 187.285 119.438 187.184C119.395 187.083 119.332 186.993 119.252 186.917C119.172 186.842 119.078 186.784 118.975 186.747C118.872 186.709 118.763 186.694 118.653 186.7Z" fill="#455A64"/>
<path d="M197.699 138.574V193.424C197.713 193.664 197.783 193.898 197.903 194.107C198.022 194.315 198.189 194.494 198.389 194.627L200.259 195.71C200.476 195.816 200.715 195.87 200.957 195.87C201.199 195.87 201.437 195.816 201.655 195.71L203.524 194.627C203.725 194.494 203.891 194.315 204.011 194.107C204.131 193.898 204.2 193.664 204.214 193.424V138.574C204.214 138.361 204.13 138.157 203.979 138.006C203.829 137.856 203.625 137.771 203.412 137.771H198.502C198.289 137.771 198.085 137.856 197.934 138.006C197.784 138.157 197.699 138.361 197.699 138.574Z" fill="#263238"/>
<path d="M203.412 137.771H201.759C201.547 137.771 201.343 137.856 201.192 138.006C201.042 138.157 200.957 138.361 200.957 138.574V195.309C200.957 195.751 201.27 195.927 201.655 195.71L203.525 194.627C203.725 194.494 203.891 194.315 204.011 194.107C204.131 193.898 204.201 193.664 204.215 193.424V138.574C204.215 138.361 204.13 138.157 203.98 138.006C203.829 137.856 203.625 137.771 203.412 137.771Z" fill="#455A64"/>
<path d="M38 144.223V199.073C38.0129 199.313 38.082 199.547 38.2019 199.757C38.3217 199.966 38.4889 200.144 38.69 200.276L40.5595 201.359C40.7772 201.465 41.0159 201.519 41.2576 201.519C41.4994 201.519 41.738 201.465 41.9557 201.359L43.8252 200.276C44.0272 200.144 44.1951 199.967 44.315 199.757C44.435 199.548 44.5036 199.314 44.5152 199.073V144.223C44.5152 144.01 44.4307 143.806 44.2802 143.655C44.1297 143.505 43.9257 143.42 43.7129 143.42H38.8024C38.5896 143.42 38.3855 143.505 38.235 143.655C38.0845 143.806 38 144.01 38 144.223Z" fill="#37474F"/>
<path d="M43.7052 143.42H42.0524C41.8396 143.42 41.6355 143.505 41.485 143.655C41.3345 143.806 41.25 144.01 41.25 144.223V200.958C41.25 201.4 41.5629 201.576 41.9481 201.359L43.8176 200.276C44.0196 200.144 44.1875 199.967 44.3074 199.757C44.4274 199.548 44.496 199.314 44.5076 199.073V144.223C44.5076 144.01 44.4231 143.806 44.2726 143.655C44.1221 143.505 43.918 143.42 43.7052 143.42Z" fill="#263238"/>
<path d="M114.835 191.538L36.1303 146.1C35.7252 145.837 35.3882 145.482 35.1469 145.064C34.9057 144.645 34.767 144.176 34.7422 143.693V143.14C34.7689 142.658 34.9084 142.189 35.1495 141.771C35.3906 141.353 35.7265 140.997 36.1303 140.732L124.607 89.6537C125.039 89.4364 125.516 89.3232 126 89.3232C126.483 89.3232 126.96 89.4364 127.392 89.6537L206.112 135.092C206.517 135.355 206.854 135.71 207.095 136.129C207.337 136.547 207.475 137.017 207.5 137.499V138.053C207.475 138.535 207.336 139.004 207.094 139.422C206.853 139.841 206.517 140.196 206.112 140.46L117.611 191.538C117.182 191.76 116.706 191.876 116.223 191.876C115.74 191.876 115.264 191.76 114.835 191.538Z" fill="#37474F"/>
<path d="M116.247 94.4917L36.1303 140.732C35.7265 140.997 35.3906 141.352 35.1495 141.77C34.9084 142.188 34.7689 142.657 34.7422 143.139V143.693C34.767 144.175 34.9057 144.645 35.1469 145.063C35.3882 145.482 35.7252 145.837 36.1303 146.1L114.835 191.538C115.26 191.77 115.738 191.886 116.223 191.875L116.247 94.4917Z" fill="#263238"/>
<path d="M114.829 187.775L36.1252 142.337C35.3228 141.896 35.3228 141.182 36.1252 140.732L124.602 89.6537C125.034 89.4364 125.511 89.3232 125.994 89.3232C126.478 89.3232 126.955 89.4364 127.387 89.6537L206.107 135.092C206.277 135.146 206.425 135.253 206.531 135.398C206.636 135.542 206.693 135.716 206.693 135.894C206.693 136.073 206.636 136.247 206.531 136.391C206.425 136.535 206.277 136.642 206.107 136.697L117.606 187.775C117.177 187.997 116.701 188.113 116.218 188.113C115.735 188.113 115.259 187.997 114.829 187.775Z" fill="#455A64"/>
<path d="M78.2188 127.91V128.713C78.2209 129.117 78.3278 129.513 78.5289 129.863C78.73 130.213 79.0184 130.505 79.3661 130.711L101.303 143.332C101.652 143.532 102.048 143.637 102.45 143.637C102.853 143.637 103.248 143.532 103.598 143.332L143.836 120.063C144.187 119.863 144.479 119.573 144.682 119.224C144.884 118.874 144.991 118.477 144.992 118.073V117.512L102.466 142.072L78.2188 127.91Z" fill="#E6E6E6"/>
<path d="M144.993 117.552L121.131 103.783C120.924 103.661 120.689 103.597 120.449 103.597C120.209 103.597 119.973 103.661 119.767 103.783L78.3725 127.678C78.3258 127.704 78.287 127.743 78.26 127.789C78.233 127.836 78.2187 127.889 78.2188 127.943C78.2187 127.996 78.233 128.049 78.26 128.096C78.287 128.142 78.3258 128.181 78.3725 128.207L102.444 142.112L144.993 117.552Z" fill="#FAFAFA"/>
<path d="M102.229 140.09L89.3594 132.669L126.99 110.94L139.925 118.33L102.229 140.09Z" fill="#E6E6E6"/>
<path d="M95.9102 119.446L96.1428 119.582L102.449 123.225L113.667 116.742L113.899 116.614L107.36 112.834L95.9102 119.446Z" fill="#E0E0E0"/>
<path d="M90.1487 87.8486C90.1487 87.8486 96.351 92.9758 103.5 98.6485C106.71 101.208 110.304 103.784 113.257 104.105C115.6 104.353 119.764 104.522 120.655 105.34C121.545 106.159 124.121 110.427 124.955 111.807C125.79 113.187 125.236 116.421 122.548 116.622C119.86 116.822 118.721 114.904 117.598 113.709C116.981 113.043 116.301 112.438 115.568 111.904C115.568 111.904 112.767 112.056 111.179 111.101C109.59 110.146 108.683 109.601 108.683 109.601C103.115 106.48 89.0334 98.6726 84.5 94.9977" fill="#FFA8A7"/>
<path d="M96.1445 119.582L102.451 123.225L113.668 116.742L107.362 113.107L96.1445 119.582Z" fill="#E6E6E6"/>
<path d="M102.449 142.113V143.645C102.852 143.645 103.247 143.54 103.597 143.34L143.835 120.072C144.186 119.871 144.478 119.581 144.68 119.232C144.883 118.882 144.99 118.486 144.991 118.082V117.52L102.449 142.113Z" fill="#E0E0E0"/>
<path d="M103.102 142.45C103.482 142.598 103.89 142.659 104.297 142.629C104.704 142.598 105.099 142.477 105.453 142.273L145.515 119.141C145.862 118.942 146.161 118.668 146.39 118.339C146.619 118.01 146.772 117.635 146.839 117.24L151.228 91.0824C151.293 90.6463 151.255 90.2008 151.116 89.7824C150.976 89.364 150.74 88.9846 150.425 88.6753L108.79 112.746C108.534 112.896 108.314 113.1 108.145 113.344C107.976 113.588 107.862 113.866 107.811 114.158L103.102 142.45Z" fill="#EBEBEB"/>
<path d="M102.449 142.113L102.722 142.273C102.845 142.338 102.97 142.397 103.099 142.45L107.841 114.174C107.892 113.882 108.005 113.604 108.174 113.36C108.344 113.116 108.564 112.912 108.82 112.762L150.455 88.6909C150.287 88.5254 150.098 88.3824 149.893 88.2656L108.17 112.337C107.914 112.487 107.694 112.691 107.525 112.935C107.355 113.178 107.242 113.456 107.191 113.749L102.449 142.113Z" fill="#F5F5F5"/>
<path d="M125.66 118.306C125.957 116.557 127.762 114.23 129.672 113.115C131.581 112 132.945 112.513 132.649 114.262C132.352 116.012 130.546 118.338 128.637 119.454C126.727 120.569 125.371 120.063 125.66 118.306Z" fill="#E0E0E0"/>
<path d="M77.1014 143.42L73.8438 145.298L77.1014 147.184L80.359 145.298L77.1014 143.42Z" fill="#D2AE6D"/>
<path d="M61.6824 148.676L73.3328 141.952C73.5494 141.848 73.7866 141.794 74.0269 141.794C74.2671 141.794 74.5043 141.848 74.7209 141.952L83.1057 146.766C83.3083 146.898 83.477 147.075 83.5983 147.284C83.7196 147.494 83.7899 147.728 83.8037 147.97V148.242C83.7919 148.484 83.7223 148.72 83.6009 148.929C83.4794 149.138 83.3096 149.316 83.1057 149.446L71.4633 156.178C71.2456 156.283 71.007 156.338 70.7652 156.338C70.5235 156.338 70.2849 156.283 70.0672 156.178L61.6824 151.364C61.4798 151.232 61.3111 151.054 61.1898 150.845C61.0685 150.636 60.9982 150.401 60.9844 150.16V149.879C60.9982 149.638 61.0685 149.403 61.1898 149.194C61.3111 148.985 61.4798 148.807 61.6824 148.676Z" fill="#D2AE6D"/>
<path d="M70.0441 154.292L61.6834 149.478C61.2982 149.261 61.2982 148.9 61.6834 148.676L73.3338 141.952C73.5504 141.848 73.7876 141.794 74.0278 141.794C74.2681 141.794 74.5052 141.848 74.7219 141.952L83.1066 146.766C83.1897 146.795 83.2617 146.85 83.3126 146.921C83.3635 146.993 83.3908 147.079 83.3908 147.167C83.3908 147.255 83.3635 147.341 83.3126 147.413C83.2617 147.485 83.1897 147.539 83.1066 147.568L71.4402 154.292C71.2241 154.403 70.9848 154.46 70.7421 154.46C70.4994 154.46 70.2601 154.403 70.0441 154.292Z" fill="#D2AE6D"/>
<g opacity="0.3">
<path d="M70.0402 154.292L61.6795 149.478C61.2943 149.261 61.2943 148.9 61.6795 148.676L73.3299 141.952C73.5465 141.848 73.7837 141.794 74.0239 141.794C74.2642 141.794 74.5013 141.848 74.718 141.952L83.1027 146.766C83.1858 146.795 83.2578 146.85 83.3087 146.921C83.3596 146.993 83.3869 147.079 83.3869 147.167C83.3869 147.255 83.3596 147.341 83.3087 147.413C83.2578 147.485 83.1858 147.539 83.1027 147.568L71.4363 154.292C71.2202 154.403 70.9809 154.46 70.7382 154.46C70.4955 154.46 70.2562 154.403 70.0402 154.292Z" fill="white"/>
</g>
<path d="M73.1537 143.291C72.6883 143.564 72.6883 143.998 73.1537 144.262C73.4142 144.397 73.7031 144.467 73.9962 144.467C74.2893 144.467 74.5782 144.397 74.8387 144.262C75.3041 143.998 75.3041 143.564 74.8387 143.291C74.5771 143.161 74.2886 143.093 73.9962 143.093C73.7038 143.093 73.4153 143.161 73.1537 143.291Z" fill="#D2AE6D"/>
<path d="M69.8959 145.178C69.4305 145.442 69.4305 145.876 69.8959 146.149C70.1575 146.279 70.4459 146.347 70.7384 146.347C71.0308 146.347 71.3192 146.279 71.5809 146.149C72.0462 145.876 72.0462 145.442 71.5809 145.178C71.3204 145.043 71.0315 144.973 70.7384 144.973C70.4453 144.973 70.1564 145.043 69.8959 145.178Z" fill="#D2AE6D"/>
<g opacity="0.2">
<path d="M73.1615 143.292C72.6962 143.565 72.6962 143.999 73.1615 144.263C73.422 144.398 73.7109 144.468 74.004 144.468C74.2971 144.468 74.586 144.398 74.8465 144.263C75.3119 143.999 75.3119 143.565 74.8465 143.292C74.5849 143.162 74.2965 143.094 74.004 143.094C73.7116 143.094 73.4232 143.162 73.1615 143.292Z" fill="black"/>
</g>
<g opacity="0.2">
<path d="M69.8998 145.178C69.4344 145.442 69.4344 145.876 69.8998 146.149C70.1614 146.279 70.4499 146.347 70.7423 146.347C71.0347 146.347 71.3232 146.279 71.5848 146.149C72.0502 145.876 72.0502 145.442 71.5848 145.178C71.3243 145.043 71.0354 144.973 70.7423 144.973C70.4492 144.973 70.1603 145.043 69.8998 145.178Z" fill="black"/>
</g>
<path d="M62.0657 152.591C61.9944 152.591 61.9244 152.573 61.8625 152.538C61.8006 152.503 61.7489 152.452 61.7126 152.391C61.6627 152.298 61.6507 152.189 61.6792 152.087C61.7076 151.986 61.7742 151.899 61.8651 151.845L63.1248 151.115C63.2176 151.062 63.3276 151.047 63.431 151.074C63.5345 151.101 63.6233 151.168 63.6784 151.259C63.7052 151.305 63.7226 151.355 63.7294 151.408C63.7363 151.46 63.7325 151.514 63.7182 151.565C63.704 151.616 63.6796 151.663 63.6466 151.704C63.6136 151.746 63.5725 151.78 63.526 151.805L62.2662 152.535C62.206 152.572 62.1365 152.592 62.0657 152.591Z" fill="#D2AE6D"/>
<path d="M62.0641 152.992C61.8513 152.992 61.6472 152.908 61.4967 152.757C61.3463 152.607 61.2617 152.403 61.2617 152.19V139.657C61.2617 139.444 61.3463 139.24 61.4967 139.089C61.6472 138.939 61.8513 138.854 62.0641 138.854C62.2769 138.854 62.481 138.939 62.6314 139.089C62.7819 139.24 62.8665 139.444 62.8665 139.657V152.19C62.8665 152.403 62.7819 152.607 62.6314 152.757C62.481 152.908 62.2769 152.992 62.0641 152.992Z" fill="#D2AE6D"/>
<g opacity="0.2">
<path d="M62.0618 152.591C61.9905 152.591 61.9205 152.573 61.8586 152.538C61.7967 152.503 61.745 152.452 61.7087 152.391C61.6588 152.298 61.6468 152.189 61.6753 152.087C61.7037 151.986 61.7703 151.899 61.8612 151.845L63.1209 151.115C63.2137 151.062 63.3237 151.047 63.4271 151.074C63.5306 151.101 63.6194 151.168 63.6745 151.259C63.7013 151.305 63.7187 151.355 63.7255 151.408C63.7324 151.46 63.7286 151.514 63.7143 151.565C63.7001 151.616 63.6757 151.663 63.6427 151.704C63.6097 151.746 63.5686 151.78 63.5221 151.805L62.2623 152.535C62.2021 152.572 62.1326 152.592 62.0618 152.591Z" fill="black"/>
<path d="M62.068 152.993C61.8552 152.993 61.6511 152.908 61.5006 152.758C61.3502 152.607 61.2656 152.403 61.2656 152.19V139.657C61.2656 139.445 61.3502 139.24 61.5006 139.09C61.6511 138.94 61.8552 138.855 62.068 138.855C62.2808 138.855 62.4849 138.94 62.6353 139.09C62.7858 139.24 62.8704 139.445 62.8704 139.657V152.19C62.8704 152.403 62.7858 152.607 62.6353 152.758C62.4849 152.908 62.2808 152.993 62.068 152.993Z" fill="black"/>
</g>
<path d="M83.7791 151.171C83.498 151.173 83.2213 151.101 82.9767 150.963L81.0992 149.88C81.0533 149.854 81.013 149.819 80.9808 149.778C80.9486 149.736 80.925 149.688 80.9115 149.637C80.8981 149.587 80.8949 149.533 80.9024 149.481C80.9098 149.429 80.9276 149.379 80.9548 149.334C81.0085 149.243 81.0952 149.177 81.1969 149.148C81.2986 149.12 81.4073 149.132 81.5004 149.182L83.3779 150.265C83.4908 150.332 83.6197 150.367 83.751 150.367C83.8823 150.367 84.0112 150.332 84.1241 150.265L99.674 141.367C99.7198 141.34 99.7704 141.323 99.8228 141.316C99.8753 141.31 99.9285 141.313 99.9796 141.327C100.031 141.341 100.078 141.364 100.12 141.397C100.162 141.429 100.197 141.469 100.224 141.515C100.25 141.561 100.267 141.611 100.274 141.664C100.281 141.716 100.277 141.769 100.263 141.821C100.249 141.872 100.226 141.919 100.193 141.961C100.161 142.003 100.121 142.038 100.075 142.065L84.5494 150.963C84.3154 151.099 84.0497 151.171 83.7791 151.171Z" fill="#F0F0F0"/>
<path d="M71.6478 137.539C71.6494 137.977 71.5209 138.406 71.2785 138.772C71.0361 139.137 70.6908 139.422 70.2863 139.591C69.8818 139.76 69.4363 139.805 69.0062 139.72C68.5761 139.635 68.1807 139.425 67.8702 139.116C67.5597 138.806 67.348 138.412 67.2619 137.982C67.1758 137.552 67.2192 137.107 67.3866 136.701C67.5539 136.296 67.8378 135.95 68.2021 135.706C68.5665 135.463 68.9949 135.333 69.4333 135.333C70.0192 135.333 70.5813 135.565 70.9964 135.978C71.4114 136.392 71.6457 136.953 71.6478 137.539Z" fill="#D2AE6D"/>
<path d="M69.4322 131.714C68.3775 131.714 67.3427 132.001 66.4383 132.544C65.5339 133.087 64.7939 133.865 64.297 134.795C64.2011 134.975 64.1718 135.183 64.2144 135.383C64.2569 135.583 64.3686 135.761 64.5297 135.886C64.6279 135.963 64.7417 136.018 64.8631 136.046C64.9846 136.075 65.1108 136.077 65.233 136.052C65.3552 136.026 65.4704 135.975 65.5707 135.9C65.6709 135.826 65.7538 135.731 65.8135 135.621C66.1587 134.962 66.6776 134.41 67.3141 134.025C67.9505 133.64 68.6802 133.437 69.4241 133.437C70.168 133.437 70.8978 133.64 71.5342 134.025C72.1707 134.41 72.6896 134.962 73.0348 135.621C73.0943 135.732 73.1775 135.829 73.2784 135.904C73.3793 135.979 73.4955 136.031 73.6187 136.056C73.742 136.081 73.8693 136.079 73.9916 136.05C74.1139 136.021 74.2283 135.965 74.3266 135.886C74.489 135.762 74.6017 135.584 74.6444 135.384C74.6871 135.183 74.6569 134.975 74.5593 134.795C74.0638 133.865 73.3251 133.088 72.4221 132.545C71.5191 132.002 70.4857 131.715 69.4322 131.714Z" fill="#D2AE6D"/>
<path d="M69.4321 128.183C67.8601 128.183 66.3136 128.58 64.9361 129.338C63.5587 130.095 62.3949 131.188 61.5528 132.516C61.4322 132.697 61.3835 132.917 61.4161 133.132C61.4488 133.347 61.5605 133.542 61.7293 133.679C61.8251 133.754 61.9354 133.808 62.0532 133.837C62.171 133.866 62.2937 133.87 62.4132 133.849C62.5327 133.828 62.6464 133.782 62.747 133.714C62.8476 133.646 62.9328 133.558 62.9971 133.455C63.6853 132.376 64.6341 131.488 65.756 130.874C66.8779 130.259 68.1367 129.936 69.416 129.936C70.6954 129.936 71.9541 130.259 73.076 130.874C74.1979 131.488 75.1468 132.376 75.835 133.455C75.8984 133.557 75.9829 133.646 76.0828 133.713C76.1826 133.781 76.2957 133.827 76.4146 133.849C76.5335 133.87 76.6555 133.866 76.7727 133.837C76.8899 133.807 76.9996 133.754 77.0947 133.679C77.2648 133.543 77.3781 133.349 77.4122 133.133C77.4463 132.918 77.3989 132.698 77.2792 132.516C76.4401 131.193 75.2814 130.103 73.91 129.346C72.5386 128.588 70.9986 128.189 69.4321 128.183Z" fill="#D2AE6D"/>
<path d="M83.6259 123.714C78.0575 120.593 66.3028 112.208 61.7614 108.558C60.7183 107.715 59.3543 107.21 58.6402 103.936C58.1587 101.705 52.5261 82.7775 51.5071 75.9814C50.5122 69.3378 53.5291 67.1554 56.0886 65.4624C59.7555 68.359 59.8919 71.9455 61.5447 78.0195C63.3661 84.6871 67.4341 101.384 67.4341 101.384C67.4341 101.384 72.7859 106.696 78.8759 112.618C81.8286 115.498 85.2948 117.873 88.2154 118.186C90.5584 118.443 94.7226 118.603 95.6133 119.43C96.5039 120.256 99.0795 124.509 99.914 125.849C100.748 127.189 100.195 130.47 97.5069 130.663C94.8189 130.855 93.6796 128.938 92.5562 127.75C91.9411 127.08 91.2611 126.473 90.5263 125.937C90.5263 125.937 87.726 126.097 86.1373 125.135C84.5486 124.172 83.6259 123.714 83.6259 123.714Z" fill="#FFA8A7"/>
<path d="M125.326 87.7844C122.56 86.902 119.587 86.902 116.821 87.7844C114.518 88.667 114.518 90.0872 116.821 90.9939C119.587 91.8763 122.56 91.8763 125.326 90.9939C127.717 90.1032 127.717 88.667 125.326 87.7844Z" fill="#E0E0E0"/>
<path d="M127.307 83.917H114.902L115.841 98.5361C115.897 99.0657 116.395 99.5872 117.342 99.9965C119.748 100.863 122.381 100.863 124.788 99.9965C125.766 99.5872 126.28 99.0657 126.336 98.5361L127.307 83.917Z" fill="#D2AE6D"/>
<path d="M114.902 83.933L115.095 86.9018C115.42 87.122 115.767 87.3076 116.13 87.4554C119.331 88.5708 122.814 88.5708 126.015 87.4554L126.344 87.303C126.621 87.1767 126.889 87.0319 127.146 86.8697L127.331 83.917L114.902 83.933Z" fill="#D2AE6D"/>
<path opacity="0.1" d="M114.902 83.933L115.095 86.9018C115.42 87.122 115.767 87.3076 116.13 87.4554C119.331 88.5708 122.814 88.5708 126.015 87.4554L126.344 87.303C126.621 87.1767 126.889 87.0319 127.146 86.8697L127.331 83.917L114.902 83.933Z" fill="black"/>
<path d="M128.094 84.3499V82.0792H126.674C126.481 81.9829 126.264 81.8866 126.04 81.7904C122.838 80.6832 119.357 80.6832 116.155 81.7904C115.93 81.8866 115.729 81.9829 115.545 82.0792H114.141V84.3178C114.141 85.048 114.815 85.7781 116.155 86.3318C119.357 87.4389 122.838 87.4389 126.04 86.3318C127.396 85.8022 128.094 85.0801 128.094 84.3499Z" fill="#D2AE6D"/>
<g opacity="0.3">
<path d="M128.094 84.3499V82.0792H126.674C126.481 81.9829 126.264 81.8866 126.04 81.7904C122.838 80.6832 119.357 80.6832 116.155 81.7904C115.93 81.8866 115.729 81.9829 115.545 82.0792H114.141V84.3178C114.141 85.048 114.815 85.7781 116.155 86.3318C119.357 87.4389 122.838 87.4389 126.04 86.3318C127.396 85.8022 128.094 85.0801 128.094 84.3499Z" fill="white"/>
</g>
<path d="M126.02 80.1055C122.819 78.9902 119.336 78.9902 116.135 80.1055C113.455 81.2128 113.455 83.0181 116.135 84.1174C119.336 85.2327 122.819 85.2327 126.02 84.1174C128.788 83.0181 128.788 81.2128 126.02 80.1055Z" fill="#D2AE6D"/>
<path opacity="0.1" d="M126.02 80.1055C122.819 78.9902 119.336 78.9902 116.135 80.1055C113.455 81.2128 113.455 83.0181 116.135 84.1174C119.336 85.2327 122.819 85.2327 126.02 84.1174C128.788 83.0181 128.788 81.2128 126.02 80.1055Z" fill="white"/>
<path d="M124.794 80.3702C122.375 79.6162 119.783 79.6162 117.364 80.3702C115.342 81.1325 115.342 82.3601 117.364 83.1223C119.782 83.8846 122.376 83.8846 124.794 83.1223C126.88 82.3601 126.88 81.1325 124.794 80.3702Z" fill="#D2AE6D"/>
<path opacity="0.3" d="M124.794 80.3702C122.375 79.6162 119.783 79.6162 117.364 80.3702C115.342 81.1325 115.342 82.3601 117.364 83.1223C119.782 83.8846 122.376 83.8846 124.794 83.1223C126.88 82.3601 126.88 81.1325 124.794 80.3702Z" fill="white"/>
<path d="M126.309 81.4858L125.748 79.4478H116.456L115.895 81.4858H126.309Z" fill="#D2AE6D"/>
<path opacity="0.3" d="M126.309 81.4858L125.748 79.4478H116.456L115.895 81.4858H126.309Z" fill="white"/>
<path d="M124.383 78.4043C122.231 77.7305 119.924 77.7305 117.772 78.4043C115.982 79.0783 115.982 80.1695 117.772 80.8515C119.924 81.5253 122.231 81.5253 124.383 80.8515C126.237 80.1695 126.237 79.0783 124.383 78.4043Z" fill="#D2AE6D"/>
<path opacity="0.1" d="M125.135 79.6239C125.135 79.6239 125.087 79.7362 124.934 79.8566C124.689 80.0266 124.418 80.1566 124.132 80.2417C123.127 80.5693 122.075 80.7292 121.019 80.7151C119.981 80.7348 118.947 80.5774 117.962 80.2497C117.699 80.159 117.452 80.0262 117.232 79.8566C117.079 79.7362 117.039 79.648 117.039 79.6239C117.039 79.5998 117.2 79.2949 117.962 79.0061C118.947 78.6784 119.981 78.5211 121.019 78.5407C122.075 78.524 123.127 78.6812 124.132 79.0061C124.942 79.2869 125.135 79.5677 125.135 79.6239Z" fill="#D2AE6D"/>
<path opacity="0.1" d="M125.135 79.6239C125.135 79.6239 125.087 79.7362 124.934 79.8566C124.689 80.0266 124.418 80.1566 124.132 80.2417C123.127 80.5693 122.075 80.7292 121.019 80.7151C119.981 80.7348 118.947 80.5774 117.962 80.2497C117.699 80.159 117.452 80.0262 117.232 79.8566C117.079 79.7362 117.039 79.648 117.039 79.6239C117.039 79.5998 117.2 79.2949 117.962 79.0061C118.947 78.6784 119.981 78.5211 121.019 78.5407C122.075 78.524 123.127 78.6812 124.132 79.0061C124.942 79.2869 125.135 79.5677 125.135 79.6239Z" fill="black"/>
<path d="M124.929 79.8565C124.684 80.0265 124.413 80.1565 124.127 80.2417C123.122 80.5693 122.07 80.7292 121.014 80.7151C119.976 80.7347 118.942 80.5773 117.957 80.2497C117.694 80.159 117.447 80.0262 117.227 79.8565C117.448 79.6902 117.694 79.5602 117.957 79.4714C118.942 79.1438 119.976 78.9864 121.014 79.006C122.07 78.9893 123.122 79.1466 124.127 79.4714C124.413 79.5566 124.684 79.6866 124.929 79.8565Z" fill="#D2AE6D"/>
<path d="M123.067 79.8971C123.174 79.8268 123.293 79.7784 123.419 79.755C123.544 79.7316 123.673 79.7335 123.798 79.7607C123.934 79.841 123.798 80.0255 123.557 80.1779C123.45 80.2512 123.33 80.3018 123.203 80.3266C123.076 80.3514 122.945 80.35 122.819 80.3224C122.658 80.2421 122.795 80.0576 123.067 79.8971Z" fill="#D2AE6D"/>
<path opacity="0.1" d="M123.067 79.8971C123.174 79.8268 123.293 79.7784 123.419 79.755C123.544 79.7316 123.673 79.7335 123.798 79.7607C123.934 79.841 123.798 80.0255 123.557 80.1779C123.45 80.2512 123.33 80.3018 123.203 80.3266C123.076 80.3514 122.945 80.35 122.819 80.3224C122.658 80.2421 122.795 80.0576 123.067 79.8971Z" fill="black"/>
<path d="M115.443 94.6765C115.443 95.2141 115.989 95.7597 117.048 96.1769C119.658 97.0053 122.461 97.0053 125.072 96.1769C126.195 95.7597 126.757 95.2221 126.757 94.6765L127.11 89.3809C127.11 89.9505 126.508 90.5282 125.312 90.9856C122.546 91.868 119.574 91.868 116.807 90.9856C115.652 90.5443 115.074 89.9666 115.074 89.3809L115.443 94.6765Z" fill="#D2AE6D"/>
<path opacity="0.4" d="M115.443 94.6765C115.443 95.2141 115.989 95.7597 117.048 96.1769C119.658 97.0053 122.461 97.0053 125.072 96.1769C126.195 95.7597 126.757 95.2221 126.757 94.6765L127.11 89.3809C127.11 89.9505 126.508 90.5282 125.312 90.9856C122.546 91.868 119.574 91.868 116.807 90.9856C115.652 90.5443 115.074 89.9666 115.074 89.3809L115.443 94.6765Z" fill="white"/>
<path d="M120.348 94.9897C120.171 94.7005 120.013 94.4003 119.874 94.0911C119.569 93.532 119.078 93.0976 118.486 92.8634C118.446 92.8516 118.404 92.853 118.364 92.8675C118.325 92.8819 118.292 92.9087 118.27 92.9437C118.155 93.3052 118.141 93.6913 118.23 94.0601C118.319 94.4289 118.507 94.7663 118.774 95.0358C119.041 95.3053 119.376 95.4965 119.744 95.5888C120.112 95.6811 120.499 95.671 120.861 95.5594C120.861 95.5594 120.901 95.4791 120.861 95.4631C120.661 95.3394 120.487 95.1788 120.348 94.9897Z" fill="#D2AE6D"/>
<path d="M118.824 92.703C119.144 92.8268 119.438 93.0091 119.691 93.2406C119.96 93.4792 120.176 93.7717 120.324 94.0991C120.495 94.5159 120.772 94.8809 121.127 95.1582C121.145 95.1719 121.166 95.1818 121.188 95.1872C121.21 95.1926 121.233 95.1935 121.256 95.1897C121.278 95.186 121.3 95.1777 121.319 95.1654C121.338 95.1531 121.355 95.137 121.368 95.1181C121.56 94.7531 121.622 94.3337 121.545 93.9284C121.468 93.5232 121.255 93.1562 120.942 92.8875C120.682 92.5929 120.337 92.3873 119.954 92.2995C119.571 92.2117 119.17 92.2462 118.808 92.3981C118.78 92.4132 118.756 92.436 118.741 92.4639C118.725 92.4918 118.717 92.5236 118.719 92.5556C118.721 92.5877 118.731 92.6185 118.75 92.6446C118.769 92.6707 118.794 92.691 118.824 92.703Z" fill="#D2AE6D"/>
</svg>
