<svg width="481" height="425" viewBox="0 0 481 425" fill="none" xmlns="http://www.w3.org/2000/svg">
<path d="M369.875 121.489H463.791C463.791 121.489 455.49 106.365 431.319 108.562C408.261 110.665 407.053 101.129 395.307 99.9629C383.561 98.7964 373.781 107.762 369.875 121.489Z" fill="#F5F5F5"/>
<path d="M34.1758 139.746H106.593C106.593 139.746 100.191 128.094 81.5542 129.79C63.7585 131.404 62.8497 124.052 53.8026 123.157C44.7556 122.262 37.2005 129.179 34.1758 139.746Z" fill="#EBEBEB"/>
<path d="M102.699 94.5647H186.157C186.157 94.5647 178.779 81.123 157.294 83.0897C136.785 84.948 135.741 76.4706 125.31 75.4398C114.88 74.4089 106.185 82.3844 102.699 94.5647Z" fill="#F5F5F5"/>
<path d="M78.8389 240.104C62.0062 238.083 44.7124 250.711 41.5113 267.354C39.5988 277.283 42.0267 288.297 37.0895 297.194C34.3768 302.118 29.643 305.604 25.7637 309.687C19.8888 316.02 15.8109 323.807 13.951 332.243C12.0911 340.679 12.5168 349.459 15.184 357.675C7.04567 360.388 1.41669 368.526 0.263768 377.031C-0.889156 385.535 1.85073 394.216 6.27254 401.581C10.6954 408.839 16.6687 415.029 23.7646 419.707C30.8605 424.385 38.9032 427.436 47.3166 428.641C55.744 429.73 64.3077 428.942 72.3951 426.334C80.4825 423.727 87.8936 419.364 94.0982 413.558" fill="#E0E0E0"/>
<path d="M51.6573 488.403C51.4675 488.403 51.3047 456.04 51.3047 416.122C51.3047 376.203 51.4675 343.827 51.6573 343.827C51.8472 343.827 52.01 376.19 52.01 416.122C52.01 456.054 51.8065 488.403 51.6573 488.403Z" fill="#EBEBEB"/>
<path d="M51.602 396.875C48.9499 393.553 46.4865 390.084 44.2233 386.485C41.763 383.02 39.4988 379.42 37.4414 375.702C40.0935 379.024 42.5569 382.493 44.8201 386.092C47.2805 389.557 49.5447 393.157 51.602 396.875Z" fill="#EBEBEB"/>
<path d="M297.027 67.8845H415.521C415.521 67.8845 405.036 48.8138 374.545 51.608C345.409 54.3207 343.931 42.2218 329.119 40.7569C314.308 39.292 301.965 50.6042 297.027 67.8845Z" fill="#EBEBEB"/>
<path d="M252.081 84.9475H177.398V115.1H252.081V84.9475Z" fill="#FF725E"/>
<g opacity="0.7">
<path d="M252.081 84.9475H177.398V115.1H252.081V84.9475Z" fill="black"/>
</g>
<path d="M278.842 84.9475H204.16V115.1H278.842V84.9475Z" fill="#FF725E"/>
<g opacity="0.4">
<path d="M278.842 84.9475H204.16V115.1H278.842V84.9475Z" fill="black"/>
</g>
<path d="M254.616 113.69H118.707V488.404H254.616V113.69Z" fill="#FF725E"/>
<g opacity="0.7">
<path d="M170.155 113.689H118.707V488.403H170.155V113.689Z" fill="black"/>
</g>
<path d="M342.171 113.69H206.262V488.404H342.171V113.69Z" fill="#FF725E"/>
<g opacity="0.4">
<path d="M342.172 113.69H170.156V488.404H342.172V113.69Z" fill="black"/>
</g>
<path d="M285.108 113.771C285.108 113.975 260.91 114.124 231.083 114.124C201.256 114.124 177.059 113.975 177.059 113.771C177.059 113.568 201.243 113.418 231.083 113.418C260.924 113.418 285.108 113.581 285.108 113.771Z" fill="#D2AE6D"/>
<path d="M240.581 139.8H194.816V246.235H240.581V139.8Z" fill="#FAFAFA"/>
<path d="M240.578 246.235C240.578 246.235 240.578 246.059 240.578 245.706C240.578 245.353 240.578 244.824 240.578 244.16C240.578 242.803 240.578 240.796 240.578 238.232C240.578 233.051 240.578 225.537 240.483 216.096C240.483 197.215 240.388 170.657 240.32 139.8L240.659 140.139H194.814L195.166 139.786C195.166 181.264 195.085 218.85 195.058 246.221L194.814 245.977L228.221 246.113H237.363H239.751H240.578C240.578 246.113 240.32 246.113 239.805 246.113H237.458L228.384 246.181L194.814 246.316H194.556V246.059C194.556 218.687 194.556 181.102 194.461 139.623V139.271H240.917V139.61C240.917 170.562 240.795 197.202 240.754 216.137C240.754 225.537 240.686 233.024 240.659 238.192C240.659 240.728 240.659 242.695 240.659 244.051C240.659 244.702 240.659 245.191 240.659 245.557C240.659 245.923 240.578 246.235 240.578 246.235Z" fill="#D2AE6D"/>
<path d="M241.31 161.57C241.31 161.773 230.757 161.922 217.75 161.922C204.742 161.922 194.176 161.773 194.176 161.57C194.176 161.366 204.728 161.217 217.75 161.217C230.771 161.217 241.31 161.38 241.31 161.57Z" fill="#D2AE6D"/>
<path d="M218.185 245.435C217.995 245.435 217.832 226.73 217.832 203.658C217.832 180.586 217.995 161.882 218.185 161.882C218.375 161.882 218.537 180.586 218.537 203.658C218.537 226.73 218.375 245.435 218.185 245.435Z" fill="#D2AE6D"/>
<path d="M323.143 139.8H277.379V246.235H323.143V139.8Z" fill="#FAFAFA"/>
<path d="M323.088 246.235C323.088 246.235 323.088 246.059 323.088 245.706C323.088 245.353 323.088 244.824 323.088 244.16C323.088 242.803 323.088 240.796 323.088 238.232C323.088 233.051 323.088 225.537 322.993 216.096C322.993 197.215 322.898 170.657 322.83 139.8L323.169 140.139H277.378L277.731 139.786C277.731 181.264 277.649 218.85 277.622 246.221L277.378 245.977L310.786 246.113H319.914H322.315H323.142C323.142 246.113 322.885 246.113 322.356 246.113H320.009L310.935 246.181L277.378 246.316H277.12V246.059C277.12 218.687 277.052 181.102 277.012 139.623V139.271H323.481V139.61C323.481 170.562 323.359 197.202 323.319 216.137C323.319 225.537 323.319 233.024 323.224 238.192C323.224 240.728 323.224 242.695 323.224 244.051C323.224 244.702 323.224 245.191 323.224 245.557C323.224 245.923 323.088 246.235 323.088 246.235Z" fill="#D2AE6D"/>
<path d="M323.873 161.57C323.873 161.773 313.32 161.922 300.299 161.922C287.277 161.922 276.738 161.773 276.738 161.57C276.738 161.366 287.291 161.217 300.299 161.217C313.306 161.217 323.873 161.38 323.873 161.57Z" fill="#D2AE6D"/>
<path d="M300.747 245.435C300.544 245.435 300.395 226.73 300.395 203.658C300.395 180.586 300.544 161.882 300.747 161.882C300.951 161.882 301.1 180.586 301.1 203.658C301.1 226.73 300.937 245.435 300.747 245.435Z" fill="#D2AE6D"/>
<path d="M240.581 269.389H194.816V375.824H240.581V269.389Z" fill="#FAFAFA"/>
<path d="M240.578 375.837C240.578 375.837 240.578 375.647 240.578 375.295C240.578 374.942 240.578 374.413 240.578 373.748C240.578 372.392 240.578 370.385 240.578 367.821C240.578 362.64 240.578 355.125 240.483 345.685C240.483 326.818 240.388 300.246 240.32 269.388L240.659 269.728H194.814L195.166 269.375C195.166 310.853 195.085 348.438 195.058 375.824L194.814 375.566L228.221 375.702L237.363 375.769H239.751C240.293 375.769 240.578 375.769 240.578 375.769H239.805H237.458L228.384 375.837L194.814 375.973H194.556V375.729C194.556 348.343 194.556 310.758 194.461 269.28V268.927H194.814H240.578H240.917V269.253C240.917 300.205 240.795 326.845 240.754 345.78C240.754 355.18 240.686 362.667 240.659 367.835C240.659 370.371 240.659 372.338 240.659 373.694C240.659 374.345 240.659 374.833 240.659 375.2C240.659 375.566 240.578 375.837 240.578 375.837Z" fill="#D2AE6D"/>
<path d="M241.31 291.158C241.31 291.362 230.757 291.511 217.75 291.511C204.742 291.511 194.176 291.362 194.176 291.158C194.176 290.955 204.728 290.806 217.75 290.806C230.771 290.806 241.31 290.968 241.31 291.158Z" fill="#D2AE6D"/>
<path d="M218.185 374.969C217.995 374.969 217.832 356.265 217.832 333.193C217.832 310.121 217.995 291.416 218.185 291.416C218.375 291.416 218.537 310.121 218.537 333.193C218.537 356.265 218.375 374.969 218.185 374.969Z" fill="#D2AE6D"/>
<path d="M323.143 269.389H277.379V375.824H323.143V269.389Z" fill="#FAFAFA"/>
<path d="M323.088 375.837C323.088 375.837 323.088 375.647 323.088 375.295C323.088 374.942 323.088 374.413 323.088 373.748C323.088 372.392 323.088 370.385 323.088 367.821C323.088 362.64 323.088 355.125 322.993 345.685C322.993 326.818 322.898 300.246 322.83 269.388L323.169 269.728H277.378L277.731 269.375C277.731 310.853 277.649 348.438 277.622 375.824L277.378 375.566L310.786 375.702L319.914 375.769H322.315C322.844 375.769 323.142 375.769 323.142 375.769H322.356H320.009L310.935 375.837L277.378 375.973H277.12V375.729C277.12 348.343 277.052 310.758 277.012 269.28V268.927H277.378H323.142H323.481V269.253C323.481 300.205 323.359 326.845 323.319 345.78C323.319 355.18 323.319 362.667 323.224 367.835C323.224 370.371 323.224 372.338 323.224 373.694C323.224 374.345 323.224 374.833 323.224 375.2C323.224 375.566 323.088 375.837 323.088 375.837Z" fill="#D2AE6D"/>
<path d="M323.873 291.158C323.873 291.362 313.32 291.511 300.299 291.511C287.277 291.511 276.738 291.362 276.738 291.158C276.738 290.955 287.291 290.806 300.299 290.806C313.306 290.806 323.873 290.968 323.873 291.158Z" fill="#D2AE6D"/>
<path d="M300.747 374.969C300.544 374.969 300.395 356.265 300.395 333.193C300.395 310.121 300.544 291.416 300.747 291.416C300.951 291.416 301.1 310.121 301.1 333.193C301.1 356.265 300.937 374.969 300.747 374.969Z" fill="#D2AE6D"/>
<path d="M260.217 488.403C260.217 488.403 260.217 488.254 260.217 487.969C260.217 487.684 260.217 487.264 260.217 486.749C260.217 485.636 260.217 484.063 260.217 482.028C260.217 477.891 260.217 471.91 260.122 464.395C260.122 449.367 260.027 428.18 259.973 403.507L260.298 403.833H219.607C219.526 403.901 220.272 403.168 219.96 403.494V415.701C219.96 419.703 219.96 423.663 219.96 427.543C219.96 435.315 219.96 442.829 219.96 450.004C219.96 464.355 219.96 477.362 219.96 488.43L219.702 488.173L249.366 488.308H257.504H259.634H260.38H259.688H257.613L249.474 488.376L219.634 488.512H219.376V488.254C219.376 477.186 219.376 464.178 219.309 449.828C219.309 442.653 219.309 435.138 219.309 427.366V403.521L219.661 403.155H260.556V403.453C260.488 428.221 260.434 449.475 260.393 464.572C260.393 472.045 260.326 478 260.298 482.123C260.298 484.131 260.298 485.677 260.298 486.776C260.298 487.278 260.298 487.671 260.298 487.956C260.29 488.108 260.262 488.258 260.217 488.403Z" fill="#D2AE6D"/>
<path d="M300.881 488.403C300.869 488.259 300.869 488.114 300.881 487.969C300.881 487.671 300.881 487.264 300.881 486.748C300.881 485.636 300.881 484.063 300.881 482.028C300.881 477.891 300.881 471.91 300.786 464.395C300.786 449.367 300.691 428.18 300.623 403.507L300.962 403.833H260.271C260.176 403.901 260.936 403.168 260.61 403.494V427.488C260.61 435.26 260.61 442.775 260.61 449.95C260.61 464.3 260.61 477.308 260.61 488.376L260.352 488.118L290.016 488.254H298.155H300.284H301.03H300.339H298.25L290.193 488.322L260.352 488.458H260.095V488.2C260.095 477.132 260.095 464.124 260.027 449.774C260.027 442.598 260.027 435.084 260.027 427.312C260.027 423.433 260.027 419.472 260.027 415.471V403.263C259.715 403.575 260.447 402.816 260.393 402.897H301.369V403.453C301.302 428.221 301.247 449.475 301.207 464.572C301.207 472.045 301.139 478 301.125 482.123C301.125 484.131 301.125 485.677 301.125 486.776V487.956C301.054 488.11 300.973 488.26 300.881 488.403Z" fill="#D2AE6D"/>
<path d="M542.666 69.4849H443.609V488.376H542.666V69.4849Z" fill="#FF725E"/>
<path d="M492.182 98.8367H462.07V156.849H492.182V98.8367Z" fill="#E0E0E0"/>
<path d="M477.966 156.863C477.776 156.863 477.613 143.869 477.613 127.85C477.613 111.831 477.776 98.8367 477.966 98.8367C478.156 98.8367 478.319 111.831 478.319 127.85C478.319 143.869 478.156 156.863 477.966 156.863Z" fill="#FF725E"/>
<path d="M492.168 118.993C492.168 119.196 485.387 119.345 477.126 119.345C468.866 119.345 462.07 119.196 462.07 118.993C462.07 118.789 468.852 118.64 477.126 118.64C485.4 118.64 492.168 118.803 492.168 118.993Z" fill="#FF725E"/>
<path d="M492.332 139.745C492.332 139.935 485.55 140.098 477.154 140.098C468.758 140.098 461.977 139.935 461.977 139.745C461.977 139.556 468.758 139.393 477.154 139.393C485.55 139.393 492.332 139.556 492.332 139.745Z" fill="#FF725E"/>
<path opacity="0.3" d="M512.066 69.4849H443.609V488.376H512.066V69.4849Z" fill="black"/>
<path d="M405.35 181.549C405.79 182.506 405.834 183.598 405.472 184.587C405.099 185.569 404.996 186.632 405.174 187.666C405.35 188.317 405.784 188.874 405.96 189.525C406.136 190.154 406.08 190.825 405.801 191.415C405.522 192.006 405.039 192.476 404.441 192.739L399.016 190.284C400.398 187.861 401.284 185.187 401.62 182.417" fill="#FF725E"/>
<g opacity="0.5">
<path d="M405.35 181.55C405.79 182.506 405.834 183.599 405.472 184.588C405.099 185.569 404.996 186.632 405.174 187.667C405.35 188.318 405.784 188.874 405.96 189.525C406.136 190.154 406.08 190.825 405.801 191.416C405.522 192.007 405.039 192.477 404.441 192.74L399.016 190.285C400.398 187.862 401.284 185.187 401.62 182.418" fill="black"/>
</g>
<path d="M391.149 180.288C392.764 180.668 390.078 183.381 390.2 185.036C390.505 186.672 390.402 188.358 389.902 189.946C386.638 189.989 383.411 189.254 380.488 187.803C381.248 184.588 381.994 181.36 382.753 178.132C382.767 178.132 389.712 179.949 391.149 180.288Z" fill="#FF725E"/>
<path d="M477.973 153.459H428.289V225.266H477.973V153.459Z" fill="#D2AE6D"/>
<path d="M522.661 153.459H472.977V225.266H522.661V153.459Z" fill="#455A64"/>
<path d="M573.812 212.584C573.812 212.584 573.812 212.258 573.812 211.648C573.812 211.037 573.812 210.074 573.812 208.867C573.812 206.385 573.812 202.777 573.73 198.016L573.893 198.179C552.828 198.288 508.787 198.369 457.841 198.369C405.525 198.369 360.399 198.288 339.836 198.165L339.985 198.016C339.985 202.085 339.985 205.246 339.917 207.416C339.917 208.46 339.917 209.261 339.917 209.83C339.917 210.4 339.917 210.644 339.917 210.644C339.917 210.644 339.917 210.373 339.917 209.83C339.917 209.288 339.917 208.474 339.917 207.416C339.917 205.246 339.917 202.099 339.917 198.016V197.867H340.066C360.575 197.745 405.702 197.664 458.072 197.664C508.963 197.664 553.018 197.745 574.124 197.853H574.015V198.016C574.015 202.723 573.947 206.331 573.934 208.867C573.934 210.074 573.934 210.983 573.934 211.648C573.934 212.312 573.812 212.584 573.812 212.584Z" fill="#D2AE6D"/>
<path d="M347.309 212.204C346.96 209.92 346.842 207.607 346.956 205.3C346.842 202.992 346.96 200.679 347.309 198.396C347.665 200.679 347.783 202.992 347.661 205.3C347.783 207.607 347.665 209.921 347.309 212.204Z" fill="#D2AE6D"/>
<path d="M356.277 212.204C355.929 209.92 355.811 207.607 355.925 205.3C355.811 202.992 355.929 200.679 356.277 198.396C356.625 200.679 356.744 202.992 356.63 205.3C356.744 207.607 356.625 209.92 356.277 212.204Z" fill="#D2AE6D"/>
<path d="M374.191 212.204C374.14 211.913 374.117 211.618 374.123 211.322C374.123 210.685 374.123 209.844 374.123 208.813C374.123 206.548 374.123 203.387 374.015 199.508C374.015 191.56 373.933 180.641 373.893 168.311L374.245 168.65H369.796H365.293L365.632 168.298C365.632 180.505 365.551 191.465 365.524 199.4C365.524 203.279 365.442 206.426 365.415 208.677C365.415 209.722 365.415 210.549 365.347 211.187C365.37 211.48 365.37 211.775 365.347 212.068C365.288 211.778 365.265 211.482 365.279 211.187C365.279 210.549 365.279 209.722 365.279 208.677C365.279 206.426 365.212 203.252 365.171 199.4C365.171 191.465 365.171 180.546 365.062 168.298V167.945H365.415H369.932H374.381H374.733V168.311C374.733 180.519 374.652 191.492 374.625 199.508C374.625 203.401 374.544 206.548 374.516 208.813C374.516 209.844 374.516 210.685 374.516 211.322C374.438 211.626 374.329 211.922 374.191 212.204Z" fill="#D2AE6D"/>
<path d="M383.157 212.204C382.801 209.921 382.682 207.607 382.804 205.3C382.682 202.992 382.801 200.679 383.157 198.396C383.505 200.679 383.623 202.992 383.51 205.3C383.623 207.607 383.505 209.92 383.157 212.204Z" fill="#D2AE6D"/>
<path d="M392.109 212.204C391.761 209.92 391.643 207.607 391.757 205.3C391.643 202.992 391.761 200.679 392.109 198.396C392.466 200.679 392.584 202.992 392.462 205.3C392.584 207.607 392.466 209.921 392.109 212.204Z" fill="#D2AE6D"/>
<path d="M401.078 212.204C400.73 209.92 400.612 207.607 400.725 205.3C400.612 202.992 400.73 200.679 401.078 198.396C401.426 200.679 401.544 202.992 401.431 205.3C401.544 207.607 401.426 209.92 401.078 212.204Z" fill="#D2AE6D"/>
<path d="M410.04 212.204C409.683 209.921 409.565 207.607 409.687 205.3C409.565 202.992 409.683 200.679 410.04 198.396C410.388 200.679 410.506 202.992 410.392 205.3C410.506 207.607 410.388 209.92 410.04 212.204Z" fill="#D2AE6D"/>
<path d="M418.996 212.204C418.648 209.92 418.53 207.607 418.643 205.3C418.53 202.992 418.648 200.679 418.996 198.396C419.352 200.679 419.47 202.992 419.349 205.3C419.47 207.607 419.352 209.921 418.996 212.204Z" fill="#D2AE6D"/>
<path d="M427.961 212.204C427.613 209.92 427.495 207.607 427.608 205.3C427.495 202.992 427.613 200.679 427.961 198.396C428.309 200.679 428.427 202.992 428.314 205.3C428.427 207.607 428.309 209.92 427.961 212.204Z" fill="#D2AE6D"/>
<path d="M436.927 212.204C436.562 209.922 436.439 207.608 436.561 205.3C436.439 202.992 436.562 200.678 436.927 198.396C437.275 200.679 437.394 202.992 437.28 205.3C437.394 207.607 437.275 209.92 436.927 212.204Z" fill="#D2AE6D"/>
<path d="M445.879 212.204C445.531 209.92 445.413 207.607 445.526 205.3C445.413 202.992 445.531 200.679 445.879 198.396C446.235 200.679 446.353 202.992 446.232 205.3C446.353 207.607 446.235 209.921 445.879 212.204Z" fill="#D2AE6D"/>
<path d="M454.844 212.204C454.488 209.921 454.37 207.607 454.492 205.3C454.37 202.992 454.488 200.679 454.844 198.396C455.193 200.679 455.311 202.992 455.197 205.3C455.311 207.607 455.193 209.92 454.844 212.204Z" fill="#D2AE6D"/>
<path d="M463.793 212.204C463.445 209.92 463.327 207.607 463.44 205.3C463.327 202.992 463.445 200.679 463.793 198.396C464.149 200.679 464.267 202.992 464.146 205.3C464.267 207.607 464.149 209.921 463.793 212.204Z" fill="#D2AE6D"/>
<path d="M472.762 212.204C472.414 209.92 472.295 207.607 472.409 205.3C472.295 202.992 472.414 200.679 472.762 198.396C473.11 200.679 473.228 202.992 473.114 205.3C473.228 207.607 473.11 209.92 472.762 212.204Z" fill="#D2AE6D"/>
<path d="M573.809 210.766C573.809 210.956 546.152 211.118 512.053 211.118C477.953 211.118 450.297 210.956 450.297 210.766C450.297 210.576 477.94 210.413 512.053 210.413C546.166 210.413 573.809 210.576 573.809 210.766Z" fill="#D2AE6D"/>
<path d="M573.812 210.766H367.805V488.431H573.812V210.766Z" fill="#455A64"/>
<path d="M450.299 210.766H339.809V488.431H450.299V210.766Z" fill="#D2AE6D"/>
<path d="M504.962 361.419H467.281V399.099H504.962V361.419Z" fill="#EBEBEB"/>
<path d="M512.042 374.047C512.042 374.25 501.083 374.4 487.559 374.4C474.036 374.4 463.145 374.25 463.145 374.047C463.145 373.844 474.104 373.694 487.559 373.694C501.015 373.694 512.042 373.857 512.042 374.047Z" fill="#455A64"/>
<path d="M504.962 301.887H467.281V339.568H504.962V301.887Z" fill="#EBEBEB"/>
<path d="M512.042 314.529C512.042 314.719 501.083 314.882 487.559 314.882C474.036 314.882 463.145 314.719 463.145 314.529C463.145 314.339 474.104 314.176 487.559 314.176C501.015 314.176 512.042 314.325 512.042 314.529Z" fill="#455A64"/>
<path d="M504.962 242.22H467.281V279.901H504.962V242.22Z" fill="#EBEBEB"/>
<path d="M512.042 254.862C512.042 255.052 501.083 255.215 487.559 255.215C474.036 255.215 463.145 255.052 463.145 254.862C463.145 254.672 474.104 254.51 487.559 254.51C501.015 254.51 512.042 254.672 512.042 254.862Z" fill="#455A64"/>
<g opacity="0.7">
<path d="M412.458 242.22H374.777V279.9H412.458V242.22Z" fill="white"/>
</g>
<path d="M393.614 283.685C393.411 283.685 393.262 273.946 393.262 261.983C393.262 250.02 393.411 240.281 393.614 240.281C393.818 240.281 393.967 250.02 393.967 261.983C393.967 273.946 393.804 283.685 393.614 283.685Z" fill="#D2AE6D"/>
<path d="M419.538 254.862C419.538 255.052 408.579 255.215 395.055 255.215C381.532 255.215 370.641 255.052 370.641 254.862C370.641 254.672 381.6 254.51 395.055 254.51C408.511 254.51 419.538 254.672 419.538 254.862Z" fill="#D2AE6D"/>
<g opacity="0.7">
<path d="M412.458 302.485H374.777V340.165H412.458V302.485Z" fill="white"/>
</g>
<path d="M393.614 343.936C393.411 343.936 393.262 334.197 393.262 322.234C393.262 310.27 393.411 300.531 393.614 300.531C393.818 300.531 393.967 310.27 393.967 322.234C393.967 334.197 393.804 343.936 393.614 343.936Z" fill="#D2AE6D"/>
<path d="M419.538 315.112C419.538 315.302 408.579 315.465 395.055 315.465C381.532 315.465 370.641 315.302 370.641 315.112C370.641 314.923 381.6 314.76 395.055 314.76C408.511 314.76 419.538 314.923 419.538 315.112Z" fill="#D2AE6D"/>
<g opacity="0.7">
<path d="M412.458 362.735H374.777V400.415H412.458V362.735Z" fill="white"/>
</g>
<path d="M393.614 404.186C393.411 404.186 393.262 394.461 393.262 382.484C393.262 370.507 393.411 360.782 393.614 360.782C393.818 360.782 393.967 370.521 393.967 382.484C393.967 394.447 393.804 404.186 393.614 404.186Z" fill="#D2AE6D"/>
<path d="M419.538 375.363C419.538 375.553 408.579 375.716 395.055 375.716C381.532 375.716 370.641 375.553 370.641 375.363C370.641 375.173 381.6 375.01 395.055 375.01C408.511 375.01 419.538 375.173 419.538 375.363Z" fill="#D2AE6D"/>
<path d="M480.996 405.868C480.996 405.868 480.996 405.705 480.996 405.393C480.996 405.081 480.996 404.579 480.996 404.037C480.996 402.775 480.996 401.12 480.996 399.086L481.078 399.181H459.091C459.159 399.181 458.955 399.33 459.24 399.045V402.477C459.24 403.603 459.24 404.715 459.24 405.786L459.104 405.651L474.798 405.719H479.409H481.091C480.956 405.734 480.82 405.734 480.684 405.719H479.464H474.893H459.104H458.969V398.842L459.104 398.706H481.091H481.186V398.801C481.186 400.849 481.186 402.531 481.186 403.806C481.186 404.321 481.186 404.756 481.186 405.162C481.186 405.569 480.996 405.868 480.996 405.868Z" fill="#D2AE6D"/>
<path d="M467.279 350.772C467.279 350.772 467.279 350.596 467.279 350.297C467.279 349.999 467.279 349.47 467.279 348.941C467.279 347.679 467.279 346.011 467.279 343.99L467.374 344.071H445.387L445.522 343.936V350.718L445.387 350.582H461.067H465.678H466.926H465.719H461.134L445.36 350.65H445.156V350.514C445.156 349.443 445.156 348.33 445.156 347.205V343.773L445.305 343.624H467.292H467.374V343.719C467.374 345.767 467.374 347.449 467.374 348.724C467.374 349.239 467.374 349.673 467.374 350.08C467.374 350.487 467.279 350.772 467.279 350.772Z" fill="#D2AE6D"/>
<path d="M483.748 228.182C483.748 228.182 483.748 228.006 483.748 227.694V226.337C483.748 225.062 483.748 223.407 483.748 221.373L483.83 221.468H461.856C461.856 221.468 461.707 221.603 461.992 221.319V228.101L461.856 227.951L477.536 228.019H482.148H483.396H483.83H482.216H477.631H461.856H461.707V221.427L461.856 221.292H483.83H483.925V221.373C483.925 223.435 483.925 225.103 483.925 226.392C483.925 226.893 483.925 227.327 483.925 227.748C483.925 228.168 483.748 228.182 483.748 228.182Z" fill="#D2AE6D"/>
<path d="M457.841 357.404C457.841 357.404 457.841 357.242 457.841 356.93C457.841 356.618 457.841 356.116 457.841 355.573C457.841 354.312 457.841 352.644 457.841 350.623L457.922 350.704H435.935C436.003 350.704 435.8 350.853 436.085 350.568V354C436.085 355.126 436.085 356.238 436.085 357.31L435.949 357.174H451.642H456.254H457.502H456.281H451.71H435.922H435.664V350.297C435.949 350.012 435.745 350.216 435.8 350.148H457.787H457.882V350.243C457.882 352.291 457.882 353.973 457.882 355.248C457.882 355.763 457.882 356.197 457.882 356.604C457.882 357.011 457.841 357.404 457.841 357.404Z" fill="#D2AE6D"/>
<path d="M467.279 234.95C467.279 234.95 467.279 234.773 467.279 234.475C467.279 234.177 467.279 233.648 467.279 233.119C467.279 231.844 467.279 230.189 467.279 228.168L467.374 228.249H445.387C445.387 228.249 445.238 228.385 445.522 228.114V234.896L445.387 234.76H461.067H465.678H466.858H467.306H465.678H461.094L445.319 234.828H445.156V234.692C445.156 233.607 445.156 232.508 445.156 231.369V227.937L445.305 227.788H467.292H467.374V227.883C467.374 229.927 467.374 231.595 467.374 232.888C467.374 233.403 467.374 233.838 467.374 234.244C467.374 234.651 467.279 234.95 467.279 234.95Z" fill="#D2AE6D"/>
<path d="M445.55 170.156C445.341 170.358 445.109 170.536 444.858 170.685C444.384 171.011 443.706 171.512 442.783 172.041C440.174 173.659 437.455 175.091 434.645 176.328C425.393 180.463 415.35 182.527 405.217 182.377C395.085 182.227 385.107 179.866 375.981 175.459C373.224 174.144 370.564 172.634 368.019 170.943C367.111 170.359 366.46 169.844 365.999 169.505C365.752 169.352 365.524 169.17 365.32 168.962C365.581 169.086 365.83 169.231 366.066 169.396C366.555 169.681 367.246 170.17 368.169 170.753C370.756 172.348 373.437 173.784 376.198 175.053C385.297 179.296 395.19 181.565 405.229 181.713C415.267 181.86 425.222 179.881 434.441 175.907C437.233 174.715 439.951 173.356 442.58 171.838C443.529 171.323 444.221 170.861 444.723 170.59C444.982 170.415 445.259 170.27 445.55 170.156Z" fill="#D2AE6D"/>
<path d="M442.729 167.999C442.547 168.162 442.347 168.303 442.132 168.42L440.314 169.518L438.958 170.292C438.47 170.563 437.914 170.821 437.33 171.119C436.15 171.675 434.848 172.394 433.261 172.964L430.86 173.927C430.02 174.252 429.111 174.496 428.148 174.808C426.187 175.447 424.195 175.986 422.18 176.422C412.91 178.455 403.317 178.52 394.021 176.612C391.892 176.124 389.871 175.704 388.026 175.08C387.104 174.795 386.195 174.551 385.313 174.239L382.899 173.303C381.512 172.777 380.154 172.18 378.83 171.512C378.233 171.227 377.677 170.983 377.189 170.726L375.832 169.952L374.001 168.881C373.777 168.773 373.571 168.632 373.391 168.46C373.632 168.533 373.864 168.633 374.082 168.759L375.954 169.708L377.311 170.414C377.812 170.658 378.369 170.888 378.965 171.16C380.159 171.661 381.488 172.326 383.035 172.842L385.449 173.723C386.29 174.022 387.199 174.239 388.162 174.523C389.993 175.12 392.014 175.514 394.116 175.975C398.722 176.851 403.398 177.305 408.087 177.331C412.767 177.26 417.43 176.756 422.017 175.826C424.119 175.324 426.086 174.903 427.958 174.293C428.867 173.994 429.762 173.764 430.603 173.452L433.004 172.543C434.55 172.001 435.866 171.322 437.073 170.793C437.656 170.522 438.212 170.292 438.714 170.034L440.07 169.315L441.929 168.338C442.174 168.181 442.445 168.066 442.729 167.999Z" fill="#D2AE6D"/>
<path d="M405.458 181.685C404.639 182.31 403.977 183.117 403.523 184.042C403.068 184.967 402.835 185.985 402.841 187.016C402.905 188.304 402.707 189.591 402.257 190.8C401.879 191.364 401.366 191.825 400.764 192.14C400.162 192.455 399.491 192.615 398.812 192.604C397.454 192.558 396.114 192.278 394.852 191.776C396.305 190.143 397.302 188.154 397.741 186.012C397.856 185.092 398.051 184.185 398.324 183.299C398.457 182.864 398.688 182.464 398.998 182.13C399.308 181.797 399.69 181.538 400.114 181.373L405.458 181.685Z" fill="#FF725E"/>
<path d="M415.142 180.885C414.58 181.144 414.091 181.538 413.719 182.033C413.347 182.528 413.104 183.108 413.013 183.72C412.863 184.968 412.863 186.229 413.013 187.477C413.147 188.729 412.926 189.994 412.375 191.126C415.276 191.609 418.255 191.011 420.744 189.444C419.772 186.297 420.049 182.897 421.517 179.949C421.517 179.949 421.598 179.759 421.191 179.732C420.785 179.705 415.142 180.885 415.142 180.885Z" fill="#FF725E"/>
<path d="M264.339 356.128H206.68V488.43H264.339V356.128Z" fill="#FF725E"/>
<g opacity="0.3">
<path d="M264.336 356.129H206.676V488.43H264.336V356.129Z" fill="black"/>
</g>
<path d="M193.195 355.586H335.439L362.024 317.851L389.884 356.657L422.627 356.128L387.334 308.601L236.911 309.225L193.195 355.586Z" fill="#FF725E"/>
<g opacity="0.3">
<path d="M193.195 355.586H335.439L362.024 317.851L389.884 356.657L422.627 356.128L387.334 308.601L236.911 309.225L193.195 355.586Z" fill="black"/>
</g>
<path d="M264.324 356.129V488.43H406.378V356.129H390.101L362.024 317.852L335.358 355.546L264.324 356.129Z" fill="#FF725E"/>
<path d="M389.882 364.565H337.539V396.983H389.882V364.565Z" fill="white"/>
<path d="M314.155 364.85H281.141V396.101H314.155V364.85Z" fill="white"/>
<path d="M352.65 397.281C352.46 397.281 352.297 389.957 352.297 380.923C352.297 371.89 352.46 364.565 352.65 364.565C352.839 364.565 353.002 371.89 353.002 380.923C353.002 389.957 352.921 397.281 352.65 397.281Z" fill="#FF725E"/>
<path d="M374.423 397.281C374.233 397.281 374.07 389.957 374.07 380.923C374.07 371.89 374.233 364.565 374.423 364.565C374.613 364.565 374.776 371.89 374.776 380.923C374.776 389.957 374.626 397.281 374.423 397.281Z" fill="#FF725E"/>
<path d="M374.421 381.913C370.815 382.261 367.191 382.379 363.57 382.266C359.949 382.379 356.325 382.261 352.719 381.913C356.324 381.558 359.949 381.44 363.57 381.561C367.191 381.44 370.816 381.557 374.421 381.913Z" fill="#FF725E"/>
<path d="M297.65 396.115C297.46 396.115 297.297 389.116 297.297 380.476C297.297 371.836 297.46 364.85 297.65 364.85C297.839 364.85 298.002 371.849 298.002 380.476C298.002 389.102 297.853 396.115 297.65 396.115Z" fill="#FF725E"/>
<path d="M314.155 381.249C314.155 381.439 306.763 381.602 297.648 381.602C288.533 381.602 281.141 381.439 281.141 381.249C281.141 381.059 288.533 380.896 297.648 380.896C306.763 380.896 314.155 381.059 314.155 381.249Z" fill="#FF725E"/>
<path d="M368.943 343.107C368.94 344.491 368.528 345.843 367.757 346.992C366.986 348.141 365.892 349.036 364.613 349.564C363.334 350.092 361.927 350.228 360.57 349.957C359.214 349.685 357.968 349.017 356.99 348.038C356.013 347.059 355.348 345.812 355.079 344.454C354.81 343.097 354.949 341.69 355.479 340.412C356.01 339.134 356.907 338.042 358.057 337.274C359.208 336.505 360.561 336.095 361.944 336.095C362.864 336.095 363.776 336.276 364.626 336.629C365.476 336.982 366.248 337.498 366.898 338.15C367.548 338.801 368.063 339.574 368.414 340.425C368.765 341.276 368.945 342.187 368.943 343.107Z" fill="white"/>
<path d="M312.017 334.521L320.847 323.616V297.411H302.359V334.725L312.017 334.521Z" fill="#FF725E"/>
<g opacity="0.3">
<path d="M312.016 334.521V297.411H320.846V323.616L312.016 334.521Z" fill="black"/>
</g>
<path d="M322.107 293.559H300.297V297.411H322.107V293.559Z" fill="#FF725E"/>
<path d="M193.195 355.586V359.424H335.358V355.545L193.195 355.586Z" fill="#FF725E"/>
<path d="M335.359 359.425L361.944 322.097L362.026 317.852L335.441 355.586L335.359 359.425Z" fill="#FF725E"/>
<path d="M421.949 356.128H390.102V358.597H421.949V356.128Z" fill="#FF725E"/>
<path d="M306.293 422.279H294.547V426.742H306.293V422.279Z" fill="#D2AE6D"/>
<path d="M288.306 409.285C288.295 409.15 288.295 409.014 288.306 408.878C288.306 408.539 288.306 408.159 288.306 407.725V403.453L288.4 403.548H269.411C269.479 403.48 269.276 403.683 269.547 403.399V409.204L269.411 409.068H282.894H286.868H287.939H286.936H282.989H269.425H269.289V403.453L269.425 403.317H288.414H288.495V403.453C288.495 405.203 288.495 406.64 288.495 407.78C288.495 408.2 288.495 408.58 288.495 408.905C288.495 409.231 288.306 409.285 288.306 409.285Z" fill="#D2AE6D"/>
<path d="M225.586 391.123C225.586 391.123 225.586 390.974 225.586 390.717C225.586 390.459 225.586 389.998 225.586 389.564C225.586 388.438 225.586 387.014 225.586 385.291L225.667 385.386H206.759C206.759 385.318 206.61 385.522 206.895 385.237V391.042L206.759 390.906H220.241H224.216H225.287C225.413 390.892 225.541 390.892 225.667 390.906H224.311H220.364L206.8 390.974H206.664V390.839C206.664 389.916 206.664 388.953 206.664 387.99V385.033L206.813 384.898H225.721H225.816V384.979C225.816 386.729 225.816 388.167 225.816 389.306C225.816 389.726 225.816 390.106 225.816 390.432C225.783 390.675 225.705 390.909 225.586 391.123Z" fill="#D2AE6D"/>
<path d="M236.912 385.278C236.9 385.142 236.9 385.006 236.912 384.871C236.912 384.532 236.912 384.152 236.912 383.718C236.912 382.606 236.912 381.181 236.912 379.459L237.007 379.554H218.085C218.085 379.554 217.949 379.703 218.234 379.418V382.348C218.234 383.324 218.234 384.274 218.234 385.196L218.099 385.061L231.595 385.128H235.555H237.02H236.667H235.623H231.676H218.112H217.977V379.201C218.261 378.916 218.058 379.12 218.112 379.052H237.034H237.129V379.147C237.129 380.897 237.129 382.334 237.129 383.46C237.129 383.894 237.129 384.26 237.129 384.599C237.08 384.833 237.008 385.06 236.912 385.278Z" fill="#D2AE6D"/>
<path d="M294.436 415.118C294.436 415.118 294.436 414.968 294.436 414.697C294.436 414.426 294.436 413.992 294.436 413.558C294.436 412.432 294.436 411.008 294.436 409.285L294.53 409.38H275.609L275.758 409.231V412.188C275.758 413.151 275.758 414.114 275.758 415.036L275.622 414.901H289.118H293.079H294.164C294.29 414.886 294.418 414.886 294.544 414.901H293.188H289.254L275.69 414.968H275.555V409.027L275.69 408.892H294.612H294.598V408.973C294.598 410.723 294.598 412.161 294.598 413.3C294.598 413.721 294.598 414.1 294.598 414.426C294.598 414.751 294.436 415.118 294.436 415.118Z" fill="#D2AE6D"/>
<path d="M406.38 425.304C406.38 425.304 406.38 425.155 406.38 424.897C406.38 424.64 406.38 424.178 406.38 423.744C406.38 422.619 406.38 421.208 406.38 419.485L406.462 419.567H387.554L387.689 419.431V425.236L387.554 425.101L401.036 425.169H405.01H406.462C406.344 425.182 406.226 425.182 406.109 425.169H405.065H401.131H387.567H387.418V419.228L387.567 419.078H406.475H406.57V419.173V423.487C406.57 423.921 406.57 424.287 406.57 424.612C406.554 424.853 406.49 425.089 406.38 425.304Z" fill="#D2AE6D"/>
<path d="M406.405 431.069C406.395 430.924 406.395 430.779 406.405 430.635V429.455C406.405 428.248 406.337 426.864 406.31 425.304L406.432 425.426H399.392L399.541 425.277V426.796C399.541 427.298 399.541 427.787 399.541 428.275C399.541 429.224 399.541 430.147 399.541 430.988L399.419 430.866H404.465H405.903H406.445C406.283 430.878 406.12 430.878 405.957 430.866H404.601H399.474H399.352V430.743C399.352 429.875 399.352 428.953 399.352 428.031C399.352 427.542 399.352 427.054 399.352 426.552V425.033L399.487 424.897H406.527H406.635V425.006C406.635 426.593 406.635 428.004 406.635 429.224C406.635 429.645 406.635 430.025 406.635 430.377C406.605 430.621 406.526 430.856 406.405 431.069Z" fill="#D2AE6D"/>
<path d="M359.449 415.104C359.437 414.969 359.437 414.833 359.449 414.697C359.449 414.358 359.449 413.978 359.449 413.544C359.449 412.432 359.449 411.008 359.449 409.285L359.53 409.38H340.622C340.69 409.38 340.473 409.529 340.758 409.244V415.05L340.622 414.914L354.105 414.982H358.079H359.544C359.426 414.994 359.308 414.994 359.191 414.982H358.147H354.199H340.636H340.5V414.846C340.5 413.924 340.5 412.975 340.5 411.998V409.041L340.649 408.892H359.557H359.652V408.987V413.3C359.652 413.734 359.652 414.1 359.652 414.439C359.652 414.779 359.449 415.118 359.449 415.104Z" fill="#D2AE6D"/>
<g opacity="0.2">
<path d="M368.902 403.453H349.98V409.272H368.902V403.453Z" fill="white"/>
</g>
<g opacity="0.2">
<path d="M406.948 375.688H396.273V381.507H406.948V375.688Z" fill="white"/>
</g>
<path d="M313.859 380.761C314.044 380.739 314.231 380.739 314.415 380.761H315.989H321.414L321.279 380.896V374.969L321.414 375.105H315.989H314.415C314.231 375.126 314.044 375.126 313.859 375.105C314.044 375.088 314.23 375.088 314.415 375.105H315.989H321.414H321.55V375.24C321.55 376.163 321.55 377.139 321.55 378.156C321.55 379.174 321.55 380.15 321.55 381.073V381.208H321.414H315.989H314.415L313.859 380.761Z" fill="#D2AE6D"/>
<path d="M168.317 148.657H146.927L70.3867 222.715V488.43H120.396L168.317 148.657Z" fill="#D2AE6D"/>
<path d="M121.751 364.321C121.739 364.204 121.739 364.086 121.751 363.969C121.751 363.711 121.751 363.372 121.751 362.965C121.751 362.043 121.751 360.768 121.751 359.126C121.751 355.763 121.751 350.988 121.656 344.939C121.656 332.88 121.561 316.075 121.493 296.869L121.846 297.221H103.724C104.43 296.516 103.928 297.045 104.077 296.896V307.041C104.077 310.378 104.077 313.66 104.077 316.862C104.077 323.277 104.077 329.408 104.077 335.159C104.077 346.634 104.009 356.604 103.982 364.308L103.765 364.091L116.99 364.213H120.543H121.466H121.791C121.697 364.225 121.601 364.225 121.506 364.213H120.611H117.112L103.765 364.335H103.548V364.118C103.548 356.414 103.548 346.485 103.453 334.969C103.453 329.218 103.453 323.087 103.453 316.672C103.453 313.471 103.453 310.188 103.453 306.851V296.706C103.616 296.543 103.1 297.031 103.806 296.326H122.09V296.665C122.09 315.966 121.981 332.867 121.94 344.979C121.94 350.947 121.859 355.735 121.846 359.086C121.846 360.686 121.846 361.948 121.846 362.843C121.846 363.236 121.846 363.562 121.846 363.806C121.846 364.05 121.751 364.335 121.751 364.321Z" fill="#455A64"/>
<path d="M121.388 303.311C118.45 303.66 115.488 303.778 112.531 303.664C109.579 303.778 106.622 303.66 103.688 303.311C106.622 302.962 109.579 302.845 112.531 302.959C115.488 302.845 118.45 302.963 121.388 303.311Z" fill="#455A64"/>
<path d="M121.388 308.846C118.451 309.211 115.489 309.334 112.531 309.212C109.578 309.334 106.62 309.211 103.688 308.846C106.622 308.497 109.579 308.379 112.531 308.493C115.488 308.379 118.45 308.497 121.388 308.846Z" fill="#455A64"/>
<path d="M121.388 314.393C118.45 314.742 115.488 314.86 112.531 314.746C109.579 314.86 106.622 314.742 103.688 314.393C106.621 314.036 109.579 313.918 112.531 314.041C115.488 313.919 118.45 314.037 121.388 314.393Z" fill="#455A64"/>
<path d="M121.388 319.927C118.45 320.283 115.488 320.401 112.531 320.279C109.579 320.401 106.621 320.284 103.688 319.927C106.622 319.578 109.579 319.46 112.531 319.574C115.488 319.46 118.45 319.578 121.388 319.927Z" fill="#455A64"/>
<path d="M121.388 325.475C118.45 325.823 115.488 325.941 112.531 325.827C109.579 325.941 106.622 325.823 103.688 325.475C106.621 325.118 109.579 325 112.531 325.122C115.488 325 118.45 325.118 121.388 325.475Z" fill="#455A64"/>
<path d="M121.388 331.008C118.45 331.357 115.488 331.475 112.531 331.361C109.579 331.475 106.622 331.357 103.688 331.008C106.622 330.66 109.579 330.542 112.531 330.656C115.488 330.542 118.45 330.66 121.388 331.008Z" fill="#455A64"/>
<path d="M121.388 336.542C118.45 336.899 115.488 337.017 112.531 336.895C109.579 337.017 106.621 336.899 103.688 336.542C106.622 336.194 109.579 336.076 112.531 336.19C115.488 336.076 118.45 336.194 121.388 336.542Z" fill="#455A64"/>
<path d="M121.388 342.09C118.45 342.439 115.488 342.557 112.531 342.443C109.579 342.557 106.622 342.439 103.688 342.09C106.621 341.734 109.579 341.616 112.531 341.738C115.488 341.616 118.45 341.734 121.388 342.09Z" fill="#455A64"/>
<path d="M121.388 347.624C118.45 347.981 115.488 348.099 112.531 347.977C109.579 348.099 106.621 347.981 103.688 347.624C106.622 347.275 109.579 347.158 112.531 347.272C115.488 347.158 118.45 347.276 121.388 347.624Z" fill="#455A64"/>
<path d="M121.388 353.172C118.45 353.52 115.488 353.638 112.531 353.525C109.579 353.639 106.622 353.521 103.688 353.172C106.62 352.806 109.578 352.684 112.531 352.806C115.489 352.684 118.451 352.806 121.388 353.172Z" fill="#455A64"/>
<path d="M121.388 358.693C118.45 359.041 115.488 359.159 112.531 359.045C109.579 359.159 106.622 359.041 103.688 358.693C106.622 358.344 109.579 358.226 112.531 358.34C115.488 358.226 118.45 358.344 121.388 358.693Z" fill="#455A64"/>
<path d="M120.887 433.781C120.875 433.664 120.875 433.546 120.887 433.429C120.887 433.171 120.887 432.832 120.887 432.425C120.887 431.503 120.887 430.228 120.887 428.586C120.887 425.222 120.887 420.448 120.792 414.399C120.792 402.34 120.697 385.535 120.643 366.328L120.982 366.681H102.874C103.566 365.976 103.064 366.505 103.213 366.356V386.321C103.213 392.737 103.213 398.868 103.213 404.619C103.213 416.094 103.132 426.063 103.105 433.768L102.888 433.551L116.112 433.673H119.666H120.588H120.914C120.914 433.673 120.819 433.673 120.629 433.673H119.747H116.248L102.888 433.795H102.671V433.578C102.671 425.874 102.671 415.945 102.576 404.429C102.576 398.678 102.576 392.547 102.576 386.132C102.576 382.931 102.576 379.648 102.576 376.311V366.166C102.738 366.003 102.223 366.491 102.942 365.786H121.239V366.125C121.239 385.44 121.117 402.327 121.077 414.439C121.077 420.407 120.995 425.195 120.982 428.546C120.982 430.146 120.982 431.408 120.982 432.303C120.982 432.71 120.982 433.022 120.982 433.266C120.982 433.51 120.9 433.795 120.887 433.781Z" fill="#455A64"/>
<path d="M120.521 372.771C117.583 373.128 114.621 373.246 111.664 373.124C108.711 373.246 105.754 373.128 102.82 372.771C105.754 372.423 108.711 372.305 111.664 372.419C114.621 372.304 117.582 372.422 120.521 372.771Z" fill="#455A64"/>
<path d="M120.521 378.319C117.582 378.668 114.621 378.786 111.664 378.672C108.711 378.786 105.754 378.668 102.82 378.319C105.753 377.953 108.711 377.831 111.664 377.953C114.621 377.831 117.584 377.953 120.521 378.319Z" fill="#455A64"/>
<path d="M120.521 383.853C117.582 384.202 114.621 384.32 111.664 384.206C108.711 384.32 105.754 384.202 102.82 383.853C105.754 383.504 108.711 383.386 111.664 383.5C114.621 383.386 117.582 383.504 120.521 383.853Z" fill="#455A64"/>
<path d="M120.521 389.388C117.583 389.745 114.621 389.863 111.664 389.74C108.711 389.862 105.754 389.744 102.82 389.388C105.754 389.039 108.711 388.921 111.664 389.035C114.621 388.921 117.582 389.039 120.521 389.388Z" fill="#455A64"/>
<path d="M120.521 394.935C117.582 395.284 114.621 395.402 111.664 395.288C108.711 395.402 105.754 395.284 102.82 394.935C105.754 394.578 108.711 394.46 111.664 394.582C114.621 394.46 117.583 394.578 120.521 394.935Z" fill="#455A64"/>
<path d="M120.521 400.469C117.582 400.818 114.621 400.936 111.664 400.821C108.711 400.935 105.754 400.817 102.82 400.469C105.754 400.12 108.711 400.002 111.664 400.116C114.621 400.002 117.582 400.12 120.521 400.469Z" fill="#455A64"/>
<path d="M120.521 406.003C117.583 406.36 114.621 406.478 111.664 406.355C108.711 406.478 105.754 406.36 102.82 406.003C105.754 405.654 108.711 405.536 111.664 405.65C114.621 405.536 117.582 405.654 120.521 406.003Z" fill="#455A64"/>
<path d="M120.521 411.591C117.582 411.94 114.621 412.058 111.664 411.944C108.711 412.058 105.754 411.94 102.82 411.591C105.754 411.234 108.711 411.117 111.664 411.239C114.621 411.116 117.583 411.234 120.521 411.591Z" fill="#455A64"/>
<path d="M120.521 417.084C117.583 417.441 114.621 417.559 111.664 417.437C108.711 417.559 105.754 417.441 102.82 417.084C105.754 416.736 108.711 416.618 111.664 416.732C114.621 416.617 117.582 416.735 120.521 417.084Z" fill="#455A64"/>
<path d="M120.521 422.632C117.582 422.981 114.621 423.099 111.664 422.985C108.711 423.099 105.754 422.981 102.82 422.632C105.754 422.275 108.711 422.158 111.664 422.28C114.621 422.157 117.583 422.275 120.521 422.632Z" fill="#455A64"/>
<path d="M217.922 488.281V222.715L168.197 156.741L120.398 222.715V488.43H217.922" fill="#455A64"/>
<path d="M192.693 487.549C192.693 487.549 192.693 487.44 192.693 487.21C192.693 486.979 192.693 486.626 192.693 486.206C192.693 485.283 192.693 483.981 192.693 482.313C192.693 478.881 192.693 473.971 192.585 467.84C192.585 455.457 192.517 438.203 192.463 418.441L192.802 418.78H154.077L154.43 418.441C154.43 438.203 154.335 455.47 154.308 467.84C154.308 473.971 154.226 478.881 154.199 482.327C154.199 483.981 154.199 485.283 154.199 486.206V487.21C154.217 487.322 154.217 487.436 154.199 487.549C154.199 487.549 154.199 487.44 154.199 487.21C154.199 486.979 154.199 486.626 154.199 486.206C154.199 485.283 154.199 483.981 154.199 482.327C154.199 478.881 154.199 473.971 154.091 467.84C154.091 455.47 154.091 438.203 153.969 418.441V418.088H193.304V418.441C193.304 438.203 193.209 455.457 193.182 467.84C193.182 473.971 193.1 478.881 193.073 482.313C193.073 483.981 193.073 485.283 193.073 486.206C193.073 486.626 193.073 486.952 193.073 487.21C192.976 487.351 192.845 487.468 192.693 487.549Z" fill="#D2AE6D"/>
<path d="M181.951 407.848H165.199V413.056H181.951V407.848Z" fill="#D2AE6D"/>
<path d="M166.799 327.658H136.688V385.671H166.799V327.658Z" fill="#E0E0E0"/>
<path d="M152.583 392.168C152.393 392.168 152.23 377.017 152.23 358.34C152.23 339.662 152.393 324.498 152.583 324.498C152.773 324.498 152.936 339.649 152.936 358.34C152.936 377.031 152.787 392.168 152.583 392.168Z" fill="#455A64"/>
<path d="M169.335 347.841C169.335 348.045 161.631 348.194 152.136 348.194C142.642 348.194 134.938 348.045 134.938 347.841C134.938 347.638 142.628 347.489 152.136 347.489C161.645 347.489 169.335 347.624 169.335 347.841Z" fill="#455A64"/>
<path d="M169.335 368.567C169.335 368.757 161.631 368.919 152.136 368.919C142.642 368.919 134.938 368.757 134.938 368.567C134.938 368.377 142.682 368.187 152.177 368.187C161.672 368.187 169.335 368.363 169.335 368.567Z" fill="#455A64"/>
<path d="M205.741 327.658H175.629V385.671H205.741V327.658Z" fill="#E0E0E0"/>
<path d="M191.513 392.168C191.309 392.168 191.16 377.017 191.16 358.34C191.16 339.662 191.309 324.498 191.513 324.498C191.716 324.498 191.865 339.649 191.865 358.34C191.865 377.031 191.73 392.168 191.513 392.168Z" fill="#455A64"/>
<path d="M208.277 347.841C208.277 348.045 200.572 348.194 191.078 348.194C181.583 348.194 173.879 348.018 173.879 347.841C173.879 347.665 181.583 347.489 191.078 347.489C200.572 347.489 208.277 347.624 208.277 347.841Z" fill="#455A64"/>
<path d="M208.277 368.567C208.277 368.756 200.572 368.919 191.078 368.919C181.583 368.919 173.879 368.756 173.879 368.567C173.879 368.377 181.583 368.214 191.078 368.214C200.572 368.214 208.277 368.363 208.277 368.567Z" fill="#455A64"/>
<path d="M166.799 245.041H136.688V303.054H166.799V245.041Z" fill="#E0E0E0"/>
<path d="M152.583 309.55C152.393 309.55 152.23 294.4 152.23 275.722C152.23 257.045 152.393 241.813 152.583 241.813C152.773 241.813 152.936 256.964 152.936 275.722C152.936 294.481 152.787 309.55 152.583 309.55Z" fill="#455A64"/>
<path d="M169.335 265.197C169.335 265.4 161.631 265.549 152.136 265.549C142.642 265.549 134.938 265.4 134.938 265.197C134.938 264.993 142.628 264.844 152.136 264.844C161.645 264.844 169.335 265.007 169.335 265.197Z" fill="#455A64"/>
<path d="M169.335 285.95C169.335 286.14 161.631 286.303 152.136 286.303C142.642 286.303 134.938 286.14 134.938 285.95C134.938 285.76 142.628 285.597 152.136 285.597C161.645 285.597 169.335 285.76 169.335 285.95Z" fill="#455A64"/>
<path d="M205.741 245.041H175.629V303.054H205.741V245.041Z" fill="#E0E0E0"/>
<path d="M191.513 309.55C191.309 309.55 191.16 294.4 191.16 275.722C191.16 257.045 191.309 241.813 191.513 241.813C191.716 241.813 191.865 256.964 191.865 275.722C191.865 294.481 191.73 309.55 191.513 309.55Z" fill="#455A64"/>
<path d="M208.277 265.197C208.277 265.4 200.572 265.549 191.078 265.549C181.583 265.549 173.879 265.4 173.879 265.197C173.879 264.993 181.583 264.844 191.078 264.844C200.572 264.844 208.277 265.007 208.277 265.197Z" fill="#455A64"/>
<path d="M208.277 285.95C208.277 286.14 200.572 286.303 191.078 286.303C181.583 286.303 173.879 286.14 173.879 285.95C173.879 285.76 181.583 285.597 191.078 285.597C200.572 285.597 208.277 285.76 208.277 285.95Z" fill="#455A64"/>
<path d="M120.383 362.965H96.6602V389.292H120.383V362.965Z" fill="#455A64"/>
<path d="M120.383 278.49H96.6602V304.817H120.383V278.49Z" fill="#455A64"/>
<path d="M182.26 219.794C188.013 213.173 187.31 203.141 180.689 197.387C174.067 191.633 164.035 192.336 158.282 198.957C152.528 205.579 153.231 215.611 159.852 221.365C166.474 227.119 176.506 226.415 182.26 219.794Z" fill="#E0E0E0"/>
<path d="M186.221 209.382C186.221 209.572 178.666 209.735 169.334 209.735C160.002 209.735 152.434 209.572 152.434 209.382C152.434 209.192 160.002 209.029 169.334 209.029C178.666 209.029 186.221 209.178 186.221 209.382Z" fill="#455A64"/>
<path d="M170.079 229.145C169.889 229.145 169.727 220.532 169.727 209.911C169.727 199.291 169.889 190.664 170.079 190.664C170.269 190.664 170.432 199.277 170.432 209.911C170.432 220.545 170.283 229.145 170.079 229.145Z" fill="#455A64"/>
<path d="M120.394 222.715H112.73L168.315 148.657L223.899 222.715H217.918L168.193 156.741L120.394 222.715Z" fill="#D2AE6D"/>
<path d="M96.6608 278.49H59.2383V304.817H96.6608V278.49Z" fill="#D2AE6D"/>
<path d="M96.6608 362.965H59.2383V389.292H96.6608V362.965Z" fill="#D2AE6D"/>
<path d="M96.6608 222.715H59.2383L116.925 148.657H168.318L96.6608 222.715Z" fill="#D2AE6D"/>
<path d="M98.64 389.685C98.64 389.875 89.6201 390.038 78.4977 390.038C67.3754 390.038 58.3555 389.875 58.3555 389.685C58.3555 389.496 67.3618 389.333 78.4977 389.333C89.6336 389.333 98.64 389.482 98.64 389.685Z" fill="#455A64"/>
<path d="M98.64 362.965C98.64 363.169 89.6201 363.318 78.4977 363.318C67.3754 363.318 58.3555 363.169 58.3555 362.965C58.3555 362.762 67.3618 362.613 78.4977 362.613C89.6336 362.613 98.64 362.762 98.64 362.965Z" fill="#455A64"/>
<path d="M98.64 305.4C98.64 305.604 89.6201 305.753 78.4977 305.753C67.3754 305.753 58.3555 305.604 58.3555 305.4C58.3555 305.197 67.3618 305.048 78.4977 305.048C89.6336 305.048 98.64 305.211 98.64 305.4Z" fill="#455A64"/>
<path d="M98.64 278.978C98.64 279.168 89.6201 279.331 78.4977 279.331C67.3754 279.331 58.3555 279.168 58.3555 278.978C58.3555 278.788 67.3618 278.625 78.4977 278.625C89.6336 278.625 98.64 278.774 98.64 278.978Z" fill="#455A64"/>
<path d="M149.53 409.991C149.53 409.991 149.53 409.828 149.53 409.516C149.53 409.204 149.53 408.702 149.53 408.16C149.53 406.898 149.53 405.243 149.53 403.209L149.625 403.304H127.638C127.638 403.304 127.502 403.453 127.787 403.168V406.6C127.787 407.726 127.787 408.838 127.787 409.909L127.651 409.774H143.331H147.956H149.191H149.638C149.503 409.79 149.366 409.79 149.231 409.774H148.011H143.426H127.651H127.516V402.897L127.651 402.761H149.638H149.733V402.856C149.733 404.904 149.733 406.586 149.733 407.861C149.733 408.377 149.733 408.811 149.733 409.218C149.733 409.625 149.53 409.991 149.53 409.991Z" fill="#D2AE6D"/>
<path d="M159.717 403.209C159.717 403.209 159.717 403.046 159.717 402.734C159.717 402.422 159.717 401.92 159.717 401.377C159.717 400.102 159.717 398.448 159.717 396.413L159.798 396.508H137.825C137.825 396.44 137.676 396.644 137.961 396.359V403.141L137.811 403.005H153.505H158.116H159.798C159.663 403.018 159.527 403.018 159.391 403.005H158.171H153.6H137.811H137.676V396.115C137.961 395.83 137.757 396.033 137.825 395.979H159.798H159.893V396.06C159.893 398.122 159.893 399.79 159.893 401.079C159.893 401.581 159.893 402.015 159.893 402.435C159.893 402.856 159.717 403.209 159.717 403.209Z" fill="#D2AE6D"/>
<path d="M151.77 327.659C151.77 327.659 151.77 327.496 151.77 327.184C151.77 326.872 151.77 326.37 151.77 325.828C151.77 324.566 151.77 322.911 151.77 320.877L151.865 320.972H129.878L130.013 320.836V327.618L129.878 327.482L145.558 327.55H150.169H151.444H150.237H145.653H129.878H129.742V327.414C129.742 326.343 129.742 325.231 129.742 324.105V320.673C130.027 320.388 129.824 320.592 129.891 320.538H151.878H151.96V320.633C151.96 322.681 151.96 324.363 151.96 325.638C151.96 326.153 151.96 326.587 151.96 326.994C151.96 327.401 151.77 327.659 151.77 327.659Z" fill="#D2AE6D"/>
<path d="M210.27 232.034C210.27 232.034 210.27 231.858 210.27 231.559C210.27 231.261 210.27 230.732 210.27 230.203C210.27 228.928 210.27 227.273 210.27 225.252L210.365 225.333H188.378L188.513 225.198V231.98L188.378 231.844H204.058H208.669H209.917H210.365H208.737H204.153L188.378 231.912H188.242V231.776C188.242 230.691 188.242 229.593 188.242 228.467V225.022L188.391 224.872H210.378H210.46V224.967C210.46 227.011 210.46 228.679 210.46 229.972C210.46 230.488 210.46 230.922 210.46 231.329C210.46 231.736 210.27 232.034 210.27 232.034Z" fill="#D2AE6D"/>
<path d="M156.055 193.892C156.055 193.892 156.055 193.716 156.055 193.417C156.055 193.119 156.055 192.59 156.055 192.061C156.055 190.799 156.055 189.131 156.055 187.11L156.136 187.191H134.149C134.149 187.191 134.014 187.341 134.299 187.056V190.487C134.299 191.613 134.299 192.726 134.299 193.797L134.163 193.661H149.856H154.468H155.716H154.522H149.951H134.163H134.027V186.785C134.312 186.5 134.109 186.703 134.163 186.635H156.15H156.245V186.73C156.245 188.778 156.245 190.46 156.245 191.735C156.245 192.251 156.245 192.685 156.245 193.092C156.245 193.499 156.055 193.892 156.055 193.892Z" fill="#D2AE6D"/>
<path d="M136.684 296.936C136.684 296.936 136.684 296.773 136.684 296.461C136.684 296.149 136.684 295.647 136.684 295.105C136.684 293.83 136.684 292.175 136.684 290.141L136.779 290.236H114.792C114.792 290.236 114.643 290.371 114.928 290.086V296.868L114.792 296.733L130.472 296.8H135.083H136.779H136.372H135.151H130.567L114.792 296.868H114.656V290.195C114.941 289.91 114.738 290.127 114.805 290.059H136.792H136.887V290.141C136.887 292.202 136.887 293.871 136.887 295.159C136.887 295.661 136.887 296.095 136.887 296.516C136.887 296.936 136.684 296.936 136.684 296.936Z" fill="#D2AE6D"/>
<path d="M127.912 290.059C127.912 290.059 127.912 289.897 127.912 289.585C127.912 289.273 127.912 288.771 127.912 288.228C127.912 286.953 127.912 285.298 127.912 283.264L127.994 283.359H106.007C106.007 283.359 105.871 283.508 106.156 283.223V290.005L106.007 289.869L121.7 289.937H126.312H127.994C127.858 289.953 127.722 289.953 127.587 289.937H126.366H121.795H106.007H105.871V283.06L106.007 282.925H127.994H128.089V283.02C128.089 285.068 128.089 286.75 128.089 288.025C128.089 288.54 128.089 288.974 128.089 289.381C128.089 289.788 127.912 290.059 127.912 290.059Z" fill="#D2AE6D"/>
<path d="M217.718 427.596C217.718 427.596 217.718 427.42 217.718 427.122C217.718 426.823 217.718 426.294 217.718 425.765C217.718 424.504 217.718 422.835 217.718 420.814L217.813 420.896H195.826L195.962 420.76V427.542L195.826 427.406H211.506H216.118H217.366H216.158H211.574H195.799H195.582V420.53L195.731 420.38H217.718H217.8V420.475C217.8 422.523 217.8 424.205 217.8 425.48C217.8 425.996 217.8 426.43 217.8 426.837C217.8 427.244 217.718 427.596 217.718 427.596Z" fill="#D2AE6D"/>
<path d="M212.67 315.613C212.67 315.613 212.67 315.437 212.67 315.125C212.67 314.813 212.67 314.311 212.67 313.769C212.67 312.494 212.67 310.839 212.67 308.804L212.765 308.899H190.778L190.928 308.75V310.473C190.928 311.042 190.928 311.625 190.928 312.182V315.505L190.792 315.355L206.472 315.423H211.083H212.331H212.779H211.151H206.567H190.792H190.656V308.533C190.941 308.262 190.738 308.465 190.792 308.397H212.779H212.874V308.479C212.874 310.54 212.874 312.209 212.874 313.497C212.874 313.999 212.874 314.433 212.874 314.854C212.874 315.274 212.67 315.613 212.67 315.613Z" fill="#D2AE6D"/>
<path d="M217.715 322.382C217.696 322.211 217.696 322.038 217.715 321.867C217.715 321.446 217.715 320.998 217.715 320.51C217.715 319.154 217.715 317.513 217.715 315.641L217.837 315.749H209.319C209.319 315.749 209.59 315.478 209.468 315.614V319.127C209.468 320.252 209.468 321.324 209.468 322.355L209.333 322.219L215.45 322.287H217.2H217.851H217.254H215.531L209.333 322.355H209.143V322.233C209.143 321.202 209.143 320.13 209.143 319.005V315.492C209.021 315.614 209.319 315.315 209.278 315.342H217.797H217.905V315.464C217.905 317.363 217.905 319.032 217.905 320.415C217.905 320.903 217.905 321.351 217.905 321.772C217.905 322.192 217.715 322.382 217.715 322.382Z" fill="#D2AE6D"/>
<path d="M123.165 222.715C123.165 222.919 108.923 223 91.3717 222.905C73.8201 222.81 59.5781 222.58 59.5781 222.39C59.5781 222.2 73.8066 222.105 91.3717 222.2C108.937 222.295 123.165 222.525 123.165 222.715Z" fill="#455A64"/>
</svg>
